<svg xmlns="http://www.w3.org/2000/svg" width="64" height="64" fill="none" viewBox="0 0 64 64"><title>Astro LilyPond</title><path fill="#ef8294" d="M27.244 33.868c-4.731 0-8.566-4.95-8.566-12.322 0-7.535 3.55-10.942 5.053-12.047a.87.87 0 0 1 1.163.119c1.555 1.725 6.155 7.217 6.155 11.825 0 7.374.921 12.425-3.805 12.425m9.512 0c4.73 0 8.566-4.95 8.566-12.322 0-7.535-3.55-10.942-5.053-12.047a.873.873 0 0 0-1.163.119c-1.555 1.725-6.155 7.217-6.155 11.825 0 7.374-.921 12.425 3.805 12.425"/><path fill="#f4abba" d="M32 35.719c-9.02-9.16-5.795-11.363-24.937-17.827a.87.87 0 0 0-1.082.482c-3.147 7.355-2.388 12.838 7.33 15.516-3.736-.024-7.664.435-11.886.858a.873.873 0 0 0-.78.96c.567 5.407 6.31 13.173 19.564 8.934a4.7 4.7 0 0 0-.42 1.91c0 4.68 9.008 7.37 11.548 8.034.435.112.891.112 1.326 0 2.54-.665 11.55-3.353 11.55-8.034 0-.675-.156-1.31-.421-1.908 13.251 4.239 18.994-3.528 19.563-8.934a.873.873 0 0 0-.78-.96c-4.222-.424-8.149-.884-11.885-.858 9.717-2.678 10.474-8.161 7.329-15.516a.87.87 0 0 0-1.082-.484C37.796 24.354 41.019 26.56 32 35.72"/><path fill="#ea596e" d="M47.658 13.728a.977.977 0 0 0-1.625.012l-5.685 8.655-.743-.002c0-.04.008-.076.008-.116 0-6.415-5.55-10.115-7.172-11.06a.88.88 0 0 0-.877 0c-1.62.945-7.175 4.645-7.175 11.06 0 .04.008.076.008.116l-.743.002-5.687-8.655a.977.977 0 0 0-1.624-.01c-2.472 3.64-4.254 8.152-3.245 13.035 1.915 9.287 10.233 13.86 18.906 11.81 8.667 2.05 16.985-2.522 18.9-11.81 1.007-4.884-.774-9.398-3.246-13.037"/><path fill="#f4900c" d="m27.014 36.67-4.53-13.322h19.033l-4.531 13.321z"/><path fill="#ffdc5d" d="M22.483 23.348c-.01 2.197 7.915 3.573 14.264 2.477 2.955-.51 4.774-1.455 4.77-2.477.01-2.197-7.915-3.574-14.264-2.478-2.955.51-4.774 1.455-4.77 2.478"/><path fill="#ea596e" d="M32.002 44.124c-4.206 0-7.615-4.028-7.615-10.028 0-6.624 5.525-10.453 7.163-11.44a.88.88 0 0 1 .904 0c1.636.988 7.16 4.816 7.16 11.442 0 5.998-3.41 10.026-7.612 10.026"/><path fill="#ef8294" d="M56.424 24.438a.878.878 0 0 0-1.076-.857c-4.658 1.124-23.287 6.49-23.346 20.477-.061-13.987-18.69-19.353-23.348-20.476a.87.87 0 0 0-1.078.856c.037 4.276 1.743 19.682 24.42 19.686h.008c22.677-.004 24.383-15.41 24.42-19.686"/></svg>
