<?xml version="1.0" encoding="UTF-8"?>
<svg xmlns="http://www.w3.org/2000/svg" xmlns:xlink="http://www.w3.org/1999/xlink" width="511" height="82" viewBox="0 0 511 82">
<defs>
<g>
<g id="glyph-0-0">
<path d="M 11.25 -11.46875 L 10.5625 -11.46875 L 9.640625 -10.6875 C 8.546875 -11.3125 7.796875 -11.53125 6.65625 -11.53125 C 4.859375 -11.53125 3.3125 -10.890625 2.140625 -9.640625 C 1.09375 -8.515625 0.609375 -7.203125 0.609375 -5.484375 C 0.609375 -2.078125 2.828125 0.234375 6.078125 0.234375 C 7.03125 0.234375 7.984375 0 8.6875 -0.40625 C 9.078125 -0.640625 9.328125 -0.84375 9.796875 -1.3125 L 10.5625 0.21875 L 11.390625 0.21875 L 11.390625 -2.984375 C 11.390625 -3.984375 11.390625 -4.046875 11.5 -4.1875 C 11.671875 -4.359375 11.921875 -4.40625 12.796875 -4.421875 L 12.796875 -5.265625 L 7.234375 -5.265625 L 7.234375 -4.421875 L 7.40625 -4.421875 C 8.796875 -4.40625 8.8125 -4.390625 8.828125 -3.21875 L 8.828125 -2.984375 C 8.828125 -1.53125 7.90625 -0.578125 6.515625 -0.578125 C 5.5625 -0.578125 4.78125 -1.078125 4.390625 -1.921875 C 3.96875 -2.828125 3.734375 -4.109375 3.734375 -5.578125 C 3.734375 -7.234375 4.0625 -8.609375 4.640625 -9.546875 C 5.09375 -10.28125 5.921875 -10.71875 6.84375 -10.71875 C 8.6875 -10.71875 10.046875 -9.359375 10.5625 -6.984375 L 11.390625 -6.984375 Z M 11.25 -11.46875 "/>
</g>
<g id="glyph-0-1">
<path d="M 4.125 -7.40625 L 0.4375 -7.296875 L 0.4375 -6.5 L 0.65625 -6.5 C 1.609375 -6.484375 1.65625 -6.421875 1.65625 -5.03125 L 1.65625 -1.40625 C 1.640625 -1.1875 1.625 -1.09375 1.5625 -1 C 1.46875 -0.859375 1.15625 -0.796875 0.5 -0.796875 L 0.4375 -0.796875 L 0.4375 0 L 5.34375 0 L 5.34375 -0.796875 L 5.25 -0.796875 C 4.265625 -0.8125 4.125 -0.90625 4.125 -1.46875 Z M 2.84375 -11.53125 C 2.078125 -11.53125 1.453125 -10.90625 1.453125 -10.15625 C 1.453125 -9.390625 2.078125 -8.765625 2.8125 -8.765625 C 3.609375 -8.765625 4.234375 -9.375 4.234375 -10.15625 C 4.234375 -10.90625 3.59375 -11.53125 2.84375 -11.53125 Z M 2.84375 -11.53125 "/>
</g>
<g id="glyph-0-2">
<path d="M 9.140625 -7.40625 L 5.4375 -7.296875 L 5.4375 -6.5 L 5.6875 -6.5 C 6.65625 -6.484375 6.703125 -6.421875 6.6875 -4.984375 L 6.6875 -3.71875 C 6.6875 -2.9375 6.625 -2.515625 6.421875 -2.109375 C 6.171875 -1.578125 5.625 -1.21875 5.03125 -1.21875 C 4.25 -1.21875 3.90625 -1.703125 3.90625 -2.890625 L 3.90625 -7.40625 L 0.203125 -7.296875 L 0.203125 -6.5 L 0.453125 -6.5 C 1.421875 -6.484375 1.46875 -6.421875 1.453125 -4.984375 L 1.453125 -2.984375 C 1.453125 -1.828125 1.484375 -1.546875 1.703125 -1.109375 C 2.125 -0.234375 2.9375 0.234375 4.03125 0.234375 C 5.140625 0.234375 5.890625 -0.171875 6.796875 -1.28125 L 6.796875 0 L 10.4375 -0.171875 L 10.4375 -1.015625 L 10 -1.015625 C 9.1875 -1.015625 9.125 -1.09375 9.140625 -2.046875 Z M 9.140625 -7.40625 "/>
</g>
<g id="glyph-0-3">
<path d="M 4.015625 -11.53125 L 0.25 -11.296875 L 0.25 -10.5 L 0.546875 -10.5 C 1.5 -10.5 1.5625 -10.421875 1.546875 -9.046875 L 1.546875 -1.40625 C 1.53125 -1.1875 1.515625 -1.09375 1.453125 -1 C 1.34375 -0.859375 1.046875 -0.796875 0.359375 -0.796875 L 0.296875 -0.796875 L 0.296875 0 L 5.1875 0 L 5.1875 -0.796875 L 5.078125 -0.796875 C 4.140625 -0.828125 4.015625 -0.90625 4.015625 -1.46875 Z M 4.015625 -11.53125 "/>
</g>
<g id="glyph-0-4">
<path d="M 4.828125 -7.640625 C 2.328125 -7.640625 0.484375 -5.953125 0.484375 -3.671875 C 0.484375 -1.40625 2.28125 0.234375 4.765625 0.234375 C 7.234375 0.234375 9.0625 -1.421875 9.0625 -3.65625 C 9.0625 -5.890625 7.203125 -7.640625 4.828125 -7.640625 Z M 4.796875 -6.828125 C 5.34375 -6.828125 5.84375 -6.453125 6.046875 -5.90625 C 6.234375 -5.390625 6.359375 -4.515625 6.359375 -3.671875 C 6.359375 -1.6875 5.796875 -0.578125 4.78125 -0.578125 C 3.71875 -0.578125 3.1875 -1.625 3.1875 -3.6875 C 3.1875 -5.78125 3.71875 -6.828125 4.796875 -6.828125 Z M 4.796875 -6.828125 "/>
</g>
<g id="glyph-0-5">
</g>
<g id="glyph-0-6">
<path d="M 10.921875 -11.46875 L 10.25 -11.46875 L 9.40625 -10.703125 C 8.375 -11.328125 7.671875 -11.53125 6.546875 -11.53125 C 4.796875 -11.53125 3.328125 -10.9375 2.203125 -9.734375 C 1.140625 -8.609375 0.625 -7.21875 0.625 -5.515625 C 0.625 -3.875 1.09375 -2.59375 2.109375 -1.484375 C 3.1875 -0.296875 4.515625 0.234375 6.359375 0.234375 C 9.125 0.234375 10.703125 -1.09375 11.3125 -3.90625 L 10.34375 -4.15625 C 9.921875 -1.96875 8.671875 -0.734375 6.875 -0.734375 C 4.75 -0.734375 3.734375 -2.34375 3.734375 -5.796875 C 3.734375 -9.046875 4.75 -10.71875 6.671875 -10.71875 C 8.40625 -10.71875 9.546875 -9.515625 10.25 -6.90625 L 11.078125 -7 Z M 10.921875 -11.46875 "/>
</g>
<g id="glyph-0-7">
<path d="M 8.453125 -3.5625 L 8.453125 -3.8125 C 8.453125 -6.15625 7.015625 -7.640625 4.71875 -7.640625 C 3.4375 -7.640625 2.40625 -7.234375 1.625 -6.4375 C 0.921875 -5.703125 0.5 -4.671875 0.5 -3.625 C 0.5 -2.5 0.984375 -1.390625 1.765625 -0.71875 C 2.484375 -0.109375 3.53125 0.234375 4.734375 0.234375 C 6.5625 0.234375 7.765625 -0.578125 8.453125 -2.25 L 7.6875 -2.5625 C 7.0625 -1.34375 6.375 -0.828125 5.34375 -0.828125 C 4.625 -0.828125 4 -1.171875 3.59375 -1.765625 C 3.328125 -2.1875 3.21875 -2.671875 3.203125 -3.5625 Z M 3.21875 -4.4375 C 3.21875 -5.921875 3.8125 -6.828125 4.765625 -6.828125 C 5.578125 -6.828125 6 -6.171875 6 -4.9375 C 6 -4.5625 5.890625 -4.4375 5.578125 -4.4375 Z M 3.21875 -4.4375 "/>
</g>
<g id="glyph-0-8">
<path d="M 6.875 -7.484375 L 6.203125 -7.484375 L 5.625 -7.140625 C 5.03125 -7.484375 4.453125 -7.640625 3.671875 -7.640625 C 1.90625 -7.640625 0.65625 -6.59375 0.65625 -5.109375 C 0.65625 -4.515625 0.875 -3.96875 1.3125 -3.546875 C 1.78125 -3.09375 2.234375 -2.875 3.25 -2.65625 L 4.40625 -2.40625 C 5.1875 -2.234375 5.5 -1.96875 5.5 -1.5 C 5.5 -0.9375 4.984375 -0.578125 4.15625 -0.578125 C 2.9375 -0.578125 2.046875 -1.25 1.296875 -2.734375 L 0.59375 -2.734375 L 0.671875 -0.03125 L 1.328125 -0.03125 L 1.9375 -0.3125 C 2.53125 0.03125 3.328125 0.234375 4.15625 0.234375 C 6 0.234375 7.296875 -0.859375 7.296875 -2.421875 C 7.296875 -3.078125 7.0625 -3.625 6.625 -4.03125 C 6.21875 -4.390625 5.890625 -4.53125 4.765625 -4.8125 L 3.34375 -5.15625 C 2.578125 -5.359375 2.375 -5.515625 2.375 -5.921875 C 2.375 -6.453125 2.90625 -6.828125 3.6875 -6.828125 C 4.703125 -6.828125 5.4375 -6.296875 6.203125 -5.015625 L 6.9375 -5.015625 Z M 6.875 -7.484375 "/>
</g>
<g id="glyph-0-9">
<path d="M 8.078125 -4.984375 C 8.078125 -6 7.890625 -6.484375 7.34375 -6.9375 C 6.765625 -7.390625 5.796875 -7.640625 4.5625 -7.640625 C 2.390625 -7.640625 0.984375 -6.84375 0.984375 -5.625 C 0.984375 -4.953125 1.515625 -4.453125 2.25 -4.453125 C 2.984375 -4.453125 3.53125 -4.890625 3.53125 -5.46875 C 3.53125 -5.65625 3.453125 -5.875 3.3125 -6.0625 C 3.171875 -6.25 3.171875 -6.25 3.171875 -6.328125 C 3.171875 -6.59375 3.6875 -6.828125 4.328125 -6.828125 C 5.28125 -6.828125 5.625 -6.4375 5.625 -5.34375 L 5.625 -4.53125 C 5.546875 -4.515625 5.234375 -4.4375 4.65625 -4.3125 C 3.671875 -4.109375 3.3125 -4.015625 2.640625 -3.765625 C 1.1875 -3.28125 0.5625 -2.625 0.5625 -1.59375 C 0.5625 -0.4375 1.4375 0.234375 2.96875 0.234375 C 4.328125 0.234375 5.140625 -0.0625 5.96875 -0.875 C 6.234375 -0.171875 6.828125 0.234375 7.625 0.234375 C 8.515625 0.234375 9.34375 -0.390625 9.34375 -1.0625 C 9.34375 -1.21875 9.265625 -1.3125 9.109375 -1.3125 C 9.015625 -1.3125 8.921875 -1.28125 8.796875 -1.203125 C 8.65625 -1.109375 8.609375 -1.09375 8.5 -1.09375 C 8.15625 -1.09375 8.078125 -1.296875 8.078125 -2.21875 Z M 5.625 -3.671875 L 5.625 -2.796875 C 5.625 -1.59375 5.078125 -0.828125 4.1875 -0.828125 C 3.5625 -0.828125 3.171875 -1.25 3.171875 -1.90625 C 3.171875 -2.75 3.65625 -3.21875 4.796875 -3.484375 Z M 5.625 -3.671875 "/>
</g>
<g id="glyph-0-10">
<path d="M 3.765625 -7.40625 L 0.28125 -7.296875 L 0.28125 -6.5 L 0.515625 -6.5 C 1.484375 -6.484375 1.53125 -6.421875 1.515625 -4.984375 L 1.515625 -1.40625 C 1.5 -1.1875 1.484375 -1.09375 1.421875 -1 C 1.3125 -0.859375 1.015625 -0.796875 0.34375 -0.796875 L 0.28125 -0.796875 L 0.28125 0 L 5.515625 0 L 5.515625 -0.796875 L 5.171875 -0.796875 C 4.125 -0.8125 4 -0.890625 4 -1.46875 L 4 -2.5625 C 4.0625 -4.890625 4.71875 -6.3125 5.84375 -6.609375 C 5.640625 -6.328125 5.578125 -6.15625 5.578125 -5.875 C 5.578125 -5.203125 6.078125 -4.71875 6.75 -4.71875 C 7.515625 -4.71875 8.09375 -5.296875 8.09375 -6.0625 C 8.09375 -6.96875 7.375 -7.640625 6.375 -7.640625 C 5.171875 -7.640625 4.328125 -6.953125 3.765625 -5.515625 Z M 3.765625 -7.40625 "/>
</g>
<g id="glyph-0-11">
<path d="M 3.890625 -7.40625 L 0.3125 -7.296875 L 0.3125 -6.5 L 0.546875 -6.5 C 1.515625 -6.484375 1.5625 -6.421875 1.546875 -4.984375 L 1.546875 -1.40625 C 1.53125 -1.1875 1.515625 -1.09375 1.453125 -1 C 1.34375 -0.859375 1.046875 -0.796875 0.375 -0.796875 L 0.3125 -0.796875 L 0.3125 0 L 5.09375 0 L 5.09375 -0.796875 C 4.203125 -0.796875 4 -0.921875 4.015625 -1.46875 L 4.015625 -3.765625 C 4.015625 -4.484375 4.078125 -4.890625 4.265625 -5.265625 C 4.515625 -5.828125 5.0625 -6.1875 5.625 -6.1875 C 6.359375 -6.1875 6.765625 -5.65625 6.765625 -4.65625 L 6.765625 -1.40625 C 6.75 -1.1875 6.734375 -1.09375 6.671875 -1 C 6.515625 -0.84375 6.21875 -0.78125 5.6875 -0.796875 L 5.6875 0 L 10.453125 0 L 10.453125 -0.796875 L 10.390625 -0.796875 C 9.34375 -0.8125 9.21875 -0.890625 9.21875 -1.46875 L 9.21875 -4.875 C 9.21875 -5.84375 9.046875 -6.4375 8.625 -6.890625 C 8.203125 -7.375 7.515625 -7.640625 6.6875 -7.640625 C 5.453125 -7.640625 4.671875 -7.1875 3.890625 -6.03125 Z M 3.890625 -7.40625 "/>
</g>
<g id="glyph-0-12">
<path d="M 10.75 -11.296875 L 0.25 -11.296875 L 0.25 -10.453125 L 0.484375 -10.453125 C 1.3125 -10.453125 1.625 -10.390625 1.765625 -10.21875 C 1.875 -10.0625 1.875 -10.015625 1.875 -9.046875 L 1.875 -2.25 C 1.875 -1.28125 1.875 -1.234375 1.765625 -1.078125 C 1.625 -0.90625 1.3125 -0.84375 0.484375 -0.84375 L 0.25 -0.84375 L 0.25 0 L 10.875 0 L 11.0625 -4.21875 L 10.234375 -4.21875 C 9.640625 -1.9375 8.46875 -0.859375 6.578125 -0.84375 L 6.109375 -0.84375 C 4.96875 -0.8125 4.6875 -1.03125 4.703125 -1.953125 L 4.703125 -5.421875 L 4.96875 -5.421875 C 6.203125 -5.421875 6.953125 -4.640625 7.125 -3.1875 L 7.96875 -3.1875 L 7.96875 -8.5 L 7.125 -8.5 C 6.953125 -7.0625 6.203125 -6.28125 4.96875 -6.28125 L 4.703125 -6.28125 L 4.703125 -9.109375 C 4.671875 -10.203125 4.890625 -10.4375 6.046875 -10.453125 L 6.484375 -10.453125 C 8.4375 -10.40625 9.375 -9.5625 10.03125 -7.234375 L 10.84375 -7.234375 Z M 10.75 -11.296875 "/>
</g>
<g id="glyph-0-13">
<path d="M 4.125 -1.515625 C 3.28125 -1.515625 3.09375 -1.59375 3.09375 -1.96875 C 3.09375 -2.359375 3.375 -2.484375 4.296875 -2.484375 L 4.578125 -2.484375 C 5.609375 -2.484375 6.1875 -2.578125 6.78125 -2.859375 C 7.6875 -3.265625 8.21875 -4.078125 8.21875 -5.046875 C 8.21875 -5.78125 7.96875 -6.25 7.28125 -6.8125 C 7.484375 -7.109375 7.671875 -7.25 7.859375 -7.25 C 7.90625 -7.25 7.9375 -7.234375 7.9375 -7.171875 L 7.9375 -7.109375 C 7.9375 -6.75 8.34375 -6.40625 8.78125 -6.40625 C 9.328125 -6.40625 9.75 -6.84375 9.75 -7.40625 C 9.75 -8.015625 9.28125 -8.421875 8.59375 -8.421875 C 7.875 -8.421875 7.28125 -8.046875 6.59375 -7.1875 C 6 -7.484375 5.296875 -7.640625 4.5 -7.640625 C 2.34375 -7.640625 0.796875 -6.515625 0.796875 -4.96875 C 0.796875 -3.890625 1.390625 -3.140625 2.515625 -2.75 C 1.28125 -2.515625 0.703125 -2.03125 0.703125 -1.21875 C 0.703125 -0.53125 1.203125 -0.015625 2.125 0.234375 C 1.078125 0.390625 0.46875 0.890625 0.46875 1.625 C 0.46875 2.65625 1.71875 3.15625 4.296875 3.15625 C 7.203125 3.15625 8.828125 2.234375 8.828125 0.5625 C 8.828125 -0.3125 8.3125 -1.046875 7.53125 -1.28125 C 7.015625 -1.453125 6.328125 -1.515625 5.203125 -1.515625 Z M 4.546875 -6.828125 C 5.296875 -6.828125 5.6875 -6.203125 5.6875 -5.015625 C 5.6875 -3.875 5.265625 -3.234375 4.53125 -3.234375 C 4.0625 -3.234375 3.75 -3.40625 3.578125 -3.796875 C 3.40625 -4.15625 3.328125 -4.609375 3.328125 -5.109375 C 3.328125 -6.265625 3.734375 -6.828125 4.546875 -6.828125 Z M 5.140625 0.671875 C 6.109375 0.671875 6.296875 0.703125 6.5625 0.875 C 6.703125 0.96875 6.796875 1.171875 6.796875 1.390625 C 6.796875 2.03125 6.015625 2.34375 4.40625 2.34375 C 3.1875 2.34375 2.5 2.015625 2.5 1.4375 C 2.5 1.09375 2.6875 0.84375 3.078125 0.671875 Z M 5.140625 0.671875 "/>
</g>
<g id="glyph-0-14">
<path d="M 5.96875 -7.40625 L 3.9375 -7.40625 L 3.9375 -10.5 L 2.9375 -10.5 C 2.6875 -8.5 1.84375 -7.453125 0.359375 -7.28125 L 0.359375 -6.46875 L 1.46875 -6.46875 L 1.46875 -2.71875 C 1.46875 -1.4375 1.53125 -1.0625 1.796875 -0.625 C 2.125 -0.078125 2.796875 0.234375 3.6875 0.234375 C 4.59375 0.234375 5.296875 -0.0625 5.71875 -0.609375 C 6.109375 -1.125 6.34375 -1.859375 6.34375 -2.546875 C 6.34375 -2.625 6.34375 -2.75 6.328125 -2.90625 L 5.5 -2.90625 C 5.515625 -1.734375 5.15625 -1.09375 4.515625 -1.09375 C 4.0625 -1.09375 3.9375 -1.375 3.9375 -2.4375 L 3.9375 -6.46875 L 5.96875 -6.46875 Z M 5.96875 -7.40625 "/>
</g>
<g id="glyph-1-0">
<path d="M 6.5 -8.0625 L 6 -8.0625 L 5.4375 -7.5625 C 4.796875 -7.96875 4.21875 -8.15625 3.453125 -8.15625 C 1.734375 -8.15625 0.578125 -7.15625 0.578125 -5.6875 C 0.578125 -4.34375 1.578125 -3.375 3.3125 -3.046875 L 4 -2.921875 C 4.71875 -2.78125 4.921875 -2.734375 5.1875 -2.59375 C 5.5 -2.421875 5.671875 -2.109375 5.671875 -1.703125 C 5.671875 -0.921875 5.046875 -0.40625 4.078125 -0.40625 C 2.828125 -0.40625 1.734375 -1.390625 1.125 -3.046875 L 0.5625 -3.046875 L 0.625 0.078125 L 1.125 0.078125 L 1.8125 -0.578125 C 2.484375 -0.0625 3.1875 0.171875 4.078125 0.171875 C 5.8125 0.171875 7 -0.90625 7 -2.46875 C 7 -3.875 6.171875 -4.65625 4.265625 -5.078125 L 3.734375 -5.203125 C 2.875 -5.359375 2.875 -5.359375 2.59375 -5.46875 C 2.09375 -5.640625 1.84375 -5.96875 1.84375 -6.421875 C 1.84375 -7.109375 2.46875 -7.578125 3.34375 -7.578125 C 4.484375 -7.578125 5.40625 -6.78125 6.0625 -5.203125 L 6.65625 -5.203125 Z M 6.5 -8.0625 "/>
</g>
<g id="glyph-1-1">
<path d="M 5.96875 -2.515625 L 5.96875 -2.703125 C 5.96875 -4.34375 4.953125 -5.40625 3.328125 -5.40625 C 2.4375 -5.40625 1.703125 -5.109375 1.15625 -4.546875 C 0.65625 -4.03125 0.359375 -3.296875 0.359375 -2.5625 C 0.359375 -1.765625 0.703125 -0.984375 1.25 -0.515625 C 1.765625 -0.078125 2.5 0.171875 3.34375 0.171875 C 4.640625 0.171875 5.484375 -0.40625 5.96875 -1.59375 L 5.4375 -1.8125 C 4.984375 -0.953125 4.5 -0.59375 3.765625 -0.59375 C 3.265625 -0.59375 2.828125 -0.828125 2.546875 -1.25 C 2.359375 -1.546875 2.28125 -1.890625 2.265625 -2.515625 Z M 2.28125 -3.125 C 2.28125 -4.1875 2.703125 -4.828125 3.359375 -4.828125 C 3.9375 -4.828125 4.234375 -4.359375 4.234375 -3.484375 C 4.234375 -3.21875 4.15625 -3.125 3.9375 -3.125 Z M 2.28125 -3.125 "/>
</g>
<g id="glyph-1-2">
<path d="M 4.859375 -5.28125 L 4.375 -5.28125 L 3.96875 -5.046875 C 3.546875 -5.28125 3.140625 -5.40625 2.59375 -5.40625 C 1.34375 -5.40625 0.46875 -4.65625 0.46875 -3.609375 C 0.46875 -3.1875 0.625 -2.796875 0.921875 -2.515625 C 1.265625 -2.1875 1.578125 -2.03125 2.296875 -1.875 L 3.109375 -1.703125 C 3.65625 -1.578125 3.890625 -1.390625 3.890625 -1.0625 C 3.890625 -0.65625 3.515625 -0.40625 2.9375 -0.40625 C 2.078125 -0.40625 1.453125 -0.890625 0.921875 -1.9375 L 0.421875 -1.9375 L 0.46875 -0.015625 L 0.9375 -0.015625 L 1.375 -0.21875 C 1.796875 0.015625 2.359375 0.171875 2.9375 0.171875 C 4.234375 0.171875 5.15625 -0.609375 5.15625 -1.71875 C 5.15625 -2.171875 4.984375 -2.5625 4.671875 -2.84375 C 4.390625 -3.09375 4.15625 -3.203125 3.359375 -3.390625 L 2.375 -3.640625 C 1.828125 -3.78125 1.6875 -3.890625 1.6875 -4.1875 C 1.6875 -4.5625 2.0625 -4.828125 2.609375 -4.828125 C 3.3125 -4.828125 3.84375 -4.453125 4.375 -3.546875 L 4.90625 -3.546875 Z M 4.859375 -5.28125 "/>
</g>
<g id="glyph-1-3">
<path d="M 4.21875 -5.234375 L 2.78125 -5.234375 L 2.78125 -7.421875 L 2.078125 -7.421875 C 1.90625 -6 1.3125 -5.265625 0.25 -5.140625 L 0.25 -4.5625 L 1.046875 -4.5625 L 1.046875 -1.921875 C 1.046875 -1.015625 1.078125 -0.75 1.265625 -0.4375 C 1.5 -0.0625 1.984375 0.171875 2.609375 0.171875 C 3.234375 0.171875 3.734375 -0.046875 4.03125 -0.4375 C 4.3125 -0.796875 4.484375 -1.3125 4.484375 -1.796875 C 4.484375 -1.859375 4.484375 -1.953125 4.46875 -2.0625 L 3.890625 -2.0625 C 3.890625 -1.234375 3.640625 -0.78125 3.1875 -0.78125 C 2.859375 -0.78125 2.78125 -0.96875 2.78125 -1.71875 L 2.78125 -4.5625 L 4.21875 -4.5625 Z M 4.21875 -5.234375 "/>
</g>
<g id="glyph-1-4">
<path d="M 3.40625 -5.40625 C 1.640625 -5.40625 0.34375 -4.203125 0.34375 -2.59375 C 0.34375 -1 1.609375 0.171875 3.359375 0.171875 C 5.109375 0.171875 6.40625 -1 6.40625 -2.59375 C 6.40625 -4.15625 5.09375 -5.40625 3.40625 -5.40625 Z M 3.390625 -4.828125 C 3.765625 -4.828125 4.125 -4.5625 4.265625 -4.171875 C 4.40625 -3.8125 4.484375 -3.1875 4.484375 -2.59375 C 4.484375 -1.1875 4.09375 -0.40625 3.375 -0.40625 C 2.640625 -0.40625 2.25 -1.15625 2.25 -2.609375 C 2.25 -4.078125 2.640625 -4.828125 3.390625 -4.828125 Z M 3.390625 -4.828125 "/>
</g>
<g id="glyph-1-5">
<path d="M 1.65625 -1.90625 C 1.09375 -1.90625 0.625 -1.4375 0.625 -0.875 C 0.625 -0.3125 1.09375 0.171875 1.640625 0.171875 C 2.234375 0.171875 2.703125 -0.28125 2.703125 -0.875 C 2.703125 -1.4375 2.234375 -1.90625 1.65625 -1.90625 Z M 1.65625 -5.328125 C 1.09375 -5.328125 0.625 -4.859375 0.625 -4.296875 C 0.625 -3.734375 1.09375 -3.25 1.640625 -3.25 C 2.234375 -3.25 2.703125 -3.703125 2.703125 -4.296875 C 2.703125 -4.859375 2.234375 -5.328125 1.65625 -5.328125 Z M 1.65625 -5.328125 "/>
</g>
<g id="glyph-1-6">
</g>
<g id="glyph-1-7">
<path d="M 3.953125 -1.546875 L 2.765625 -4.140625 C 2.703125 -4.265625 2.671875 -4.359375 2.671875 -4.421875 C 2.671875 -4.609375 2.828125 -4.671875 3.25 -4.671875 L 3.25 -5.234375 L 0.125 -5.234375 L 0.125 -4.671875 C 0.546875 -4.65625 0.65625 -4.5625 0.890625 -4.09375 L 2.921875 0.15625 L 3.859375 0.15625 L 5.5625 -3.6875 C 5.875 -4.453125 6.125 -4.671875 6.609375 -4.671875 L 6.609375 -5.234375 L 4.109375 -5.234375 L 4.109375 -4.671875 C 4.71875 -4.671875 4.953125 -4.5625 4.953125 -4.234375 C 4.953125 -4.078125 4.9375 -4.015625 4.75 -3.578125 Z M 3.953125 -1.546875 "/>
</g>
<g id="glyph-1-8">
<path d="M 2.90625 -1.078125 C 2.328125 -1.078125 2.1875 -1.125 2.1875 -1.390625 C 2.1875 -1.671875 2.390625 -1.765625 3.03125 -1.765625 L 3.234375 -1.765625 C 3.953125 -1.765625 4.375 -1.828125 4.796875 -2.03125 C 5.4375 -2.3125 5.8125 -2.875 5.8125 -3.5625 C 5.8125 -4.078125 5.625 -4.40625 5.140625 -4.8125 C 5.28125 -5.015625 5.421875 -5.125 5.546875 -5.125 C 5.59375 -5.125 5.609375 -5.109375 5.609375 -5.0625 L 5.609375 -5.015625 C 5.609375 -4.765625 5.890625 -4.53125 6.203125 -4.53125 C 6.59375 -4.53125 6.890625 -4.828125 6.890625 -5.234375 C 6.890625 -5.65625 6.5625 -5.953125 6.078125 -5.953125 C 5.5625 -5.953125 5.140625 -5.6875 4.65625 -5.078125 C 4.234375 -5.28125 3.734375 -5.40625 3.171875 -5.40625 C 1.65625 -5.40625 0.5625 -4.609375 0.5625 -3.5 C 0.5625 -2.75 0.984375 -2.21875 1.78125 -1.953125 C 0.90625 -1.78125 0.5 -1.4375 0.5 -0.859375 C 0.5 -0.375 0.859375 -0.015625 1.5 0.171875 C 0.765625 0.28125 0.328125 0.625 0.328125 1.15625 C 0.328125 1.875 1.21875 2.234375 3.03125 2.234375 C 5.09375 2.234375 6.234375 1.578125 6.234375 0.390625 C 6.234375 -0.21875 5.875 -0.734375 5.328125 -0.90625 C 4.953125 -1.03125 4.46875 -1.078125 3.671875 -1.078125 Z M 3.203125 -4.828125 C 3.734375 -4.828125 4.015625 -4.375 4.015625 -3.546875 C 4.015625 -2.75 3.71875 -2.296875 3.203125 -2.296875 C 2.859375 -2.296875 2.65625 -2.40625 2.53125 -2.6875 C 2.40625 -2.9375 2.359375 -3.25 2.359375 -3.609375 C 2.359375 -4.421875 2.640625 -4.828125 3.203125 -4.828125 Z M 3.625 0.46875 C 4.3125 0.46875 4.453125 0.5 4.640625 0.625 C 4.734375 0.6875 4.796875 0.828125 4.796875 0.984375 C 4.796875 1.4375 4.25 1.65625 3.109375 1.65625 C 2.25 1.65625 1.765625 1.421875 1.765625 1.015625 C 1.765625 0.78125 1.90625 0.59375 2.171875 0.46875 Z M 3.625 0.46875 "/>
</g>
<g id="glyph-1-9">
<path d="M 2.828125 -8.15625 L 0.171875 -7.984375 L 0.171875 -7.421875 L 0.390625 -7.421875 C 1.0625 -7.421875 1.109375 -7.375 1.09375 -6.390625 L 1.09375 -1 C 1.078125 -0.84375 1.078125 -0.78125 1.03125 -0.703125 C 0.953125 -0.609375 0.734375 -0.5625 0.25 -0.5625 L 0.203125 -0.5625 L 0.203125 0 L 3.65625 0 L 3.65625 -0.5625 L 3.578125 -0.5625 C 2.921875 -0.59375 2.828125 -0.640625 2.828125 -1.046875 Z M 2.828125 -8.15625 "/>
</g>
<g id="glyph-1-10">
<path d="M 2.90625 -5.234375 L 0.3125 -5.15625 L 0.3125 -4.59375 L 0.46875 -4.59375 C 1.140625 -4.578125 1.171875 -4.53125 1.171875 -3.546875 L 1.171875 -1 C 1.15625 -0.84375 1.15625 -0.78125 1.109375 -0.703125 C 1.046875 -0.609375 0.8125 -0.5625 0.359375 -0.5625 L 0.3125 -0.5625 L 0.3125 0 L 3.765625 0 L 3.765625 -0.5625 L 3.703125 -0.5625 C 3.015625 -0.578125 2.90625 -0.640625 2.90625 -1.046875 Z M 2.015625 -8.15625 C 1.46875 -8.15625 1.03125 -7.703125 1.03125 -7.171875 C 1.03125 -6.640625 1.46875 -6.1875 1.984375 -6.1875 C 2.5625 -6.1875 2.984375 -6.625 2.984375 -7.171875 C 2.984375 -7.703125 2.546875 -8.15625 2.015625 -8.15625 Z M 2.015625 -8.15625 "/>
</g>
<g id="glyph-1-11">
<path d="M 5.703125 -3.515625 C 5.703125 -4.234375 5.578125 -4.578125 5.1875 -4.90625 C 4.78125 -5.21875 4.09375 -5.40625 3.21875 -5.40625 C 1.6875 -5.40625 0.703125 -4.828125 0.703125 -3.96875 C 0.703125 -3.5 1.078125 -3.140625 1.59375 -3.140625 C 2.109375 -3.140625 2.5 -3.453125 2.5 -3.859375 C 2.5 -4 2.4375 -4.140625 2.34375 -4.28125 C 2.25 -4.40625 2.25 -4.40625 2.25 -4.46875 C 2.25 -4.65625 2.609375 -4.828125 3.046875 -4.828125 C 3.734375 -4.828125 3.96875 -4.546875 3.96875 -3.765625 L 3.96875 -3.203125 C 3.921875 -3.1875 3.6875 -3.125 3.28125 -3.046875 C 2.59375 -2.890625 2.34375 -2.828125 1.875 -2.671875 C 0.84375 -2.328125 0.390625 -1.859375 0.390625 -1.125 C 0.390625 -0.3125 1.015625 0.171875 2.109375 0.171875 C 3.046875 0.171875 3.625 -0.046875 4.21875 -0.625 C 4.40625 -0.125 4.828125 0.171875 5.390625 0.171875 C 6.015625 0.171875 6.609375 -0.28125 6.609375 -0.75 C 6.609375 -0.859375 6.546875 -0.921875 6.4375 -0.921875 C 6.375 -0.921875 6.3125 -0.90625 6.21875 -0.859375 C 6.125 -0.78125 6.078125 -0.78125 6 -0.78125 C 5.765625 -0.78125 5.703125 -0.921875 5.703125 -1.578125 Z M 3.96875 -2.59375 L 3.96875 -1.984375 C 3.96875 -1.125 3.578125 -0.59375 2.953125 -0.59375 C 2.515625 -0.59375 2.25 -0.890625 2.25 -1.34375 C 2.25 -1.953125 2.59375 -2.28125 3.390625 -2.46875 Z M 3.96875 -2.59375 "/>
</g>
<g id="glyph-1-12">
<path d="M 2.75 -5.234375 L 0.21875 -5.15625 L 0.21875 -4.59375 L 0.390625 -4.59375 C 1.078125 -4.578125 1.109375 -4.53125 1.09375 -3.515625 L 1.09375 -1 C 1.078125 -0.84375 1.078125 -0.78125 1.03125 -0.703125 C 0.953125 -0.609375 0.734375 -0.5625 0.265625 -0.5625 L 0.21875 -0.5625 L 0.21875 0 L 3.59375 0 L 3.59375 -0.5625 C 2.96875 -0.5625 2.828125 -0.65625 2.828125 -1.046875 L 2.828125 -2.671875 C 2.828125 -3.15625 2.875 -3.453125 3.015625 -3.71875 C 3.1875 -4.109375 3.578125 -4.375 3.96875 -4.375 C 4.484375 -4.375 4.78125 -4 4.78125 -3.28125 L 4.78125 -1 C 4.765625 -0.84375 4.75 -0.78125 4.71875 -0.703125 C 4.609375 -0.59375 4.390625 -0.546875 4.015625 -0.5625 L 4.015625 0 L 7.390625 0 L 7.390625 -0.5625 L 7.34375 -0.5625 C 6.609375 -0.578125 6.515625 -0.625 6.515625 -1.046875 L 6.515625 -3.4375 C 6.515625 -4.125 6.390625 -4.546875 6.09375 -4.875 C 5.796875 -5.203125 5.3125 -5.40625 4.71875 -5.40625 C 3.84375 -5.40625 3.296875 -5.078125 2.75 -4.265625 Z M 2.75 -5.234375 "/>
</g>
<g id="glyph-1-13">
<path d="M 5.25 -1.953125 C 5.09375 -1.546875 5 -1.375 4.828125 -1.15625 C 4.5625 -0.796875 4.140625 -0.59375 3.671875 -0.59375 C 2.765625 -0.59375 2.25 -1.359375 2.25 -2.734375 C 2.25 -4.0625 2.75 -4.828125 3.578125 -4.828125 C 3.890625 -4.828125 4.140625 -4.6875 4.140625 -4.515625 C 4.140625 -4.46875 4.140625 -4.46875 4.03125 -4.3125 C 3.84375 -4.0625 3.8125 -3.96875 3.8125 -3.765625 C 3.8125 -3.28125 4.1875 -2.953125 4.71875 -2.953125 C 5.3125 -2.953125 5.703125 -3.3125 5.703125 -3.890625 C 5.703125 -4.8125 4.828125 -5.40625 3.5 -5.40625 C 1.65625 -5.40625 0.34375 -4.203125 0.34375 -2.53125 C 0.34375 -0.921875 1.53125 0.171875 3.3125 0.171875 C 4.140625 0.171875 4.671875 -0.0625 5.171875 -0.59375 C 5.484375 -0.921875 5.65625 -1.25 5.828125 -1.765625 Z M 5.25 -1.953125 "/>
</g>
<g id="glyph-1-14">
<path d="M 2.671875 -5.234375 L 0.203125 -5.15625 L 0.203125 -4.59375 L 0.359375 -4.59375 C 1.046875 -4.578125 1.078125 -4.53125 1.078125 -3.515625 L 1.078125 -1 C 1.0625 -0.84375 1.046875 -0.78125 1 -0.703125 C 0.921875 -0.609375 0.71875 -0.5625 0.25 -0.5625 L 0.203125 -0.5625 L 0.203125 0 L 3.890625 0 L 3.890625 -0.5625 L 3.65625 -0.5625 C 2.90625 -0.578125 2.828125 -0.625 2.828125 -1.046875 L 2.828125 -1.8125 C 2.859375 -3.453125 3.328125 -4.453125 4.125 -4.671875 C 3.984375 -4.46875 3.9375 -4.34375 3.9375 -4.140625 C 3.9375 -3.671875 4.296875 -3.328125 4.765625 -3.328125 C 5.3125 -3.328125 5.71875 -3.734375 5.71875 -4.28125 C 5.71875 -4.921875 5.203125 -5.40625 4.5 -5.40625 C 3.65625 -5.40625 3.046875 -4.90625 2.671875 -3.890625 Z M 2.671875 -5.234375 "/>
</g>
<g id="glyph-1-15">
<path d="M 0.734375 2.0625 C 1.96875 1.3125 2.609375 0.40625 2.609375 -0.59375 C 2.609375 -1.375 2.15625 -1.90625 1.5 -1.90625 C 0.890625 -1.90625 0.4375 -1.4375 0.4375 -0.828125 C 0.4375 -0.28125 0.828125 0.125 1.34375 0.125 C 1.375 0.125 1.421875 0.125 1.453125 0.109375 L 1.5 0.109375 C 1.53125 0.109375 1.53125 0.125 1.53125 0.171875 C 1.53125 0.59375 1.125 1.125 0.4375 1.609375 Z M 0.734375 2.0625 "/>
</g>
<g id="glyph-1-16">
<path d="M 4.234375 -5.234375 L 2.859375 -5.234375 L 2.859375 -5.859375 C 2.859375 -6.609375 2.875 -6.84375 2.984375 -7.09375 C 3.09375 -7.34375 3.359375 -7.53125 3.578125 -7.53125 C 3.6875 -7.53125 3.75 -7.5 3.75 -7.4375 C 3.75 -7.40625 3.734375 -7.390625 3.6875 -7.34375 C 3.53125 -7.21875 3.421875 -6.984375 3.421875 -6.765625 C 3.421875 -6.328125 3.78125 -6 4.25 -6 C 4.75 -6 5.140625 -6.390625 5.140625 -6.90625 C 5.140625 -7.59375 4.453125 -8.109375 3.53125 -8.109375 C 2.078125 -8.109375 1.125 -7.015625 1.125 -5.375 L 1.125 -5.234375 L 0.15625 -5.234375 L 0.15625 -4.5625 L 1.125 -4.5625 L 1.125 -0.984375 C 1.109375 -0.84375 1.09375 -0.765625 1.046875 -0.703125 C 0.96875 -0.609375 0.765625 -0.5625 0.28125 -0.546875 L 0.234375 -0.546875 L 0.234375 0 L 3.890625 0 L 3.890625 -0.546875 L 3.6875 -0.546875 C 2.953125 -0.578125 2.859375 -0.625 2.859375 -1.046875 L 2.859375 -4.5625 L 4.234375 -4.5625 Z M 4.234375 -5.234375 "/>
</g>
<g id="glyph-1-17">
<path d="M 6.453125 -5.234375 L 3.84375 -5.15625 L 3.84375 -4.59375 L 4.015625 -4.59375 C 4.703125 -4.578125 4.734375 -4.53125 4.71875 -3.515625 L 4.71875 -2.640625 C 4.71875 -2.078125 4.671875 -1.78125 4.53125 -1.5 C 4.359375 -1.125 3.96875 -0.859375 3.546875 -0.859375 C 3 -0.859375 2.765625 -1.203125 2.765625 -2.046875 L 2.765625 -5.234375 L 0.140625 -5.15625 L 0.140625 -4.59375 L 0.328125 -4.59375 C 1 -4.578125 1.046875 -4.53125 1.03125 -3.515625 L 1.03125 -2.109375 C 1.03125 -1.296875 1.046875 -1.09375 1.203125 -0.78125 C 1.5 -0.171875 2.078125 0.171875 2.84375 0.171875 C 3.625 0.171875 4.15625 -0.125 4.796875 -0.90625 L 4.796875 0 L 7.375 -0.125 L 7.375 -0.71875 L 7.0625 -0.71875 C 6.5 -0.71875 6.453125 -0.78125 6.453125 -1.453125 Z M 6.453125 -5.234375 "/>
</g>
<g id="glyph-1-18">
<path d="M 6.28125 -8.15625 L 3.484375 -7.984375 L 3.484375 -7.421875 L 3.84375 -7.421875 C 4.53125 -7.421875 4.546875 -7.375 4.546875 -6.390625 L 4.546875 -4.65625 C 4.125 -5.171875 3.625 -5.40625 2.9375 -5.40625 C 1.5 -5.40625 0.40625 -4.140625 0.40625 -2.53125 C 0.40625 -0.921875 1.390625 0.171875 2.828125 0.171875 C 3.625 0.171875 4.1875 -0.125 4.640625 -0.796875 L 4.640625 0 L 7.234375 -0.125 L 7.234375 -0.71875 L 6.9375 -0.71875 C 6.375 -0.703125 6.28125 -0.78125 6.28125 -1.34375 Z M 3.4375 -4.640625 C 4.125 -4.640625 4.5625 -3.859375 4.5625 -2.625 C 4.5625 -1.421875 4.109375 -0.59375 3.421875 -0.59375 C 2.703125 -0.59375 2.328125 -1.28125 2.328125 -2.5625 C 2.328125 -3.890625 2.734375 -4.640625 3.4375 -4.640625 Z M 3.4375 -4.640625 "/>
</g>
<g id="glyph-1-19">
<path d="M 1.578125 -4.609375 L 2.046875 -7.03125 C 2.0625 -7.15625 2.078125 -7.28125 2.078125 -7.375 C 2.078125 -7.828125 1.765625 -8.15625 1.328125 -8.15625 C 0.890625 -8.15625 0.578125 -7.828125 0.578125 -7.390625 C 0.578125 -7.28125 0.59375 -7.15625 0.609375 -7.03125 L 1.078125 -4.609375 Z M 1.578125 -4.609375 "/>
</g>
<g id="glyph-1-20">
<path d="M 2.75 -5.234375 L 0.21875 -5.15625 L 0.21875 -4.59375 L 0.390625 -4.59375 C 1.078125 -4.578125 1.125 -4.53125 1.109375 -3.546875 L 1.109375 -1 C 1.09375 -0.84375 1.078125 -0.78125 1.046875 -0.703125 C 0.96875 -0.609375 0.75 -0.5625 0.28125 -0.5625 L 0.21875 -0.5625 L 0.21875 0 L 3.484375 0 L 3.484375 -0.5625 C 2.828125 -0.59375 2.828125 -0.59375 2.84375 -1.59375 L 2.84375 -3.078125 C 2.84375 -3.875 3.234375 -4.375 3.84375 -4.375 C 4.28125 -4.375 4.453125 -4.078125 4.453125 -3.34375 L 4.453125 -1.59375 C 4.484375 -0.59375 4.46875 -0.59375 3.828125 -0.5625 L 3.828125 0 L 6.84375 0 L 6.84375 -0.5625 C 6.1875 -0.59375 6.171875 -0.59375 6.1875 -1.59375 L 6.1875 -3.078125 C 6.1875 -3.859375 6.59375 -4.375 7.203125 -4.375 C 7.625 -4.375 7.8125 -4.078125 7.8125 -3.390625 L 7.8125 -0.984375 C 7.8125 -0.84375 7.78125 -0.78125 7.75 -0.703125 C 7.65625 -0.59375 7.53125 -0.5625 7.171875 -0.5625 L 7.171875 0 L 10.421875 0 L 10.421875 -0.5625 L 10.375 -0.5625 C 9.640625 -0.578125 9.546875 -0.625 9.546875 -1.046875 L 9.546875 -3.796875 C 9.546875 -4.703125 8.796875 -5.40625 7.828125 -5.40625 C 7.109375 -5.40625 6.609375 -5.109375 6.078125 -4.40625 C 5.828125 -5.03125 5.25 -5.40625 4.515625 -5.40625 C 3.765625 -5.40625 3.1875 -5.0625 2.75 -4.359375 Z M 2.75 -5.234375 "/>
</g>
<g id="glyph-1-21">
<path d="M 4.03125 -5.234375 L 2.65625 -5.234375 L 2.65625 -5.859375 C 2.65625 -6.609375 2.671875 -6.84375 2.78125 -7.09375 C 2.890625 -7.34375 3.15625 -7.53125 3.375 -7.53125 C 3.484375 -7.53125 3.546875 -7.5 3.546875 -7.4375 C 3.546875 -7.40625 3.546875 -7.390625 3.5 -7.34375 C 3.328125 -7.21875 3.21875 -6.984375 3.21875 -6.765625 C 3.21875 -6.328125 3.578125 -6 4.046875 -6 C 4.5625 -6 4.9375 -6.390625 4.9375 -6.90625 C 4.9375 -7.59375 4.25 -8.109375 3.328125 -8.109375 C 1.875 -8.109375 0.921875 -7.015625 0.921875 -5.375 L 0.921875 -5.234375 L -0.046875 -5.234375 L -0.046875 -4.5625 L 0.921875 -4.5625 L 0.921875 -0.984375 C 0.90625 -0.84375 0.890625 -0.765625 0.859375 -0.703125 C 0.78125 -0.609375 0.5625 -0.5625 0.078125 -0.546875 L 0.03125 -0.546875 L 0.03125 0 L 3.6875 0 L 3.6875 -0.546875 L 3.484375 -0.546875 C 2.75 -0.578125 2.65625 -0.625 2.65625 -1.046875 L 2.65625 -4.5625 L 4.03125 -4.5625 Z M 8.34375 -5.234375 L 6.953125 -5.234375 L 6.953125 -5.859375 C 6.953125 -6.609375 6.984375 -6.84375 7.09375 -7.09375 C 7.203125 -7.34375 7.453125 -7.53125 7.671875 -7.53125 C 7.78125 -7.53125 7.859375 -7.5 7.859375 -7.4375 C 7.859375 -7.40625 7.84375 -7.390625 7.796875 -7.34375 C 7.640625 -7.21875 7.515625 -6.984375 7.515625 -6.765625 C 7.515625 -6.328125 7.875 -6 8.359375 -6 C 8.859375 -6 9.234375 -6.390625 9.234375 -6.90625 C 9.234375 -7.59375 8.546875 -8.109375 7.640625 -8.109375 C 6.1875 -8.109375 5.21875 -7.015625 5.21875 -5.375 L 5.21875 -5.234375 L 4.265625 -5.234375 L 4.265625 -4.5625 L 5.21875 -4.5625 L 5.21875 -0.984375 C 5.203125 -0.84375 5.203125 -0.765625 5.15625 -0.703125 C 5.078125 -0.609375 4.875 -0.5625 4.375 -0.546875 L 4.34375 -0.546875 L 4.34375 0 L 7.984375 0 L 7.984375 -0.546875 L 7.78125 -0.546875 C 7.0625 -0.578125 6.953125 -0.625 6.953125 -1.03125 L 6.953125 -4.5625 L 8.34375 -4.5625 Z M 8.34375 -5.234375 "/>
</g>
<g id="glyph-1-22">
<path d="M 3.734375 0.75 C 3.203125 0.359375 2.9375 0.078125 2.703125 -0.453125 C 2.359375 -1.1875 2.171875 -2.21875 2.171875 -3.421875 C 2.171875 -4.515625 2.328125 -5.4375 2.609375 -6.171875 C 2.859375 -6.84375 3.125 -7.171875 3.734375 -7.59375 L 3.734375 -8.15625 C 3 -7.765625 2.578125 -7.4375 2.078125 -6.875 C 1.25 -5.890625 0.796875 -4.6875 0.796875 -3.421875 C 0.796875 -2.25 1.1875 -1.125 1.90625 -0.1875 C 2.4375 0.46875 2.9375 0.890625 3.734375 1.3125 Z M 3.734375 0.75 "/>
</g>
<g id="glyph-1-23">
<path d="M 4.09375 -3.015625 L 5.25 -4.09375 C 5.703125 -4.515625 6.03125 -4.671875 6.5 -4.671875 L 6.5 -5.234375 L 3.78125 -5.234375 L 3.78125 -4.671875 L 4.03125 -4.671875 C 4.3125 -4.671875 4.484375 -4.578125 4.484375 -4.421875 C 4.484375 -4.296875 4.40625 -4.203125 4.25 -4.03125 L 3.6875 -3.5 L 3.046875 -4.265625 C 2.96875 -4.375 2.9375 -4.4375 2.9375 -4.484375 C 2.9375 -4.609375 3.0625 -4.671875 3.296875 -4.671875 L 3.421875 -4.671875 L 3.421875 -5.234375 L 0.140625 -5.234375 L 0.140625 -4.671875 C 0.46875 -4.65625 0.59375 -4.578125 0.890625 -4.234375 L 2.46875 -2.34375 L 1.125 -1.0625 C 0.734375 -0.703125 0.484375 -0.578125 0.140625 -0.5625 L 0.140625 0 L 2.734375 0 L 2.734375 -0.5625 L 2.59375 -0.5625 C 2.265625 -0.5625 2.0625 -0.671875 2.0625 -0.875 C 2.0625 -0.984375 2.125 -1.09375 2.21875 -1.1875 L 2.890625 -1.84375 L 3.546875 -1.0625 C 3.625 -0.96875 3.65625 -0.890625 3.65625 -0.8125 C 3.65625 -0.640625 3.53125 -0.5625 3.21875 -0.5625 L 3.140625 -0.5625 L 3.140625 0 L 6.609375 0 L 6.609375 -0.5625 C 6.203125 -0.578125 6.078125 -0.65625 5.625 -1.1875 Z M 4.09375 -3.015625 "/>
</g>
<g id="glyph-1-24">
<path d="M 2.8125 -5.234375 L 0.203125 -5.15625 L 0.203125 -4.59375 L 0.359375 -4.59375 C 1.046875 -4.578125 1.078125 -4.53125 1.078125 -3.515625 L 1.078125 1.234375 C 1.0625 1.390625 1.046875 1.453125 1 1.53125 C 0.9375 1.625 0.71875 1.671875 0.25 1.6875 L 0.203125 1.6875 L 0.203125 2.234375 L 3.765625 2.234375 L 3.765625 1.6875 L 3.65625 1.6875 C 2.890625 1.65625 2.8125 1.609375 2.8125 1.1875 L 2.8125 -0.546875 C 3.25 -0.0625 3.75 0.171875 4.375 0.171875 C 5.875 0.171875 6.984375 -1.078125 6.984375 -2.75 C 6.984375 -4.28125 5.96875 -5.40625 4.546875 -5.40625 C 3.78125 -5.40625 3.3125 -5.15625 2.8125 -4.53125 Z M 4.046875 -4.5625 C 4.71875 -4.5625 5.078125 -3.890625 5.078125 -2.5625 C 5.078125 -1.3125 4.671875 -0.59375 3.953125 -0.59375 C 3.21875 -0.59375 2.796875 -1.28125 2.796875 -2.53125 C 2.796875 -3.84375 3.234375 -4.5625 4.046875 -4.5625 Z M 4.046875 -4.5625 "/>
</g>
<g id="glyph-1-25">
<path d="M 0.546875 -7.59375 C 1.09375 -7.21875 1.34375 -6.921875 1.59375 -6.390625 C 1.9375 -5.65625 2.109375 -4.640625 2.109375 -3.421875 C 2.109375 -2.328125 1.96875 -1.40625 1.6875 -0.671875 C 1.421875 -0.015625 1.15625 0.328125 0.546875 0.75 L 0.546875 1.3125 C 1.296875 0.921875 1.71875 0.59375 2.21875 0.015625 C 3.046875 -0.953125 3.5 -2.15625 3.5 -3.421875 C 3.5 -4.609375 3.109375 -5.734375 2.375 -6.65625 C 1.859375 -7.328125 1.359375 -7.734375 0.546875 -8.15625 Z M 0.546875 -7.59375 "/>
</g>
<g id="glyph-1-26">
<path d="M 4.75 -2.28125 L 2.984375 -6.75 C 2.921875 -6.921875 2.890625 -7.046875 2.890625 -7.109375 C 2.890625 -7.3125 3.09375 -7.390625 3.578125 -7.390625 L 3.8125 -7.390625 L 3.8125 -7.984375 L -0.203125 -7.984375 L -0.203125 -7.390625 C 0.453125 -7.390625 0.625 -7.25 0.890625 -6.625 L 3.578125 0.171875 L 4.546875 0.171875 L 7.078125 -5.984375 C 7.4375 -6.859375 7.9375 -7.328125 8.609375 -7.390625 L 8.609375 -7.984375 L 5.34375 -7.984375 L 5.34375 -7.390625 C 6.0625 -7.375 6.421875 -7.140625 6.421875 -6.640625 C 6.421875 -6.5 6.390625 -6.390625 6.3125 -6.21875 Z M 4.75 -2.28125 "/>
</g>
<g id="glyph-1-27">
<path d="M 0.3125 0 L 4.609375 0 L 4.609375 -0.59375 L 4.453125 -0.59375 C 3.84375 -0.59375 3.625 -0.640625 3.53125 -0.765625 C 3.453125 -0.875 3.453125 -0.90625 3.453125 -1.59375 L 3.453125 -6.390625 C 3.453125 -7.078125 3.453125 -7.109375 3.53125 -7.21875 C 3.625 -7.34375 3.84375 -7.390625 4.453125 -7.390625 L 4.609375 -7.390625 L 4.609375 -7.984375 L 0.3125 -7.984375 L 0.3125 -7.390625 L 0.46875 -7.390625 C 1.0625 -7.390625 1.28125 -7.34375 1.375 -7.21875 C 1.453125 -7.109375 1.453125 -7.078125 1.453125 -6.390625 L 1.453125 -1.59375 C 1.453125 -0.90625 1.453125 -0.875 1.375 -0.765625 C 1.28125 -0.640625 1.0625 -0.59375 0.46875 -0.59375 L 0.3125 -0.59375 Z M 0.3125 0 "/>
</g>
<g id="glyph-2-0">
<path d="M 6.40625 -7.1875 L 6.03125 -7.1875 L 5.65625 -6.59375 C 5.015625 -7.09375 4.578125 -7.265625 3.859375 -7.265625 C 3.078125 -7.265625 2.46875 -7.046875 1.84375 -6.546875 C 0.875 -5.765625 0.421875 -4.765625 0.421875 -3.4375 C 0.421875 -2.421875 0.703125 -1.59375 1.28125 -0.953125 C 1.890625 -0.25 2.796875 0.140625 3.75 0.140625 C 4.578125 0.140625 5.15625 -0.109375 5.796875 -0.75 L 6.15625 0.140625 L 6.578125 0.140625 L 6.578125 -2.03125 C 6.578125 -2.53125 6.578125 -2.546875 6.640625 -2.640625 C 6.71875 -2.75 6.90625 -2.78125 7.46875 -2.78125 L 7.609375 -2.78125 L 7.609375 -3.25 L 4.46875 -3.25 L 4.46875 -2.78125 L 4.65625 -2.78125 C 5.484375 -2.78125 5.5625 -2.734375 5.5625 -2.171875 C 5.5625 -1.75 5.484375 -1.375 5.359375 -1.140625 C 5.109375 -0.65625 4.484375 -0.3125 3.84375 -0.3125 C 3.203125 -0.3125 2.578125 -0.640625 2.234375 -1.140625 C 1.875 -1.6875 1.71875 -2.375 1.71875 -3.4375 C 1.71875 -5.625 2.4375 -6.796875 3.8125 -6.796875 C 4.9375 -6.796875 5.71875 -6 6.125 -4.421875 L 6.546875 -4.421875 Z M 6.40625 -7.1875 "/>
</g>
<g id="glyph-2-1">
<path d="M 1.34375 -1.09375 C 1 -1.09375 0.734375 -0.8125 0.734375 -0.484375 C 0.734375 -0.140625 1 0.140625 1.34375 0.140625 C 1.6875 0.140625 1.96875 -0.140625 1.96875 -0.484375 C 1.96875 -0.8125 1.6875 -1.09375 1.34375 -1.09375 Z M 1.34375 -1.09375 "/>
</g>
<g id="glyph-2-2">
<path d="M 6.15625 -7.125 L 0.28125 -7.125 L 0.28125 -6.65625 L 0.46875 -6.65625 C 1.03125 -6.640625 1.21875 -6.609375 1.296875 -6.515625 C 1.34375 -6.421875 1.34375 -6.40625 1.34375 -5.90625 L 1.34375 -1.21875 C 1.34375 -0.703125 1.34375 -0.6875 1.296875 -0.59375 C 1.21875 -0.5 1.03125 -0.46875 0.46875 -0.46875 L 0.28125 -0.46875 L 0.28125 0 L 3.671875 0 L 3.671875 -0.46875 L 3.34375 -0.46875 C 2.78125 -0.46875 2.59375 -0.5 2.515625 -0.59375 C 2.453125 -0.6875 2.453125 -0.71875 2.453125 -1.21875 L 2.453125 -3.453125 L 2.65625 -3.453125 C 3.671875 -3.484375 4.03125 -3.125 4.078125 -2.03125 L 4.53125 -2.03125 L 4.53125 -5.265625 L 4.078125 -5.265625 C 4.015625 -4.296875 3.625 -3.921875 2.6875 -3.921875 L 2.453125 -3.921875 L 2.453125 -6.15625 C 2.4375 -6.578125 2.546875 -6.640625 3.078125 -6.65625 L 3.53125 -6.65625 C 5.140625 -6.671875 5.546875 -6.296875 5.859375 -4.609375 L 6.296875 -4.609375 Z M 6.15625 -7.125 "/>
</g>
<g id="glyph-2-3">
</g>
<g id="glyph-2-4">
<path d="M 5.765625 -3.421875 L 5.765625 -1.21875 C 5.765625 -0.703125 5.765625 -0.6875 5.703125 -0.59375 C 5.625 -0.5 5.4375 -0.46875 4.875 -0.46875 L 4.6875 -0.46875 L 4.6875 0 L 7.921875 0 L 7.921875 -0.46875 L 7.75 -0.46875 C 7.1875 -0.46875 7 -0.5 6.921875 -0.59375 C 6.859375 -0.6875 6.859375 -0.703125 6.859375 -1.21875 L 6.859375 -5.90625 C 6.859375 -6.421875 6.859375 -6.421875 6.921875 -6.515625 C 7.015625 -6.625 7.1875 -6.65625 7.75 -6.65625 L 7.921875 -6.65625 L 7.921875 -7.125 L 4.734375 -7.125 L 4.734375 -6.65625 L 4.875 -6.65625 C 5.4375 -6.65625 5.609375 -6.625 5.703125 -6.515625 C 5.765625 -6.421875 5.765625 -6.40625 5.765625 -5.90625 L 5.765625 -3.953125 L 2.453125 -3.953125 L 2.453125 -5.90625 C 2.453125 -6.40625 2.453125 -6.421875 2.53125 -6.515625 C 2.609375 -6.625 2.78125 -6.65625 3.34375 -6.65625 L 3.53125 -6.65625 L 3.53125 -7.125 L 0.28125 -7.125 L 0.28125 -6.65625 L 0.46875 -6.65625 C 1.03125 -6.65625 1.203125 -6.625 1.296875 -6.515625 C 1.34375 -6.421875 1.34375 -6.40625 1.34375 -5.90625 L 1.34375 -1.21875 C 1.34375 -0.71875 1.34375 -0.6875 1.296875 -0.59375 C 1.21875 -0.5 1.03125 -0.46875 0.46875 -0.46875 L 0.28125 -0.46875 L 0.28125 0 L 3.53125 0 L 3.53125 -0.46875 L 3.34375 -0.46875 C 2.78125 -0.46875 2.609375 -0.5 2.53125 -0.59375 C 2.453125 -0.6875 2.453125 -0.703125 2.453125 -1.21875 L 2.453125 -3.421875 Z M 5.765625 -3.421875 "/>
</g>
<g id="glyph-2-5">
<path d="M 4.453125 -3.171875 C 4.453125 -3.796875 4.34375 -4.109375 4.0625 -4.34375 C 3.734375 -4.609375 3.25 -4.75 2.625 -4.75 C 1.515625 -4.75 0.703125 -4.21875 0.703125 -3.5 C 0.703125 -3.140625 0.921875 -2.90625 1.265625 -2.90625 C 1.59375 -2.90625 1.796875 -3.109375 1.796875 -3.40625 C 1.796875 -3.53125 1.75 -3.671875 1.65625 -3.8125 C 1.59375 -3.875 1.59375 -3.890625 1.59375 -3.9375 C 1.59375 -4.140625 1.984375 -4.3125 2.453125 -4.3125 C 2.765625 -4.3125 3.109375 -4.21875 3.265625 -4.078125 C 3.453125 -3.921875 3.53125 -3.671875 3.53125 -3.234375 L 3.53125 -2.84375 C 2.5 -2.671875 2.171875 -2.59375 1.703125 -2.40625 C 0.84375 -2.09375 0.4375 -1.640625 0.4375 -1 C 0.4375 -0.296875 0.984375 0.140625 1.859375 0.140625 C 2.546875 0.140625 3.15625 -0.125 3.578125 -0.625 C 3.734375 -0.125 3.984375 0.0625 4.453125 0.0625 C 4.890625 0.0625 5.359375 -0.21875 5.359375 -0.5 C 5.359375 -0.578125 5.3125 -0.625 5.25 -0.625 C 5.21875 -0.625 5.171875 -0.609375 5.109375 -0.578125 C 4.96875 -0.515625 4.90625 -0.515625 4.828125 -0.515625 C 4.5625 -0.515625 4.453125 -0.6875 4.453125 -1.1875 Z M 3.53125 -1.96875 C 3.53125 -1.375 3.5 -1.25 3.328125 -0.984375 C 3.09375 -0.625 2.640625 -0.375 2.203125 -0.375 C 1.75 -0.375 1.421875 -0.703125 1.421875 -1.140625 C 1.421875 -1.5625 1.640625 -1.859375 2.078125 -2.0625 C 2.375 -2.203125 2.765625 -2.296875 3.53125 -2.421875 Z M 3.53125 -1.96875 "/>
</g>
<g id="glyph-2-6">
<path d="M 1.96875 -4.59375 L 0.265625 -4.484375 L 0.265625 -4.0625 L 0.625 -4.0625 C 1 -4.046875 1.046875 -4 1.046875 -3.5625 L 1.046875 -0.75 C 1.03125 -0.59375 1.03125 -0.546875 0.984375 -0.5 C 0.921875 -0.40625 0.734375 -0.359375 0.3125 -0.359375 L 0.265625 -0.359375 L 0.265625 0 L 2.765625 0 L 2.765625 -0.359375 L 2.71875 -0.359375 C 2.0625 -0.375 1.96875 -0.421875 1.96875 -0.78125 L 1.96875 -2.234375 C 1.96875 -2.71875 2.046875 -3.171875 2.15625 -3.390625 C 2.359375 -3.828125 2.796875 -4.140625 3.21875 -4.140625 C 3.484375 -4.140625 3.78125 -4 3.921875 -3.796875 C 4.078125 -3.578125 4.140625 -3.28125 4.140625 -2.8125 L 4.140625 -0.75 C 4.125 -0.59375 4.125 -0.546875 4.078125 -0.5 C 4.015625 -0.40625 3.8125 -0.359375 3.390625 -0.359375 L 3.359375 -0.359375 L 3.359375 0 L 5.84375 0 L 5.84375 -0.359375 L 5.8125 -0.359375 C 5.15625 -0.375 5.0625 -0.421875 5.0625 -0.78125 L 5.0625 -2.765625 C 5.0625 -3.46875 5.03125 -3.640625 4.859375 -3.984375 C 4.609375 -4.453125 4.125 -4.75 3.53125 -4.75 C 2.890625 -4.75 2.40625 -4.453125 1.96875 -3.796875 Z M 1.96875 -4.59375 "/>
</g>
<g id="glyph-2-7">
<path d="M 3.75 0.0625 L 5.46875 0 L 5.46875 -0.421875 L 5.28125 -0.421875 C 4.71875 -0.453125 4.671875 -0.515625 4.671875 -1.140625 L 4.671875 -7.265625 L 2.734375 -7.15625 L 2.734375 -6.734375 L 3.328125 -6.734375 C 3.703125 -6.71875 3.75 -6.671875 3.75 -6.234375 L 3.75 -4.015625 C 3.375 -4.515625 2.953125 -4.75 2.390625 -4.75 C 1.265625 -4.75 0.421875 -3.671875 0.421875 -2.25 C 0.421875 -0.84375 1.25 0.140625 2.390625 0.140625 C 3 0.140625 3.4375 -0.125 3.75 -0.703125 Z M 2.578125 -4.203125 C 2.984375 -4.203125 3.375 -3.921875 3.546875 -3.453125 C 3.671875 -3.171875 3.734375 -2.765625 3.734375 -2.28125 C 3.734375 -1.125 3.28125 -0.390625 2.578125 -0.390625 C 1.875 -0.390625 1.453125 -1.03125 1.453125 -2.125 C 1.453125 -2.71875 1.515625 -3.171875 1.640625 -3.484375 C 1.8125 -3.9375 2.171875 -4.203125 2.578125 -4.203125 Z M 2.578125 -4.203125 "/>
</g>
<g id="glyph-2-8">
<path d="M 4.578125 -2.21875 C 4.59375 -3.703125 3.75 -4.75 2.546875 -4.75 C 1.296875 -4.75 0.34375 -3.640625 0.34375 -2.171875 C 0.34375 -0.78125 1.25 0.140625 2.578125 0.140625 C 3.515625 0.140625 4.1875 -0.3125 4.578125 -1.25 L 4.234375 -1.4375 C 3.828125 -0.6875 3.421875 -0.390625 2.765625 -0.390625 C 2.25 -0.390625 1.890625 -0.59375 1.640625 -1.03125 C 1.453125 -1.328125 1.375 -1.671875 1.390625 -2.21875 Z M 1.40625 -2.640625 C 1.40625 -2.953125 1.4375 -3.171875 1.53125 -3.4375 C 1.75 -4.03125 2.0625 -4.3125 2.546875 -4.3125 C 3.140625 -4.3125 3.53125 -3.796875 3.53125 -3 C 3.53125 -2.71875 3.4375 -2.640625 3.125 -2.640625 Z M 1.40625 -2.640625 "/>
</g>
<g id="glyph-2-9">
<path d="M 2.015625 -7.265625 L 0.1875 -7.15625 L 0.1875 -6.734375 L 0.671875 -6.734375 C 1.03125 -6.71875 1.078125 -6.671875 1.078125 -6.234375 L 1.078125 -0.75 C 1.078125 -0.59375 1.0625 -0.546875 1.03125 -0.5 C 0.953125 -0.40625 0.765625 -0.359375 0.34375 -0.359375 L 0.28125 -0.359375 L 0.28125 0 L 2.828125 0 L 2.828125 -0.359375 L 2.765625 -0.359375 C 2.09375 -0.375 2.015625 -0.421875 2.015625 -0.78125 Z M 2.015625 -7.265625 "/>
</g>
<g id="glyph-3-0">
<path d="M 0 0.8125 C 0 1.765625 0.734375 2.453125 1.953125 2.453125 C 3.90625 2.453125 5.84375 0.765625 5.84375 -0.8125 C 5.84375 -1.8125 4.984375 -2.453125 3.84375 -2.453125 C 2.03125 -2.453125 0 -0.84375 0 0.8125 Z M 0 0.8125 "/>
</g>
<g id="glyph-3-1">
<path d="M -0.140625 -1.40625 C -0.140625 -1.25 -0.078125 -1.09375 0.046875 -0.9375 L 2.375 1.828125 C 1.671875 1.546875 0.890625 1.34375 0.34375 1.34375 C 0.046875 1.34375 -0.4375 1.34375 -0.4375 2.09375 C -0.4375 3.421875 1.109375 5.765625 1.34375 5.765625 C 1.4375 5.765625 1.5 5.703125 1.5 5.609375 C 1.5 5.5625 0.96875 4.953125 0.96875 3.84375 C 0.96875 2.671875 1.59375 2.65625 1.9375 2.65625 C 3.078125 2.65625 3.65625 3.40625 3.84375 3.40625 C 4 3.40625 4.140625 3.265625 4.140625 3.109375 C 4.140625 3.03125 4.125 2.984375 4.078125 2.90625 L 2.59375 1.171875 C 2.296875 0.8125 2.15625 0.375 2.15625 -0.078125 C 2.15625 -1.84375 4.390625 -2.28125 4.390625 -3.34375 C 4.390625 -3.484375 4.328125 -3.640625 4.203125 -3.796875 L 1.5 -7.015625 C 1.4375 -7.078125 1.359375 -7.125 1.296875 -7.125 C 1.125 -7.125 0.96875 -6.984375 0.96875 -6.8125 C 0.96875 -6.75 0.984375 -6.6875 1.046875 -6.625 L 1.625 -5.90625 C 1.9375 -5.546875 2.09375 -5.109375 2.09375 -4.65625 C 2.09375 -2.890625 -0.140625 -2.453125 -0.140625 -1.40625 Z M -0.140625 -1.40625 "/>
</g>
<g id="glyph-3-2">
<path d="M 4.75 11.390625 L 4.765625 10.59375 L 4.71875 10.59375 C 3.859375 10.59375 3.109375 10.15625 2.640625 9.46875 C 2.796875 9.546875 2.984375 9.578125 3.15625 9.578125 C 4.09375 9.578125 4.859375 8.8125 4.859375 7.875 C 4.859375 6.875 4.125 6.015625 3.15625 6.015625 C 2.09375 6.015625 1.140625 6.828125 1.140625 7.875 C 1.140625 9.828125 2.71875 11.390625 4.65625 11.390625 Z M 7.234375 -2.6875 C 9.203125 -2.453125 10.265625 -0.84375 10.265625 0.734375 C 10.265625 1.953125 9.625 3.140625 8.28125 3.625 C 8.125 2.1875 7.734375 -0.265625 7.234375 -2.6875 Z M 1.34375 -0.46875 C 1.34375 -3.34375 3.25 -5.53125 5.140625 -7.71875 C 5.453125 -6.6875 5.71875 -5.65625 5.96875 -4.609375 C 4.125 -4.203125 3.078125 -2.65625 3.078125 -1.0625 C 3.078125 1.1875 5.078125 2.3125 5.359375 2.3125 C 5.578125 2.3125 5.765625 2.109375 5.765625 1.90625 C 5.765625 1.8125 5.71875 1.703125 5.625 1.609375 C 4.640625 1.046875 4.203125 0.21875 4.203125 -0.5625 C 4.203125 -1.59375 5 -2.546875 6.421875 -2.6875 C 7.03125 0.125 7.390625 2.65625 7.515625 3.828125 C 7.078125 3.890625 6.6875 3.921875 6.3125 3.921875 C 3.078125 3.921875 1.34375 1.546875 1.34375 -0.46875 Z M 6.34375 -21.421875 C 6.0625 -21.421875 3.5 -19.53125 3.5 -16.15625 C 3.5 -12.984375 3.890625 -11.6875 4.453125 -9.9375 C 2.375 -7.515625 0.03125 -5.1875 0.03125 -2.015625 C 0.03125 0.796875 1.859375 4.71875 6.171875 4.71875 C 6.625 4.71875 7.078125 4.65625 7.59375 4.578125 C 7.625 5.109375 7.65625 5.65625 7.65625 6.1875 C 7.65625 6.53125 7.640625 6.859375 7.625 7.1875 C 7.515625 8.953125 6.4375 10.5625 4.765625 10.59375 L 4.75 11.390625 C 6.8125 11.34375 8.28125 9.453125 8.40625 7.296875 C 8.4375 6.9375 8.4375 6.578125 8.4375 6.21875 C 8.4375 5.609375 8.40625 5 8.359375 4.390625 C 10.265625 3.78125 11.59375 2.015625 11.59375 -0.015625 C 11.59375 -2.40625 9.796875 -4.734375 7 -4.734375 C 6.921875 -4.734375 6.859375 -4.71875 6.78125 -4.71875 C 6.46875 -5.953125 6.140625 -7.1875 5.765625 -8.40625 C 7.421875 -10.375 8.953125 -12.375 8.953125 -14.9375 C 8.953125 -17.703125 6.890625 -21.421875 6.34375 -21.421875 Z M 7.65625 -16.484375 C 7.65625 -14.21875 6.453125 -12.359375 5.0625 -10.65625 C 4.515625 -12.375 4.390625 -13.296875 4.390625 -14.046875 C 4.390625 -17.046875 6.5625 -18.34375 7.28125 -18.6875 C 7.296875 -18.6875 7.65625 -17.59375 7.65625 -16.484375 Z M 7.65625 -16.484375 "/>
</g>
<g id="glyph-3-3">
<path d="M 0.515625 -0.703125 C 0.53125 -1.296875 0.890625 -1.84375 1.453125 -1.84375 C 1.96875 -1.84375 2.203125 -1.25 2.203125 -0.65625 C 2.203125 0.375 1.359375 1.125 0.578125 1.8125 C 0.515625 1.421875 0.484375 1.046875 0.484375 0.640625 L 0.484375 0.453125 Z M -0.5 -8.140625 L -0.28125 2.5 C -0.28125 2.75 -0.09375 2.984375 0.15625 2.984375 C 0.5625 2.984375 0.71875 2.5 1 2.234375 C 2.078125 1.3125 3.59375 0.625 3.59375 -0.796875 C 3.59375 -1.765625 2.9375 -2.640625 2.03125 -2.640625 C 1.421875 -2.640625 0.828125 -2.40625 0.375 -1.984375 L 0.5 -8.140625 C 0.34375 -8.234375 0.171875 -8.28125 0 -8.28125 C -0.171875 -8.28125 -0.34375 -8.234375 -0.5 -8.140625 Z M -0.5 -8.140625 "/>
</g>
<g id="glyph-3-4">
<path d="M 7.75 1.59375 C 7.75 1.453125 7.625 1.359375 7.5 1.359375 C 7.390625 1.359375 7.296875 1.421875 7.265625 1.546875 C 6.921875 2.984375 5.90625 4.234375 4.484375 4.234375 C 2.578125 4.234375 2.453125 2.90625 2.453125 0.859375 C 2.453125 0.59375 2.46875 0.3125 2.46875 0 C 2.46875 -0.3125 2.453125 -0.59375 2.453125 -0.859375 C 2.453125 -2.90625 2.578125 -4.234375 4.484375 -4.234375 C 5.328125 -4.234375 6.078125 -3.828125 6.5625 -3.171875 C 6.5 -3.1875 6.4375 -3.1875 6.375 -3.1875 C 5.578125 -3.1875 5.09375 -2.515625 5.09375 -1.828125 C 5.09375 -0.9375 5.890625 -0.515625 6.421875 -0.515625 C 7.0625 -0.515625 7.609375 -1.078125 7.609375 -1.78125 C 7.609375 -2.78125 6.546875 -4.734375 4.484375 -4.734375 C 0.328125 -4.734375 0 -1.125 0 0 C 0 4.375 3.421875 4.734375 4.484375 4.734375 C 6.859375 4.734375 7.75 1.96875 7.75 1.59375 Z M 7.75 1.59375 "/>
</g>
<g id="glyph-3-5">
<path d="M 1.25 -3.671875 C 0.40625 -3.671875 -0.03125 -3.046875 -0.03125 -2.40625 C -0.03125 -1.703125 0.46875 -0.96875 1.5 -0.96875 C 2.140625 -0.96875 2.765625 -1.140625 3.359375 -1.359375 L 1.234375 4.484375 C 1.40625 4.609375 1.578125 4.6875 1.78125 4.6875 C 1.96875 4.6875 2.15625 4.609375 2.3125 4.484375 L 4.484375 -3 C 4.4375 -3.125 4.328125 -3.171875 4.21875 -3.171875 C 4.109375 -3.171875 3.984375 -3.125 3.921875 -3 C 3.796875 -2.75 3.140625 -1.9375 2.875 -1.9375 C 2.078125 -1.9375 2.6875 -3.671875 1.25 -3.671875 Z M 1.25 -3.671875 "/>
</g>
<g id="glyph-3-6">
<path d="M 2.171875 13.046875 C 2.171875 13.296875 2.390625 13.46875 2.59375 13.46875 C 2.75 13.46875 2.890625 13.40625 2.984375 13.25 C 3.4375 12.078125 3.71875 10.8125 3.71875 9.546875 C 3.71875 6.015625 0 3.53125 0 0 L -0.328125 0 L -0.328125 6.71875 L 0 6.71875 L 0 4.484375 C 1.25 5.828125 2.921875 7.6875 2.921875 9.546875 C 2.921875 11.5 2.171875 12.84375 2.171875 13.046875 Z M 2.171875 13.046875 "/>
</g>
<g id="glyph-3-7">
<path d="M 0 0 L 0 -6.71875 L -0.328125 -6.71875 L -0.328125 0 Z M 3.984375 -9.125 C 3.984375 -7.15625 1.71875 -5.546875 0 -4.484375 L 0 0 C 0 -3.640625 4.796875 -5.484375 4.796875 -9.125 C 4.796875 -10.25 4.515625 -11.3125 4.078125 -12.328125 C 3.984375 -12.46875 3.84375 -12.5625 3.6875 -12.5625 C 3.484375 -12.5625 3.265625 -12.375 3.265625 -12.125 C 3.265625 -11.953125 3.984375 -10.8125 3.984375 -9.125 Z M 3.984375 -9.125 "/>
</g>
<g id="glyph-3-8">
<path d="M -0.140625 -6.71875 L 0 3.421875 C 0 3.609375 0.140625 3.75 0.328125 3.75 L 0.390625 3.75 L 2.234375 3.375 L 2.203125 6.71875 C 2.34375 6.8125 2.515625 6.859375 2.671875 6.859375 C 2.828125 6.859375 2.984375 6.8125 3.125 6.71875 L 3 -3.421875 C 3 -3.609375 2.859375 -3.75 2.671875 -3.75 L 2.59375 -3.75 L 0.734375 -3.375 L 0.796875 -6.71875 C 0.640625 -6.8125 0.484375 -6.859375 0.328125 -6.859375 C 0.15625 -6.859375 0 -6.8125 -0.140625 -6.71875 Z M 2.328125 -1.984375 L 2.28125 1.671875 L 0.65625 1.984375 L 0.71875 -1.671875 Z M 2.328125 -1.984375 "/>
</g>
<g id="glyph-3-9">
<path d="M -4.140625 -4.96875 C -3.6875 -4.96875 -3.171875 -4.8125 -2.6875 -4.453125 L -2.78125 -4.046875 C -3.40625 -3.765625 -4.09375 -3.5625 -4.59375 -3.5625 C -5 -3.5625 -5.296875 -3.71875 -5.296875 -4.078125 C -5.296875 -4.96875 -4.203125 -4.96875 -4.140625 -4.96875 Z M 4.953125 -4.703125 C 4.953125 -5.5625 4.34375 -5.953125 3.6875 -5.953125 C 3.25 -5.953125 2.796875 -5.78125 2.46875 -5.4375 C 2.28125 -5.765625 1.84375 -5.9375 1.34375 -5.9375 C 0.9375 -5.9375 0.484375 -5.8125 0.015625 -5.5625 L -1.125 -4.9375 L -0.171875 -9.6875 C -0.53125 -9.34375 -1 -9.0625 -1.40625 -9.0625 C -1.53125 -9.0625 -1.65625 -9.09375 -1.765625 -9.140625 L -2.578125 -5.015625 C -3.015625 -5.296875 -3.5 -5.453125 -4.03125 -5.453125 C -5.1875 -5.453125 -5.8125 -4.609375 -5.8125 -3.984375 C -5.8125 -3.5 -5.453125 -3.078125 -4.640625 -3.078125 C -4.203125 -3.078125 -3.625 -3.203125 -2.890625 -3.515625 L -3.15625 -2.171875 C -3.203125 -1.9375 -3.234375 -1.6875 -3.234375 -1.4375 C -3.234375 -0.59375 -2.921875 0.171875 -2.21875 0.171875 C -1.578125 0.171875 -0.453125 -0.5625 -0.453125 -1.796875 C -0.453125 -2.375 -0.703125 -3.0625 -1.34375 -3.84375 L -1.25 -4.359375 L 0.203125 -5.140625 C 0.34375 -5.21875 0.484375 -5.28125 0.609375 -5.28125 C 0.890625 -5.28125 1.125 -5.09375 1.125 -4.828125 C 1.125 -4.796875 1.109375 -4.734375 1.109375 -4.703125 L 0.140625 0.140625 C 0.390625 0.015625 0.6875 -0.046875 0.9375 -0.046875 C 1.1875 -0.046875 1.421875 0.015625 1.609375 0.140625 L 2.578125 -4.703125 C 2.671875 -5.171875 3.140625 -5.453125 3.546875 -5.453125 C 3.828125 -5.453125 4.09375 -5.328125 4.234375 -5.078125 L 4.171875 -5.078125 C 3.4375 -5.078125 3.078125 -4.46875 3.078125 -3.90625 C 3.078125 -3.46875 3.3125 -3.0625 3.78125 -3.0625 C 4.390625 -3.0625 4.953125 -3.78125 4.953125 -4.703125 Z M -1.484375 -3.15625 C -1.09375 -2.625 -0.953125 -2.140625 -0.953125 -1.734375 C -0.953125 -1.09375 -1.328125 -0.703125 -1.5625 -0.703125 C -1.765625 -0.703125 -1.828125 -0.921875 -1.828125 -1.203125 C -1.828125 -1.6875 -1.65625 -2.375 -1.578125 -2.703125 Z M -1.484375 -3.15625 "/>
</g>
<g id="glyph-3-10">
<path d="M 0 0 C 0 0.5625 0.453125 1 1 1 C 1.5625 1 1.984375 0.5625 1.984375 0 C 1.984375 -0.5625 1.5625 -1 1 -1 C 0.453125 -1 0 -0.5625 0 0 Z M 0 0 "/>
</g>
</g>
</defs>
<g fill="rgb(0%, 0%, 0%)" fill-opacity="1">
<use xlink:href="#glyph-0-0" x="162.253906" y="11.539062"/>
<use xlink:href="#glyph-0-1" x="175.349969" y="11.539062"/>
<use xlink:href="#glyph-0-2" x="181.132646" y="11.539062"/>
<use xlink:href="#glyph-0-3" x="191.847607" y="11.539062"/>
<use xlink:href="#glyph-0-1" x="197.290127" y="11.539062"/>
<use xlink:href="#glyph-0-4" x="203.072804" y="11.539062"/>
<use xlink:href="#glyph-0-5" x="212.597213" y="11.539062"/>
<use xlink:href="#glyph-0-6" x="217.019261" y="11.539062"/>
<use xlink:href="#glyph-0-7" x="229.094851" y="11.539062"/>
<use xlink:href="#glyph-0-8" x="238.109024" y="11.539062"/>
<use xlink:href="#glyph-0-9" x="245.932646" y="11.539062"/>
<use xlink:href="#glyph-0-10" x="255.457056" y="11.539062"/>
<use xlink:href="#glyph-0-7" x="263.620835" y="11.539062"/>
<use xlink:href="#glyph-0-5" x="272.635009" y="11.539062"/>
<use xlink:href="#glyph-0-1" x="277.057056" y="11.539062"/>
<use xlink:href="#glyph-0-11" x="282.839733" y="11.539062"/>
<use xlink:href="#glyph-0-5" x="293.554694" y="11.539062"/>
<use xlink:href="#glyph-0-12" x="297.976741" y="11.539062"/>
<use xlink:href="#glyph-0-13" x="309.882253" y="11.539062"/>
<use xlink:href="#glyph-0-1" x="319.406662" y="11.539062"/>
<use xlink:href="#glyph-0-14" x="325.189339" y="11.539062"/>
<use xlink:href="#glyph-0-14" x="331.82241" y="11.539062"/>
<use xlink:href="#glyph-0-4" x="338.455481" y="11.539062"/>
</g>
<g fill="rgb(0%, 0%, 0%)" fill-opacity="1">
<use xlink:href="#glyph-1-0" x="86.824219" y="27.230469"/>
<use xlink:href="#glyph-1-1" x="94.307683" y="27.230469"/>
<use xlink:href="#glyph-1-2" x="100.770675" y="27.230469"/>
<use xlink:href="#glyph-1-3" x="106.213195" y="27.230469"/>
<use xlink:href="#glyph-1-4" x="110.9754" y="27.230469"/>
<use xlink:href="#glyph-1-5" x="118.118707" y="27.230469"/>
<use xlink:href="#glyph-1-6" x="121.180124" y="27.230469"/>
<use xlink:href="#glyph-1-0" x="124.41162" y="27.230469"/>
<use xlink:href="#glyph-1-7" x="131.725006" y="27.230469"/>
<use xlink:href="#glyph-1-1" x="138.187998" y="27.230469"/>
<use xlink:href="#glyph-1-8" x="144.480912" y="27.230469"/>
<use xlink:href="#glyph-1-9" x="151.284061" y="27.230469"/>
<use xlink:href="#glyph-1-10" x="155.195872" y="27.230469"/>
<use xlink:href="#glyph-1-11" x="159.277762" y="27.230469"/>
<use xlink:href="#glyph-1-3" x="165.740754" y="27.230469"/>
<use xlink:href="#glyph-1-1" x="170.502959" y="27.230469"/>
<use xlink:href="#glyph-1-7" x="176.625794" y="27.230469"/>
<use xlink:href="#glyph-1-10" x="183.428943" y="27.230469"/>
<use xlink:href="#glyph-1-6" x="187.510833" y="27.230469"/>
<use xlink:href="#glyph-1-12" x="190.742329" y="27.230469"/>
<use xlink:href="#glyph-1-1" x="198.395872" y="27.230469"/>
<use xlink:href="#glyph-1-9" x="204.518707" y="27.230469"/>
<use xlink:href="#glyph-1-6" x="208.430518" y="27.230469"/>
<use xlink:href="#glyph-1-13" x="211.662014" y="27.230469"/>
<use xlink:href="#glyph-1-4" x="217.784849" y="27.230469"/>
<use xlink:href="#glyph-1-14" x="224.587998" y="27.230469"/>
<use xlink:href="#glyph-1-1" x="230.370675" y="27.230469"/>
<use xlink:href="#glyph-1-15" x="236.833668" y="27.230469"/>
<use xlink:href="#glyph-1-6" x="239.895085" y="27.230469"/>
<use xlink:href="#glyph-1-16" x="243.126581" y="27.230469"/>
<use xlink:href="#glyph-1-17" x="247.718707" y="27.230469"/>
<use xlink:href="#glyph-1-14" x="255.37225" y="27.230469"/>
<use xlink:href="#glyph-1-10" x="261.325006" y="27.230469"/>
<use xlink:href="#glyph-1-1" x="265.406896" y="27.230469"/>
<use xlink:href="#glyph-1-6" x="271.699809" y="27.230469"/>
<use xlink:href="#glyph-1-18" x="274.931305" y="27.230469"/>
<use xlink:href="#glyph-1-19" x="282.244691" y="27.230469"/>
<use xlink:href="#glyph-1-17" x="284.965951" y="27.230469"/>
<use xlink:href="#glyph-1-12" x="292.619494" y="27.230469"/>
<use xlink:href="#glyph-1-6" x="300.273038" y="27.230469"/>
<use xlink:href="#glyph-1-11" x="303.504534" y="27.230469"/>
<use xlink:href="#glyph-1-9" x="310.307683" y="27.230469"/>
<use xlink:href="#glyph-1-20" x="314.219494" y="27.230469"/>
<use xlink:href="#glyph-1-11" x="324.934455" y="27.230469"/>
<use xlink:href="#glyph-1-6" x="331.737605" y="27.230469"/>
<use xlink:href="#glyph-1-4" x="334.969101" y="27.230469"/>
<use xlink:href="#glyph-1-21" x="341.77225" y="27.230469"/>
<use xlink:href="#glyph-1-1" x="349.93603" y="27.230469"/>
<use xlink:href="#glyph-1-2" x="356.399022" y="27.230469"/>
<use xlink:href="#glyph-1-11" x="361.841542" y="27.230469"/>
<use xlink:href="#glyph-1-6" x="368.644691" y="27.230469"/>
<use xlink:href="#glyph-1-22" x="371.876187" y="27.230469"/>
<use xlink:href="#glyph-1-1" x="376.128156" y="27.230469"/>
<use xlink:href="#glyph-1-23" x="382.25099" y="27.230469"/>
<use xlink:href="#glyph-1-13" x="388.713983" y="27.230469"/>
<use xlink:href="#glyph-1-1" x="394.836817" y="27.230469"/>
<use xlink:href="#glyph-1-14" x="401.129731" y="27.230469"/>
<use xlink:href="#glyph-1-24" x="407.082486" y="27.230469"/>
<use xlink:href="#glyph-1-3" x="414.395872" y="27.230469"/>
<use xlink:href="#glyph-1-25" x="419.158077" y="27.230469"/>
</g>
<g fill="rgb(0%, 0%, 0%)" fill-opacity="1">
<use xlink:href="#glyph-1-26" x="230.203125" y="42.921875"/>
<use xlink:href="#glyph-1-10" x="238.536983" y="42.921875"/>
<use xlink:href="#glyph-1-4" x="242.618873" y="42.921875"/>
<use xlink:href="#glyph-1-9" x="249.422023" y="42.921875"/>
<use xlink:href="#glyph-1-10" x="253.333834" y="42.921875"/>
<use xlink:href="#glyph-1-12" x="257.415723" y="42.921875"/>
<use xlink:href="#glyph-1-4" x="265.069267" y="42.921875"/>
<use xlink:href="#glyph-1-6" x="271.872416" y="42.921875"/>
<use xlink:href="#glyph-1-27" x="275.103912" y="42.921875"/>
</g>
<g fill="rgb(0%, 0%, 0%)" fill-opacity="1">
<use xlink:href="#glyph-2-0" x="457.511719" y="42.921875"/>
<use xlink:href="#glyph-2-1" x="465.165262" y="42.921875"/>
<use xlink:href="#glyph-2-2" x="467.886522" y="42.921875"/>
<use xlink:href="#glyph-2-3" x="474.519593" y="42.921875"/>
<use xlink:href="#glyph-2-4" x="477.240853" y="42.921875"/>
<use xlink:href="#glyph-2-5" x="485.404632" y="42.921875"/>
<use xlink:href="#glyph-2-6" x="490.847152" y="42.921875"/>
<use xlink:href="#glyph-2-7" x="496.799908" y="42.921875"/>
<use xlink:href="#glyph-2-8" x="502.412506" y="42.921875"/>
<use xlink:href="#glyph-2-9" x="507.174711" y="42.921875"/>
</g>
<path fill-rule="nonzero" fill="rgb(0%, 0%, 0%)" fill-opacity="1" d="M 175.304688 72.0625 L 175.304688 54.128906 L 176.21875 54.128906 L 176.21875 72.0625 Z M 175.304688 72.0625 "/>
<path fill="none" stroke-width="0.107302" stroke-linecap="round" stroke-linejoin="miter" stroke="rgb(0%, 0%, 0%)" stroke-opacity="1" stroke-miterlimit="10" d="M 3.215137 -16.074812 L 113.757462 -16.074812 " transform="matrix(4.483188, 0, 0, -4.483188, 0, 0)"/>
<path fill="none" stroke-width="0.107302" stroke-linecap="round" stroke-linejoin="miter" stroke="rgb(0%, 0%, 0%)" stroke-opacity="1" stroke-miterlimit="10" d="M 3.215137 -15.074548 L 113.757462 -15.074548 " transform="matrix(4.483188, 0, 0, -4.483188, 0, 0)"/>
<path fill="none" stroke-width="0.107302" stroke-linecap="round" stroke-linejoin="miter" stroke="rgb(0%, 0%, 0%)" stroke-opacity="1" stroke-miterlimit="10" d="M 3.215137 -14.074283 L 113.757462 -14.074283 " transform="matrix(4.483188, 0, 0, -4.483188, 0, 0)"/>
<path fill="none" stroke-width="0.107302" stroke-linecap="round" stroke-linejoin="miter" stroke="rgb(0%, 0%, 0%)" stroke-opacity="1" stroke-miterlimit="10" d="M 3.215137 -13.074889 L 113.757462 -13.074889 " transform="matrix(4.483188, 0, 0, -4.483188, 0, 0)"/>
<path fill="none" stroke-width="0.107302" stroke-linecap="round" stroke-linejoin="miter" stroke="rgb(0%, 0%, 0%)" stroke-opacity="1" stroke-miterlimit="10" d="M 3.215137 -12.074625 L 113.757462 -12.074625 " transform="matrix(4.483188, 0, 0, -4.483188, 0, 0)"/>
<path fill-rule="nonzero" fill="rgb(0%, 0%, 0%)" fill-opacity="1" d="M 509.320312 72.0625 L 509.320312 54.128906 L 510.234375 54.128906 L 510.234375 72.0625 Z M 509.320312 72.0625 "/>
<path fill-rule="nonzero" fill="rgb(0%, 0%, 0%)" fill-opacity="1" d="M 412.441406 72.0625 L 412.441406 54.128906 L 413.355469 54.128906 L 413.355469 72.0625 Z M 412.441406 72.0625 "/>
<path fill-rule="nonzero" fill="rgb(0%, 0%, 0%)" fill-opacity="1" d="M 200.082031 77.011719 C 200.339844 77.011719 200.546875 76.804688 200.546875 76.546875 C 200.546875 76.289062 200.339844 76.082031 200.082031 76.082031 L 192.25 76.082031 C 191.992188 76.082031 191.785156 76.289062 191.785156 76.546875 C 191.785156 76.804688 191.992188 77.011719 192.25 77.011719 Z M 200.082031 77.011719 "/>
<path fill-rule="nonzero" fill="rgb(0%, 0%, 0%)" fill-opacity="1" d="M 290.792969 72.0625 L 290.792969 54.128906 L 291.707031 54.128906 L 291.707031 72.0625 Z M 290.792969 72.0625 "/>
<g fill="rgb(0%, 0%, 0%)" fill-opacity="1">
<use xlink:href="#glyph-3-0" x="478.800781" y="60.859375"/>
</g>
<g fill="rgb(0%, 0%, 0%)" fill-opacity="1">
<use xlink:href="#glyph-3-1" x="66.4375" y="63.097656"/>
</g>
<g fill="rgb(0%, 0%, 0%)" fill-opacity="1">
<use xlink:href="#glyph-3-2" x="17.761719" y="67.582031"/>
</g>
<g fill="rgb(0%, 0%, 0%)" fill-opacity="1">
<use xlink:href="#glyph-3-3" x="33.515625" y="63.097656"/>
</g>
<g fill="rgb(0%, 0%, 0%)" fill-opacity="1">
<use xlink:href="#glyph-3-3" x="37.683594" y="56.375"/>
</g>
<g fill="rgb(0%, 0%, 0%)" fill-opacity="1">
<use xlink:href="#glyph-3-3" x="41.851562" y="65.339844"/>
</g>
<g fill="rgb(0%, 0%, 0%)" fill-opacity="1">
<use xlink:href="#glyph-3-4" x="50.59375" y="63.097656"/>
</g>
<path fill="none" stroke-width="0.0888889" stroke-linecap="butt" stroke-linejoin="round" stroke="rgb(0%, 0%, 0%)" stroke-opacity="1" stroke-miterlimit="10" d="M 88.923363 -17.692836 L 88.923363 -18.084055 L 85.895558 -17.08379 L 85.895558 -16.693443 Z M 88.923363 -17.692836 " transform="matrix(4.483188, 0, 0, -4.483188, 0, 0)"/>
<path fill-rule="nonzero" fill="rgb(0%, 0%, 0%)" fill-opacity="1" d="M 398.660156 79.320312 L 398.660156 81.074219 L 385.085938 76.589844 L 385.085938 74.839844 Z M 398.660156 79.320312 "/>
<g fill="rgb(0%, 0%, 0%)" fill-opacity="1">
<use xlink:href="#glyph-3-5" x="83.636719" y="63.097656"/>
</g>
<path fill="none" stroke-width="0.0888889" stroke-linecap="butt" stroke-linejoin="round" stroke="rgb(0%, 0%, 0%)" stroke-opacity="1" stroke-miterlimit="10" d="M 84.161649 -15.752427 L 84.161649 -16.142775 L 82.32754 -16.142775 L 82.32754 -15.752427 Z M 84.161649 -15.752427 " transform="matrix(4.483188, 0, 0, -4.483188, 0, 0)"/>
<path fill-rule="nonzero" fill="rgb(0%, 0%, 0%)" fill-opacity="1" d="M 377.3125 70.621094 L 377.3125 72.371094 L 369.089844 72.371094 L 369.089844 70.621094 Z M 377.3125 70.621094 "/>
<path fill="none" stroke-width="0.0888889" stroke-linecap="butt" stroke-linejoin="round" stroke="rgb(0%, 0%, 0%)" stroke-opacity="1" stroke-miterlimit="10" d="M 84.161649 -16.56536 L 84.161649 -16.955707 L 82.32754 -16.955707 L 82.32754 -16.56536 Z M 84.161649 -16.56536 " transform="matrix(4.483188, 0, 0, -4.483188, 0, 0)"/>
<path fill-rule="nonzero" fill="rgb(0%, 0%, 0%)" fill-opacity="1" d="M 377.3125 74.265625 L 377.3125 76.015625 L 369.089844 76.015625 L 369.089844 74.265625 Z M 377.3125 74.265625 "/>
<path fill="none" stroke-width="0.0888889" stroke-linecap="butt" stroke-linejoin="round" stroke="rgb(0%, 0%, 0%)" stroke-opacity="1" stroke-miterlimit="10" d="M 84.162521 -17.379164 L 84.162521 -17.769512 L 78.53821 -17.769512 L 78.53821 -17.379164 Z M 84.162521 -17.379164 " transform="matrix(4.483188, 0, 0, -4.483188, 0, 0)"/>
<path fill-rule="nonzero" fill="rgb(0%, 0%, 0%)" fill-opacity="1" d="M 377.316406 77.914062 L 377.316406 79.664062 L 352.101562 79.664062 L 352.101562 77.914062 Z M 377.316406 77.914062 "/>
<g fill="rgb(0%, 0%, 0%)" fill-opacity="1">
<use xlink:href="#glyph-3-0" x="96.746094" y="67.582031"/>
</g>
<path fill-rule="nonzero" fill="rgb(0%, 0%, 0%)" fill-opacity="1" d="M 102.386719 66.777344 C 102.496094 66.777344 102.585938 66.6875 102.585938 66.578125 L 102.585938 52.089844 C 102.585938 51.980469 102.496094 51.890625 102.386719 51.890625 L 102.160156 51.890625 C 102.050781 51.890625 101.960938 51.980469 101.960938 52.089844 L 101.960938 66.578125 C 101.960938 66.6875 102.050781 66.777344 102.160156 66.777344 Z M 102.386719 66.777344 "/>
<g fill="rgb(0%, 0%, 0%)" fill-opacity="1">
<use xlink:href="#glyph-3-6" x="102.589844" y="52.089844"/>
</g>
<path fill="none" stroke-width="0.0888889" stroke-linecap="butt" stroke-linejoin="round" stroke="rgb(0%, 0%, 0%)" stroke-opacity="1" stroke-miterlimit="10" d="M 70.373156 -11.87858 L 70.373156 -12.269798 L 67.095285 -12.083338 L 67.095285 -11.69299 Z M 70.373156 -11.87858 " transform="matrix(4.483188, 0, 0, -4.483188, 0, 0)"/>
<path fill-rule="nonzero" fill="rgb(0%, 0%, 0%)" fill-opacity="1" d="M 315.496094 53.253906 L 315.496094 55.007812 L 300.800781 54.171875 L 300.800781 52.421875 Z M 315.496094 53.253906 "/>
<g fill="rgb(0%, 0%, 0%)" fill-opacity="1">
<use xlink:href="#glyph-3-0" x="111.214844" y="60.859375"/>
</g>
<path fill-rule="nonzero" fill="rgb(0%, 0%, 0%)" fill-opacity="1" d="M 111.640625 72.878906 C 111.75 72.878906 111.839844 72.789062 111.839844 72.679688 L 111.839844 61.859375 C 111.839844 61.75 111.75 61.660156 111.640625 61.660156 L 111.414062 61.660156 C 111.304688 61.660156 111.214844 61.75 111.214844 61.859375 L 111.214844 72.679688 C 111.214844 72.789062 111.304688 72.878906 111.414062 72.878906 Z M 111.640625 72.878906 "/>
<path fill="none" stroke-width="0.0888889" stroke-linecap="butt" stroke-linejoin="round" stroke="rgb(0%, 0%, 0%)" stroke-opacity="1" stroke-miterlimit="10" d="M 61.824727 -16.879032 L 61.824727 -17.270251 L 58.796922 -16.083525 L 58.796922 -15.693178 Z M 61.824727 -16.879032 " transform="matrix(4.483188, 0, 0, -4.483188, 0, 0)"/>
<path fill-rule="nonzero" fill="rgb(0%, 0%, 0%)" fill-opacity="1" d="M 277.171875 75.671875 L 277.171875 77.425781 L 263.597656 72.105469 L 263.597656 70.355469 Z M 277.171875 75.671875 "/>
<g fill="rgb(0%, 0%, 0%)" fill-opacity="1">
<use xlink:href="#glyph-3-0" x="126.804688" y="56.375"/>
</g>
<path fill-rule="nonzero" fill="rgb(0%, 0%, 0%)" fill-opacity="1" d="M 127.230469 71.890625 C 127.339844 71.890625 127.429688 71.800781 127.429688 71.691406 L 127.429688 57.375 C 127.429688 57.265625 127.339844 57.175781 127.230469 57.175781 L 127.003906 57.175781 C 126.894531 57.175781 126.804688 57.265625 126.804688 57.375 L 126.804688 71.691406 C 126.804688 71.800781 126.894531 71.890625 127.003906 71.890625 Z M 127.230469 71.890625 "/>
<path fill="none" stroke-width="0.0888889" stroke-linecap="butt" stroke-linejoin="round" stroke="rgb(0%, 0%, 0%)" stroke-opacity="1" stroke-miterlimit="10" d="M 56.582921 -14.879374 L 56.582921 -15.269721 L 54.266977 -15.269721 L 54.266977 -14.879374 Z M 56.582921 -14.879374 " transform="matrix(4.483188, 0, 0, -4.483188, 0, 0)"/>
<path fill-rule="nonzero" fill="rgb(0%, 0%, 0%)" fill-opacity="1" d="M 253.671875 66.707031 L 253.671875 68.457031 L 243.289062 68.457031 L 243.289062 66.707031 Z M 253.671875 66.707031 "/>
<path fill="none" stroke-width="0.0888889" stroke-linecap="butt" stroke-linejoin="round" stroke="rgb(0%, 0%, 0%)" stroke-opacity="1" stroke-miterlimit="10" d="M 56.582921 -15.693178 L 56.582921 -16.083525 L 51.040513 -16.083525 L 51.040513 -15.693178 Z M 56.582921 -15.693178 " transform="matrix(4.483188, 0, 0, -4.483188, 0, 0)"/>
<path fill-rule="nonzero" fill="rgb(0%, 0%, 0%)" fill-opacity="1" d="M 253.671875 70.355469 L 253.671875 72.105469 L 228.824219 72.105469 L 228.824219 70.355469 Z M 253.671875 70.355469 "/>
<g fill="rgb(0%, 0%, 0%)" fill-opacity="1">
<use xlink:href="#glyph-3-0" x="136.957031" y="58.617188"/>
</g>
<path fill-rule="nonzero" fill="rgb(0%, 0%, 0%)" fill-opacity="1" d="M 137.382812 71.25 C 137.492188 71.25 137.582031 71.160156 137.582031 71.050781 L 137.582031 59.621094 C 137.582031 59.507812 137.492188 59.421875 137.382812 59.421875 L 137.15625 59.421875 C 137.046875 59.421875 136.957031 59.507812 136.957031 59.621094 L 136.957031 71.050781 C 136.957031 71.160156 137.046875 71.25 137.15625 71.25 Z M 137.382812 71.25 "/>
<g fill="rgb(0%, 0%, 0%)" fill-opacity="1">
<use xlink:href="#glyph-3-0" x="147.113281" y="60.859375"/>
</g>
<path fill-rule="nonzero" fill="rgb(0%, 0%, 0%)" fill-opacity="1" d="M 147.539062 75.710938 C 147.648438 75.710938 147.738281 75.621094 147.738281 75.511719 L 147.738281 61.859375 C 147.738281 61.75 147.648438 61.660156 147.539062 61.660156 L 147.3125 61.660156 C 147.203125 61.660156 147.113281 61.75 147.113281 61.859375 L 147.113281 75.511719 C 147.113281 75.621094 147.203125 75.710938 147.3125 75.710938 Z M 147.539062 75.710938 "/>
<path fill="none" stroke-width="0.0858413" stroke-linecap="round" stroke-linejoin="round" stroke="rgb(0%, 0%, 0%)" stroke-opacity="1" stroke-miterlimit="10" d="M 1.503011 1.999658 C 2.075462 2.647042 3.417281 2.647042 3.989732 1.999658 C 3.417281 2.518088 2.075462 2.518088 1.503011 1.999658 Z M 1.503011 1.999658 " transform="matrix(4.483188, 0, 0, -4.483188, 209.839844, 63.097656)"/>
<path fill-rule="nonzero" fill="rgb(0%, 0%, 0%)" fill-opacity="1" d="M 216.578125 54.132812 C 219.144531 51.230469 225.160156 51.230469 227.726562 54.132812 C 225.160156 51.808594 219.144531 51.808594 216.578125 54.132812 Z M 216.578125 54.132812 "/>
<g fill="rgb(0%, 0%, 0%)" fill-opacity="1">
<use xlink:href="#glyph-3-0" x="161.582031" y="60.859375"/>
</g>
<path fill-rule="nonzero" fill="rgb(0%, 0%, 0%)" fill-opacity="1" d="M 162.007812 75.710938 C 162.117188 75.710938 162.207031 75.621094 162.207031 75.511719 L 162.207031 61.859375 C 162.207031 61.75 162.117188 61.660156 162.007812 61.660156 L 161.78125 61.660156 C 161.671875 61.660156 161.582031 61.75 161.582031 61.859375 L 161.582031 75.511719 C 161.582031 75.621094 161.671875 75.710938 161.78125 75.710938 Z M 162.007812 75.710938 "/>
<path fill="none" stroke-width="0.0888889" stroke-linecap="butt" stroke-linejoin="round" stroke="rgb(0%, 0%, 0%)" stroke-opacity="1" stroke-miterlimit="10" d="M 44.362788 -12.692384 L 44.362788 -13.083602 L 41.334983 -11.455994 L 41.334983 -11.065647 Z M 44.362788 -12.692384 " transform="matrix(4.483188, 0, 0, -4.483188, 0, 0)"/>
<path fill-rule="nonzero" fill="rgb(0%, 0%, 0%)" fill-opacity="1" d="M 198.886719 56.902344 L 198.886719 58.65625 L 185.3125 51.359375 L 185.3125 49.609375 Z M 198.886719 56.902344 "/>
<path fill="none" stroke-width="0.0888889" stroke-linecap="butt" stroke-linejoin="round" stroke="rgb(0%, 0%, 0%)" stroke-opacity="1" stroke-miterlimit="10" d="M 36.136743 -16.693443 L 36.136743 -17.08379 L 32.858872 -17.08379 L 32.858872 -16.693443 Z M 36.136743 -16.693443 " transform="matrix(4.483188, 0, 0, -4.483188, 0, 0)"/>
<path fill-rule="nonzero" fill="rgb(0%, 0%, 0%)" fill-opacity="1" d="M 162.007812 74.839844 L 162.007812 76.589844 L 147.3125 76.589844 L 147.3125 74.839844 Z M 162.007812 74.839844 "/>
<g fill="rgb(0%, 0%, 0%)" fill-opacity="1">
<use xlink:href="#glyph-3-0" x="179.898438" y="60.859375"/>
</g>
<path fill="none" stroke-width="0.0888889" stroke-linecap="butt" stroke-linejoin="round" stroke="rgb(0%, 0%, 0%)" stroke-opacity="1" stroke-miterlimit="10" d="M 30.644871 -14.879374 L 30.644871 -15.270592 L 28.328927 -15.422201 L 28.328927 -15.031853 Z M 30.644871 -14.879374 " transform="matrix(4.483188, 0, 0, -4.483188, 0, 0)"/>
<path fill-rule="nonzero" fill="rgb(0%, 0%, 0%)" fill-opacity="1" d="M 137.386719 66.707031 L 137.386719 68.460938 L 127.003906 69.140625 L 127.003906 67.390625 Z M 137.386719 66.707031 "/>
<path fill="none" stroke-width="0.0888889" stroke-linecap="butt" stroke-linejoin="round" stroke="rgb(0%, 0%, 0%)" stroke-opacity="1" stroke-miterlimit="10" d="M 30.644 -15.693178 L 30.644 -16.084397 L 24.851526 -16.456446 L 24.851526 -16.066099 Z M 30.644 -15.693178 " transform="matrix(4.483188, 0, 0, -4.483188, 0, 0)"/>
<path fill-rule="nonzero" fill="rgb(0%, 0%, 0%)" fill-opacity="1" d="M 137.382812 70.355469 L 137.382812 72.109375 L 111.414062 73.777344 L 111.414062 72.027344 Z M 137.382812 70.355469 "/>
<path fill-rule="nonzero" fill="rgb(0%, 0%, 0%)" fill-opacity="1" d="M 185.539062 60.050781 C 185.648438 60.050781 185.738281 59.960938 185.738281 59.851562 L 185.738281 50.84375 C 185.738281 50.734375 185.648438 50.644531 185.539062 50.644531 L 185.3125 50.644531 C 185.203125 50.644531 185.113281 50.734375 185.113281 50.84375 L 185.113281 59.851562 C 185.113281 59.960938 185.203125 60.050781 185.3125 60.050781 Z M 185.539062 60.050781 "/>
<g fill="rgb(0%, 0%, 0%)" fill-opacity="1">
<use xlink:href="#glyph-3-0" x="193.246094" y="76.546875"/>
</g>
<path fill-rule="nonzero" fill="rgb(0%, 0%, 0%)" fill-opacity="1" d="M 198.886719 75.742188 C 198.996094 75.742188 199.085938 75.652344 199.085938 75.542969 L 199.085938 57.8125 C 199.085938 57.703125 198.996094 57.613281 198.886719 57.613281 L 198.660156 57.613281 C 198.550781 57.613281 198.460938 57.703125 198.460938 57.8125 L 198.460938 75.542969 C 198.460938 75.652344 198.550781 75.742188 198.660156 75.742188 Z M 198.886719 75.742188 "/>
<g fill="rgb(0%, 0%, 0%)" fill-opacity="1">
<use xlink:href="#glyph-3-0" x="209.839844" y="56.375"/>
</g>
<path fill-rule="nonzero" fill="rgb(0%, 0%, 0%)" fill-opacity="1" d="M 210.265625 72.0625 C 210.375 72.0625 210.464844 71.972656 210.464844 71.863281 L 210.464844 57.375 C 210.464844 57.265625 210.375 57.175781 210.265625 57.175781 L 210.039062 57.175781 C 209.929688 57.175781 209.839844 57.265625 209.839844 57.375 L 209.839844 71.863281 C 209.839844 71.972656 209.929688 72.0625 210.039062 72.0625 Z M 210.265625 72.0625 "/>
<g fill="rgb(0%, 0%, 0%)" fill-opacity="1">
<use xlink:href="#glyph-3-0" x="228.625" y="56.375"/>
</g>
<path fill-rule="nonzero" fill="rgb(0%, 0%, 0%)" fill-opacity="1" d="M 229.050781 71.230469 C 229.160156 71.230469 229.25 71.140625 229.25 71.03125 L 229.25 57.378906 C 229.25 57.269531 229.160156 57.179688 229.050781 57.179688 L 228.824219 57.179688 C 228.714844 57.179688 228.625 57.269531 228.625 57.378906 L 228.625 71.03125 C 228.625 71.140625 228.714844 71.230469 228.824219 71.230469 Z M 229.050781 71.230469 "/>
<g fill="rgb(0%, 0%, 0%)" fill-opacity="1">
<use xlink:href="#glyph-3-0" x="243.089844" y="58.617188"/>
</g>
<path fill-rule="nonzero" fill="rgb(0%, 0%, 0%)" fill-opacity="1" d="M 243.515625 71.230469 C 243.625 71.230469 243.714844 71.140625 243.714844 71.03125 L 243.714844 59.621094 C 243.714844 59.507812 243.625 59.421875 243.515625 59.421875 L 243.289062 59.421875 C 243.179688 59.421875 243.089844 59.507812 243.089844 59.621094 L 243.089844 71.03125 C 243.089844 71.140625 243.179688 71.230469 243.289062 71.230469 Z M 243.515625 71.230469 "/>
<g fill="rgb(0%, 0%, 0%)" fill-opacity="1">
<use xlink:href="#glyph-3-0" x="253.246094" y="56.375"/>
</g>
<path fill-rule="nonzero" fill="rgb(0%, 0%, 0%)" fill-opacity="1" d="M 253.671875 71.230469 C 253.78125 71.230469 253.871094 71.140625 253.871094 71.03125 L 253.871094 57.378906 C 253.871094 57.269531 253.78125 57.179688 253.671875 57.179688 L 253.445312 57.179688 C 253.335938 57.179688 253.246094 57.269531 253.246094 57.378906 L 253.246094 71.03125 C 253.246094 71.140625 253.335938 71.230469 253.445312 71.230469 Z M 253.671875 71.230469 "/>
<g fill="rgb(0%, 0%, 0%)" fill-opacity="1">
<use xlink:href="#glyph-3-0" x="263.398438" y="54.132813"/>
</g>
<path fill-rule="nonzero" fill="rgb(0%, 0%, 0%)" fill-opacity="1" d="M 263.824219 71.347656 C 263.933594 71.347656 264.023438 71.257812 264.023438 71.148438 L 264.023438 55.132812 C 264.023438 55.023438 263.933594 54.933594 263.824219 54.933594 L 263.597656 54.933594 C 263.488281 54.933594 263.398438 55.023438 263.398438 55.132812 L 263.398438 71.148438 C 263.398438 71.257812 263.488281 71.347656 263.597656 71.347656 Z M 263.824219 71.347656 "/>
<g fill="rgb(0%, 0%, 0%)" fill-opacity="1">
<use xlink:href="#glyph-3-0" x="276.746094" y="65.339844"/>
</g>
<path fill-rule="nonzero" fill="rgb(0%, 0%, 0%)" fill-opacity="1" d="M 277.171875 76.429688 C 277.28125 76.429688 277.371094 76.339844 277.371094 76.230469 L 277.371094 66.34375 C 277.371094 66.234375 277.28125 66.144531 277.171875 66.144531 L 276.945312 66.144531 C 276.835938 66.144531 276.746094 66.234375 276.746094 66.34375 L 276.746094 76.230469 C 276.746094 76.339844 276.835938 76.429688 276.945312 76.429688 Z M 277.171875 76.429688 "/>
<g fill="rgb(0%, 0%, 0%)" fill-opacity="1">
<use xlink:href="#glyph-3-0" x="295.386719" y="65.339844"/>
</g>
<path fill-rule="nonzero" fill="rgb(0%, 0%, 0%)" fill-opacity="1" d="M 301.027344 64.535156 C 301.136719 64.535156 301.226562 64.445312 301.226562 64.335938 L 301.226562 53.511719 C 301.226562 53.402344 301.136719 53.3125 301.027344 53.3125 L 300.800781 53.3125 C 300.691406 53.3125 300.601562 53.402344 300.601562 53.511719 L 300.601562 64.335938 C 300.601562 64.445312 300.691406 64.535156 300.800781 64.535156 Z M 301.027344 64.535156 "/>
<g fill="rgb(0%, 0%, 0%)" fill-opacity="1">
<use xlink:href="#glyph-3-0" x="309.855469" y="67.582031"/>
</g>
<path fill-rule="nonzero" fill="rgb(0%, 0%, 0%)" fill-opacity="1" d="M 315.496094 66.777344 C 315.605469 66.777344 315.695312 66.6875 315.695312 66.578125 L 315.695312 54.3125 C 315.695312 54.203125 315.605469 54.113281 315.496094 54.113281 L 315.269531 54.113281 C 315.160156 54.113281 315.070312 54.203125 315.070312 54.3125 L 315.070312 66.578125 C 315.070312 66.6875 315.160156 66.777344 315.269531 66.777344 Z M 315.496094 66.777344 "/>
<g fill="rgb(0%, 0%, 0%)" fill-opacity="1">
<use xlink:href="#glyph-3-5" x="324.320312" y="63.097656"/>
</g>
<g fill="rgb(0%, 0%, 0%)" fill-opacity="1">
<use xlink:href="#glyph-3-0" x="337.433594" y="60.859375"/>
</g>
<path fill-rule="nonzero" fill="rgb(0%, 0%, 0%)" fill-opacity="1" d="M 337.859375 76.546875 C 337.96875 76.546875 338.058594 76.457031 338.058594 76.347656 L 338.058594 61.859375 C 338.058594 61.75 337.96875 61.660156 337.859375 61.660156 L 337.632812 61.660156 C 337.523438 61.660156 337.433594 61.75 337.433594 61.859375 L 337.433594 76.347656 C 337.433594 76.457031 337.523438 76.546875 337.632812 76.546875 Z M 337.859375 76.546875 "/>
<g fill="rgb(0%, 0%, 0%)" fill-opacity="1">
<use xlink:href="#glyph-3-7" x="338.058594" y="76.347656"/>
</g>
<g fill="rgb(0%, 0%, 0%)" fill-opacity="1">
<use xlink:href="#glyph-3-8" x="486.433594" y="63.097656"/>
</g>
<g fill="rgb(0%, 0%, 0%)" fill-opacity="1">
<use xlink:href="#glyph-3-0" x="351.902344" y="60.859375"/>
</g>
<g fill="rgb(0%, 0%, 0%)" fill-opacity="1">
<use xlink:href="#glyph-3-9" x="354.820312" y="52.769531"/>
</g>
<g fill="rgb(0%, 0%, 0%)" fill-opacity="1">
<use xlink:href="#glyph-3-10" x="359.742188" y="60.859375"/>
</g>
<path fill-rule="nonzero" fill="rgb(0%, 0%, 0%)" fill-opacity="1" d="M 352.328125 78.789062 C 352.4375 78.789062 352.527344 78.699219 352.527344 78.589844 L 352.527344 61.859375 C 352.527344 61.75 352.4375 61.660156 352.328125 61.660156 L 352.101562 61.660156 C 351.992188 61.660156 351.902344 61.75 351.902344 61.859375 L 351.902344 78.589844 C 351.902344 78.699219 351.992188 78.789062 352.101562 78.789062 Z M 352.328125 78.789062 "/>
<g fill="rgb(0%, 0%, 0%)" fill-opacity="1">
<use xlink:href="#glyph-3-0" x="368.890625" y="63.097656"/>
</g>
<path fill-rule="nonzero" fill="rgb(0%, 0%, 0%)" fill-opacity="1" d="M 369.316406 78.789062 C 369.425781 78.789062 369.515625 78.699219 369.515625 78.589844 L 369.515625 64.101562 C 369.515625 63.992188 369.425781 63.902344 369.316406 63.902344 L 369.089844 63.902344 C 368.980469 63.902344 368.890625 63.992188 368.890625 64.101562 L 368.890625 78.589844 C 368.890625 78.699219 368.980469 78.789062 369.089844 78.789062 Z M 369.316406 78.789062 "/>
<g fill="rgb(0%, 0%, 0%)" fill-opacity="1">
<use xlink:href="#glyph-3-8" x="364.203125" y="63.097656"/>
</g>
<g fill="rgb(0%, 0%, 0%)" fill-opacity="1">
<use xlink:href="#glyph-3-0" x="376.890625" y="60.859375"/>
</g>
<path fill-rule="nonzero" fill="rgb(0%, 0%, 0%)" fill-opacity="1" d="M 377.316406 78.789062 C 377.425781 78.789062 377.515625 78.699219 377.515625 78.589844 L 377.515625 61.859375 C 377.515625 61.75 377.425781 61.660156 377.316406 61.660156 L 377.089844 61.660156 C 376.980469 61.660156 376.890625 61.75 376.890625 61.859375 L 376.890625 78.589844 C 376.890625 78.699219 376.980469 78.789062 377.089844 78.789062 Z M 377.316406 78.789062 "/>
<g fill="rgb(0%, 0%, 0%)" fill-opacity="1">
<use xlink:href="#glyph-3-0" x="384.886719" y="58.617188"/>
</g>
<path fill-rule="nonzero" fill="rgb(0%, 0%, 0%)" fill-opacity="1" d="M 385.3125 75.8125 C 385.421875 75.8125 385.511719 75.722656 385.511719 75.613281 L 385.511719 59.617188 C 385.511719 59.507812 385.421875 59.417969 385.3125 59.417969 L 385.085938 59.417969 C 384.976562 59.417969 384.886719 59.507812 384.886719 59.617188 L 384.886719 75.613281 C 384.886719 75.722656 384.976562 75.8125 385.085938 75.8125 Z M 385.3125 75.8125 "/>
<path fill-rule="nonzero" fill="rgb(0%, 0%, 0%)" fill-opacity="1" d="M 491.550781 78.042969 C 491.660156 78.042969 491.75 77.953125 491.75 77.84375 L 491.75 64.101562 C 491.75 63.992188 491.660156 63.902344 491.550781 63.902344 L 491.324219 63.902344 C 491.214844 63.902344 491.125 63.992188 491.125 64.101562 L 491.125 77.84375 C 491.125 77.953125 491.214844 78.042969 491.324219 78.042969 Z M 491.550781 78.042969 "/>
<g fill="rgb(0%, 0%, 0%)" fill-opacity="1">
<use xlink:href="#glyph-3-0" x="398.234375" y="67.582031"/>
</g>
<path fill-rule="nonzero" fill="rgb(0%, 0%, 0%)" fill-opacity="1" d="M 398.660156 80.09375 C 398.769531 80.09375 398.859375 80.003906 398.859375 79.894531 L 398.859375 68.582031 C 398.859375 68.472656 398.769531 68.382812 398.660156 68.382812 L 398.433594 68.382812 C 398.324219 68.382812 398.234375 68.472656 398.234375 68.582031 L 398.234375 79.894531 C 398.234375 80.003906 398.324219 80.09375 398.433594 80.09375 Z M 398.660156 80.09375 "/>
<g fill="rgb(0%, 0%, 0%)" fill-opacity="1">
<use xlink:href="#glyph-3-0" x="491.125" y="63.097656"/>
</g>
<g fill="rgb(0%, 0%, 0%)" fill-opacity="1">
<use xlink:href="#glyph-3-0" x="417.03125" y="69.824219"/>
</g>
<g fill="rgb(0%, 0%, 0%)" fill-opacity="1">
<use xlink:href="#glyph-3-10" x="424.875" y="69.824219"/>
</g>
<path fill-rule="nonzero" fill="rgb(0%, 0%, 0%)" fill-opacity="1" d="M 422.675781 69.019531 C 422.785156 69.019531 422.875 68.929688 422.875 68.820312 L 422.875 54.332031 C 422.875 54.222656 422.785156 54.132812 422.675781 54.132812 L 422.449219 54.132812 C 422.339844 54.132812 422.25 54.222656 422.25 54.332031 L 422.25 68.820312 C 422.25 68.929688 422.339844 69.019531 422.449219 69.019531 Z M 422.675781 69.019531 "/>
<g fill="rgb(0%, 0%, 0%)" fill-opacity="1">
<use xlink:href="#glyph-3-0" x="439.710938" y="58.617188"/>
</g>
<path fill-rule="nonzero" fill="rgb(0%, 0%, 0%)" fill-opacity="1" d="M 440.136719 74.304688 C 440.246094 74.304688 440.335938 74.214844 440.335938 74.105469 L 440.335938 59.617188 C 440.335938 59.507812 440.246094 59.417969 440.136719 59.417969 L 439.910156 59.417969 C 439.800781 59.417969 439.710938 59.507812 439.710938 59.617188 L 439.710938 74.105469 C 439.710938 74.214844 439.800781 74.304688 439.910156 74.304688 Z M 440.136719 74.304688 "/>
<g fill="rgb(0%, 0%, 0%)" fill-opacity="1">
<use xlink:href="#glyph-3-7" x="440.335938" y="74.109375"/>
</g>
<g fill="rgb(0%, 0%, 0%)" fill-opacity="1">
<use xlink:href="#glyph-3-0" x="454.175781" y="56.375"/>
</g>
<path fill-rule="nonzero" fill="rgb(0%, 0%, 0%)" fill-opacity="1" d="M 454.605469 72.933594 C 454.714844 72.933594 454.804688 72.84375 454.804688 72.734375 L 454.804688 57.375 C 454.804688 57.265625 454.714844 57.175781 454.605469 57.175781 L 454.378906 57.175781 C 454.269531 57.175781 454.179688 57.265625 454.179688 57.375 L 454.179688 72.734375 C 454.179688 72.84375 454.269531 72.933594 454.378906 72.933594 Z M 454.605469 72.933594 "/>
<g fill="rgb(0%, 0%, 0%)" fill-opacity="1">
<use xlink:href="#glyph-3-0" x="468.644531" y="58.617188"/>
</g>
<path fill-rule="nonzero" fill="rgb(0%, 0%, 0%)" fill-opacity="1" d="M 469.070312 74.546875 C 469.179688 74.546875 469.269531 74.457031 469.269531 74.347656 L 469.269531 59.617188 C 469.269531 59.507812 469.179688 59.417969 469.070312 59.417969 L 468.84375 59.417969 C 468.734375 59.417969 468.644531 59.507812 468.644531 59.617188 L 468.644531 74.347656 C 468.644531 74.457031 468.734375 74.546875 468.84375 74.546875 Z M 469.070312 74.546875 "/>
<path fill-rule="nonzero" fill="rgb(0%, 0%, 0%)" fill-opacity="1" d="M 479.226562 75.675781 C 479.335938 75.675781 479.425781 75.585938 479.425781 75.476562 L 479.425781 61.859375 C 479.425781 61.75 479.335938 61.660156 479.226562 61.660156 L 479 61.660156 C 478.890625 61.660156 478.800781 61.75 478.800781 61.859375 L 478.800781 75.476562 C 478.800781 75.585938 478.890625 75.675781 479 75.675781 Z M 479.226562 75.675781 "/>
<path fill="none" stroke-width="0.0888889" stroke-linecap="butt" stroke-linejoin="round" stroke="rgb(0%, 0%, 0%)" stroke-opacity="1" stroke-miterlimit="10" d="M 106.894147 -15.878767 L 106.894147 -16.269986 L 104.578203 -16.001622 L 104.578203 -15.611275 Z M 106.894147 -15.878767 " transform="matrix(4.483188, 0, 0, -4.483188, 0, 0)"/>
<path fill-rule="nonzero" fill="rgb(0%, 0%, 0%)" fill-opacity="1" d="M 479.226562 71.1875 L 479.226562 72.941406 L 468.84375 71.738281 L 468.84375 69.988281 Z M 479.226562 71.1875 "/>
<path fill="none" stroke-width="0.0888889" stroke-linecap="butt" stroke-linejoin="round" stroke="rgb(0%, 0%, 0%)" stroke-opacity="1" stroke-miterlimit="10" d="M 106.893276 -16.693443 L 106.893276 -17.08379 L 101.350868 -16.456446 L 101.350868 -16.066099 Z M 106.893276 -16.693443 " transform="matrix(4.483188, 0, 0, -4.483188, 0, 0)"/>
<path fill-rule="nonzero" fill="rgb(0%, 0%, 0%)" fill-opacity="1" d="M 479.222656 74.839844 L 479.222656 76.589844 L 454.375 73.777344 L 454.375 72.027344 Z M 479.222656 74.839844 "/>
</svg>
