<?xml version="1.0" encoding="UTF-8"?>
<svg xmlns="http://www.w3.org/2000/svg" xmlns:xlink="http://www.w3.org/1999/xlink" width="236" height="43" viewBox="0 0 236 43">
<defs>
<g>
<g id="glyph-0-0">
<path d="M 0 0.921875 C 0 1.9375 0.78125 2.703125 2.109375 2.703125 C 4.296875 2.703125 6.5 0.8125 6.5 -0.921875 C 6.5 -2.015625 5.578125 -2.703125 4.328125 -2.703125 C 2.3125 -2.703125 0 -0.890625 0 0.921875 Z M 0 0.921875 "/>
</g>
<g id="glyph-0-1">
<path d="M 5.296875 12.65625 L 5.3125 11.796875 L 5.234375 11.796875 C 4.265625 11.796875 3.421875 11.28125 2.90625 10.5 C 3.109375 10.578125 3.3125 10.625 3.53125 10.625 C 4.5625 10.625 5.421875 9.765625 5.421875 8.71875 C 5.421875 7.609375 4.609375 6.671875 3.53125 6.671875 C 2.34375 6.671875 1.296875 7.5625 1.296875 8.71875 C 1.296875 10.890625 3.03125 12.65625 5.171875 12.65625 Z M 7.984375 -3.015625 C 10.21875 -2.765625 11.421875 -0.96875 11.421875 0.796875 C 11.421875 2.171875 10.703125 3.5 9.1875 4.046875 C 8.9375 1.8125 8.359375 -1.234375 7.984375 -3.015625 Z M 1.46875 -0.5625 C 1.46875 -3.75 3.578125 -6.171875 5.71875 -8.59375 C 6.0625 -7.4375 6.359375 -6.25 6.640625 -5.09375 C 4.609375 -4.640625 3.453125 -2.921875 3.453125 -1.171875 C 3.453125 1.3125 5.65625 2.546875 5.953125 2.546875 C 6.203125 2.546875 6.390625 2.328125 6.390625 2.109375 C 6.390625 2.015625 6.359375 1.90625 6.25 1.8125 C 5.140625 1.171875 4.640625 0.234375 4.640625 -0.640625 C 4.640625 -1.796875 5.53125 -2.84375 7.109375 -3.015625 C 7.796875 0.203125 8.234375 2.96875 8.359375 4.25 C 7.890625 4.328125 7.4375 4.359375 7.015625 4.359375 C 3.421875 4.359375 1.46875 1.671875 1.46875 -0.5625 Z M 7.109375 -23.78125 C 6.8125 -23.78125 3.9375 -21.671875 3.9375 -17.90625 C 3.9375 -14.40625 4.40625 -12.921875 4.984375 -11.015625 C 2.65625 -8.328125 0.046875 -5.75 0.046875 -2.234375 C 0.046875 0.890625 2.09375 5.21875 6.859375 5.21875 C 7.34375 5.21875 7.890625 5.15625 8.453125 5.0625 C 8.5 5.671875 8.53125 6.28125 8.53125 6.890625 C 8.53125 7.25 8.5 7.625 8.484375 7.984375 C 8.359375 9.953125 7.171875 11.75 5.3125 11.796875 L 5.296875 12.65625 C 7.5625 12.59375 9.1875 10.484375 9.328125 8.109375 C 9.34375 7.734375 9.359375 7.328125 9.359375 6.953125 C 9.359375 6.25 9.328125 5.5625 9.265625 4.859375 C 11.375 4.203125 12.84375 2.234375 12.84375 -0.015625 C 12.84375 -2.671875 10.859375 -5.234375 7.765625 -5.234375 C 7.6875 -5.234375 7.59375 -5.21875 7.484375 -5.21875 C 7.15625 -6.59375 6.796875 -7.984375 6.375 -9.34375 C 8.25 -11.515625 9.953125 -13.75 9.953125 -16.59375 C 9.953125 -19.6875 7.671875 -23.78125 7.109375 -23.78125 Z M 4.921875 -15.578125 C 4.921875 -18.890625 7.15625 -20.34375 8.125 -20.8125 C 8.421875 -19.921875 8.546875 -19.078125 8.546875 -18.28125 C 8.546875 -15.8125 7.25 -13.78125 5.625 -11.796875 C 5.15625 -13.28125 4.921875 -14.484375 4.921875 -15.578125 Z M 4.921875 -15.578125 "/>
</g>
<g id="glyph-0-2">
<path d="M 8.625 1.765625 C 8.625 1.609375 8.484375 1.53125 8.359375 1.53125 C 8.265625 1.53125 8.171875 1.59375 8.125 1.734375 C 7.75 3.34375 6.578125 4.734375 4.984375 4.734375 C 2.875 4.734375 2.734375 3.265625 2.734375 1.015625 L 2.734375 -1.015625 C 2.734375 -3.265625 2.875 -4.71875 4.984375 -4.71875 C 5.9375 -4.71875 6.8125 -4.28125 7.375 -3.546875 C 7.265625 -3.5625 7.171875 -3.5625 7.09375 -3.5625 C 6.203125 -3.5625 5.65625 -2.78125 5.65625 -2.03125 C 5.65625 -1.03125 6.53125 -0.53125 7.15625 -0.53125 C 7.890625 -0.53125 8.484375 -1.171875 8.484375 -1.96875 C 8.484375 -3.109375 7.296875 -5.21875 4.984375 -5.21875 C 0.359375 -5.21875 0 -1.234375 0 0 C 0 4.859375 3.8125 5.234375 4.984375 5.234375 C 7.625 5.234375 8.625 2.21875 8.625 1.765625 Z M 8.625 1.765625 "/>
</g>
<g id="glyph-0-3">
<path d="M 1.4375 2.109375 C 0.953125 2.109375 0.625 1.734375 0.625 1.296875 C 0.625 1.109375 0.671875 0.921875 0.8125 0.734375 C 1.359375 0.078125 4.625 -2.109375 5.421875 -2.109375 C 5.890625 -2.109375 6.25 -1.734375 6.25 -1.296875 C 6.25 -1.109375 6.171875 -0.921875 6.03125 -0.734375 C 5.5 -0.078125 2.234375 2.109375 1.4375 2.109375 Z M 0 1.328125 C 0 2.515625 0.890625 2.703125 1.71875 2.703125 C 5.9375 2.703125 6.859375 0.078125 6.859375 -1.328125 C 6.859375 -2.515625 5.953125 -2.703125 5.140625 -2.703125 C 0.921875 -2.703125 0 -0.078125 0 1.328125 Z M 0 1.328125 "/>
</g>
<g id="glyph-1-0">
<path d="M 2.953125 -3.171875 C 3.375 -3.296875 3.53125 -3.375 3.75 -3.5 C 4.15625 -3.78125 4.40625 -4.25 4.40625 -4.75 C 4.40625 -5.5625 3.75 -6.125 2.765625 -6.125 C 1.8125 -6.125 1.015625 -5.53125 1.015625 -4.828125 C 1.015625 -4.46875 1.234375 -4.21875 1.5625 -4.21875 C 1.859375 -4.21875 2.0625 -4.4375 2.0625 -4.71875 C 2.0625 -4.859375 2.015625 -4.96875 1.875 -5.109375 C 1.796875 -5.1875 1.765625 -5.25 1.765625 -5.3125 C 1.765625 -5.515625 2.1875 -5.734375 2.609375 -5.734375 C 3.1875 -5.734375 3.53125 -5.40625 3.53125 -4.875 C 3.53125 -4.09375 2.984375 -3.375 2.40625 -3.375 C 2.375 -3.375 2.296875 -3.375 2.203125 -3.390625 C 1.953125 -3.40625 1.953125 -3.40625 1.890625 -3.40625 C 1.703125 -3.40625 1.59375 -3.3125 1.59375 -3.15625 C 1.59375 -3.015625 1.703125 -2.9375 1.859375 -2.9375 C 1.890625 -2.9375 1.953125 -2.9375 2.03125 -2.953125 C 2.15625 -2.96875 2.28125 -2.984375 2.359375 -2.984375 C 2.765625 -2.984375 3.046875 -2.625 3.046875 -2.078125 C 3.046875 -1.65625 2.953125 -1.265625 2.765625 -0.9375 C 2.5 -0.46875 2.09375 -0.234375 1.53125 -0.234375 C 1.046875 -0.234375 0.625 -0.484375 0.625 -0.75 C 0.625 -0.859375 0.65625 -0.890625 0.796875 -0.953125 C 1.046875 -1.0625 1.15625 -1.21875 1.15625 -1.453125 C 1.15625 -1.765625 0.90625 -2 0.59375 -2 C 0.21875 -2 -0.015625 -1.703125 -0.015625 -1.25 C -0.015625 -0.40625 0.625 0.125 1.671875 0.125 C 2.984375 0.125 3.984375 -0.75 3.984375 -1.921875 C 3.984375 -2.234375 3.890625 -2.5 3.703125 -2.71875 C 3.515625 -2.9375 3.34375 -3.046875 2.953125 -3.171875 Z M 2.953125 -3.171875 "/>
</g>
</g>
</defs>
<path fill-rule="nonzero" fill="rgb(0%, 0%, 0%)" fill-opacity="1" d="M 125.777344 29.769531 L 125.777344 9.84375 L 126.722656 9.84375 L 126.722656 29.769531 Z M 125.777344 29.769531 "/>
<path fill="none" stroke-width="0.1" stroke-linecap="round" stroke-linejoin="miter" stroke="rgb(0%, 0%, 0%)" stroke-opacity="1" stroke-miterlimit="10" d="M 8.585983 -5.776268 L 55.6846 -5.776268 " transform="matrix(4.98132, 0, 0, -4.98132, -42, 1)"/>
<path fill="none" stroke-width="0.1" stroke-linecap="round" stroke-linejoin="miter" stroke="rgb(0%, 0%, 0%)" stroke-opacity="1" stroke-miterlimit="10" d="M 8.585983 -4.775654 L 55.6846 -4.775654 " transform="matrix(4.98132, 0, 0, -4.98132, -42, 1)"/>
<path fill="none" stroke-width="0.1" stroke-linecap="round" stroke-linejoin="miter" stroke="rgb(0%, 0%, 0%)" stroke-opacity="1" stroke-miterlimit="10" d="M 8.585983 -3.775825 L 55.6846 -3.775825 " transform="matrix(4.98132, 0, 0, -4.98132, -42, 1)"/>
<path fill="none" stroke-width="0.1" stroke-linecap="round" stroke-linejoin="miter" stroke="rgb(0%, 0%, 0%)" stroke-opacity="1" stroke-miterlimit="10" d="M 8.585983 -2.775996 L 55.6846 -2.775996 " transform="matrix(4.98132, 0, 0, -4.98132, -42, 1)"/>
<path fill="none" stroke-width="0.1" stroke-linecap="round" stroke-linejoin="miter" stroke="rgb(0%, 0%, 0%)" stroke-opacity="1" stroke-miterlimit="10" d="M 8.585983 -1.776167 L 55.6846 -1.776167 " transform="matrix(4.98132, 0, 0, -4.98132, -42, 1)"/>
<path fill-rule="nonzero" fill="rgb(0%, 0%, 0%)" fill-opacity="1" d="M 234.683594 29.769531 L 234.683594 9.84375 L 235.628906 9.84375 L 235.628906 29.769531 Z M 234.683594 29.769531 "/>
<g fill="rgb(0%, 0%, 0%)" fill-opacity="1">
<use xlink:href="#glyph-0-0" x="144.820312" y="9.847656"/>
</g>
<path fill="none" stroke-width="0.08" stroke-linecap="butt" stroke-linejoin="round" stroke="rgb(0%, 0%, 0%)" stroke-opacity="1" stroke-miterlimit="10" d="M 47.61147 -6.386359 L 47.61147 -6.786291 L 42.552727 -6.166005 L 42.552727 -5.766073 Z M 47.61147 -6.386359 " transform="matrix(4.98132, 0, 0, -4.98132, -42, 1)"/>
<path fill-rule="nonzero" fill="rgb(0%, 0%, 0%)" fill-opacity="1" d="M 195.167969 32.8125 L 195.167969 34.804688 L 169.96875 31.714844 L 169.96875 29.722656 Z M 195.167969 32.8125 "/>
<path fill="none" stroke-width="0.08" stroke-linecap="butt" stroke-linejoin="round" stroke="rgb(0%, 0%, 0%)" stroke-opacity="1" stroke-miterlimit="10" d="M 40.098244 -5.38653 L 40.098244 -5.786462 L 35.039501 -5.166176 L 35.039501 -4.766244 Z M 40.098244 -5.38653 " transform="matrix(4.98132, 0, 0, -4.98132, -42, 1)"/>
<path fill-rule="nonzero" fill="rgb(0%, 0%, 0%)" fill-opacity="1" d="M 157.742188 27.832031 L 157.742188 29.824219 L 132.542969 26.734375 L 132.542969 24.742188 Z M 157.742188 27.832031 "/>
<g fill="rgb(0%, 0%, 0%)" fill-opacity="1">
<use xlink:href="#glyph-0-0" x="43.285156" y="17.320312"/>
</g>
<g fill="rgb(0%, 0%, 0%)" fill-opacity="1">
<use xlink:href="#glyph-0-1" x="4.503906" y="24.789062"/>
</g>
<g fill="rgb(0%, 0%, 0%)" fill-opacity="1">
<use xlink:href="#glyph-0-2" x="24.851562" y="19.808594"/>
</g>
<path fill-rule="nonzero" fill="rgb(0%, 0%, 0%)" fill-opacity="1" d="M 43.734375 34.753906 C 43.84375 34.753906 43.933594 34.664062 43.933594 34.554688 L 43.933594 18.445312 C 43.933594 18.335938 43.84375 18.246094 43.734375 18.246094 L 43.484375 18.246094 C 43.375 18.246094 43.285156 18.335938 43.285156 18.445312 L 43.285156 34.554688 C 43.285156 34.664062 43.375 34.753906 43.484375 34.753906 Z M 43.734375 34.753906 "/>
<g fill="rgb(0%, 0%, 0%)" fill-opacity="1">
<use xlink:href="#glyph-1-0" x="180.183594" y="41.972656"/>
</g>
<g fill="rgb(0%, 0%, 0%)" fill-opacity="1">
<use xlink:href="#glyph-0-0" x="61.734375" y="14.828125"/>
</g>
<path fill-rule="nonzero" fill="rgb(0%, 0%, 0%)" fill-opacity="1" d="M 62.183594 32.261719 C 62.292969 32.261719 62.382812 32.171875 62.382812 32.0625 L 62.382812 15.953125 C 62.382812 15.84375 62.292969 15.753906 62.183594 15.753906 L 61.933594 15.753906 C 61.824219 15.753906 61.734375 15.84375 61.734375 15.953125 L 61.734375 32.0625 C 61.734375 32.171875 61.824219 32.261719 61.933594 32.261719 Z M 62.183594 32.261719 "/>
<g fill="rgb(0%, 0%, 0%)" fill-opacity="1">
<use xlink:href="#glyph-0-0" x="80.1875" y="12.335938"/>
</g>
<path fill-rule="nonzero" fill="rgb(0%, 0%, 0%)" fill-opacity="1" d="M 80.636719 29.769531 C 80.746094 29.769531 80.835938 29.679688 80.835938 29.570312 L 80.835938 13.460938 C 80.835938 13.351562 80.746094 13.261719 80.636719 13.261719 L 80.386719 13.261719 C 80.277344 13.261719 80.1875 13.351562 80.1875 13.460938 L 80.1875 29.570312 C 80.1875 29.679688 80.277344 29.769531 80.386719 29.769531 Z M 80.636719 29.769531 "/>
<g fill="rgb(0%, 0%, 0%)" fill-opacity="1">
<use xlink:href="#glyph-1-0" x="142.761719" y="36.992188"/>
</g>
<g fill="rgb(0%, 0%, 0%)" fill-opacity="1">
<use xlink:href="#glyph-0-3" x="98.640625" y="9.847656"/>
</g>
<path fill-rule="nonzero" fill="rgb(0%, 0%, 0%)" fill-opacity="1" d="M 99.089844 27.28125 C 99.199219 27.28125 99.289062 27.191406 99.289062 27.082031 L 99.289062 11.335938 C 99.289062 11.226562 99.199219 11.136719 99.089844 11.136719 L 98.839844 11.136719 C 98.730469 11.136719 98.640625 11.226562 98.640625 11.335938 L 98.640625 27.082031 C 98.640625 27.191406 98.730469 27.28125 98.839844 27.28125 Z M 99.089844 27.28125 "/>
<g fill="rgb(0%, 0%, 0%)" fill-opacity="1">
<use xlink:href="#glyph-1-0" x="59.679688" y="41.484375"/>
</g>
<g fill="rgb(0%, 0%, 0%)" fill-opacity="1">
<use xlink:href="#glyph-0-0" x="132.34375" y="7.355469"/>
</g>
<path fill-rule="nonzero" fill="rgb(0%, 0%, 0%)" fill-opacity="1" d="M 132.792969 25.777344 C 132.902344 25.777344 132.992188 25.6875 132.992188 25.578125 L 132.992188 8.484375 C 132.992188 8.375 132.902344 8.285156 132.792969 8.285156 L 132.542969 8.285156 C 132.433594 8.285156 132.34375 8.375 132.34375 8.484375 L 132.34375 25.578125 C 132.34375 25.6875 132.433594 25.777344 132.542969 25.777344 Z M 132.792969 25.777344 "/>
<path fill="none" stroke-width="0.16" stroke-linecap="round" stroke-linejoin="round" stroke="rgb(0%, 0%, 0%)" stroke-opacity="1" stroke-miterlimit="10" d="M 24.858496 -7.157992 L 24.858496 -6.45772 " transform="matrix(4.98132, 0, 0, -4.98132, -42, 1)"/>
<path fill="none" stroke-width="0.16" stroke-linecap="round" stroke-linejoin="round" stroke="rgb(0%, 0%, 0%)" stroke-opacity="1" stroke-miterlimit="10" d="M 16.921813 -7.895121 L 16.921813 -7.194849 " transform="matrix(4.98132, 0, 0, -4.98132, -42, 1)"/>
<path fill="none" stroke-width="0.16" stroke-linecap="round" stroke-linejoin="round" stroke="rgb(0%, 0%, 0%)" stroke-opacity="1" stroke-miterlimit="10" d="M 24.858496 -7.157992 L 21.963305 -7.426966 " transform="matrix(4.98132, 0, 0, -4.98132, -42, 1)"/>
<path fill="none" stroke-width="0.16" stroke-linecap="round" stroke-linejoin="round" stroke="rgb(0%, 0%, 0%)" stroke-opacity="1" stroke-miterlimit="10" d="M 16.921813 -7.895121 L 20.016187 -7.608111 " transform="matrix(4.98132, 0, 0, -4.98132, -42, 1)"/>
<path fill-rule="nonzero" fill="rgb(0%, 0%, 0%)" fill-opacity="1" d="M 145.269531 27.28125 C 145.378906 27.28125 145.46875 27.191406 145.46875 27.082031 L 145.46875 10.972656 C 145.46875 10.863281 145.378906 10.773438 145.269531 10.773438 L 145.019531 10.773438 C 144.910156 10.773438 144.820312 10.863281 144.820312 10.972656 L 144.820312 27.082031 C 144.820312 27.191406 144.910156 27.28125 145.019531 27.28125 Z M 145.269531 27.28125 "/>
<g fill="rgb(0%, 0%, 0%)" fill-opacity="1">
<use xlink:href="#glyph-0-0" x="157.292969" y="12.335938"/>
</g>
<path fill-rule="nonzero" fill="rgb(0%, 0%, 0%)" fill-opacity="1" d="M 157.742188 28.785156 C 157.851562 28.785156 157.941406 28.695312 157.941406 28.585938 L 157.941406 13.460938 C 157.941406 13.351562 157.851562 13.261719 157.742188 13.261719 L 157.492188 13.261719 C 157.382812 13.261719 157.292969 13.351562 157.292969 13.460938 L 157.292969 28.585938 C 157.292969 28.695312 157.382812 28.785156 157.492188 28.785156 Z M 157.742188 28.785156 "/>
<g fill="rgb(0%, 0%, 0%)" fill-opacity="1">
<use xlink:href="#glyph-0-0" x="169.769531" y="14.828125"/>
</g>
<path fill-rule="nonzero" fill="rgb(0%, 0%, 0%)" fill-opacity="1" d="M 170.21875 30.757812 C 170.328125 30.757812 170.417969 30.667969 170.417969 30.558594 L 170.417969 15.957031 C 170.417969 15.84375 170.328125 15.757812 170.21875 15.757812 L 169.96875 15.757812 C 169.859375 15.757812 169.769531 15.84375 169.769531 15.957031 L 169.769531 30.558594 C 169.769531 30.667969 169.859375 30.757812 169.96875 30.757812 Z M 170.21875 30.757812 "/>
<g fill="rgb(0%, 0%, 0%)" fill-opacity="1">
<use xlink:href="#glyph-0-0" x="182.242188" y="17.320312"/>
</g>
<path fill-rule="nonzero" fill="rgb(0%, 0%, 0%)" fill-opacity="1" d="M 182.691406 32.261719 C 182.800781 32.261719 182.890625 32.171875 182.890625 32.0625 L 182.890625 18.445312 C 182.890625 18.335938 182.800781 18.246094 182.691406 18.246094 L 182.441406 18.246094 C 182.332031 18.246094 182.242188 18.335938 182.242188 18.445312 L 182.242188 32.0625 C 182.242188 32.171875 182.332031 32.261719 182.441406 32.261719 Z M 182.691406 32.261719 "/>
<g fill="rgb(0%, 0%, 0%)" fill-opacity="1">
<use xlink:href="#glyph-0-0" x="194.714844" y="19.808594"/>
</g>
<path fill-rule="nonzero" fill="rgb(0%, 0%, 0%)" fill-opacity="1" d="M 195.164062 33.765625 C 195.273438 33.765625 195.363281 33.675781 195.363281 33.566406 L 195.363281 20.933594 C 195.363281 20.824219 195.273438 20.734375 195.164062 20.734375 L 194.914062 20.734375 C 194.804688 20.734375 194.714844 20.824219 194.714844 20.933594 L 194.714844 33.566406 C 194.714844 33.675781 194.804688 33.765625 194.914062 33.765625 Z M 195.164062 33.765625 "/>
<g fill="rgb(0%, 0%, 0%)" fill-opacity="1">
<use xlink:href="#glyph-0-3" x="207.191406" y="17.320312"/>
</g>
<path fill-rule="nonzero" fill="rgb(0%, 0%, 0%)" fill-opacity="1" d="M 207.640625 34.753906 C 207.75 34.753906 207.839844 34.664062 207.839844 34.554688 L 207.839844 18.808594 C 207.839844 18.699219 207.75 18.609375 207.640625 18.609375 L 207.390625 18.609375 C 207.28125 18.609375 207.191406 18.699219 207.191406 18.808594 L 207.191406 34.554688 C 207.191406 34.664062 207.28125 34.753906 207.390625 34.753906 Z M 207.640625 34.753906 "/>
</svg>
