<?xml version="1.0" encoding="UTF-8"?>
<svg xmlns="http://www.w3.org/2000/svg" xmlns:xlink="http://www.w3.org/1999/xlink" width="313" height="43" viewBox="0 0 313 43">
<defs>
<g>
<g id="glyph-0-0">
<path d="M 0 0.921875 C 0 1.9375 0.78125 2.703125 2.109375 2.703125 C 4.296875 2.703125 6.5 0.8125 6.5 -0.921875 C 6.5 -2.015625 5.578125 -2.703125 4.328125 -2.703125 C 2.3125 -2.703125 0 -0.890625 0 0.921875 Z M 0 0.921875 "/>
</g>
<g id="glyph-0-1">
<path d="M 5.296875 12.65625 L 5.3125 11.796875 L 5.234375 11.796875 C 4.265625 11.796875 3.421875 11.28125 2.90625 10.5 C 3.109375 10.578125 3.3125 10.625 3.53125 10.625 C 4.5625 10.625 5.421875 9.765625 5.421875 8.71875 C 5.421875 7.609375 4.609375 6.671875 3.53125 6.671875 C 2.34375 6.671875 1.296875 7.5625 1.296875 8.71875 C 1.296875 10.890625 3.03125 12.65625 5.171875 12.65625 Z M 7.984375 -3.015625 C 10.21875 -2.765625 11.421875 -0.96875 11.421875 0.796875 C 11.421875 2.171875 10.703125 3.5 9.1875 4.046875 C 8.9375 1.8125 8.359375 -1.234375 7.984375 -3.015625 Z M 1.46875 -0.5625 C 1.46875 -3.75 3.578125 -6.171875 5.71875 -8.59375 C 6.0625 -7.4375 6.359375 -6.25 6.640625 -5.09375 C 4.609375 -4.640625 3.453125 -2.921875 3.453125 -1.171875 C 3.453125 1.3125 5.65625 2.546875 5.953125 2.546875 C 6.203125 2.546875 6.390625 2.328125 6.390625 2.109375 C 6.390625 2.015625 6.359375 1.90625 6.25 1.8125 C 5.140625 1.171875 4.640625 0.234375 4.640625 -0.640625 C 4.640625 -1.796875 5.53125 -2.84375 7.109375 -3.015625 C 7.796875 0.203125 8.234375 2.96875 8.359375 4.25 C 7.890625 4.328125 7.4375 4.359375 7.015625 4.359375 C 3.421875 4.359375 1.46875 1.671875 1.46875 -0.5625 Z M 7.109375 -23.78125 C 6.8125 -23.78125 3.9375 -21.671875 3.9375 -17.90625 C 3.9375 -14.40625 4.40625 -12.921875 4.984375 -11.015625 C 2.65625 -8.328125 0.046875 -5.75 0.046875 -2.234375 C 0.046875 0.890625 2.09375 5.21875 6.859375 5.21875 C 7.34375 5.21875 7.890625 5.15625 8.453125 5.0625 C 8.5 5.671875 8.53125 6.28125 8.53125 6.890625 C 8.53125 7.25 8.5 7.625 8.484375 7.984375 C 8.359375 9.953125 7.171875 11.75 5.3125 11.796875 L 5.296875 12.65625 C 7.5625 12.59375 9.1875 10.484375 9.328125 8.109375 C 9.34375 7.734375 9.359375 7.328125 9.359375 6.953125 C 9.359375 6.25 9.328125 5.5625 9.265625 4.859375 C 11.375 4.203125 12.84375 2.234375 12.84375 -0.015625 C 12.84375 -2.671875 10.859375 -5.234375 7.765625 -5.234375 C 7.6875 -5.234375 7.59375 -5.21875 7.484375 -5.21875 C 7.15625 -6.59375 6.796875 -7.984375 6.375 -9.34375 C 8.25 -11.515625 9.953125 -13.75 9.953125 -16.59375 C 9.953125 -19.6875 7.671875 -23.78125 7.109375 -23.78125 Z M 4.921875 -15.578125 C 4.921875 -18.890625 7.15625 -20.34375 8.125 -20.8125 C 8.421875 -19.921875 8.546875 -19.078125 8.546875 -18.28125 C 8.546875 -15.8125 7.25 -13.78125 5.625 -11.796875 C 5.15625 -13.28125 4.921875 -14.484375 4.921875 -15.578125 Z M 4.921875 -15.578125 "/>
</g>
<g id="glyph-0-2">
<path d="M 8.625 1.765625 C 8.625 1.609375 8.484375 1.53125 8.359375 1.53125 C 8.265625 1.53125 8.171875 1.59375 8.125 1.734375 C 7.75 3.34375 6.578125 4.734375 4.984375 4.734375 C 2.875 4.734375 2.734375 3.265625 2.734375 1.015625 L 2.734375 -1.015625 C 2.734375 -3.265625 2.875 -4.71875 4.984375 -4.71875 C 5.9375 -4.71875 6.8125 -4.28125 7.375 -3.546875 C 7.265625 -3.5625 7.171875 -3.5625 7.09375 -3.5625 C 6.203125 -3.5625 5.65625 -2.78125 5.65625 -2.03125 C 5.65625 -1.03125 6.53125 -0.53125 7.15625 -0.53125 C 7.890625 -0.53125 8.484375 -1.171875 8.484375 -1.96875 C 8.484375 -3.109375 7.296875 -5.21875 4.984375 -5.21875 C 0.359375 -5.21875 0 -1.234375 0 0 C 0 4.859375 3.8125 5.234375 4.984375 5.234375 C 7.625 5.234375 8.625 2.21875 8.625 1.765625 Z M 8.625 1.765625 "/>
</g>
<g id="glyph-0-3">
<path d="M 0 -2.375 L 0 -1.171875 C 0 -0.953125 0.171875 -0.78125 0.390625 -0.78125 C 0.4375 -0.78125 0.5 -0.78125 0.53125 -0.796875 L 1.171875 -1.015625 L 1.171875 2.171875 L 0.265625 2.484375 C 0.09375 2.546875 0 2.703125 0 2.875 L 0 4.0625 C 0 4.28125 0.171875 4.46875 0.390625 4.46875 C 0.4375 4.46875 0.5 4.46875 0.53125 4.4375 L 1.171875 4.203125 L 1.171875 7.09375 C 1.171875 7.296875 1.328125 7.46875 1.53125 7.46875 C 1.734375 7.46875 1.90625 7.296875 1.90625 7.09375 L 1.90625 3.9375 L 3.5625 3.328125 L 3.5625 6.21875 C 3.5625 6.421875 3.75 6.59375 3.9375 6.59375 C 4.140625 6.59375 4.296875 6.421875 4.296875 6.21875 L 4.296875 3.0625 L 5.21875 2.734375 C 5.375 2.671875 5.484375 2.53125 5.484375 2.375 L 5.484375 1.171875 C 5.484375 0.953125 5.296875 0.78125 5.078125 0.78125 C 5.046875 0.78125 4.984375 0.78125 4.9375 0.796875 L 4.296875 1.015625 L 4.296875 -2.171875 L 5.21875 -2.484375 C 5.375 -2.546875 5.484375 -2.703125 5.484375 -2.875 L 5.484375 -4.0625 C 5.484375 -4.28125 5.296875 -4.46875 5.078125 -4.46875 C 5.046875 -4.46875 4.984375 -4.46875 4.9375 -4.4375 L 4.296875 -4.203125 L 4.296875 -7.09375 C 4.296875 -7.296875 4.140625 -7.46875 3.9375 -7.46875 C 3.75 -7.46875 3.5625 -7.296875 3.5625 -7.09375 L 3.5625 -3.9375 L 1.90625 -3.328125 L 1.90625 -6.21875 C 1.90625 -6.421875 1.734375 -6.59375 1.53125 -6.59375 C 1.328125 -6.59375 1.171875 -6.421875 1.171875 -6.21875 L 1.171875 -3.0625 L 0.265625 -2.734375 C 0.09375 -2.671875 0 -2.53125 0 -2.375 Z M 3.5625 -1.890625 L 3.5625 1.296875 L 1.90625 1.890625 L 1.90625 -1.296875 Z M 3.5625 -1.890625 "/>
</g>
<g id="glyph-0-4">
<path d="M 0.53125 -0.8125 C 0.5625 -1.46875 0.96875 -2.078125 1.59375 -2.078125 C 2.171875 -2.078125 2.453125 -1.390625 2.453125 -0.734375 C 2.453125 0.4375 1.5 1.28125 0.59375 2.03125 C 0.53125 1.59375 0.515625 1.15625 0.515625 0.71875 L 0.515625 0.5 Z M -0.296875 2.75 C -0.296875 3.03125 -0.09375 3.25 0.15625 3.25 C 0.578125 3.25 0.75 2.75 1.0625 2.484375 C 2.265625 1.453125 3.984375 0.71875 3.984375 -0.875 C 3.984375 -1.953125 3.25 -2.90625 2.21875 -2.90625 C 1.546875 -2.90625 0.890625 -2.65625 0.390625 -2.234375 L 0.53125 -9.109375 C 0.375 -9.203125 0.171875 -9.265625 0 -9.265625 C -0.171875 -9.265625 -0.375 -9.203125 -0.53125 -9.109375 Z M -0.296875 2.75 "/>
</g>
</g>
</defs>
<path fill-rule="nonzero" fill="rgb(0%, 0%, 0%)" fill-opacity="1" d="M 107.679688 29.769531 L 107.679688 9.84375 L 108.625 9.84375 L 108.625 29.769531 Z M 107.679688 29.769531 "/>
<path fill="none" stroke-width="0.1" stroke-linecap="round" stroke-linejoin="miter" stroke="rgb(0%, 0%, 0%)" stroke-opacity="1" stroke-miterlimit="10" d="M 8.585983 -5.776268 L 71.176854 -5.776268 " transform="matrix(4.98132, 0, 0, -4.98132, -42, 1)"/>
<path fill="none" stroke-width="0.1" stroke-linecap="round" stroke-linejoin="miter" stroke="rgb(0%, 0%, 0%)" stroke-opacity="1" stroke-miterlimit="10" d="M 8.585983 -4.775654 L 71.176854 -4.775654 " transform="matrix(4.98132, 0, 0, -4.98132, -42, 1)"/>
<path fill="none" stroke-width="0.1" stroke-linecap="round" stroke-linejoin="miter" stroke="rgb(0%, 0%, 0%)" stroke-opacity="1" stroke-miterlimit="10" d="M 8.585983 -3.775825 L 71.176854 -3.775825 " transform="matrix(4.98132, 0, 0, -4.98132, -42, 1)"/>
<path fill="none" stroke-width="0.1" stroke-linecap="round" stroke-linejoin="miter" stroke="rgb(0%, 0%, 0%)" stroke-opacity="1" stroke-miterlimit="10" d="M 8.585983 -2.775996 L 71.176854 -2.775996 " transform="matrix(4.98132, 0, 0, -4.98132, -42, 1)"/>
<path fill="none" stroke-width="0.1" stroke-linecap="round" stroke-linejoin="miter" stroke="rgb(0%, 0%, 0%)" stroke-opacity="1" stroke-miterlimit="10" d="M 8.585983 -1.776167 L 71.176854 -1.776167 " transform="matrix(4.98132, 0, 0, -4.98132, -42, 1)"/>
<path fill-rule="nonzero" fill="rgb(0%, 0%, 0%)" fill-opacity="1" d="M 311.855469 29.769531 L 311.855469 9.84375 L 312.800781 9.84375 L 312.800781 29.769531 Z M 311.855469 29.769531 "/>
<path fill-rule="nonzero" fill="rgb(0%, 0%, 0%)" fill-opacity="1" d="M 243.824219 29.769531 L 243.824219 9.84375 L 244.769531 9.84375 L 244.769531 29.769531 Z M 243.824219 29.769531 "/>
<path fill-rule="nonzero" fill="rgb(0%, 0%, 0%)" fill-opacity="1" d="M 67.613281 35.253906 C 67.886719 35.253906 68.113281 35.027344 68.113281 34.753906 C 68.113281 34.480469 67.886719 34.253906 67.613281 34.253906 L 59.617188 34.253906 C 59.34375 34.253906 59.117188 34.480469 59.117188 34.753906 C 59.117188 35.027344 59.34375 35.253906 59.617188 35.253906 Z M 67.613281 35.253906 "/>
<path fill-rule="nonzero" fill="rgb(0%, 0%, 0%)" fill-opacity="1" d="M 50.910156 35.253906 C 51.183594 35.253906 51.40625 35.027344 51.40625 34.753906 C 51.40625 34.480469 51.183594 34.253906 50.910156 34.253906 L 42.160156 34.253906 C 41.886719 34.253906 41.660156 34.480469 41.660156 34.753906 C 41.660156 35.027344 41.886719 35.253906 42.160156 35.253906 Z M 50.910156 35.253906 "/>
<path fill-rule="nonzero" fill="rgb(0%, 0%, 0%)" fill-opacity="1" d="M 175.683594 29.769531 L 175.683594 9.84375 L 176.628906 9.84375 L 176.628906 29.769531 Z M 175.683594 29.769531 "/>
<g fill="rgb(0%, 0%, 0%)" fill-opacity="1">
<use xlink:href="#glyph-0-0" x="43.285156" y="34.753906"/>
</g>
<g fill="rgb(0%, 0%, 0%)" fill-opacity="1">
<use xlink:href="#glyph-0-1" x="4.503906" y="24.789062"/>
</g>
<g fill="rgb(0%, 0%, 0%)" fill-opacity="1">
<use xlink:href="#glyph-0-2" x="24.851562" y="19.808594"/>
</g>
<path fill-rule="nonzero" fill="rgb(0%, 0%, 0%)" fill-opacity="1" d="M 49.582031 33.824219 C 49.691406 33.824219 49.78125 33.734375 49.78125 33.625 L 49.78125 17.515625 C 49.78125 17.40625 49.691406 17.316406 49.582031 17.316406 L 49.332031 17.316406 C 49.222656 17.316406 49.132812 17.40625 49.132812 17.515625 L 49.132812 33.625 C 49.132812 33.734375 49.222656 33.824219 49.332031 33.824219 Z M 49.582031 33.824219 "/>
<g fill="rgb(0%, 0%, 0%)" fill-opacity="1">
<use xlink:href="#glyph-0-0" x="59.992188" y="34.753906"/>
</g>
<path fill-rule="nonzero" fill="rgb(0%, 0%, 0%)" fill-opacity="1" d="M 66.289062 33.824219 C 66.398438 33.824219 66.488281 33.734375 66.488281 33.625 L 66.488281 17.515625 C 66.488281 17.40625 66.398438 17.316406 66.289062 17.316406 L 66.039062 17.316406 C 65.929688 17.316406 65.839844 17.40625 65.839844 17.515625 L 65.839844 33.625 C 65.839844 33.734375 65.929688 33.824219 66.039062 33.824219 Z M 66.289062 33.824219 "/>
<g fill="rgb(0%, 0%, 0%)" fill-opacity="1">
<use xlink:href="#glyph-0-3" x="52.769531" y="34.753906"/>
</g>
<g fill="rgb(0%, 0%, 0%)" fill-opacity="1">
<use xlink:href="#glyph-0-0" x="74.949219" y="32.261719"/>
</g>
<path fill-rule="nonzero" fill="rgb(0%, 0%, 0%)" fill-opacity="1" d="M 81.246094 31.335938 C 81.355469 31.335938 81.445312 31.246094 81.445312 31.136719 L 81.445312 15.027344 C 81.445312 14.917969 81.355469 14.828125 81.246094 14.828125 L 80.996094 14.828125 C 80.886719 14.828125 80.796875 14.917969 80.796875 15.027344 L 80.796875 31.136719 C 80.796875 31.246094 80.886719 31.335938 80.996094 31.335938 Z M 81.246094 31.335938 "/>
<g fill="rgb(0%, 0%, 0%)" fill-opacity="1">
<use xlink:href="#glyph-0-0" x="91.65625" y="32.261719"/>
</g>
<path fill-rule="nonzero" fill="rgb(0%, 0%, 0%)" fill-opacity="1" d="M 97.953125 31.335938 C 98.0625 31.335938 98.152344 31.246094 98.152344 31.136719 L 98.152344 15.027344 C 98.152344 14.917969 98.0625 14.828125 97.953125 14.828125 L 97.703125 14.828125 C 97.59375 14.828125 97.503906 14.917969 97.503906 15.027344 L 97.503906 31.136719 C 97.503906 31.246094 97.59375 31.335938 97.703125 31.335938 Z M 97.953125 31.335938 "/>
<g fill="rgb(0%, 0%, 0%)" fill-opacity="1">
<use xlink:href="#glyph-0-3" x="84.433594" y="32.261719"/>
</g>
<g fill="rgb(0%, 0%, 0%)" fill-opacity="1">
<use xlink:href="#glyph-0-0" x="113.109375" y="29.773438"/>
</g>
<path fill-rule="nonzero" fill="rgb(0%, 0%, 0%)" fill-opacity="1" d="M 119.40625 28.84375 C 119.515625 28.84375 119.605469 28.753906 119.605469 28.644531 L 119.605469 12.535156 C 119.605469 12.425781 119.515625 12.335938 119.40625 12.335938 L 119.15625 12.335938 C 119.046875 12.335938 118.957031 12.425781 118.957031 12.535156 L 118.957031 28.644531 C 118.957031 28.753906 119.046875 28.84375 119.15625 28.84375 Z M 119.40625 28.84375 "/>
<g fill="rgb(0%, 0%, 0%)" fill-opacity="1">
<use xlink:href="#glyph-0-0" x="128.0625" y="27.28125"/>
</g>
<path fill-rule="nonzero" fill="rgb(0%, 0%, 0%)" fill-opacity="1" d="M 134.363281 26.351562 C 134.472656 26.351562 134.5625 26.261719 134.5625 26.152344 L 134.5625 10.042969 C 134.5625 9.933594 134.472656 9.84375 134.363281 9.84375 L 134.113281 9.84375 C 134.003906 9.84375 133.914062 9.933594 133.914062 10.042969 L 133.914062 26.152344 C 133.914062 26.261719 134.003906 26.351562 134.113281 26.351562 Z M 134.363281 26.351562 "/>
<g fill="rgb(0%, 0%, 0%)" fill-opacity="1">
<use xlink:href="#glyph-0-0" x="144.773438" y="27.28125"/>
</g>
<path fill-rule="nonzero" fill="rgb(0%, 0%, 0%)" fill-opacity="1" d="M 151.070312 26.351562 C 151.179688 26.351562 151.269531 26.261719 151.269531 26.152344 L 151.269531 10.042969 C 151.269531 9.933594 151.179688 9.84375 151.070312 9.84375 L 150.820312 9.84375 C 150.710938 9.84375 150.621094 9.933594 150.621094 10.042969 L 150.621094 26.152344 C 150.621094 26.261719 150.710938 26.351562 150.820312 26.351562 Z M 151.070312 26.351562 "/>
<g fill="rgb(0%, 0%, 0%)" fill-opacity="1">
<use xlink:href="#glyph-0-3" x="137.550781" y="27.28125"/>
</g>
<g fill="rgb(0%, 0%, 0%)" fill-opacity="1">
<use xlink:href="#glyph-0-0" x="159.726562" y="24.789062"/>
</g>
<path fill-rule="nonzero" fill="rgb(0%, 0%, 0%)" fill-opacity="1" d="M 166.023438 23.863281 C 166.132812 23.863281 166.222656 23.773438 166.222656 23.664062 L 166.222656 7.554688 C 166.222656 7.445312 166.132812 7.355469 166.023438 7.355469 L 165.773438 7.355469 C 165.664062 7.355469 165.574219 7.445312 165.574219 7.554688 L 165.574219 23.664062 C 165.574219 23.773438 165.664062 23.863281 165.773438 23.863281 Z M 166.023438 23.863281 "/>
<g fill="rgb(0%, 0%, 0%)" fill-opacity="1">
<use xlink:href="#glyph-0-0" x="181.113281" y="24.789062"/>
</g>
<path fill-rule="nonzero" fill="rgb(0%, 0%, 0%)" fill-opacity="1" d="M 187.410156 23.863281 C 187.519531 23.863281 187.609375 23.773438 187.609375 23.664062 L 187.609375 7.554688 C 187.609375 7.445312 187.519531 7.355469 187.410156 7.355469 L 187.160156 7.355469 C 187.050781 7.355469 186.960938 7.445312 186.960938 7.554688 L 186.960938 23.664062 C 186.960938 23.773438 187.050781 23.863281 187.160156 23.863281 Z M 187.410156 23.863281 "/>
<g fill="rgb(0%, 0%, 0%)" fill-opacity="1">
<use xlink:href="#glyph-0-4" x="290.105469" y="32.261719"/>
</g>
<g fill="rgb(0%, 0%, 0%)" fill-opacity="1">
<use xlink:href="#glyph-0-0" x="196.925781" y="24.789062"/>
</g>
<path fill-rule="nonzero" fill="rgb(0%, 0%, 0%)" fill-opacity="1" d="M 203.222656 23.863281 C 203.332031 23.863281 203.421875 23.773438 203.421875 23.664062 L 203.421875 7.554688 C 203.421875 7.445312 203.332031 7.355469 203.222656 7.355469 L 202.972656 7.355469 C 202.863281 7.355469 202.773438 7.445312 202.773438 7.554688 L 202.773438 23.664062 C 202.773438 23.773438 202.863281 23.863281 202.972656 23.863281 Z M 203.222656 23.863281 "/>
<g fill="rgb(0%, 0%, 0%)" fill-opacity="1">
<use xlink:href="#glyph-0-4" x="191.195313" y="24.789062"/>
</g>
<g fill="rgb(0%, 0%, 0%)" fill-opacity="1">
<use xlink:href="#glyph-0-0" x="211.878906" y="27.28125"/>
</g>
<path fill-rule="nonzero" fill="rgb(0%, 0%, 0%)" fill-opacity="1" d="M 218.175781 26.351562 C 218.285156 26.351562 218.375 26.261719 218.375 26.152344 L 218.375 10.042969 C 218.375 9.933594 218.285156 9.84375 218.175781 9.84375 L 217.925781 9.84375 C 217.816406 9.84375 217.726562 9.933594 217.726562 10.042969 L 217.726562 26.152344 C 217.726562 26.261719 217.816406 26.351562 217.925781 26.351562 Z M 218.175781 26.351562 "/>
<g fill="rgb(0%, 0%, 0%)" fill-opacity="1">
<use xlink:href="#glyph-0-0" x="227.691406" y="27.28125"/>
</g>
<path fill-rule="nonzero" fill="rgb(0%, 0%, 0%)" fill-opacity="1" d="M 233.988281 26.351562 C 234.097656 26.351562 234.1875 26.261719 234.1875 26.152344 L 234.1875 10.042969 C 234.1875 9.933594 234.097656 9.84375 233.988281 9.84375 L 233.738281 9.84375 C 233.628906 9.84375 233.539062 9.933594 233.539062 10.042969 L 233.539062 26.152344 C 233.539062 26.261719 233.628906 26.351562 233.738281 26.351562 Z M 233.988281 26.351562 "/>
<g fill="rgb(0%, 0%, 0%)" fill-opacity="1">
<use xlink:href="#glyph-0-4" x="221.964844" y="27.28125"/>
</g>
<path fill-rule="nonzero" fill="rgb(0%, 0%, 0%)" fill-opacity="1" d="M 302.132812 31.335938 C 302.242188 31.335938 302.332031 31.246094 302.332031 31.136719 L 302.332031 15.027344 C 302.332031 14.917969 302.242188 14.828125 302.132812 14.828125 L 301.882812 14.828125 C 301.773438 14.828125 301.683594 14.917969 301.683594 15.027344 L 301.683594 31.136719 C 301.683594 31.246094 301.773438 31.335938 301.882812 31.335938 Z M 302.132812 31.335938 "/>
<g fill="rgb(0%, 0%, 0%)" fill-opacity="1">
<use xlink:href="#glyph-0-0" x="249.253906" y="29.773438"/>
</g>
<path fill-rule="nonzero" fill="rgb(0%, 0%, 0%)" fill-opacity="1" d="M 255.554688 28.84375 C 255.664062 28.84375 255.753906 28.753906 255.753906 28.644531 L 255.753906 12.535156 C 255.753906 12.425781 255.664062 12.335938 255.554688 12.335938 L 255.304688 12.335938 C 255.195312 12.335938 255.105469 12.425781 255.105469 12.535156 L 255.105469 28.644531 C 255.105469 28.753906 255.195312 28.84375 255.304688 28.84375 Z M 255.554688 28.84375 "/>
<g fill="rgb(0%, 0%, 0%)" fill-opacity="1">
<use xlink:href="#glyph-0-0" x="295.832031" y="32.261719"/>
</g>
<g fill="rgb(0%, 0%, 0%)" fill-opacity="1">
<use xlink:href="#glyph-0-0" x="265.066406" y="29.773438"/>
</g>
<path fill-rule="nonzero" fill="rgb(0%, 0%, 0%)" fill-opacity="1" d="M 271.363281 28.84375 C 271.472656 28.84375 271.5625 28.753906 271.5625 28.644531 L 271.5625 12.535156 C 271.5625 12.425781 271.472656 12.335938 271.363281 12.335938 L 271.113281 12.335938 C 271.003906 12.335938 270.914062 12.425781 270.914062 12.535156 L 270.914062 28.644531 C 270.914062 28.753906 271.003906 28.84375 271.113281 28.84375 Z M 271.363281 28.84375 "/>
<g fill="rgb(0%, 0%, 0%)" fill-opacity="1">
<use xlink:href="#glyph-0-4" x="259.339844" y="29.773438"/>
</g>
<g fill="rgb(0%, 0%, 0%)" fill-opacity="1">
<use xlink:href="#glyph-0-0" x="280.023438" y="32.261719"/>
</g>
<path fill-rule="nonzero" fill="rgb(0%, 0%, 0%)" fill-opacity="1" d="M 286.320312 31.335938 C 286.429688 31.335938 286.519531 31.246094 286.519531 31.136719 L 286.519531 15.027344 C 286.519531 14.917969 286.429688 14.828125 286.320312 14.828125 L 286.070312 14.828125 C 285.960938 14.828125 285.871094 14.917969 285.871094 15.027344 L 285.871094 31.136719 C 285.871094 31.246094 285.960938 31.335938 286.070312 31.335938 Z M 286.320312 31.335938 "/>
</svg>
