<?xml version="1.0" encoding="UTF-8"?>
<svg xmlns="http://www.w3.org/2000/svg" xmlns:xlink="http://www.w3.org/1999/xlink" width="596" height="199" viewBox="0 0 596 199">
<defs>
<g>
<g id="glyph-0-0">
<path d="M 0.96875 -3.328125 C 0.703125 -3.171875 0.625 -3.0625 0.625 -2.890625 C 0.625 -2.71875 0.765625 -2.609375 0.9375 -2.609375 C 1.171875 -2.609375 1.296875 -2.765625 1.328125 -3.09375 C 1.59375 -3.3125 1.875 -3.40625 2.234375 -3.40625 C 2.875 -3.40625 3.234375 -3 3.234375 -2.28125 C 3.234375 -1.15625 2.5 -0.21875 1.59375 -0.21875 C 1.09375 -0.21875 0.671875 -0.46875 0.671875 -0.75 C 0.671875 -0.8125 0.671875 -0.828125 0.71875 -0.859375 C 0.953125 -0.953125 0.953125 -0.953125 1.015625 -1 C 1.15625 -1.109375 1.234375 -1.265625 1.234375 -1.4375 C 1.234375 -1.71875 1.015625 -1.9375 0.703125 -1.9375 C 0.328125 -1.9375 0.03125 -1.609375 0.03125 -1.1875 C 0.03125 -0.421875 0.703125 0.125 1.625 0.125 C 3.03125 0.125 4.171875 -0.984375 4.171875 -2.390625 C 4.171875 -3.265625 3.5 -3.875 2.5625 -3.875 C 2.1875 -3.875 1.875 -3.796875 1.46875 -3.59375 L 1.953125 -5.234375 C 2.40625 -5.140625 2.78125 -5.09375 3.09375 -5.09375 C 3.65625 -5.09375 4.171875 -5.28125 4.46875 -5.59375 C 4.609375 -5.765625 4.703125 -5.90625 4.703125 -6.015625 C 4.703125 -6.078125 4.671875 -6.125 4.640625 -6.125 C 4.609375 -6.125 4.59375 -6.125 4.546875 -6.09375 C 4.25 -5.953125 3.890625 -5.875 3.546875 -5.875 C 3.03125 -5.875 2.40625 -5.96875 1.765625 -6.125 Z M 0.96875 -3.328125 "/>
</g>
<g id="glyph-0-1">
<path d="M 4.453125 -6.15625 L 3.984375 -6.15625 L -0.0625 -1.96875 L -0.0625 -1.59375 L 2.390625 -1.59375 L 2.25 -1.078125 C 2.125 -0.640625 2.125 -0.609375 2.046875 -0.53125 C 1.953125 -0.4375 1.78125 -0.40625 1.3125 -0.40625 L 1.15625 -0.40625 L 1.109375 0 L 3.8125 0 L 3.859375 -0.40625 L 3.703125 -0.40625 C 3.125 -0.40625 3 -0.453125 3 -0.640625 C 3 -0.71875 3.015625 -0.796875 3.09375 -1.078125 L 3.234375 -1.59375 L 4.234375 -1.59375 L 4.359375 -2.078125 L 3.359375 -2.078125 Z M 2.515625 -2.078125 L 0.5625 -2.078125 L 3.25 -4.84375 Z M 2.515625 -2.078125 "/>
</g>
<g id="glyph-0-2">
<path d="M 0.90625 -0.953125 C 0.609375 -0.953125 0.359375 -0.703125 0.359375 -0.40625 C 0.359375 -0.109375 0.609375 0.125 0.890625 0.125 C 1.203125 0.125 1.4375 -0.109375 1.4375 -0.40625 C 1.4375 -0.703125 1.203125 -0.953125 0.90625 -0.953125 Z M 1.671875 -4.03125 C 1.375 -4.03125 1.125 -3.78125 1.125 -3.484375 C 1.125 -3.1875 1.375 -2.953125 1.65625 -2.953125 C 1.96875 -2.953125 2.203125 -3.1875 2.203125 -3.484375 C 2.203125 -3.78125 1.96875 -4.03125 1.671875 -4.03125 Z M 1.671875 -4.03125 "/>
</g>
<g id="glyph-0-3">
<path d="M 2.953125 -3.171875 C 3.375 -3.296875 3.53125 -3.375 3.75 -3.5 C 4.15625 -3.78125 4.40625 -4.25 4.40625 -4.75 C 4.40625 -5.5625 3.75 -6.125 2.765625 -6.125 C 1.8125 -6.125 1.015625 -5.53125 1.015625 -4.828125 C 1.015625 -4.46875 1.234375 -4.21875 1.5625 -4.21875 C 1.859375 -4.21875 2.0625 -4.4375 2.0625 -4.71875 C 2.0625 -4.859375 2.015625 -4.96875 1.875 -5.109375 C 1.796875 -5.1875 1.765625 -5.25 1.765625 -5.3125 C 1.765625 -5.515625 2.1875 -5.734375 2.609375 -5.734375 C 3.1875 -5.734375 3.53125 -5.40625 3.53125 -4.875 C 3.53125 -4.09375 2.984375 -3.375 2.40625 -3.375 C 2.375 -3.375 2.296875 -3.375 2.203125 -3.390625 C 1.953125 -3.40625 1.953125 -3.40625 1.890625 -3.40625 C 1.703125 -3.40625 1.59375 -3.3125 1.59375 -3.15625 C 1.59375 -3.015625 1.703125 -2.9375 1.859375 -2.9375 C 1.890625 -2.9375 1.953125 -2.9375 2.03125 -2.953125 C 2.15625 -2.96875 2.28125 -2.984375 2.359375 -2.984375 C 2.765625 -2.984375 3.046875 -2.625 3.046875 -2.078125 C 3.046875 -1.65625 2.953125 -1.265625 2.765625 -0.9375 C 2.5 -0.46875 2.09375 -0.234375 1.53125 -0.234375 C 1.046875 -0.234375 0.625 -0.484375 0.625 -0.75 C 0.625 -0.859375 0.65625 -0.890625 0.796875 -0.953125 C 1.046875 -1.0625 1.15625 -1.21875 1.15625 -1.453125 C 1.15625 -1.765625 0.90625 -2 0.59375 -2 C 0.21875 -2 -0.015625 -1.703125 -0.015625 -1.25 C -0.015625 -0.40625 0.625 0.125 1.671875 0.125 C 2.984375 0.125 3.984375 -0.75 3.984375 -1.921875 C 3.984375 -2.234375 3.890625 -2.5 3.703125 -2.71875 C 3.515625 -2.9375 3.34375 -3.046875 2.953125 -3.171875 Z M 2.953125 -3.171875 "/>
</g>
<g id="glyph-1-0">
<path d="M 5.296875 12.65625 L 5.3125 11.796875 L 5.234375 11.796875 C 4.265625 11.796875 3.421875 11.28125 2.90625 10.5 C 3.109375 10.578125 3.3125 10.625 3.53125 10.625 C 4.5625 10.625 5.421875 9.765625 5.421875 8.71875 C 5.421875 7.609375 4.609375 6.671875 3.53125 6.671875 C 2.34375 6.671875 1.296875 7.5625 1.296875 8.71875 C 1.296875 10.890625 3.03125 12.65625 5.171875 12.65625 Z M 7.984375 -3.015625 C 10.21875 -2.765625 11.421875 -0.96875 11.421875 0.796875 C 11.421875 2.171875 10.703125 3.5 9.1875 4.046875 C 8.9375 1.8125 8.359375 -1.234375 7.984375 -3.015625 Z M 1.46875 -0.5625 C 1.46875 -3.75 3.578125 -6.171875 5.71875 -8.59375 C 6.0625 -7.4375 6.359375 -6.25 6.640625 -5.09375 C 4.609375 -4.640625 3.453125 -2.921875 3.453125 -1.171875 C 3.453125 1.3125 5.65625 2.546875 5.953125 2.546875 C 6.203125 2.546875 6.390625 2.328125 6.390625 2.109375 C 6.390625 2.015625 6.359375 1.90625 6.25 1.8125 C 5.140625 1.171875 4.640625 0.234375 4.640625 -0.640625 C 4.640625 -1.796875 5.53125 -2.84375 7.109375 -3.015625 C 7.796875 0.203125 8.234375 2.96875 8.359375 4.25 C 7.890625 4.328125 7.4375 4.359375 7.015625 4.359375 C 3.421875 4.359375 1.46875 1.671875 1.46875 -0.5625 Z M 7.109375 -23.78125 C 6.8125 -23.78125 3.9375 -21.671875 3.9375 -17.90625 C 3.9375 -14.40625 4.40625 -12.921875 4.984375 -11.015625 C 2.65625 -8.328125 0.046875 -5.75 0.046875 -2.234375 C 0.046875 0.890625 2.09375 5.21875 6.859375 5.21875 C 7.34375 5.21875 7.890625 5.15625 8.453125 5.0625 C 8.5 5.671875 8.53125 6.28125 8.53125 6.890625 C 8.53125 7.25 8.5 7.625 8.484375 7.984375 C 8.359375 9.953125 7.171875 11.75 5.3125 11.796875 L 5.296875 12.65625 C 7.5625 12.59375 9.1875 10.484375 9.328125 8.109375 C 9.34375 7.734375 9.359375 7.328125 9.359375 6.953125 C 9.359375 6.25 9.328125 5.5625 9.265625 4.859375 C 11.375 4.203125 12.84375 2.234375 12.84375 -0.015625 C 12.84375 -2.671875 10.859375 -5.234375 7.765625 -5.234375 C 7.6875 -5.234375 7.59375 -5.21875 7.484375 -5.21875 C 7.15625 -6.59375 6.796875 -7.984375 6.375 -9.34375 C 8.25 -11.515625 9.953125 -13.75 9.953125 -16.59375 C 9.953125 -19.6875 7.671875 -23.78125 7.109375 -23.78125 Z M 4.921875 -15.578125 C 4.921875 -18.890625 7.15625 -20.34375 8.125 -20.8125 C 8.421875 -19.921875 8.546875 -19.078125 8.546875 -18.28125 C 8.546875 -15.8125 7.25 -13.78125 5.625 -11.796875 C 5.15625 -13.28125 4.921875 -14.484375 4.921875 -15.578125 Z M 4.921875 -15.578125 "/>
</g>
<g id="glyph-1-1">
<path d="M 0 0.921875 C 0 1.9375 0.78125 2.703125 2.109375 2.703125 C 4.296875 2.703125 6.5 0.8125 6.5 -0.921875 C 6.5 -2.015625 5.578125 -2.703125 4.328125 -2.703125 C 2.3125 -2.703125 0 -0.890625 0 0.921875 Z M 0 0.921875 "/>
</g>
<g id="glyph-1-2">
<path d="M 11.09375 2.484375 C 11.09375 3.046875 11.546875 3.5 12.109375 3.5 C 12.671875 3.5 13.125 3.046875 13.125 2.484375 C 13.125 1.9375 12.671875 1.46875 12.109375 1.46875 C 11.546875 1.46875 11.09375 1.9375 11.09375 2.484375 Z M 11.09375 -2.484375 C 11.09375 -1.9375 11.546875 -1.46875 12.109375 -1.46875 C 12.671875 -1.46875 13.125 -1.9375 13.125 -2.484375 C 13.125 -3.046875 12.671875 -3.5 12.109375 -3.5 C 11.546875 -3.5 11.09375 -3.046875 11.09375 -2.484375 Z M 4.625 -5.234375 C 2.03125 -5.234375 0 -3.03125 0 -0.375 C 0 0.796875 1.03125 1.734375 2.234375 1.734375 C 3.34375 1.734375 4.21875 0.78125 4.21875 -0.375 C 4.21875 -1.46875 3.328125 -2.375 2.234375 -2.375 C 1.984375 -2.375 1.765625 -2.3125 1.546875 -2.21875 C 2.046875 -3.640625 3.140625 -4.71875 4.625 -4.71875 C 6.765625 -4.71875 8.03125 -2.4375 8.03125 -0.046875 C 8.03125 4.5 3.84375 7.4375 -0.171875 9.78125 C -0.234375 9.84375 -0.265625 9.90625 -0.265625 9.953125 C -0.265625 10.09375 -0.140625 10.21875 0 10.21875 C 0.0625 10.21875 0.125 10.203125 0.171875 10.140625 C 5.21875 8.015625 10.453125 5 10.453125 -0.234375 C 10.453125 -3.484375 8.046875 -5.234375 4.625 -5.234375 Z M 4.625 -5.234375 "/>
</g>
<g id="glyph-1-3">
<path d="M -0.140625 -7.46875 L 0 3.890625 C 0 4.078125 0.15625 4.21875 0.359375 4.21875 L 0.421875 4.21875 L 2.53125 3.828125 L 2.484375 7.46875 C 2.65625 7.546875 2.8125 7.609375 2.96875 7.609375 C 3.125 7.609375 3.3125 7.546875 3.46875 7.46875 L 3.328125 -3.890625 C 3.328125 -4.078125 3.171875 -4.21875 2.96875 -4.21875 L 2.90625 -4.21875 L 0.796875 -3.828125 L 0.84375 -7.46875 C 0.671875 -7.546875 0.515625 -7.609375 0.359375 -7.609375 C 0.203125 -7.609375 0.015625 -7.546875 -0.140625 -7.46875 Z M 2.609375 -2.234375 L 2.546875 1.890625 L 0.71875 2.234375 L 0.78125 -1.890625 Z M 2.609375 -2.234375 "/>
</g>
<g id="glyph-1-4">
<path d="M 0.53125 -0.8125 C 0.5625 -1.46875 0.96875 -2.078125 1.59375 -2.078125 C 2.171875 -2.078125 2.453125 -1.390625 2.453125 -0.734375 C 2.453125 0.4375 1.5 1.28125 0.59375 2.03125 C 0.53125 1.59375 0.515625 1.15625 0.515625 0.71875 L 0.515625 0.5 Z M -0.296875 2.75 C -0.296875 3.03125 -0.09375 3.25 0.15625 3.25 C 0.578125 3.25 0.75 2.75 1.0625 2.484375 C 2.265625 1.453125 3.984375 0.71875 3.984375 -0.875 C 3.984375 -1.953125 3.25 -2.90625 2.21875 -2.90625 C 1.546875 -2.90625 0.890625 -2.65625 0.390625 -2.234375 L 0.53125 -9.109375 C 0.375 -9.203125 0.171875 -9.265625 0 -9.265625 C -0.171875 -9.265625 -0.375 -9.203125 -0.53125 -9.109375 Z M -0.296875 2.75 "/>
</g>
<g id="glyph-1-5">
<path d="M 1.390625 -4.078125 C 0.453125 -4.078125 -0.015625 -3.390625 -0.015625 -2.671875 C -0.015625 -1.890625 0.515625 -1.078125 1.671875 -1.078125 C 2.390625 -1.078125 3.09375 -1.28125 3.765625 -1.515625 L 1.4375 4.984375 C 1.59375 5.125 1.796875 5.171875 1.984375 5.171875 C 2.1875 5.171875 2.375 5.125 2.53125 4.984375 L 4.984375 -3.390625 C 4.9375 -3.5 4.828125 -3.5625 4.703125 -3.5625 C 4.578125 -3.5625 4.484375 -3.5 4.421875 -3.390625 C 4.28125 -3.09375 3.53125 -2.125 3.203125 -2.125 C 2.3125 -2.125 2.96875 -4.078125 1.390625 -4.078125 Z M 1.390625 -4.078125 "/>
</g>
<g id="glyph-1-6">
<path d="M 0 -4.078125 L 0 -4.5 C 0 -6.9375 2.34375 -8.34375 3.921875 -10.125 C 4.109375 -9.6875 4.203125 -9.203125 4.203125 -8.71875 C 4.203125 -6.6875 1.8125 -5.09375 0 -4.078125 Z M 4.65625 -14.984375 C 4.421875 -14.984375 4.203125 -14.796875 4.203125 -14.515625 C 4.203125 -14.359375 4.46875 -13.9375 4.46875 -13.203125 C 4.46875 -11.109375 1.9375 -9.546875 0 -8.5625 L 0 -11.0625 L -0.3125 -11.0625 L -0.3125 0 L 0 0 C 0 -3.609375 5.046875 -5.125 5.046875 -8.71875 C 5.046875 -9.484375 4.859375 -10.203125 4.546875 -10.890625 C 5 -11.578125 5.3125 -12.328125 5.3125 -13.203125 C 5.3125 -13.328125 5.296875 -14.984375 4.65625 -14.984375 Z M 4.65625 -14.984375 "/>
</g>
<g id="glyph-1-7">
<path d="M 2.484375 -4.078125 C 1.546875 -4.078125 1.078125 -3.390625 1.078125 -2.671875 C 1.078125 -1.890625 1.609375 -1.078125 2.765625 -1.078125 C 3.484375 -1.078125 4.15625 -1.28125 4.84375 -1.515625 L 3.921875 1.5 C 3.828125 1.828125 3.046875 2.84375 2.734375 2.84375 C 1.828125 2.84375 2.484375 0.890625 0.921875 0.890625 C -0.015625 0.890625 -0.5 1.59375 -0.5 2.3125 C -0.5 3.09375 0.0625 3.90625 1.21875 3.90625 C 1.9375 3.90625 2.65625 3.6875 3.328125 3.453125 L 1.3125 9.953125 C 1.46875 10.09375 1.671875 10.15625 1.875 10.15625 C 2.078125 10.15625 2.25 10.09375 2.40625 9.953125 L 5.96875 -3.390625 C 5.9375 -3.5 5.8125 -3.5625 5.703125 -3.5625 C 5.578125 -3.5625 5.484375 -3.5 5.421875 -3.390625 C 5.28125 -3.109375 4.578125 -2.125 4.28125 -2.125 C 3.390625 -2.125 4.0625 -4.078125 2.484375 -4.078125 Z M 2.484375 -4.078125 "/>
</g>
<g id="glyph-1-8">
<path d="M 4.1875 10.203125 L 4.203125 9.34375 L 4.140625 9.34375 C 3.46875 9.34375 2.90625 9.03125 2.53125 8.5 C 2.609375 8.53125 2.65625 8.53125 2.734375 8.53125 C 3.5625 8.53125 4.25 7.84375 4.25 7.015625 C 4.25 6.109375 3.578125 5.359375 2.734375 5.359375 C 1.765625 5.359375 0.9375 6.09375 0.9375 7.015625 C 0.9375 8.765625 2.375 10.203125 4.109375 10.203125 Z M 6.515625 -2.328125 C 8.171875 -2.09375 9.046875 -0.734375 9.046875 0.59375 C 9.046875 1.609375 8.53125 2.65625 7.4375 3.09375 C 7.171875 0.796875 6.578125 -2.09375 6.515625 -2.328125 Z M 1.25 -0.375 C 1.25 -2.953125 2.84375 -4.953125 4.484375 -6.96875 C 4.765625 -6.015625 5.015625 -5.078125 5.234375 -4.125 C 3.609375 -3.71875 2.6875 -2.328125 2.6875 -0.921875 C 2.6875 1.09375 4.46875 2.109375 4.765625 2.109375 C 5 2.109375 5.171875 1.890625 5.171875 1.671875 C 5.171875 1.578125 5.15625 1.46875 5.0625 1.375 C 4.203125 0.875 3.78125 0.15625 3.78125 -0.515625 C 3.78125 -1.390625 4.46875 -2.21875 5.640625 -2.34375 C 6.15625 0.125 6.46875 2.265625 6.59375 3.28125 C 6.234375 3.34375 5.921875 3.359375 5.59375 3.359375 C 2.828125 3.359375 1.25 1.421875 1.25 -0.375 Z M 5.484375 -19.65625 C 5.203125 -19.65625 3.015625 -17.875 3.015625 -14.84375 C 3.015625 -11.8125 3.3125 -10.8125 3.84375 -9.109375 C 2.046875 -6.859375 0.046875 -4.65625 0.046875 -1.796875 C 0.046875 0.625 1.578125 4.21875 5.484375 4.21875 C 5.859375 4.21875 6.25 4.1875 6.671875 4.109375 C 6.71875 4.5625 6.734375 5.015625 6.734375 5.484375 C 6.734375 8.90625 4.953125 9.328125 4.203125 9.34375 L 4.1875 10.203125 C 6.0625 10.15625 7.4375 8.453125 7.546875 6.5 C 7.5625 6.171875 7.5625 5.84375 7.5625 5.515625 C 7.5625 4.984375 7.546875 4.4375 7.515625 3.90625 C 9.421875 3.265625 10.296875 1.640625 10.296875 0 C 10.296875 -2.109375 8.828125 -4.25 6.21875 -4.25 C 6.171875 -4.25 6.140625 -4.21875 6.09375 -4.21875 L 6.078125 -4.21875 C 5.796875 -5.421875 5.484375 -6.609375 5.140625 -7.796875 C 6.578125 -9.578125 7.828125 -11.421875 7.828125 -13.703125 C 7.828125 -16.21875 6 -19.65625 5.484375 -19.65625 Z M 6.359375 -17.125 C 6.53125 -16.4375 6.640625 -15.78125 6.640625 -15.15625 C 6.640625 -13.328125 5.84375 -11.734375 4.484375 -9.921875 C 4.265625 -10.640625 3.9375 -11.75 3.9375 -12.953125 C 3.9375 -14.4375 4.46875 -16.0625 6.359375 -17.125 Z M 6.359375 -17.125 "/>
</g>
<g id="glyph-1-9">
<path d="M 0 0 C 0 0.625 0.5 1.109375 1.109375 1.109375 C 1.734375 1.109375 2.234375 0.625 2.234375 0 C 2.234375 -0.625 1.734375 -1.109375 1.109375 -1.109375 C 0.5 -1.109375 0 -0.625 0 0 Z M 0 0 "/>
</g>
<g id="glyph-1-10">
<path d="M 0 -2.375 L 0 -1.171875 C 0 -0.953125 0.171875 -0.78125 0.390625 -0.78125 C 0.4375 -0.78125 0.5 -0.78125 0.53125 -0.796875 L 1.171875 -1.015625 L 1.171875 2.171875 L 0.265625 2.484375 C 0.09375 2.546875 0 2.703125 0 2.875 L 0 4.0625 C 0 4.28125 0.171875 4.46875 0.390625 4.46875 C 0.4375 4.46875 0.5 4.46875 0.53125 4.4375 L 1.171875 4.203125 L 1.171875 7.09375 C 1.171875 7.296875 1.328125 7.46875 1.53125 7.46875 C 1.734375 7.46875 1.90625 7.296875 1.90625 7.09375 L 1.90625 3.9375 L 3.5625 3.328125 L 3.5625 6.21875 C 3.5625 6.421875 3.75 6.59375 3.9375 6.59375 C 4.140625 6.59375 4.296875 6.421875 4.296875 6.21875 L 4.296875 3.0625 L 5.21875 2.734375 C 5.375 2.671875 5.484375 2.53125 5.484375 2.375 L 5.484375 1.171875 C 5.484375 0.953125 5.296875 0.78125 5.078125 0.78125 C 5.046875 0.78125 4.984375 0.78125 4.9375 0.796875 L 4.296875 1.015625 L 4.296875 -2.171875 L 5.21875 -2.484375 C 5.375 -2.546875 5.484375 -2.703125 5.484375 -2.875 L 5.484375 -4.0625 C 5.484375 -4.28125 5.296875 -4.46875 5.078125 -4.46875 C 5.046875 -4.46875 4.984375 -4.46875 4.9375 -4.4375 L 4.296875 -4.203125 L 4.296875 -7.09375 C 4.296875 -7.296875 4.140625 -7.46875 3.9375 -7.46875 C 3.75 -7.46875 3.5625 -7.296875 3.5625 -7.09375 L 3.5625 -3.9375 L 1.90625 -3.328125 L 1.90625 -6.21875 C 1.90625 -6.421875 1.734375 -6.59375 1.53125 -6.59375 C 1.328125 -6.59375 1.171875 -6.421875 1.171875 -6.21875 L 1.171875 -3.0625 L 0.265625 -2.734375 C 0.09375 -2.671875 0 -2.53125 0 -2.375 Z M 3.5625 -1.890625 L 3.5625 1.296875 L 1.90625 1.890625 L 1.90625 -1.296875 Z M 3.5625 -1.890625 "/>
</g>
<g id="glyph-1-11">
<path d="M 8.890625 1.984375 C 8.890625 2.453125 9.25 2.8125 9.703125 2.8125 C 10.15625 2.8125 10.515625 2.453125 10.515625 1.984375 C 10.515625 1.53125 10.15625 1.171875 9.703125 1.171875 C 9.25 1.171875 8.890625 1.53125 8.890625 1.984375 Z M 8.890625 -1.984375 C 8.890625 -1.53125 9.25 -1.171875 9.703125 -1.171875 C 10.15625 -1.171875 10.515625 -1.53125 10.515625 -1.984375 C 10.515625 -2.453125 10.15625 -2.8125 9.703125 -2.8125 C 9.25 -2.8125 8.890625 -2.453125 8.890625 -1.984375 Z M 3.5625 -4.25 C 1.53125 -4.25 0 -2.453125 0 -0.375 C 0 0.5625 0.84375 1.3125 1.796875 1.3125 C 2.6875 1.3125 3.390625 0.53125 3.390625 -0.375 C 3.390625 -1.25 2.671875 -1.96875 1.796875 -1.96875 C 1.6875 -1.96875 1.59375 -1.953125 1.5 -1.9375 C 1.828125 -2.96875 2.53125 -3.71875 3.5625 -3.71875 C 5.171875 -3.71875 5.9375 -1.875 5.9375 -0.046875 C 5.9375 3.46875 2.8125 5.84375 -0.171875 7.796875 C -0.234375 7.84375 -0.265625 7.90625 -0.265625 7.96875 C -0.265625 8.109375 -0.140625 8.234375 0 8.234375 C 0.0625 8.234375 0.125 8.203125 0.171875 8.140625 C 4.1875 6.390625 8.359375 3.96875 8.359375 -0.234375 C 8.359375 -2.875 6.359375 -4.25 3.5625 -4.25 Z M 3.5625 -4.25 "/>
</g>
<g id="glyph-1-12">
<path d="M 3.3125 -3.859375 C 3.3125 -4.1875 3.546875 -4.4375 3.859375 -4.4375 C 4.1875 -4.4375 4.4375 -4.1875 4.4375 -3.859375 C 4.4375 -3.546875 4.1875 -3.3125 3.859375 -3.3125 C 3.546875 -3.3125 3.3125 -3.546875 3.3125 -3.859375 Z M 3.109375 -5.015625 C 2.34375 -5.015625 3.140625 -6.90625 1.828125 -6.90625 C 1.3125 -6.90625 0.84375 -6.4375 0.84375 -5.921875 C 0.84375 -5.78125 0.875 -5.0625 1.734375 -5.0625 C 1.8125 -5.0625 1.890625 -5.078125 1.96875 -5.078125 C 2.59375 -5.078125 2.703125 -4.78125 2.703125 -4.578125 C 2.703125 -4.328125 2.515625 -4.0625 2.234375 -4.0625 C 1.6875 -4.0625 1.5 -4.84375 0.953125 -4.84375 C 0.3125 -4.84375 0 -4.34375 0 -3.859375 C 0 -3.390625 0.3125 -2.90625 0.953125 -2.90625 C 1.5 -2.90625 1.6875 -3.671875 2.234375 -3.671875 C 2.5625 -3.671875 2.734375 -3.328125 2.734375 -3.109375 C 2.734375 -2.34375 0.84375 -3.140625 0.84375 -1.828125 C 0.84375 -1.3125 1.3125 -0.84375 1.828125 -0.84375 C 1.96875 -0.84375 2.671875 -0.875 2.671875 -1.734375 L 2.671875 -1.96875 C 2.671875 -2.59375 2.96875 -2.703125 3.171875 -2.703125 C 3.421875 -2.703125 3.671875 -2.515625 3.671875 -2.234375 C 3.671875 -1.6875 2.90625 -1.5 2.90625 -0.953125 C 2.90625 -0.3125 3.390625 0 3.859375 0 C 4.34375 0 4.84375 -0.3125 4.84375 -0.953125 C 4.84375 -1.5 4.0625 -1.6875 4.0625 -2.234375 C 4.0625 -2.5625 4.40625 -2.734375 4.625 -2.734375 C 5.375 -2.734375 4.609375 -0.84375 5.921875 -0.84375 C 6.4375 -0.84375 6.90625 -1.3125 6.90625 -1.828125 C 6.90625 -1.96875 6.875 -2.671875 6.015625 -2.671875 L 5.78125 -2.671875 C 5.15625 -2.671875 5.046875 -2.96875 5.046875 -3.171875 C 5.046875 -3.421875 5.234375 -3.671875 5.515625 -3.671875 C 6.0625 -3.671875 6.25 -2.90625 6.796875 -2.90625 C 7.4375 -2.90625 7.75 -3.390625 7.75 -3.859375 C 7.75 -4.34375 7.4375 -4.84375 6.796875 -4.84375 C 6.25 -4.84375 6.0625 -4.0625 5.515625 -4.0625 C 5.171875 -4.0625 5.015625 -4.40625 5.015625 -4.625 C 5.015625 -5.375 6.90625 -4.609375 6.90625 -5.921875 C 6.90625 -6.4375 6.4375 -6.90625 5.921875 -6.90625 C 5.78125 -6.90625 5.0625 -6.859375 5.0625 -6 C 5.0625 -5.921875 5.078125 -5.859375 5.078125 -5.78125 C 5.078125 -5.15625 4.78125 -5.046875 4.578125 -5.046875 C 4.328125 -5.046875 4.0625 -5.234375 4.0625 -5.515625 C 4.0625 -6.0625 4.84375 -6.25 4.84375 -6.796875 C 4.84375 -7.4375 4.34375 -7.75 3.859375 -7.75 C 3.390625 -7.75 2.90625 -7.4375 2.90625 -6.796875 C 2.90625 -6.25 3.671875 -6.0625 3.671875 -5.515625 C 3.671875 -5.171875 3.328125 -5.015625 3.109375 -5.015625 Z M 3.109375 -5.015625 "/>
</g>
<g id="glyph-1-13">
<path d="M 8.1875 -1.71875 C 8.53125 -0.5 8.859375 0 9.359375 0 C 9.921875 0 10.640625 -0.640625 11.71875 -1.640625 C 12.078125 -0.734375 12.828125 0 13.6875 0 C 14.9375 0 15.9375 -1.4375 15.9375 -2.828125 C 15.9375 -6.3125 10.671875 -8.71875 9.296875 -8.71875 C 9.21875 -8.71875 9.15625 -8.609375 9.15625 -8.5 C 9.15625 -8.453125 9.203125 -8.390625 9.265625 -8.359375 C 10.84375 -8.09375 12.390625 -7 13.40625 -5.578125 C 12.375 -5.078125 11.46875 -3.9375 11.46875 -2.84375 C 11.46875 -2.5625 11.515625 -2.296875 11.59375 -2.015625 C 11.578125 -1.984375 10.421875 -1.03125 10.203125 -1.03125 C 9.796875 -1.03125 9.359375 -1.859375 9.046875 -2.453125 L 9.265625 -2.625 C 9.984375 -3.234375 10.84375 -4.078125 10.84375 -4.828125 C 10.84375 -5.28125 10.453125 -5.734375 9.859375 -5.734375 C 9 -5.734375 7.953125 -4.796875 7.953125 -3.140625 C 7.953125 -2.828125 7.984375 -2.484375 8.0625 -2.125 C 7.390625 -1.609375 7.171875 -1.453125 7.046875 -1.453125 C 7.046875 -1.453125 5.8125 -2.296875 4.90625 -2.390625 C 5.4375 -3.0625 6.0625 -3.8125 6.0625 -4.1875 C 6.0625 -5.171875 4.0625 -6.53125 4.0625 -7.453125 C 4.0625 -7.75 4.703125 -9.328125 4.84375 -9.609375 L 4.984375 -9.609375 C 6.515625 -9.609375 7.390625 -8.546875 7.390625 -7.765625 C 7.390625 -7.296875 7.046875 -7.046875 6.75 -7.046875 C 6.109375 -7.046875 5.859375 -7.75 5.734375 -7.75 C 5.640625 -7.75 5.515625 -7.671875 5.515625 -7.59375 C 5.515625 -7.5625 6.296875 -5.75 7.25 -5.75 C 7.671875 -5.75 8.28125 -6.171875 8.28125 -7.09375 C 8.28125 -8.328125 7.125 -9.953125 4.984375 -9.953125 C 1.765625 -9.953125 -0.015625 -7.671875 -0.015625 -6.03125 C -0.015625 -4.953125 0.75 -4.484375 1.1875 -4.484375 C 2.03125 -4.484375 2.84375 -5.71875 2.84375 -6.96875 C 2.84375 -7.046875 2.75 -7.09375 2.671875 -7.09375 C 2.59375 -7.09375 2.484375 -7.046875 2.484375 -6.96875 C 2.484375 -6.359375 2.078125 -5.796875 1.640625 -5.796875 C 1.390625 -5.796875 0.859375 -6.078125 0.859375 -6.75 C 0.859375 -7.828125 2.21875 -9.390625 4.46875 -9.578125 C 4.140625 -9.046875 3.265625 -6.765625 3.265625 -6.359375 C 3.265625 -5.578125 5.015625 -4.296875 5.015625 -3.359375 C 5.015625 -3.140625 4.984375 -3.046875 4.421875 -2.390625 C 3.578125 -2.296875 1.9375 -0.75 1.9375 -0.203125 C 1.9375 -0.078125 2.015625 0 2.21875 0 C 2.953125 0 3.921875 -1.21875 4.609375 -2.03125 C 5.28125 -1.828125 5.359375 -0.046875 5.921875 -0.046875 C 6.234375 -0.046875 7.921875 -1.515625 8.1875 -1.71875 Z M 10.140625 -4.421875 C 10.140625 -3.828125 9.34375 -3.140625 8.890625 -2.765625 C 8.6875 -3.203125 8.609375 -3.578125 8.609375 -3.90625 C 8.609375 -4.65625 9.0625 -5.078125 9.5 -5.078125 C 9.859375 -5.078125 10.140625 -4.765625 10.140625 -4.421875 Z M 13.609375 -5.28125 C 14.296875 -4.21875 14.578125 -3.125 14.578125 -2.296875 C 14.578125 -1.359375 14.21875 -0.703125 13.6875 -0.703125 C 12.875 -0.703125 12.515625 -1.890625 12.515625 -2.84375 C 12.515625 -3.75 12.875 -4.859375 13.609375 -5.28125 Z M 13.609375 -5.28125 "/>
</g>
<g id="glyph-1-14">
<path d="M 0 -4.078125 L 0 -4.375 C 0 -6.8125 2.40625 -8.1875 3.9375 -9.9375 C 4.046875 -9.5 4.109375 -9.0625 4.109375 -8.625 C 4.109375 -6.640625 1.765625 -5.078125 0 -4.078125 Z M 4.734375 -18.703125 C 4.5 -18.703125 4.28125 -18.546875 4.28125 -18.265625 C 4.28125 -18.109375 4.46875 -17.796875 4.46875 -17.21875 C 4.46875 -15.1875 1.9375 -13.71875 0 -12.84375 L 0 -15.34375 L -0.3125 -15.34375 L -0.3125 0 L 0 0 C 0 -3.546875 4.9375 -5.078125 4.9375 -8.625 C 4.9375 -9.390625 4.828125 -10.125 4.609375 -10.84375 C 4.953125 -11.4375 5.203125 -12.078125 5.203125 -12.828125 C 5.203125 -13.640625 5.046875 -14.46875 4.71875 -15.21875 C 5.078125 -15.8125 5.3125 -16.453125 5.3125 -17.21875 C 5.3125 -17.828125 5.21875 -18.703125 4.734375 -18.703125 Z M 0 -8.46875 L 0 -8.765625 C 0 -11.25 2.515625 -12.609375 4.078125 -14.40625 C 4.265625 -13.90625 4.359375 -13.375 4.359375 -12.828125 C 4.359375 -10.8125 1.890625 -9.359375 0 -8.46875 Z M 0 -8.46875 "/>
</g>
<g id="glyph-1-15">
<path d="M 0 4.21875 C 1.28125 5.578125 2.96875 7.453125 2.96875 9.296875 C 2.96875 9.546875 2.921875 9.78125 2.875 10 C 1.6875 8.1875 0 6.515625 0 4.328125 Z M 2.453125 20.765625 C 2.453125 21.03125 2.671875 21.203125 2.90625 21.203125 C 3.046875 21.203125 3.203125 21.140625 3.3125 20.984375 C 3.828125 19.90625 4.125 18.71875 4.125 17.53125 C 4.125 16.71875 3.90625 15.984375 3.546875 15.28125 C 3.84375 14.625 4 13.90625 4 13.1875 C 4 12.390625 3.765625 11.671875 3.421875 10.984375 C 3.640625 10.4375 3.8125 9.875 3.8125 9.296875 C 3.8125 5.8125 0 3.484375 0 0 L -0.3125 0 L -0.3125 15.375 L 0 15.375 L 0 12.890625 C 1.421875 14.046875 3.28125 15.71875 3.28125 17.53125 C 3.28125 19.34375 2.453125 20.5625 2.453125 20.765625 Z M 0 8.5625 C 1.359375 9.734375 3.171875 11.390625 3.171875 13.1875 C 3.171875 13.59375 3.09375 13.96875 2.96875 14.34375 C 1.75 12.53125 0 10.890625 0 8.671875 Z M 0 8.5625 "/>
</g>
<g id="glyph-2-0">
<path d="M 11.078125 -4.734375 L 10.109375 -4.734375 L 9.890625 -3.609375 C 9.609375 -2.21875 9.421875 -2.0625 8.0625 -2.0625 L 3.15625 -2.0625 C 4.671875 -3.640625 5.171875 -4.09375 6.578125 -5.203125 C 8.546875 -6.734375 9.453125 -7.5 9.9375 -8.15625 C 10.625 -9.09375 10.984375 -10.109375 10.984375 -11.15625 C 10.984375 -13.640625 8.90625 -15.4375 6.046875 -15.4375 C 3.265625 -15.4375 1.125 -13.640625 1.125 -11.3125 C 1.125 -9.9375 1.8125 -8.984375 2.875 -8.984375 C 3.6875 -8.984375 4.234375 -9.53125 4.234375 -10.328125 C 4.234375 -10.875 3.921875 -11.375 3.4375 -11.578125 C 2.625 -11.921875 2.59375 -11.953125 2.59375 -12.234375 C 2.59375 -13.34375 3.96875 -14.484375 5.609375 -14.484375 C 7.40625 -14.484375 8.5 -13.375 8.5 -11.53125 C 8.5 -9.90625 7.734375 -8.4375 5.921875 -6.515625 L 2.921875 -3.3125 C 2.125 -2.390625 1.734375 -1.890625 0.765625 -0.609375 L 0.765625 0 L 10.65625 0 Z M 11.078125 -4.734375 "/>
</g>
<g id="glyph-2-1">
<path d="M 11.25 -4.40625 C 11.25 -6.3125 10.328125 -7.578125 8.203125 -8.546875 C 9.84375 -9.453125 10.609375 -10.515625 10.609375 -11.953125 C 10.609375 -13.96875 8.765625 -15.4375 6.25 -15.4375 C 3.578125 -15.4375 1.625 -13.65625 1.625 -11.25 C 1.625 -9.640625 2.328125 -8.484375 4.09375 -7.546875 C 1.84375 -6.671875 0.90625 -5.5 0.90625 -3.6875 C 0.90625 -1.296875 2.8125 0.328125 5.859375 0.328125 C 9.234375 0.328125 11.25 -1.640625 11.25 -4.40625 Z M 8.984375 -11.8125 C 8.984375 -10.671875 8.546875 -9.9375 7.296875 -8.875 L 5.859375 -9.40625 C 4.078125 -10.046875 3.3125 -10.890625 3.3125 -12.171875 C 3.3125 -13.546875 4.453125 -14.484375 6.1875 -14.484375 C 7.875 -14.484375 8.984375 -13.421875 8.984375 -11.8125 Z M 9.484375 -3.484375 C 9.484375 -1.734375 8.109375 -0.609375 5.96875 -0.609375 C 3.921875 -0.609375 2.71875 -1.75 2.71875 -3.6875 C 2.71875 -5.328125 3.390625 -6.3125 5.109375 -7.109375 L 7.125 -6.375 C 8.796875 -5.78125 9.484375 -4.9375 9.484375 -3.484375 Z M 9.484375 -3.484375 "/>
</g>
<g id="glyph-2-2">
<path d="M 10.921875 -4.125 C 10.921875 -6.1875 9.84375 -7.4375 7.578125 -8.0625 C 9.421875 -8.71875 10.5 -9.859375 10.5 -11.65625 C 10.5 -13.9375 8.75 -15.4375 6.03125 -15.4375 C 3.46875 -15.4375 1.515625 -13.921875 1.515625 -11.921875 C 1.515625 -11.03125 2.125 -10.390625 2.953125 -10.390625 C 3.734375 -10.390625 4.25 -10.921875 4.25 -11.703125 C 4.25 -12.171875 4.078125 -12.46875 3.578125 -12.828125 C 3.359375 -12.984375 3.28125 -13.09375 3.28125 -13.21875 C 3.28125 -13.828125 4.578125 -14.484375 5.8125 -14.484375 C 7.390625 -14.484375 8.21875 -13.5 8.21875 -11.640625 C 8.21875 -9.609375 7.390625 -8.53125 5.8125 -8.53125 C 5.5 -8.53125 4.828125 -8.59375 4.453125 -8.59375 C 3.984375 -8.59375 3.75 -8.390625 3.75 -8 C 3.75 -7.625 3.984375 -7.453125 4.421875 -7.453125 C 5.71875 -7.453125 5.8125 -7.5 5.984375 -7.5 C 7.609375 -7.5 8.484375 -6.328125 8.484375 -4.171875 C 8.484375 -1.90625 7.359375 -0.609375 5.421875 -0.609375 C 4.03125 -0.609375 2.546875 -1.359375 2.546875 -2.03125 C 2.546875 -2.234375 2.59375 -2.265625 3.03125 -2.515625 C 3.640625 -2.875 3.875 -3.265625 3.875 -3.8125 C 3.875 -4.609375 3.28125 -5.203125 2.484375 -5.203125 C 1.5625 -5.203125 0.921875 -4.40625 0.921875 -3.265625 C 0.921875 -1.140625 2.875 0.328125 5.671875 0.328125 C 8.828125 0.328125 10.921875 -1.421875 10.921875 -4.125 Z M 10.921875 -4.125 "/>
</g>
<g id="glyph-2-3">
<path d="M 11.546875 -3.84375 L 11.546875 -5.0625 L 8.90625 -5.0625 L 8.90625 -11.046875 C 8.90625 -13.78125 8.90625 -13.78125 9.015625 -15.4375 L 8.0625 -15.4375 L 0.609375 -5.0625 L 0.609375 -3.84375 L 6.78125 -3.84375 L 6.78125 -2.0625 C 6.78125 -1.140625 6.796875 -1.03125 5.015625 -1.03125 L 4.5625 -1.03125 L 4.5625 0 L 10.953125 0 L 10.953125 -1.03125 L 10.65625 -1.03125 C 8.875 -1.03125 8.90625 -1.140625 8.90625 -2.0625 L 8.90625 -3.84375 Z M 6.78125 -5.0625 L 1.953125 -5.0625 L 6.78125 -11.703125 Z M 6.78125 -5.0625 "/>
</g>
<g id="glyph-3-0">
<path d="M 5.046875 -4.875 L 6.359375 -4.875 C 6.578125 -4.875 6.734375 -5.046875 6.734375 -5.265625 C 6.734375 -5.484375 6.578125 -5.640625 6.359375 -5.640625 L 5.265625 -5.640625 C 5.578125 -6.953125 5.734375 -8.703125 6.96875 -8.703125 L 7.109375 -8.703125 C 7.34375 -8.703125 7.546875 -8.6875 7.546875 -8.484375 C 7.546875 -7.890625 6.796875 -7.984375 6.796875 -7.390625 C 6.796875 -6.90625 7.1875 -6.53125 7.671875 -6.53125 C 8.359375 -6.53125 8.703125 -7.296875 8.703125 -8.0625 C 8.703125 -8.90625 7.875 -9.4375 6.96875 -9.4375 C 5.078125 -9.4375 3.359375 -7.546875 2.734375 -5.640625 L 1.53125 -5.640625 C 1.3125 -5.640625 1.15625 -5.484375 1.15625 -5.265625 C 1.15625 -5.046875 1.3125 -4.875 1.53125 -4.875 L 2.515625 -4.875 L 1.15625 0.5625 C 0.921875 1.546875 0.65625 2.703125 -0.296875 2.703125 L -0.421875 2.703125 C -0.65625 2.703125 -0.875 2.6875 -0.875 2.484375 C -0.875 1.890625 -0.125 2.015625 -0.125 1.421875 C -0.125 0.9375 -0.515625 0.53125 -1 0.53125 C -1.6875 0.53125 -2.03125 1.296875 -2.03125 2.078125 C -2.03125 2.90625 -1.1875 3.453125 -0.296875 3.453125 C 1.640625 3.453125 3.453125 0.34375 4.046875 -1.640625 Z M 5.046875 -4.875 "/>
</g>
<g id="glyph-3-1">
<path d="M -0.859375 -2.78125 C -0.859375 -2.65625 -0.75 -2.5625 -0.625 -2.5625 C -0.453125 -2.5625 -0.234375 -2.6875 -0.15625 -2.90625 C 0.078125 -3.578125 0.578125 -4.640625 1.15625 -4.640625 C 1.359375 -4.640625 1.421875 -4.5 1.421875 -4.296875 C 1.421875 -4.203125 1.421875 -4.109375 1.375 -4 L 0.125 -0.359375 C 0.09375 -0.3125 0.09375 -0.28125 0.09375 -0.234375 C 0.09375 -0.09375 0.203125 0 0.359375 0 L 1.171875 0 C 1.375 0 1.59375 -0.15625 1.65625 -0.359375 L 2.890625 -3.984375 C 3.03125 -4.359375 3.40625 -4.640625 3.703125 -4.640625 C 3.890625 -4.640625 3.96875 -4.5 3.96875 -4.328125 C 3.96875 -4.21875 3.9375 -4.125 3.90625 -4 L 2.875 -0.359375 C 2.84375 -0.3125 2.84375 -0.296875 2.84375 -0.265625 C 2.84375 -0.125 2.96875 0 3.125 0 L 3.9375 0 C 4.140625 0 4.328125 -0.15625 4.375 -0.359375 L 5.4375 -4 C 5.5625 -4.328125 5.890625 -4.640625 6.21875 -4.640625 C 6.421875 -4.640625 6.5 -4.484375 6.5 -4.28125 C 6.5 -4.1875 6.46875 -4.109375 6.453125 -4 L 5.671875 -0.71875 C 5.65625 -0.640625 5.65625 -0.578125 5.65625 -0.5 C 5.65625 -0.125 5.890625 0.140625 6.296875 0.140625 C 7.515625 0.140625 9.046875 -1.375 9.046875 -1.59375 C 9.046875 -1.71875 8.9375 -1.796875 8.828125 -1.796875 C 8.5625 -1.796875 8.03125 -1.0625 7.609375 -1.0625 C 7.515625 -1.0625 7.46875 -1.109375 7.46875 -1.21875 C 7.46875 -1.234375 7.484375 -1.28125 7.484375 -1.3125 L 8.1875 -4.28125 C 8.203125 -4.375 8.234375 -4.484375 8.234375 -4.578125 C 8.234375 -5.265625 7.703125 -5.953125 7.046875 -5.953125 C 6.46875 -5.953125 5.890625 -5.578125 5.453125 -5.046875 C 5.34375 -5.53125 5.046875 -5.953125 4.578125 -5.953125 C 3.984375 -5.953125 3.40625 -5.578125 2.96875 -5.0625 C 2.875 -5.5625 2.59375 -5.953125 2.15625 -5.953125 C 0.296875 -5.953125 -0.859375 -3.0625 -0.859375 -2.78125 Z M -0.859375 -2.78125 "/>
</g>
<g id="glyph-3-2">
<path d="M 3.203125 -0.640625 C 2.78125 -0.640625 2.609375 -1 2.609375 -1.515625 C 2.609375 -2.75 3.609375 -4.84375 4.640625 -4.84375 C 5 -4.84375 5.140625 -4.546875 5.140625 -4.1875 C 5.140625 -3.859375 4.65625 -0.640625 3.203125 -0.640625 Z M -1.0625 -2.8125 C -1.0625 -2.65625 -0.9375 -2.5625 -0.78125 -2.5625 C -0.59375 -2.5625 -0.390625 -2.671875 -0.296875 -2.90625 C 0.015625 -3.640625 0.625 -4.84375 1.28125 -4.84375 C 1.453125 -4.84375 1.5 -4.71875 1.5 -4.5625 C 1.5 -4.4375 1.453125 -4.296875 1.421875 -4.15625 L -0.625 1.8125 C -0.921875 2.6875 -2.65625 1.96875 -2.65625 2.625 C -2.65625 2.765625 -2.546875 2.90625 -2.375 2.90625 C -2.3125 2.90625 -1.375 2.8125 -0.0625 2.8125 C 1.21875 2.8125 2.21875 2.90625 2.234375 2.90625 C 2.40625 2.90625 2.484375 2.765625 2.484375 2.625 C 2.484375 2.15625 1.328125 2.484375 1.328125 1.8125 C 1.328125 1.75 1.359375 1.6875 1.375 1.65625 L 1.953125 -0.0625 C 1.984375 -0.203125 2.078125 -0.265625 2.171875 -0.265625 C 2.453125 -0.265625 2.96875 0.15625 3.9375 0.15625 C 5.015625 0.15625 7.109375 -1.1875 7.109375 -3.546875 C 7.109375 -4.84375 6.359375 -5.8125 4.984375 -5.8125 C 4.265625 -5.8125 3.5 -5.40625 2.921875 -4.78125 C 2.78125 -5.40625 2.3125 -5.8125 1.609375 -5.8125 C -0.046875 -5.8125 -1.0625 -2.84375 -1.0625 -2.8125 Z M -1.0625 -2.8125 "/>
</g>
<g id="glyph-4-0">
<path d="M -1.671875 7.40625 C -1.671875 12.484375 -3.828125 18.46875 -3.828125 24.03125 C -3.828125 30.953125 -0.125 33.703125 0 33.703125 C 0.171875 33.703125 0.296875 33.59375 0.296875 33.40625 C 0.296875 32.9375 -2.328125 31.5 -2.328125 25.875 C -2.328125 20.921875 -0.359375 15 -0.359375 9.5625 C -0.359375 6.09375 -1.1875 2.8125 -3.828125 0 C -1.1875 -2.8125 -0.359375 -6.09375 -0.359375 -9.5625 C -0.359375 -15 -2.328125 -20.921875 -2.328125 -25.875 C -2.328125 -31.5 0.296875 -32.9375 0.296875 -33.40625 C 0.296875 -33.59375 0.171875 -33.703125 0 -33.703125 C -0.125 -33.703125 -3.828125 -30.953125 -3.828125 -24.03125 C -3.828125 -18.46875 -1.671875 -12.484375 -1.671875 -7.40625 C -1.671875 -1.90625 -4.296875 -0.421875 -4.296875 0 C -4.296875 0.0625 -1.671875 2.21875 -1.671875 7.40625 Z M -1.671875 7.40625 "/>
</g>
</g>
</defs>
<path fill-rule="nonzero" fill="rgb(0%, 0%, 0%)" fill-opacity="1" d="M 197.015625 93.726562 L 197.015625 73.550781 L 197.960938 73.550781 L 197.960938 93.726562 Z M 197.015625 93.726562 "/>
<path fill="none" stroke-width="0.1" stroke-linecap="round" stroke-linejoin="miter" stroke="rgb(0%, 0%, 0%)" stroke-opacity="1" stroke-miterlimit="10" d="M 17.121779 -18.766204 L 110.915943 -18.766204 " transform="matrix(4.98132, 0, 0, -4.98132, 0, 0)"/>
<path fill="none" stroke-width="0.1" stroke-linecap="round" stroke-linejoin="miter" stroke="rgb(0%, 0%, 0%)" stroke-opacity="1" stroke-miterlimit="10" d="M 17.121779 -17.766375 L 110.915943 -17.766375 " transform="matrix(4.98132, 0, 0, -4.98132, 0, 0)"/>
<path fill="none" stroke-width="0.1" stroke-linecap="round" stroke-linejoin="miter" stroke="rgb(0%, 0%, 0%)" stroke-opacity="1" stroke-miterlimit="10" d="M 17.121779 -16.765762 L 110.915943 -16.765762 " transform="matrix(4.98132, 0, 0, -4.98132, 0, 0)"/>
<path fill="none" stroke-width="0.1" stroke-linecap="round" stroke-linejoin="miter" stroke="rgb(0%, 0%, 0%)" stroke-opacity="1" stroke-miterlimit="10" d="M 17.121779 -15.765933 L 110.915943 -15.765933 " transform="matrix(4.98132, 0, 0, -4.98132, 0, 0)"/>
<path fill="none" stroke-width="0.1" stroke-linecap="round" stroke-linejoin="miter" stroke="rgb(0%, 0%, 0%)" stroke-opacity="1" stroke-miterlimit="10" d="M 17.121779 -14.766104 L 110.915943 -14.766104 " transform="matrix(4.98132, 0, 0, -4.98132, 0, 0)"/>
<path fill-rule="nonzero" fill="rgb(0%, 0%, 0%)" fill-opacity="1" d="M 551.808594 120.65625 L 551.808594 93.730469 L 552.753906 93.730469 L 552.753906 120.65625 Z M 551.808594 120.65625 "/>
<path fill-rule="nonzero" fill="rgb(0%, 0%, 0%)" fill-opacity="1" d="M 551.808594 140.578125 L 551.808594 120.402344 L 552.753906 120.402344 L 552.753906 140.578125 Z M 551.808594 140.578125 "/>
<path fill-rule="nonzero" fill="rgb(0%, 0%, 0%)" fill-opacity="1" d="M 551.808594 93.726562 L 551.808594 73.550781 L 552.753906 73.550781 L 552.753906 93.726562 Z M 551.808594 93.726562 "/>
<path fill-rule="nonzero" fill="rgb(0%, 0%, 0%)" fill-opacity="1" d="M 463.496094 120.65625 L 463.496094 93.730469 L 464.441406 93.730469 L 464.441406 120.65625 Z M 463.496094 120.65625 "/>
<path fill-rule="nonzero" fill="rgb(0%, 0%, 0%)" fill-opacity="1" d="M 528.546875 146.0625 C 528.820312 146.0625 529.042969 145.835938 529.042969 145.5625 C 529.042969 145.289062 528.820312 145.0625 528.546875 145.0625 L 519.796875 145.0625 C 519.523438 145.0625 519.296875 145.289062 519.296875 145.5625 C 519.296875 145.835938 519.523438 146.0625 519.796875 146.0625 Z M 528.546875 146.0625 "/>
<path fill-rule="nonzero" fill="rgb(0%, 0%, 0%)" fill-opacity="1" d="M 498.964844 146.0625 C 499.242188 146.0625 499.464844 145.835938 499.464844 145.5625 C 499.464844 145.289062 499.242188 145.0625 498.964844 145.0625 L 490.925781 145.0625 C 490.652344 145.0625 490.425781 145.289062 490.425781 145.5625 C 490.425781 145.835938 490.652344 146.0625 490.925781 146.0625 Z M 498.964844 146.0625 "/>
<path fill-rule="nonzero" fill="rgb(0%, 0%, 0%)" fill-opacity="1" d="M 451.464844 116.171875 C 451.738281 116.171875 451.964844 115.945312 451.964844 115.671875 C 451.964844 115.398438 451.738281 115.171875 451.464844 115.171875 L 443.46875 115.171875 C 443.195312 115.171875 442.96875 115.398438 442.96875 115.671875 C 442.96875 115.945312 443.195312 116.171875 443.46875 116.171875 Z M 451.464844 116.171875 "/>
<path fill-rule="nonzero" fill="rgb(0%, 0%, 0%)" fill-opacity="1" d="M 287.078125 146.0625 C 287.355469 146.0625 287.578125 145.835938 287.578125 145.5625 C 287.578125 145.289062 287.355469 145.0625 287.078125 145.0625 L 279.039062 145.0625 C 278.765625 145.0625 278.539062 145.289062 278.539062 145.5625 C 278.539062 145.835938 278.765625 146.0625 279.039062 146.0625 Z M 287.078125 146.0625 "/>
<path fill="none" stroke-width="0.1" stroke-linecap="round" stroke-linejoin="miter" stroke="rgb(0%, 0%, 0%)" stroke-opacity="1" stroke-miterlimit="10" d="M 17.121779 -28.221059 L 110.915943 -28.221059 " transform="matrix(4.98132, 0, 0, -4.98132, 0, 0)"/>
<path fill="none" stroke-width="0.1" stroke-linecap="round" stroke-linejoin="miter" stroke="rgb(0%, 0%, 0%)" stroke-opacity="1" stroke-miterlimit="10" d="M 17.121779 -27.221229 L 110.915943 -27.221229 " transform="matrix(4.98132, 0, 0, -4.98132, 0, 0)"/>
<path fill="none" stroke-width="0.1" stroke-linecap="round" stroke-linejoin="miter" stroke="rgb(0%, 0%, 0%)" stroke-opacity="1" stroke-miterlimit="10" d="M 17.121779 -26.2214 L 110.915943 -26.2214 " transform="matrix(4.98132, 0, 0, -4.98132, 0, 0)"/>
<path fill="none" stroke-width="0.1" stroke-linecap="round" stroke-linejoin="miter" stroke="rgb(0%, 0%, 0%)" stroke-opacity="1" stroke-miterlimit="10" d="M 17.121779 -25.221571 L 110.915943 -25.221571 " transform="matrix(4.98132, 0, 0, -4.98132, 0, 0)"/>
<path fill="none" stroke-width="0.1" stroke-linecap="round" stroke-linejoin="miter" stroke="rgb(0%, 0%, 0%)" stroke-opacity="1" stroke-miterlimit="10" d="M 17.121779 -24.220958 L 110.915943 -24.220958 " transform="matrix(4.98132, 0, 0, -4.98132, 0, 0)"/>
<path fill-rule="nonzero" fill="rgb(0%, 0%, 0%)" fill-opacity="1" d="M 463.496094 140.578125 L 463.496094 120.402344 L 464.441406 120.402344 L 464.441406 140.578125 Z M 463.496094 140.578125 "/>
<path fill-rule="nonzero" fill="rgb(0%, 0%, 0%)" fill-opacity="1" d="M 463.496094 93.726562 L 463.496094 73.550781 L 464.441406 73.550781 L 464.441406 93.726562 Z M 463.496094 93.726562 "/>
<path fill-rule="nonzero" fill="rgb(0%, 0%, 0%)" fill-opacity="1" d="M 337.859375 120.65625 L 337.859375 93.730469 L 338.804688 93.730469 L 338.804688 120.65625 Z M 337.859375 120.65625 "/>
<path fill-rule="nonzero" fill="rgb(0%, 0%, 0%)" fill-opacity="1" d="M 400.625 69.074219 C 400.898438 69.074219 401.121094 68.847656 401.121094 68.574219 C 401.121094 68.300781 400.898438 68.074219 400.625 68.074219 L 392.554688 68.074219 C 392.28125 68.074219 392.054688 68.300781 392.054688 68.574219 C 392.054688 68.847656 392.28125 69.074219 392.554688 69.074219 Z M 400.625 69.074219 "/>
<path fill-rule="nonzero" fill="rgb(0%, 0%, 0%)" fill-opacity="1" d="M 328.382812 54.128906 C 328.65625 54.128906 328.878906 53.902344 328.878906 53.628906 C 328.878906 53.355469 328.65625 53.128906 328.382812 53.128906 L 319.632812 53.128906 C 319.359375 53.128906 319.132812 53.355469 319.132812 53.628906 C 319.132812 53.902344 319.359375 54.128906 319.632812 54.128906 Z M 328.382812 54.128906 "/>
<path fill-rule="nonzero" fill="rgb(0%, 0%, 0%)" fill-opacity="1" d="M 328.382812 59.109375 C 328.65625 59.109375 328.878906 58.882812 328.878906 58.609375 C 328.878906 58.335938 328.65625 58.109375 328.382812 58.109375 L 319.632812 58.109375 C 319.359375 58.109375 319.132812 58.335938 319.132812 58.609375 C 319.132812 58.882812 319.359375 59.109375 319.632812 59.109375 Z M 328.382812 59.109375 "/>
<path fill-rule="nonzero" fill="rgb(0%, 0%, 0%)" fill-opacity="1" d="M 328.382812 64.089844 C 328.65625 64.089844 328.878906 63.863281 328.878906 63.589844 C 328.878906 63.316406 328.65625 63.089844 328.382812 63.089844 L 319.632812 63.089844 C 319.359375 63.089844 319.132812 63.316406 319.132812 63.589844 C 319.132812 63.863281 319.359375 64.089844 319.632812 64.089844 Z M 328.382812 64.089844 "/>
<path fill-rule="nonzero" fill="rgb(0%, 0%, 0%)" fill-opacity="1" d="M 328.382812 69.074219 C 328.65625 69.074219 328.878906 68.847656 328.878906 68.574219 C 328.878906 68.300781 328.65625 68.074219 328.382812 68.074219 L 319.632812 68.074219 C 319.359375 68.074219 319.132812 68.300781 319.132812 68.574219 C 319.132812 68.847656 319.359375 69.074219 319.632812 69.074219 Z M 328.382812 69.074219 "/>
<path fill-rule="nonzero" fill="rgb(0%, 0%, 0%)" fill-opacity="1" d="M 287.078125 64.089844 C 287.351562 64.089844 287.574219 63.863281 287.574219 63.589844 C 287.574219 63.316406 287.351562 63.089844 287.078125 63.089844 L 279.007812 63.089844 C 278.734375 63.089844 278.507812 63.316406 278.507812 63.589844 C 278.507812 63.863281 278.734375 64.089844 279.007812 64.089844 Z M 287.078125 64.089844 "/>
<path fill-rule="nonzero" fill="rgb(0%, 0%, 0%)" fill-opacity="1" d="M 287.078125 69.074219 C 287.351562 69.074219 287.574219 68.847656 287.574219 68.574219 C 287.574219 68.300781 287.351562 68.074219 287.078125 68.074219 L 279.007812 68.074219 C 278.734375 68.074219 278.507812 68.300781 278.507812 68.574219 C 278.507812 68.847656 278.734375 69.074219 279.007812 69.074219 Z M 287.078125 69.074219 "/>
<path fill-rule="nonzero" fill="rgb(0%, 0%, 0%)" fill-opacity="1" d="M 273.378906 69.074219 C 273.652344 69.074219 273.875 68.847656 273.875 68.574219 C 273.875 68.300781 273.652344 68.074219 273.378906 68.074219 L 264.628906 68.074219 C 264.355469 68.074219 264.128906 68.300781 264.128906 68.574219 C 264.128906 68.847656 264.355469 69.074219 264.628906 69.074219 Z M 273.378906 69.074219 "/>
<path fill-rule="nonzero" fill="rgb(0%, 0%, 0%)" fill-opacity="1" d="M 251.429688 69.074219 C 251.703125 69.074219 251.925781 68.847656 251.925781 68.574219 C 251.925781 68.300781 251.703125 68.074219 251.429688 68.074219 L 243.359375 68.074219 C 243.085938 68.074219 242.859375 68.300781 242.859375 68.574219 C 242.859375 68.847656 243.085938 69.074219 243.359375 69.074219 Z M 251.429688 69.074219 "/>
<path fill-rule="nonzero" fill="rgb(0%, 0%, 0%)" fill-opacity="1" d="M 235.523438 49.148438 C 235.796875 49.148438 236.019531 48.921875 236.019531 48.648438 C 236.019531 48.375 235.796875 48.148438 235.523438 48.148438 L 227.453125 48.148438 C 227.179688 48.148438 226.953125 48.375 226.953125 48.648438 C 226.953125 48.921875 227.179688 49.148438 227.453125 49.148438 Z M 235.523438 49.148438 "/>
<path fill-rule="nonzero" fill="rgb(0%, 0%, 0%)" fill-opacity="1" d="M 235.523438 54.128906 C 235.796875 54.128906 236.019531 53.902344 236.019531 53.628906 C 236.019531 53.355469 235.796875 53.128906 235.523438 53.128906 L 227.453125 53.128906 C 227.179688 53.128906 226.953125 53.355469 226.953125 53.628906 C 226.953125 53.902344 227.179688 54.128906 227.453125 54.128906 Z M 235.523438 54.128906 "/>
<path fill-rule="nonzero" fill="rgb(0%, 0%, 0%)" fill-opacity="1" d="M 235.523438 59.109375 C 235.796875 59.109375 236.019531 58.882812 236.019531 58.609375 C 236.019531 58.335938 235.796875 58.109375 235.523438 58.109375 L 226.773438 58.109375 C 226.5 58.109375 226.273438 58.335938 226.273438 58.609375 C 226.273438 58.882812 226.5 59.109375 226.773438 59.109375 Z M 235.523438 59.109375 "/>
<path fill-rule="nonzero" fill="rgb(0%, 0%, 0%)" fill-opacity="1" d="M 235.523438 64.089844 C 235.796875 64.089844 236.019531 63.863281 236.019531 63.589844 C 236.019531 63.316406 235.796875 63.089844 235.523438 63.089844 L 226.773438 63.089844 C 226.5 63.089844 226.273438 63.316406 226.273438 63.589844 C 226.273438 63.863281 226.5 64.089844 226.773438 64.089844 Z M 235.523438 64.089844 "/>
<path fill-rule="nonzero" fill="rgb(0%, 0%, 0%)" fill-opacity="1" d="M 235.523438 69.074219 C 235.796875 69.074219 236.019531 68.847656 236.019531 68.574219 C 236.019531 68.300781 235.796875 68.074219 235.523438 68.074219 L 226.773438 68.074219 C 226.5 68.074219 226.273438 68.300781 226.273438 68.574219 C 226.273438 68.847656 226.5 69.074219 226.773438 69.074219 Z M 235.523438 69.074219 "/>
<path fill-rule="nonzero" fill="rgb(0%, 0%, 0%)" fill-opacity="1" d="M 337.859375 140.578125 L 337.859375 120.402344 L 338.804688 120.402344 L 338.804688 140.578125 Z M 337.859375 140.578125 "/>
<path fill-rule="nonzero" fill="rgb(0%, 0%, 0%)" fill-opacity="1" d="M 337.859375 93.726562 L 337.859375 73.550781 L 338.804688 73.550781 L 338.804688 93.726562 Z M 337.859375 93.726562 "/>
<path fill-rule="nonzero" fill="rgb(0%, 0%, 0%)" fill-opacity="1" d="M 197.015625 120.65625 L 197.015625 93.730469 L 197.960938 93.730469 L 197.960938 120.65625 Z M 197.015625 120.65625 "/>
<path fill-rule="nonzero" fill="rgb(0%, 0%, 0%)" fill-opacity="1" d="M 197.015625 140.578125 L 197.015625 120.402344 L 197.960938 120.402344 L 197.960938 140.578125 Z M 197.015625 140.578125 "/>
<g fill="rgb(0%, 0%, 0%)" fill-opacity="1">
<use xlink:href="#glyph-0-0" x="311.277344" y="39.449219"/>
</g>
<g fill="rgb(0%, 0%, 0%)" fill-opacity="1">
<use xlink:href="#glyph-1-0" x="89.023438" y="88.5"/>
</g>
<g fill="rgb(0%, 0%, 0%)" fill-opacity="1">
<use xlink:href="#glyph-2-0" x="109.964844" y="111.648438"/>
</g>
<g fill="rgb(0%, 0%, 0%)" fill-opacity="1">
<use xlink:href="#glyph-2-1" x="109.964844" y="129.085938"/>
</g>
<g fill="rgb(100%, 0%, 0%)" fill-opacity="1">
<use xlink:href="#glyph-1-1" x="133.566406" y="128.125"/>
</g>
<g fill="rgb(0%, 0%, 0%)" fill-opacity="1">
<use xlink:href="#glyph-3-0" x="131.175781" y="113.96875"/>
</g>
<g fill="rgb(100%, 0%, 0%)" fill-opacity="1">
<use xlink:href="#glyph-1-1" x="133.566406" y="143.070312"/>
</g>
<g fill="rgb(0%, 0%, 0%)" fill-opacity="1">
<use xlink:href="#glyph-3-0" x="123.703125" y="163.226563"/>
</g>
<g fill="rgb(0%, 0%, 0%)" fill-opacity="1">
<use xlink:href="#glyph-1-2" x="89.023438" y="125.636719"/>
</g>
<path fill-rule="nonzero" fill="rgb(0%, 0%, 0%)" fill-opacity="1" d="M 139.863281 95.042969 C 139.972656 95.042969 140.0625 94.953125 140.0625 94.84375 L 140.0625 78.734375 C 140.0625 78.625 139.972656 78.535156 139.863281 78.535156 L 139.613281 78.535156 C 139.503906 78.535156 139.414062 78.625 139.414062 78.734375 L 139.414062 94.84375 C 139.414062 94.953125 139.503906 95.042969 139.613281 95.042969 Z M 139.863281 95.042969 "/>
<g fill="rgb(0%, 0%, 0%)" fill-opacity="1">
<use xlink:href="#glyph-1-3" x="128.414062" y="95.96875"/>
</g>
<path fill-rule="nonzero" fill="rgb(0%, 0%, 0%)" fill-opacity="1" d="M 139.863281 127.199219 C 139.972656 127.199219 140.0625 127.109375 140.0625 127 L 140.0625 112.550781 C 140.0625 112.441406 139.972656 112.351562 139.863281 112.351562 L 139.613281 112.351562 C 139.503906 112.351562 139.414062 112.441406 139.414062 112.550781 L 139.414062 127 C 139.414062 127.109375 139.503906 127.199219 139.613281 127.199219 Z M 139.863281 127.199219 "/>
<path fill-rule="nonzero" fill="rgb(0%, 0%, 0%)" fill-opacity="1" d="M 134.015625 155.523438 C 134.125 155.523438 134.214844 155.433594 134.214844 155.324219 L 134.214844 144.195312 C 134.214844 144.085938 134.125 143.996094 134.015625 143.996094 L 133.765625 143.996094 C 133.65625 143.996094 133.566406 144.085938 133.566406 144.195312 L 133.566406 155.324219 C 133.566406 155.433594 133.65625 155.523438 133.765625 155.523438 Z M 134.015625 155.523438 "/>
<g fill="rgb(0%, 0%, 0%)" fill-opacity="1">
<use xlink:href="#glyph-1-4" x="127.835938" y="128.125"/>
</g>
<g fill="rgb(0%, 0%, 0%)" fill-opacity="1">
<use xlink:href="#glyph-1-3" x="128.355469" y="143.070312"/>
</g>
<g fill="rgb(0%, 0%, 0%)" fill-opacity="1">
<use xlink:href="#glyph-1-5" x="154.890625" y="83.515625"/>
</g>
<g fill="rgb(0%, 0%, 0%)" fill-opacity="1">
<use xlink:href="#glyph-1-5" x="169.992188" y="83.515625"/>
</g>
<g fill="rgb(100%, 0%, 0%)" fill-opacity="1">
<use xlink:href="#glyph-1-1" x="169.992188" y="143.070312"/>
</g>
<path fill-rule="nonzero" fill="rgb(0%, 0%, 0%)" fill-opacity="1" d="M 170.441406 159.257812 C 170.550781 159.257812 170.640625 159.167969 170.640625 159.058594 L 170.640625 144.195312 C 170.640625 144.085938 170.550781 143.996094 170.441406 143.996094 L 170.191406 143.996094 C 170.082031 143.996094 169.992188 144.085938 169.992188 144.195312 L 169.992188 159.058594 C 169.992188 159.167969 170.082031 159.257812 170.191406 159.257812 Z M 170.441406 159.257812 "/>
<g fill="rgb(0%, 0%, 0%)" fill-opacity="1">
<use xlink:href="#glyph-1-6" x="170.640625" y="159.058594"/>
</g>
<g fill="rgb(0%, 0%, 0%)" fill-opacity="1">
<use xlink:href="#glyph-0-0" x="529.851562" y="116.675781"/>
</g>
<g fill="rgb(0%, 0%, 0%)" fill-opacity="1">
<use xlink:href="#glyph-1-5" x="181.910156" y="140.578125"/>
</g>
<path fill="none" stroke-width="0.16" stroke-linecap="round" stroke-linejoin="miter" stroke="rgb(0%, 0%, 0%)" stroke-opacity="1" stroke-miterlimit="10" d="M 108.143084 -22.821197 L 108.143084 -23.52147 " transform="matrix(4.98132, 0, 0, -4.98132, 0, 0)"/>
<path fill="none" stroke-width="0.16" stroke-linecap="round" stroke-linejoin="miter" stroke="rgb(0%, 0%, 0%)" stroke-opacity="1" stroke-miterlimit="10" d="M 105.549802 -22.821197 L 105.549802 -23.52147 " transform="matrix(4.98132, 0, 0, -4.98132, 0, 0)"/>
<path fill="none" stroke-width="0.16" stroke-linecap="round" stroke-linejoin="miter" stroke="rgb(0%, 0%, 0%)" stroke-opacity="1" stroke-miterlimit="10" d="M 108.143084 -22.821197 L 107.924298 -22.821197 " transform="matrix(4.98132, 0, 0, -4.98132, 0, 0)"/>
<path fill="none" stroke-width="0.16" stroke-linecap="round" stroke-linejoin="miter" stroke="rgb(0%, 0%, 0%)" stroke-opacity="1" stroke-miterlimit="10" d="M 105.549802 -22.821197 L 105.968554 -22.821197 " transform="matrix(4.98132, 0, 0, -4.98132, 0, 0)"/>
<g fill="rgb(0%, 0%, 0%)" fill-opacity="1">
<use xlink:href="#glyph-0-0" x="526.929688" y="69.578125"/>
</g>
<g fill="rgb(0%, 0%, 100%)" fill-opacity="1">
<use xlink:href="#glyph-1-1" x="227.898438" y="48.648438"/>
</g>
<g fill="rgb(0%, 0%, 0%)" fill-opacity="1">
<use xlink:href="#glyph-3-1" x="205.488281" y="46.945312"/>
<use xlink:href="#glyph-3-0" x="213.652061" y="46.945312"/>
</g>
<g fill="rgb(100%, 0%, 0%)" fill-opacity="1">
<use xlink:href="#glyph-1-1" x="133.566406" y="95.96875"/>
</g>
<g fill="rgb(0%, 0%, 0%)" fill-opacity="1">
<use xlink:href="#glyph-2-2" x="201.695312" y="111.648438"/>
</g>
<g fill="rgb(0%, 0%, 0%)" fill-opacity="1">
<use xlink:href="#glyph-2-1" x="201.695312" y="129.085938"/>
</g>
<g fill="rgb(0%, 0%, 0%)" fill-opacity="1">
<use xlink:href="#glyph-1-7" x="227.898438" y="130.617188"/>
</g>
<path fill="none" stroke-width="0.16" stroke-linecap="round" stroke-linejoin="miter" stroke="rgb(0%, 0%, 0%)" stroke-opacity="1" stroke-miterlimit="10" d="M 108.1423 -13.366343 L 108.1423 -14.066615 " transform="matrix(4.98132, 0, 0, -4.98132, 0, 0)"/>
<path fill="none" stroke-width="0.16" stroke-linecap="round" stroke-linejoin="miter" stroke="rgb(0%, 0%, 0%)" stroke-opacity="1" stroke-miterlimit="10" d="M 104.375101 -13.366343 L 104.375101 -14.066615 " transform="matrix(4.98132, 0, 0, -4.98132, 0, 0)"/>
<path fill="none" stroke-width="0.16" stroke-linecap="round" stroke-linejoin="miter" stroke="rgb(0%, 0%, 0%)" stroke-opacity="1" stroke-miterlimit="10" d="M 108.1423 -13.366343 L 107.336947 -13.366343 " transform="matrix(4.98132, 0, 0, -4.98132, 0, 0)"/>
<path fill="none" stroke-width="0.16" stroke-linecap="round" stroke-linejoin="miter" stroke="rgb(0%, 0%, 0%)" stroke-opacity="1" stroke-miterlimit="10" d="M 104.375101 -13.366343 L 105.380419 -13.366343 " transform="matrix(4.98132, 0, 0, -4.98132, 0, 0)"/>
<g fill="rgb(0%, 0%, 0%)" fill-opacity="1">
<use xlink:href="#glyph-1-8" x="213.941406" y="135.597656"/>
</g>
<path fill-rule="nonzero" fill="rgb(0%, 0%, 0%)" fill-opacity="1" d="M 228.347656 87.550781 C 228.457031 87.550781 228.546875 87.460938 228.546875 87.351562 L 228.546875 49.773438 C 228.546875 49.664062 228.457031 49.574219 228.347656 49.574219 L 228.097656 49.574219 C 227.988281 49.574219 227.898438 49.664062 227.898438 49.773438 L 227.898438 87.351562 C 227.898438 87.460938 227.988281 87.550781 228.097656 87.550781 Z M 228.347656 87.550781 "/>
<g fill="rgb(0%, 0%, 0%)" fill-opacity="1">
<use xlink:href="#glyph-1-3" x="222.691406" y="48.648438"/>
</g>
<g fill="rgb(0%, 0%, 0%)" fill-opacity="1">
<use xlink:href="#glyph-1-9" x="236.121094" y="128.125"/>
</g>
<path fill="none" stroke-width="0.08" stroke-linecap="round" stroke-linejoin="round" stroke="rgb(0%, 0%, 0%)" stroke-opacity="1" stroke-miterlimit="10" d="M 1.504057 -4.000101 C 2.315683 -4.78977 4.926217 -4.78977 5.737843 -4.000101 C 4.926217 -4.66979 2.315683 -4.66979 1.504057 -4.000101 Z M 1.504057 -4.000101 " transform="matrix(4.98132, 0, 0, -4.98132, 491.34375, 130.617188)"/>
<path fill-rule="nonzero" fill="rgb(0%, 0%, 0%)" fill-opacity="1" d="M 498.835938 150.542969 C 502.878906 154.476562 515.882812 154.476562 519.925781 150.542969 C 515.882812 153.878906 502.878906 153.878906 498.835938 150.542969 Z M 498.835938 150.542969 "/>
<g fill="rgb(0%, 0%, 100%)" fill-opacity="1">
<use xlink:href="#glyph-1-1" x="243.804688" y="68.574219"/>
</g>
<g fill="rgb(0%, 0%, 0%)" fill-opacity="1">
<use xlink:href="#glyph-3-0" x="241.101562" y="56.929688"/>
<use xlink:href="#glyph-3-0" x="246.714161" y="56.929688"/>
</g>
<g fill="rgb(0%, 0%, 0%)" fill-opacity="1">
<use xlink:href="#glyph-1-9" x="252.542969" y="66.082031"/>
</g>
<path fill-rule="nonzero" fill="rgb(0%, 0%, 0%)" fill-opacity="1" d="M 244.253906 87.550781 C 244.363281 87.550781 244.453125 87.460938 244.453125 87.351562 L 244.453125 69.699219 C 244.453125 69.589844 244.363281 69.5 244.253906 69.5 L 244.003906 69.5 C 243.894531 69.5 243.804688 69.589844 243.804688 69.699219 L 243.804688 87.351562 C 243.804688 87.460938 243.894531 87.550781 244.003906 87.550781 Z M 244.253906 87.550781 "/>
<g fill="rgb(0%, 0%, 0%)" fill-opacity="1">
<use xlink:href="#glyph-1-3" x="238.59375" y="68.574219"/>
</g>
<path fill="none" stroke-width="0.08" stroke-linecap="round" stroke-linejoin="round" stroke="rgb(0%, 0%, 0%)" stroke-opacity="1" stroke-miterlimit="10" d="M 0.852403 1.199011 C 1.795771 2.047493 5.446912 2.047493 6.39028 1.199011 C 5.446912 1.927514 1.795771 1.927514 0.852403 1.199011 Z M 0.852403 1.199011 " transform="matrix(4.98132, 0, 0, -4.98132, 491.34375, 83.515625)"/>
<path fill-rule="nonzero" fill="rgb(0%, 0%, 0%)" fill-opacity="1" d="M 495.589844 77.542969 C 500.289062 73.316406 518.476562 73.316406 523.175781 77.542969 C 518.476562 73.914062 500.289062 73.914062 495.589844 77.542969 Z M 495.589844 77.542969 "/>
<g fill="rgb(0%, 0%, 100%)" fill-opacity="1">
<use xlink:href="#glyph-1-1" x="249.851562" y="135.597656"/>
</g>
<g fill="rgb(0%, 0%, 0%)" fill-opacity="1">
<use xlink:href="#glyph-3-0" x="249.953125" y="153.261719"/>
</g>
<path fill-rule="nonzero" fill="rgb(0%, 0%, 0%)" fill-opacity="1" d="M 256.148438 134.671875 C 256.257812 134.671875 256.347656 134.582031 256.347656 134.472656 L 256.347656 111.839844 C 256.347656 111.726562 256.257812 111.640625 256.148438 111.640625 L 255.898438 111.640625 C 255.789062 111.640625 255.699219 111.726562 255.699219 111.839844 L 255.699219 134.472656 C 255.699219 134.582031 255.789062 134.671875 255.898438 134.671875 Z M 256.148438 134.671875 "/>
<g fill="rgb(0%, 0%, 0%)" fill-opacity="1">
<use xlink:href="#glyph-1-10" x="242.628906" y="135.597656"/>
</g>
<g fill="rgb(0%, 0%, 100%)" fill-opacity="1">
<use xlink:href="#glyph-1-1" x="265.753906" y="68.574219"/>
</g>
<g fill="rgb(0%, 0%, 100%)" fill-opacity="1">
<use xlink:href="#glyph-1-1" x="265.753906" y="135.597656"/>
</g>
<path fill-rule="nonzero" fill="rgb(0%, 0%, 0%)" fill-opacity="1" d="M 266.203125 87.550781 C 266.3125 87.550781 266.402344 87.460938 266.402344 87.351562 L 266.402344 69.699219 C 266.402344 69.589844 266.3125 69.5 266.203125 69.5 L 265.953125 69.5 C 265.84375 69.5 265.753906 69.589844 265.753906 69.699219 L 265.753906 87.351562 C 265.753906 87.460938 265.84375 87.550781 265.953125 87.550781 Z M 266.203125 87.550781 "/>
<path fill-rule="nonzero" fill="rgb(0%, 0%, 0%)" fill-opacity="1" d="M 272.054688 134.671875 C 272.164062 134.671875 272.253906 134.582031 272.253906 134.472656 L 272.253906 111.839844 C 272.253906 111.726562 272.164062 111.640625 272.054688 111.640625 L 271.804688 111.640625 C 271.695312 111.640625 271.605469 111.726562 271.605469 111.839844 L 271.605469 134.472656 C 271.605469 134.582031 271.695312 134.671875 271.804688 134.671875 Z M 272.054688 134.671875 "/>
<g fill="rgb(100%, 0%, 0%)" fill-opacity="1">
<use xlink:href="#glyph-1-1" x="279.457031" y="61.101563"/>
</g>
<g fill="rgb(0%, 0%, 0%)" fill-opacity="1">
<use xlink:href="#glyph-3-0" x="276.75" y="51.949219"/>
<use xlink:href="#glyph-3-0" x="282.362598" y="51.949219"/>
</g>
<g fill="rgb(100%, 0%, 0%)" fill-opacity="1">
<use xlink:href="#glyph-1-1" x="279.457031" y="145.5625"/>
</g>
<g fill="rgb(0%, 0%, 0%)" fill-opacity="1">
<use xlink:href="#glyph-3-2" x="275.390625" y="159.074219"/>
<use xlink:href="#glyph-3-2" x="282.704011" y="159.074219"/>
</g>
<path fill-rule="nonzero" fill="rgb(0%, 0%, 0%)" fill-opacity="1" d="M 279.902344 87.550781 C 280.011719 87.550781 280.101562 87.460938 280.101562 87.351562 L 280.101562 62.226562 C 280.101562 62.117188 280.011719 62.027344 279.902344 62.027344 L 279.652344 62.027344 C 279.542969 62.027344 279.453125 62.117188 279.453125 62.226562 L 279.453125 87.351562 C 279.453125 87.460938 279.542969 87.550781 279.652344 87.550781 Z M 279.902344 87.550781 "/>
<g fill="rgb(0%, 0%, 0%)" fill-opacity="1">
<use xlink:href="#glyph-1-3" x="274.246094" y="61.101563"/>
</g>
<path fill-rule="nonzero" fill="rgb(0%, 0%, 0%)" fill-opacity="1" d="M 285.753906 144.632812 C 285.863281 144.632812 285.953125 144.542969 285.953125 144.433594 L 285.953125 111.835938 C 285.953125 111.726562 285.863281 111.636719 285.753906 111.636719 L 285.503906 111.636719 C 285.394531 111.636719 285.304688 111.726562 285.304688 111.835938 L 285.304688 144.433594 C 285.304688 144.542969 285.394531 144.632812 285.503906 144.632812 Z M 285.753906 144.632812 "/>
<g fill="rgb(0%, 0%, 0%)" fill-opacity="1">
<use xlink:href="#glyph-1-3" x="274.304688" y="145.5625"/>
</g>
<g fill="rgb(0%, 0%, 0%)" fill-opacity="1">
<use xlink:href="#glyph-1-7" x="300.0625" y="73.554688"/>
</g>
<g fill="rgb(100%, 0%, 0%)" fill-opacity="1">
<use xlink:href="#glyph-1-1" x="300.0625" y="128.125"/>
</g>
<g fill="rgb(0%, 0%, 0%)" fill-opacity="1">
<use xlink:href="#glyph-3-1" x="296.085938" y="153.261719"/>
<use xlink:href="#glyph-3-0" x="304.249717" y="153.261719"/>
</g>
<g fill="rgb(0%, 0%, 0%)" fill-opacity="1">
<use xlink:href="#glyph-1-9" x="308.285156" y="71.0625"/>
</g>
<g fill="rgb(0%, 0%, 0%)" fill-opacity="1">
<use xlink:href="#glyph-1-9" x="308.800781" y="128.125"/>
</g>
<path fill-rule="nonzero" fill="rgb(0%, 0%, 0%)" fill-opacity="1" d="M 306.363281 127.199219 C 306.472656 127.199219 306.5625 127.109375 306.5625 127 L 306.5625 111.835938 C 306.5625 111.726562 306.472656 111.636719 306.363281 111.636719 L 306.113281 111.636719 C 306.003906 111.636719 305.914062 111.726562 305.914062 111.835938 L 305.914062 127 C 305.914062 127.109375 306.003906 127.199219 306.113281 127.199219 Z M 306.363281 127.199219 "/>
<g fill="rgb(0%, 0%, 0%)" fill-opacity="1">
<use xlink:href="#glyph-1-10" x="292.839844" y="128.125"/>
</g>
<g fill="rgb(0%, 0%, 100%)" fill-opacity="1">
<use xlink:href="#glyph-1-1" x="320.757812" y="71.0625"/>
</g>
<g fill="rgb(0%, 0%, 100%)" fill-opacity="1">
<use xlink:href="#glyph-1-1" x="320.757812" y="51.136719"/>
</g>
<g fill="rgb(0%, 0%, 0%)" fill-opacity="1">
<use xlink:href="#glyph-3-2" x="319.351562" y="45.015625"/>
</g>
<g fill="rgb(0%, 0%, 100%)" fill-opacity="1">
<use xlink:href="#glyph-1-1" x="320.757812" y="138.089844"/>
</g>
<g fill="rgb(0%, 0%, 0%)" fill-opacity="1">
<use xlink:href="#glyph-3-2" x="320.347656" y="149.636719"/>
</g>
<path fill-rule="nonzero" fill="rgb(0%, 0%, 0%)" fill-opacity="1" d="M 321.207031 87.550781 C 321.316406 87.550781 321.40625 87.460938 321.40625 87.351562 L 321.40625 52.265625 C 321.40625 52.152344 321.316406 52.066406 321.207031 52.066406 L 320.957031 52.066406 C 320.847656 52.066406 320.757812 52.152344 320.757812 52.265625 L 320.757812 87.351562 C 320.757812 87.460938 320.847656 87.550781 320.957031 87.550781 Z M 321.207031 87.550781 "/>
<g fill="rgb(0%, 0%, 0%)" fill-opacity="1">
<use xlink:href="#glyph-1-3" x="315.546875" y="71.0625"/>
</g>
<g fill="rgb(0%, 0%, 0%)" fill-opacity="1">
<use xlink:href="#glyph-1-4" x="315.027344" y="51.136719"/>
</g>
<path fill-rule="nonzero" fill="rgb(0%, 0%, 0%)" fill-opacity="1" d="M 327.054688 137.160156 C 327.164062 137.160156 327.253906 137.070312 327.253906 136.960938 L 327.253906 111.835938 C 327.253906 111.726562 327.164062 111.636719 327.054688 111.636719 L 326.804688 111.636719 C 326.695312 111.636719 326.605469 111.726562 326.605469 111.835938 L 326.605469 136.960938 C 326.605469 137.070312 326.695312 137.160156 326.804688 137.160156 Z M 327.054688 137.160156 "/>
<g fill="rgb(0%, 0%, 0%)" fill-opacity="1">
<use xlink:href="#glyph-1-10" x="313.535156" y="138.089844"/>
</g>
<g fill="rgb(100%, 0%, 0%)" fill-opacity="1">
<use xlink:href="#glyph-1-1" x="348.121094" y="125.636719"/>
</g>
<g fill="rgb(100%, 0%, 0%)" fill-opacity="1">
<use xlink:href="#glyph-1-1" x="348.121094" y="140.578125"/>
</g>
<g fill="rgb(0%, 0%, 0%)" fill-opacity="1">
<use xlink:href="#glyph-3-2" x="344.054688" y="152.101562"/>
<use xlink:href="#glyph-3-2" x="351.368073" y="152.101562"/>
</g>
<path fill="none" stroke-width="0.08" stroke-linecap="round" stroke-linejoin="round" stroke="rgb(0%, 0%, 0%)" stroke-opacity="1" stroke-miterlimit="10" d="M 1.504057 0.658711 C 1.805182 0.266621 2.303136 0.266621 2.604261 0.658711 C 2.303136 0.386601 1.805182 0.386601 1.504057 0.658711 Z M 1.504057 0.658711 " transform="matrix(4.98132, 0, 0, -4.98132, 348.121094, 130.617188)"/>
<path fill-rule="nonzero" fill="rgb(0%, 0%, 0%)" fill-opacity="1" d="M 355.613281 127.335938 C 357.113281 129.289062 359.59375 129.289062 361.09375 127.335938 C 359.59375 128.691406 357.113281 128.691406 355.613281 127.335938 Z M 355.613281 127.335938 "/>
<path fill-rule="nonzero" fill="rgb(0%, 0%, 0%)" fill-opacity="1" d="M 354.417969 139.652344 C 354.527344 139.652344 354.617188 139.5625 354.617188 139.453125 L 354.617188 105.875 C 354.617188 105.765625 354.527344 105.675781 354.417969 105.675781 L 354.167969 105.675781 C 354.058594 105.675781 353.96875 105.765625 353.96875 105.875 L 353.96875 139.453125 C 353.96875 139.5625 354.058594 139.652344 354.167969 139.652344 Z M 354.417969 139.652344 "/>
<path fill-rule="nonzero" fill="rgb(0%, 0%, 0%)" fill-opacity="1" d="M 85.292969 140.828125 C 85.429688 140.828125 85.539062 140.714844 85.539062 140.578125 L 85.539062 73.554688 C 85.539062 73.414062 85.429688 73.304688 85.292969 73.304688 L 84.992188 73.304688 C 84.855469 73.304688 84.742188 73.414062 84.742188 73.554688 L 84.742188 140.578125 C 84.742188 140.714844 84.855469 140.828125 84.992188 140.828125 Z M 85.292969 140.828125 "/>
<path fill="none" stroke-width="0.08" stroke-linecap="round" stroke-linejoin="round" stroke="rgb(0%, 0%, 0%)" stroke-opacity="1" stroke-miterlimit="10" d="M 1.504057 -2.499965 C 1.805182 -2.892055 2.303136 -2.892055 2.604261 -2.499965 C 2.303136 -2.772075 1.805182 -2.772075 1.504057 -2.499965 Z M 1.504057 -2.499965 " transform="matrix(4.98132, 0, 0, -4.98132, 348.121094, 130.617188)"/>
<path fill-rule="nonzero" fill="rgb(0%, 0%, 0%)" fill-opacity="1" d="M 355.613281 143.070312 C 357.113281 145.023438 359.59375 145.023438 361.09375 143.070312 C 359.59375 144.425781 357.113281 144.425781 355.613281 143.070312 Z M 355.613281 143.070312 "/>
<g fill="rgb(0%, 0%, 0%)" fill-opacity="1">
<use xlink:href="#glyph-1-3" x="342.96875" y="125.636719"/>
</g>
<g fill="rgb(0%, 0%, 0%)" fill-opacity="1">
<use xlink:href="#glyph-1-4" x="342.390625" y="140.578125"/>
</g>
<g fill="rgb(0%, 0%, 0%)" fill-opacity="1">
<use xlink:href="#glyph-3-0" x="123.390625" y="82.808594"/>
<use xlink:href="#glyph-3-0" x="129.003223" y="82.808594"/>
</g>
<g fill="rgb(100%, 0%, 0%)" fill-opacity="1">
<use xlink:href="#glyph-1-1" x="372.625" y="73.554688"/>
</g>
<g fill="rgb(0%, 0%, 0%)" fill-opacity="1">
<use xlink:href="#glyph-3-0" x="362.765625" y="66.871094"/>
</g>
<path fill="none" stroke-width="0.08" stroke-linecap="round" stroke-linejoin="round" stroke="rgb(0%, 0%, 0%)" stroke-opacity="1" stroke-miterlimit="10" d="M 1.504057 1.65854 C 1.805182 1.26645 2.303136 1.26645 2.604261 1.65854 C 2.303136 1.38643 1.805182 1.38643 1.504057 1.65854 Z M 1.504057 1.65854 " transform="matrix(4.98132, 0, 0, -4.98132, 372.625, 83.515625)"/>
<path fill-rule="nonzero" fill="rgb(0%, 0%, 0%)" fill-opacity="1" d="M 380.117188 75.253906 C 381.617188 77.207031 384.097656 77.207031 385.597656 75.253906 C 384.097656 76.609375 381.617188 76.609375 380.117188 75.253906 Z M 380.117188 75.253906 "/>
<path fill-rule="nonzero" fill="rgb(0%, 0%, 0%)" fill-opacity="1" d="M 373.074219 103.746094 C 373.183594 103.746094 373.273438 103.65625 373.273438 103.546875 L 373.273438 74.679688 C 373.273438 74.570312 373.183594 74.480469 373.074219 74.480469 L 372.824219 74.480469 C 372.714844 74.480469 372.625 74.570312 372.625 74.679688 L 372.625 103.546875 C 372.625 103.65625 372.714844 103.746094 372.824219 103.746094 Z M 373.074219 103.746094 "/>
<g fill="rgb(0%, 0%, 0%)" fill-opacity="1">
<use xlink:href="#glyph-1-3" x="367.417969" y="73.554688"/>
</g>
<g fill="rgb(0%, 0%, 0%)" fill-opacity="1">
<use xlink:href="#glyph-0-1" x="396.203125" y="31.511719"/>
<use xlink:href="#glyph-0-2" x="400.96533" y="31.511719"/>
<use xlink:href="#glyph-0-3" x="403.346432" y="31.511719"/>
</g>
<g fill="rgb(0%, 0%, 100%)" fill-opacity="1">
<use xlink:href="#glyph-1-1" x="393" y="66.082031"/>
</g>
<g fill="rgb(0%, 0%, 0%)" fill-opacity="1">
<use xlink:href="#glyph-3-0" x="390.296875" y="55.933594"/>
<use xlink:href="#glyph-3-0" x="395.909473" y="55.933594"/>
</g>
<path fill="none" stroke-width="0.08" stroke-linecap="round" stroke-linejoin="round" stroke="rgb(0%, 0%, 0%)" stroke-opacity="1" stroke-miterlimit="10" d="M 1.504057 3.000271 C 1.805182 2.607397 2.303136 2.607397 2.604261 3.000271 C 2.303136 2.727377 1.805182 2.727377 1.504057 3.000271 Z M 1.504057 3.000271 " transform="matrix(4.98132, 0, 0, -4.98132, 393, 83.515625)"/>
<path fill-rule="nonzero" fill="rgb(0%, 0%, 0%)" fill-opacity="1" d="M 400.492188 68.570312 C 401.992188 70.527344 404.472656 70.527344 405.972656 68.570312 C 404.472656 69.929688 401.992188 69.929688 400.492188 68.570312 Z M 400.492188 68.570312 "/>
<path fill-rule="nonzero" fill="rgb(0%, 0%, 0%)" fill-opacity="1" d="M 393.449219 101.640625 C 393.558594 101.640625 393.648438 101.550781 393.648438 101.441406 L 393.648438 67.207031 C 393.648438 67.097656 393.558594 67.007812 393.449219 67.007812 L 393.199219 67.007812 C 393.089844 67.007812 393 67.097656 393 67.207031 L 393 101.441406 C 393 101.550781 393.089844 101.640625 393.199219 101.640625 Z M 393.449219 101.640625 "/>
<g fill="rgb(0%, 0%, 0%)" fill-opacity="1">
<use xlink:href="#glyph-1-3" x="387.789062" y="66.082031"/>
</g>
<path fill="none" stroke-width="0.16" stroke-linecap="round" stroke-linejoin="round" stroke="rgb(0%, 0%, 0%)" stroke-opacity="1" stroke-miterlimit="10" d="M 90.605689 -5.721375 L 90.605689 -6.421647 " transform="matrix(4.98132, 0, 0, -4.98132, 0, 0)"/>
<path fill="none" stroke-width="0.16" stroke-linecap="round" stroke-linejoin="round" stroke="rgb(0%, 0%, 0%)" stroke-opacity="1" stroke-miterlimit="10" d="M 70.859261 -5.721375 L 70.859261 -6.421647 " transform="matrix(4.98132, 0, 0, -4.98132, 0, 0)"/>
<path fill="none" stroke-width="0.16" stroke-linecap="round" stroke-linejoin="round" stroke="rgb(0%, 0%, 0%)" stroke-opacity="1" stroke-dasharray="0.38467 0.577004" stroke-miterlimit="10" d="M 90.605689 -5.721375 L 82.527854 -5.721375 " transform="matrix(4.98132, 0, 0, -4.98132, 0, 0)"/>
<path fill="none" stroke-width="0.16" stroke-linecap="round" stroke-linejoin="round" stroke="rgb(0%, 0%, 0%)" stroke-opacity="1" stroke-dasharray="0.394193 0.59129" stroke-miterlimit="10" d="M 70.859261 -5.721375 L 79.137062 -5.721375 " transform="matrix(4.98132, 0, 0, -4.98132, 0, 0)"/>
<g fill="rgb(0%, 0%, 100%)" fill-opacity="1">
<use xlink:href="#glyph-1-1" x="410.371094" y="86.007813"/>
</g>
<g fill="rgb(0%, 0%, 0%)" fill-opacity="1">
<use xlink:href="#glyph-3-0" x="407.667969" y="68.863281"/>
<use xlink:href="#glyph-3-0" x="413.280567" y="68.863281"/>
</g>
<path fill="none" stroke-width="0.08" stroke-linecap="round" stroke-linejoin="round" stroke="rgb(0%, 0%, 0%)" stroke-opacity="1" stroke-miterlimit="10" d="M 0.852403 -1.199795 C 1.451517 -1.862427 2.905386 -1.862427 3.504499 -1.199795 C 2.905386 -1.742447 1.451517 -1.742447 0.852403 -1.199795 Z M 0.852403 -1.199795 " transform="matrix(4.98132, 0, 0, -4.98132, 410.371094, 83.515625)"/>
<path fill-rule="nonzero" fill="rgb(0%, 0%, 0%)" fill-opacity="1" d="M 414.617188 89.492188 C 417.601562 92.792969 424.84375 92.792969 427.828125 89.492188 C 424.84375 92.195312 417.601562 92.195312 414.617188 89.492188 Z M 414.617188 89.492188 "/>
<g fill="rgb(0%, 0%, 0%)" fill-opacity="1">
<use xlink:href="#glyph-1-9" x="419.109375" y="86.007813"/>
</g>
<path fill-rule="nonzero" fill="rgb(0%, 0%, 0%)" fill-opacity="1" d="M 410.820312 99.84375 C 410.929688 99.84375 411.019531 99.753906 411.019531 99.644531 L 411.019531 87.132812 C 411.019531 87.023438 410.929688 86.933594 410.820312 86.933594 L 410.570312 86.933594 C 410.460938 86.933594 410.371094 87.023438 410.371094 87.132812 L 410.371094 99.644531 C 410.371094 99.753906 410.460938 99.84375 410.570312 99.84375 Z M 410.820312 99.84375 "/>
<g fill="rgb(0%, 0%, 0%)" fill-opacity="1">
<use xlink:href="#glyph-1-3" x="405.160156" y="86.007813"/>
</g>
<g fill="rgb(0%, 0%, 0%)" fill-opacity="1">
<use xlink:href="#glyph-0-0" x="364.164063" y="43.949219"/>
</g>
<g fill="rgb(0%, 0%, 100%)" fill-opacity="1">
<use xlink:href="#glyph-1-1" x="429.519531" y="71.0625"/>
</g>
<g fill="rgb(0%, 0%, 0%)" fill-opacity="1">
<use xlink:href="#glyph-3-0" x="426.816406" y="60.917969"/>
<use xlink:href="#glyph-3-0" x="432.429005" y="60.917969"/>
</g>
<path fill="none" stroke-width="0.08" stroke-linecap="round" stroke-linejoin="round" stroke="rgb(0%, 0%, 0%)" stroke-opacity="1" stroke-miterlimit="10" d="M 1.504057 1.999658 C 1.805182 1.607568 2.303136 1.607568 2.604261 1.999658 C 2.303136 1.727548 1.805182 1.727548 1.504057 1.999658 Z M 1.504057 1.999658 " transform="matrix(4.98132, 0, 0, -4.98132, 429.519531, 83.515625)"/>
<path fill-rule="nonzero" fill="rgb(0%, 0%, 0%)" fill-opacity="1" d="M 437.011719 73.554688 C 438.511719 75.507812 440.992188 75.507812 442.492188 73.554688 C 440.992188 74.910156 438.511719 74.910156 437.011719 73.554688 Z M 437.011719 73.554688 "/>
<path fill-rule="nonzero" fill="rgb(0%, 0%, 0%)" fill-opacity="1" d="M 429.96875 97.863281 C 430.078125 97.863281 430.167969 97.773438 430.167969 97.664062 L 430.167969 72.1875 C 430.167969 72.078125 430.078125 71.988281 429.96875 71.988281 L 429.71875 71.988281 C 429.609375 71.988281 429.519531 72.078125 429.519531 72.1875 L 429.519531 97.664062 C 429.519531 97.773438 429.609375 97.863281 429.71875 97.863281 Z M 429.96875 97.863281 "/>
<g fill="rgb(0%, 0%, 0%)" fill-opacity="1">
<use xlink:href="#glyph-1-10" x="422.296875" y="71.0625"/>
</g>
<path fill="none" stroke-width="0.16" stroke-linecap="round" stroke-linejoin="round" stroke="rgb(0%, 0%, 0%)" stroke-opacity="1" stroke-miterlimit="10" d="M 76.308525 -8.22134 L 76.308525 -8.921612 " transform="matrix(4.98132, 0, 0, -4.98132, 0, 0)"/>
<path fill="none" stroke-width="0.16" stroke-linecap="round" stroke-linejoin="round" stroke="rgb(0%, 0%, 0%)" stroke-opacity="1" stroke-miterlimit="10" d="M 70.859261 -8.22134 L 70.859261 -8.921612 " transform="matrix(4.98132, 0, 0, -4.98132, 0, 0)"/>
<path fill="none" stroke-width="0.16" stroke-linecap="round" stroke-linejoin="round" stroke="rgb(0%, 0%, 0%)" stroke-opacity="1" stroke-miterlimit="10" d="M 76.308525 -8.22134 L 74.661748 -8.22134 " transform="matrix(4.98132, 0, 0, -4.98132, 0, 0)"/>
<path fill="none" stroke-width="0.16" stroke-linecap="round" stroke-linejoin="round" stroke="rgb(0%, 0%, 0%)" stroke-opacity="1" stroke-miterlimit="10" d="M 70.859261 -8.22134 L 72.706004 -8.22134 " transform="matrix(4.98132, 0, 0, -4.98132, 0, 0)"/>
<path fill="none" stroke-width="0.08" stroke-linecap="butt" stroke-linejoin="round" stroke="rgb(0%, 0%, 0%)" stroke-opacity="1" stroke-miterlimit="10" d="M 80.020048 -18.470568 L 80.020048 -18.8705 L 78.934743 -18.991264 L 78.934743 -18.591332 Z M 80.020048 -18.470568 " transform="matrix(4.98132, 0, 0, -4.98132, 0, 0)"/>
<path fill-rule="nonzero" fill="rgb(0%, 0%, 0%)" fill-opacity="1" d="M 398.605469 92.007812 L 398.605469 94 L 393.199219 94.601562 L 393.199219 92.609375 Z M 398.605469 92.007812 "/>
<path fill="none" stroke-width="0.08" stroke-linecap="butt" stroke-linejoin="round" stroke="rgb(0%, 0%, 0%)" stroke-opacity="1" stroke-miterlimit="10" d="M 74.895434 -19.000674 L 74.895434 -19.400605 L 73.810129 -19.521369 L 73.810129 -19.121437 Z M 74.895434 -19.000674 " transform="matrix(4.98132, 0, 0, -4.98132, 0, 0)"/>
<path fill-rule="nonzero" fill="rgb(0%, 0%, 0%)" fill-opacity="1" d="M 373.078125 94.648438 L 373.078125 96.640625 L 367.671875 97.242188 L 367.671875 95.25 Z M 373.078125 94.648438 "/>
<path fill="none" stroke-width="0.08" stroke-linecap="butt" stroke-linejoin="round" stroke="rgb(0%, 0%, 0%)" stroke-opacity="1" stroke-miterlimit="10" d="M 82.472178 -19.027336 L 82.472178 -19.427268 L 78.934743 -19.801321 L 78.934743 -19.40139 Z M 82.472178 -19.027336 " transform="matrix(4.98132, 0, 0, -4.98132, 0, 0)"/>
<path fill-rule="nonzero" fill="rgb(0%, 0%, 0%)" fill-opacity="1" d="M 410.820312 94.78125 L 410.820312 96.773438 L 393.199219 98.636719 L 393.199219 96.644531 Z M 410.820312 94.78125 "/>
<path fill="none" stroke-width="0.08" stroke-linecap="butt" stroke-linejoin="round" stroke="rgb(0%, 0%, 0%)" stroke-opacity="1" stroke-miterlimit="10" d="M 74.895434 -19.810731 L 74.895434 -20.210663 L 73.810129 -20.331427 L 73.810129 -19.931495 Z M 74.895434 -19.810731 " transform="matrix(4.98132, 0, 0, -4.98132, 0, 0)"/>
<path fill-rule="nonzero" fill="rgb(0%, 0%, 0%)" fill-opacity="1" d="M 373.078125 98.683594 L 373.078125 100.675781 L 367.671875 101.277344 L 367.671875 99.285156 Z M 373.078125 98.683594 "/>
<path fill="none" stroke-width="0.08" stroke-linecap="butt" stroke-linejoin="round" stroke="rgb(0%, 0%, 0%)" stroke-opacity="1" stroke-miterlimit="10" d="M 90.36573 -19.021847 L 90.36573 -19.421778 L 71.09922 -21.421437 L 71.09922 -21.021505 Z M 90.36573 -19.021847 " transform="matrix(4.98132, 0, 0, -4.98132, 0, 0)"/>
<path fill-rule="nonzero" fill="rgb(0%, 0%, 0%)" fill-opacity="1" d="M 450.140625 94.753906 L 450.140625 96.746094 L 354.167969 106.707031 L 354.167969 104.714844 Z M 450.140625 94.753906 "/>
<g fill="rgb(100%, 0%, 0%)" fill-opacity="1">
<use xlink:href="#glyph-1-1" x="443.84375" y="115.671875"/>
</g>
<g fill="rgb(0%, 0%, 0%)" fill-opacity="1">
<use xlink:href="#glyph-3-2" x="439.777344" y="149.636719"/>
<use xlink:href="#glyph-3-2" x="447.09073" y="149.636719"/>
</g>
<g fill="rgb(0%, 0%, 0%)" fill-opacity="1">
<use xlink:href="#glyph-1-11" x="421.941406" y="125.636719"/>
</g>
<path fill-rule="nonzero" fill="rgb(0%, 0%, 0%)" fill-opacity="1" d="M 450.140625 114.746094 C 450.25 114.746094 450.339844 114.65625 450.339844 114.546875 L 450.339844 95.980469 C 450.339844 95.871094 450.25 95.78125 450.140625 95.78125 L 449.890625 95.78125 C 449.78125 95.78125 449.691406 95.871094 449.691406 95.980469 L 449.691406 114.546875 C 449.691406 114.65625 449.78125 114.746094 449.890625 114.746094 Z M 450.140625 114.746094 "/>
<g fill="rgb(0%, 0%, 0%)" fill-opacity="1">
<use xlink:href="#glyph-1-10" x="436.621094" y="115.671875"/>
</g>
<path fill="none" stroke-width="0.1" stroke-linecap="round" stroke-linejoin="round" stroke="rgb(0%, 0%, 0%)" stroke-opacity="1" stroke-dasharray="0.150035 1.350315" stroke-miterlimit="10" d="M 73.327074 -33.578574 L 91.481618 -33.578574 " transform="matrix(4.98132, 0, 0, -4.98132, 0, 0)"/>
<g fill="rgb(0%, 0%, 0%)" fill-opacity="1">
<use xlink:href="#glyph-1-12" x="455.699219" y="167.265625"/>
</g>
<g fill="rgb(0%, 0%, 0%)" fill-opacity="1">
<use xlink:href="#glyph-1-13" x="349.367188" y="167.265625"/>
</g>
<g fill="rgb(100%, 0%, 0%)" fill-opacity="1">
<use xlink:href="#glyph-1-1" x="491.34375" y="81.027344"/>
</g>
<g fill="rgb(0%, 0%, 0%)" fill-opacity="1">
<use xlink:href="#glyph-3-2" x="490.933594" y="107.035156"/>
</g>
<g fill="rgb(0%, 0%, 0%)" fill-opacity="1">
<use xlink:href="#glyph-2-3" x="468.175781" y="111.648438"/>
</g>
<g fill="rgb(0%, 0%, 0%)" fill-opacity="1">
<use xlink:href="#glyph-2-1" x="468.175781" y="129.085938"/>
</g>
<g fill="rgb(100%, 0%, 0%)" fill-opacity="1">
<use xlink:href="#glyph-1-1" x="491.34375" y="148.050781"/>
</g>
<g fill="rgb(0%, 0%, 0%)" fill-opacity="1">
<use xlink:href="#glyph-3-1" x="487.363281" y="164.515625"/>
<use xlink:href="#glyph-3-0" x="495.527061" y="164.515625"/>
</g>
<g fill="rgb(0%, 0%, 0%)" fill-opacity="1">
<use xlink:href="#glyph-1-9" x="500.082031" y="81.027344"/>
</g>
<path fill-rule="nonzero" fill="rgb(0%, 0%, 0%)" fill-opacity="1" d="M 491.792969 98.460938 C 491.902344 98.460938 491.992188 98.371094 491.992188 98.261719 L 491.992188 82.152344 C 491.992188 82.042969 491.902344 81.953125 491.792969 81.953125 L 491.542969 81.953125 C 491.433594 81.953125 491.34375 82.042969 491.34375 82.152344 L 491.34375 98.261719 C 491.34375 98.371094 491.433594 98.460938 491.542969 98.460938 Z M 491.792969 98.460938 "/>
<g fill="rgb(0%, 0%, 0%)" fill-opacity="1">
<use xlink:href="#glyph-1-3" x="486.132812" y="81.027344"/>
</g>
<g fill="rgb(0%, 0%, 0%)" fill-opacity="1">
<use xlink:href="#glyph-1-9" x="500.082031" y="148.050781"/>
</g>
<path fill-rule="nonzero" fill="rgb(0%, 0%, 0%)" fill-opacity="1" d="M 497.640625 147.125 C 497.75 147.125 497.839844 147.035156 497.839844 146.925781 L 497.839844 130.816406 C 497.839844 130.707031 497.75 130.617188 497.640625 130.617188 L 497.390625 130.617188 C 497.28125 130.617188 497.191406 130.707031 497.191406 130.816406 L 497.191406 146.925781 C 497.191406 147.035156 497.28125 147.125 497.390625 147.125 Z M 497.640625 147.125 "/>
<g fill="rgb(0%, 0%, 0%)" fill-opacity="1">
<use xlink:href="#glyph-1-3" x="486.191406" y="148.050781"/>
</g>
<g fill="rgb(100%, 0%, 0%)" fill-opacity="1">
<use xlink:href="#glyph-1-1" x="520.921875" y="81.027344"/>
</g>
<g fill="rgb(100%, 0%, 0%)" fill-opacity="1">
<use xlink:href="#glyph-1-1" x="520.921875" y="148.050781"/>
</g>
<path fill-rule="nonzero" fill="rgb(0%, 0%, 0%)" fill-opacity="1" d="M 521.371094 102.195312 C 521.480469 102.195312 521.570312 102.105469 521.570312 101.996094 L 521.570312 82.152344 C 521.570312 82.042969 521.480469 81.953125 521.371094 81.953125 L 521.121094 81.953125 C 521.011719 81.953125 520.921875 82.042969 520.921875 82.152344 L 520.921875 101.996094 C 520.921875 102.105469 521.011719 102.195312 521.121094 102.195312 Z M 521.371094 102.195312 "/>
<g fill="rgb(0%, 0%, 0%)" fill-opacity="1">
<use xlink:href="#glyph-1-14" x="521.570312" y="101.996094"/>
</g>
<path fill-rule="nonzero" fill="rgb(0%, 0%, 0%)" fill-opacity="1" d="M 527.222656 147.125 C 527.332031 147.125 527.421875 147.035156 527.421875 146.925781 L 527.421875 127.082031 C 527.421875 126.972656 527.332031 126.882812 527.222656 126.882812 L 526.972656 126.882812 C 526.863281 126.882812 526.773438 126.972656 526.773438 127.082031 L 526.773438 146.925781 C 526.773438 147.035156 526.863281 147.125 526.972656 147.125 Z M 527.222656 147.125 "/>
<g fill="rgb(0%, 0%, 0%)" fill-opacity="1">
<use xlink:href="#glyph-1-15" x="527.417969" y="127.078125"/>
</g>
<g fill="rgb(0%, 0%, 0%)" fill-opacity="1">
<use xlink:href="#glyph-0-0" x="314.203125" y="107.261719"/>
</g>
<g fill="rgb(0%, 0%, 0%)" fill-opacity="1">
<use xlink:href="#glyph-1-5" x="532.714844" y="83.515625"/>
</g>
<g fill="rgb(0%, 0%, 0%)" fill-opacity="1">
<use xlink:href="#glyph-1-5" x="532.714844" y="130.617188"/>
</g>
<path fill="none" stroke-width="0.16" stroke-linecap="round" stroke-linejoin="round" stroke="rgb(0%, 0%, 0%)" stroke-opacity="1" stroke-miterlimit="10" d="M 65.896187 -20.931324 L 65.896187 -21.631597 " transform="matrix(4.98132, 0, 0, -4.98132, 0, 0)"/>
<path fill="none" stroke-width="0.16" stroke-linecap="round" stroke-linejoin="round" stroke="rgb(0%, 0%, 0%)" stroke-opacity="1" stroke-miterlimit="10" d="M 61.212282 -20.931324 L 61.212282 -21.631597 " transform="matrix(4.98132, 0, 0, -4.98132, 0, 0)"/>
<path fill="none" stroke-width="0.16" stroke-linecap="round" stroke-linejoin="round" stroke="rgb(0%, 0%, 0%)" stroke-opacity="1" stroke-miterlimit="10" d="M 65.896187 -20.931324 L 64.63209 -20.931324 " transform="matrix(4.98132, 0, 0, -4.98132, 0, 0)"/>
<path fill="none" stroke-width="0.16" stroke-linecap="round" stroke-linejoin="round" stroke="rgb(0%, 0%, 0%)" stroke-opacity="1" stroke-miterlimit="10" d="M 61.212282 -20.931324 L 62.676346 -20.931324 " transform="matrix(4.98132, 0, 0, -4.98132, 0, 0)"/>
<path fill="none" stroke-width="0.16" stroke-linecap="round" stroke-linejoin="round" stroke="rgb(0%, 0%, 0%)" stroke-opacity="1" stroke-miterlimit="10" d="M 32.294088 -13.366343 L 32.294088 -14.066615 " transform="matrix(4.98132, 0, 0, -4.98132, 0, 0)"/>
<path fill="none" stroke-width="0.16" stroke-linecap="round" stroke-linejoin="round" stroke="rgb(0%, 0%, 0%)" stroke-opacity="1" stroke-miterlimit="10" d="M 27.787407 -13.366343 L 27.787407 -14.066615 " transform="matrix(4.98132, 0, 0, -4.98132, 0, 0)"/>
<path fill="none" stroke-width="0.16" stroke-linecap="round" stroke-linejoin="round" stroke="rgb(0%, 0%, 0%)" stroke-opacity="1" stroke-miterlimit="10" d="M 32.294088 -13.366343 L 31.118603 -13.366343 " transform="matrix(4.98132, 0, 0, -4.98132, 0, 0)"/>
<path fill="none" stroke-width="0.16" stroke-linecap="round" stroke-linejoin="round" stroke="rgb(0%, 0%, 0%)" stroke-opacity="1" stroke-miterlimit="10" d="M 27.787407 -13.366343 L 29.162858 -13.366343 " transform="matrix(4.98132, 0, 0, -4.98132, 0, 0)"/>
<g fill="rgb(0%, 0%, 0%)" fill-opacity="1">
<use xlink:href="#glyph-0-3" x="147.261719" y="69.578125"/>
</g>
<path fill="none" stroke-width="0.16" stroke-linecap="round" stroke-linejoin="round" stroke="rgb(0%, 0%, 0%)" stroke-opacity="1" stroke-miterlimit="10" d="M 35.326511 -11.638011 L 35.326511 -12.338283 " transform="matrix(4.98132, 0, 0, -4.98132, 0, 0)"/>
<path fill="none" stroke-width="0.16" stroke-linecap="round" stroke-linejoin="round" stroke="rgb(0%, 0%, 0%)" stroke-opacity="1" stroke-miterlimit="10" d="M 27.787407 -11.638011 L 27.787407 -12.338283 " transform="matrix(4.98132, 0, 0, -4.98132, 0, 0)"/>
<path fill="none" stroke-width="0.16" stroke-linecap="round" stroke-linejoin="round" stroke="rgb(0%, 0%, 0%)" stroke-opacity="1" stroke-dasharray="0.448569 0.672854" stroke-miterlimit="10" d="M 35.326511 -11.638011 L 32.635206 -11.638011 " transform="matrix(4.98132, 0, 0, -4.98132, 0, 0)"/>
<path fill="none" stroke-width="0.16" stroke-linecap="round" stroke-linejoin="round" stroke="rgb(0%, 0%, 0%)" stroke-opacity="1" stroke-dasharray="0.481903 0.722854" stroke-miterlimit="10" d="M 27.787407 -11.638011 L 30.678678 -11.638011 " transform="matrix(4.98132, 0, 0, -4.98132, 0, 0)"/>
<g fill="rgb(0%, 0%, 0%)" fill-opacity="1">
<use xlink:href="#glyph-0-3" x="154.8125" y="60.96875"/>
</g>
<path fill="none" stroke-width="0.16" stroke-linecap="round" stroke-linejoin="round" stroke="rgb(0%, 0%, 0%)" stroke-opacity="1" stroke-miterlimit="10" d="M 37.718259 -34.823852 L 37.718259 -34.123579 " transform="matrix(4.98132, 0, 0, -4.98132, 0, 0)"/>
<path fill="none" stroke-width="0.16" stroke-linecap="round" stroke-linejoin="round" stroke="rgb(0%, 0%, 0%)" stroke-opacity="1" stroke-miterlimit="10" d="M 26.61349 -34.823852 L 26.61349 -34.123579 " transform="matrix(4.98132, 0, 0, -4.98132, 0, 0)"/>
<path fill="none" stroke-width="0.16" stroke-linecap="round" stroke-linejoin="round" stroke="rgb(0%, 0%, 0%)" stroke-opacity="1" stroke-dasharray="0.406778 0.610168" stroke-miterlimit="10" d="M 37.718259 -34.823852 L 33.243729 -34.823852 " transform="matrix(4.98132, 0, 0, -4.98132, 0, 0)"/>
<path fill="none" stroke-width="0.16" stroke-linecap="round" stroke-linejoin="round" stroke="rgb(0%, 0%, 0%)" stroke-opacity="1" stroke-dasharray="0.42496 0.63744" stroke-miterlimit="10" d="M 26.61349 -34.823852 L 31.287985 -34.823852 " transform="matrix(4.98132, 0, 0, -4.98132, 0, 0)"/>
<g fill="rgb(0%, 0%, 0%)" fill-opacity="1">
<use xlink:href="#glyph-0-3" x="157.847656" y="176.464844"/>
</g>
<path fill="none" stroke-width="0.08" stroke-linecap="round" stroke-linejoin="round" stroke="rgb(0%, 0%, 0%)" stroke-opacity="1" stroke-miterlimit="10" d="M 1.504057 -3.000271 C 2.441936 -3.846401 6.040536 -3.846401 6.978415 -3.000271 C 6.040536 -3.726422 2.441936 -3.726422 1.504057 -3.000271 Z M 1.504057 -3.000271 " transform="matrix(4.98132, 0, 0, -4.98132, 133.566406, 130.617188)"/>
<path fill-rule="nonzero" fill="rgb(0%, 0%, 0%)" fill-opacity="1" d="M 141.058594 145.5625 C 145.730469 149.777344 163.65625 149.777344 168.328125 145.5625 C 163.65625 149.179688 145.730469 149.179688 141.058594 145.5625 Z M 141.058594 145.5625 "/>
<path fill="none" stroke-width="0.16" stroke-linecap="round" stroke-linejoin="round" stroke="rgb(0%, 0%, 0%)" stroke-opacity="1" stroke-miterlimit="10" d="M 37.718259 -33.096304 L 37.718259 -32.396031 " transform="matrix(4.98132, 0, 0, -4.98132, 0, 0)"/>
<path fill="none" stroke-width="0.16" stroke-linecap="round" stroke-linejoin="round" stroke="rgb(0%, 0%, 0%)" stroke-opacity="1" stroke-miterlimit="10" d="M 33.925966 -33.096304 L 33.925966 -32.396031 " transform="matrix(4.98132, 0, 0, -4.98132, 0, 0)"/>
<path fill="none" stroke-width="0.16" stroke-linecap="round" stroke-linejoin="round" stroke="rgb(0%, 0%, 0%)" stroke-opacity="1" stroke-miterlimit="10" d="M 37.718259 -33.096304 L 36.900359 -33.096304 " transform="matrix(4.98132, 0, 0, -4.98132, 0, 0)"/>
<path fill="none" stroke-width="0.16" stroke-linecap="round" stroke-linejoin="round" stroke="rgb(0%, 0%, 0%)" stroke-opacity="1" stroke-miterlimit="10" d="M 33.925966 -33.096304 L 34.943831 -33.096304 " transform="matrix(4.98132, 0, 0, -4.98132, 0, 0)"/>
<g fill="rgb(0%, 0%, 0%)" fill-opacity="1">
<use xlink:href="#glyph-0-3" x="176.0625" y="167.859375"/>
</g>
<path fill="none" stroke-width="0.08" stroke-linecap="butt" stroke-linejoin="round" stroke="rgb(0%, 0%, 0%)" stroke-opacity="1" stroke-miterlimit="10" d="M 54.475395 -15.755738 L 54.475395 -16.15567 L 53.39009 -16.15567 L 53.39009 -15.755738 Z M 54.475395 -15.755738 " transform="matrix(4.98132, 0, 0, -4.98132, 0, 0)"/>
<path fill-rule="nonzero" fill="rgb(0%, 0%, 0%)" fill-opacity="1" d="M 271.359375 78.484375 L 271.359375 80.476562 L 265.953125 80.476562 L 265.953125 78.484375 Z M 271.359375 78.484375 "/>
<path fill="none" stroke-width="0.08" stroke-linecap="butt" stroke-linejoin="round" stroke="rgb(0%, 0%, 0%)" stroke-opacity="1" stroke-miterlimit="10" d="M 64.482312 -16.565796 L 64.482312 -16.965728 L 63.397007 -16.965728 L 63.397007 -16.565796 Z M 64.482312 -16.565796 " transform="matrix(4.98132, 0, 0, -4.98132, 0, 0)"/>
<path fill-rule="nonzero" fill="rgb(0%, 0%, 0%)" fill-opacity="1" d="M 321.207031 82.519531 L 321.207031 84.511719 L 315.800781 84.511719 L 315.800781 82.519531 Z M 321.207031 82.519531 "/>
<path fill="none" stroke-width="0.08" stroke-linecap="butt" stroke-linejoin="round" stroke="rgb(0%, 0%, 0%)" stroke-opacity="1" stroke-miterlimit="10" d="M 54.475395 -16.565796 L 54.475395 -16.965728 L 53.39009 -16.965728 L 53.39009 -16.565796 Z M 54.475395 -16.565796 " transform="matrix(4.98132, 0, 0, -4.98132, 0, 0)"/>
<path fill-rule="nonzero" fill="rgb(0%, 0%, 0%)" fill-opacity="1" d="M 271.359375 82.519531 L 271.359375 84.511719 L 265.953125 84.511719 L 265.953125 82.519531 Z M 271.359375 82.519531 "/>
<path fill="none" stroke-width="0.08" stroke-linecap="butt" stroke-linejoin="round" stroke="rgb(0%, 0%, 0%)" stroke-opacity="1" stroke-miterlimit="10" d="M 49.033187 -16.565796 L 49.033187 -16.965728 L 45.790604 -16.965728 L 45.790604 -16.565796 Z M 49.033187 -16.565796 " transform="matrix(4.98132, 0, 0, -4.98132, 0, 0)"/>
<path fill-rule="nonzero" fill="rgb(0%, 0%, 0%)" fill-opacity="1" d="M 244.25 82.519531 L 244.25 84.511719 L 228.097656 84.511719 L 228.097656 82.519531 Z M 244.25 82.519531 "/>
<path fill="none" stroke-width="0.08" stroke-linecap="butt" stroke-linejoin="round" stroke="rgb(0%, 0%, 0%)" stroke-opacity="1" stroke-miterlimit="10" d="M 64.481527 -17.375854 L 64.481527 -17.775785 L 45.790604 -17.775785 L 45.790604 -17.375854 Z M 64.481527 -17.375854 " transform="matrix(4.98132, 0, 0, -4.98132, 0, 0)"/>
<path fill-rule="nonzero" fill="rgb(0%, 0%, 0%)" fill-opacity="1" d="M 321.203125 86.554688 L 321.203125 88.546875 L 228.097656 88.546875 L 228.097656 86.554688 Z M 321.203125 86.554688 "/>
<path fill="none" stroke-width="0.16" stroke-linecap="round" stroke-linejoin="round" stroke="rgb(0%, 0%, 0%)" stroke-opacity="1" stroke-miterlimit="10" d="M 50.447848 -8.120965 L 50.447848 -8.821237 " transform="matrix(4.98132, 0, 0, -4.98132, 0, 0)"/>
<path fill="none" stroke-width="0.16" stroke-linecap="round" stroke-linejoin="round" stroke="rgb(0%, 0%, 0%)" stroke-opacity="1" stroke-miterlimit="10" d="M 45.550646 -8.120965 L 45.550646 -8.821237 " transform="matrix(4.98132, 0, 0, -4.98132, 0, 0)"/>
<path fill="none" stroke-width="0.16" stroke-linecap="round" stroke-linejoin="round" stroke="rgb(0%, 0%, 0%)" stroke-opacity="1" stroke-miterlimit="10" d="M 50.447848 -8.120965 L 49.077102 -8.120965 " transform="matrix(4.98132, 0, 0, -4.98132, 0, 0)"/>
<path fill="none" stroke-width="0.16" stroke-linecap="round" stroke-linejoin="round" stroke="rgb(0%, 0%, 0%)" stroke-opacity="1" stroke-miterlimit="10" d="M 45.550646 -8.120965 L 47.121357 -8.120965 " transform="matrix(4.98132, 0, 0, -4.98132, 0, 0)"/>
<g fill="rgb(0%, 0%, 0%)" fill-opacity="1">
<use xlink:href="#glyph-0-0" x="236.71875" y="43.449219"/>
</g>
<path fill="none" stroke-width="0.08" stroke-linecap="butt" stroke-linejoin="round" stroke="rgb(0%, 0%, 0%)" stroke-opacity="1" stroke-miterlimit="10" d="M 65.656229 -22.211105 L 65.656229 -22.611037 L 46.326199 -22.611037 L 46.326199 -22.211105 Z M 65.656229 -22.211105 " transform="matrix(4.98132, 0, 0, -4.98132, 0, 0)"/>
<path fill-rule="nonzero" fill="rgb(0%, 0%, 0%)" fill-opacity="1" d="M 327.054688 110.640625 L 327.054688 112.632812 L 230.765625 112.632812 L 230.765625 110.640625 Z M 327.054688 110.640625 "/>
<path fill="none" stroke-width="0.08" stroke-linecap="butt" stroke-linejoin="round" stroke="rgb(0%, 0%, 0%)" stroke-opacity="1" stroke-miterlimit="10" d="M 65.656229 -23.021163 L 65.656229 -23.421095 L 61.452241 -23.421095 L 61.452241 -23.021163 Z M 65.656229 -23.021163 " transform="matrix(4.98132, 0, 0, -4.98132, 0, 0)"/>
<path fill-rule="nonzero" fill="rgb(0%, 0%, 0%)" fill-opacity="1" d="M 327.054688 114.675781 L 327.054688 116.667969 L 306.113281 116.667969 L 306.113281 114.675781 Z M 327.054688 114.675781 "/>
<path fill="none" stroke-width="0.08" stroke-linecap="butt" stroke-linejoin="round" stroke="rgb(0%, 0%, 0%)" stroke-opacity="1" stroke-miterlimit="10" d="M 55.650096 -23.021163 L 55.650096 -23.421095 L 54.564791 -23.421095 L 54.564791 -23.021163 Z M 55.650096 -23.021163 " transform="matrix(4.98132, 0, 0, -4.98132, 0, 0)"/>
<path fill-rule="nonzero" fill="rgb(0%, 0%, 0%)" fill-opacity="1" d="M 277.210938 114.675781 L 277.210938 116.667969 L 271.804688 116.667969 L 271.804688 114.675781 Z M 277.210938 114.675781 "/>
<path fill="none" stroke-width="0.08" stroke-linecap="butt" stroke-linejoin="round" stroke="rgb(0%, 0%, 0%)" stroke-opacity="1" stroke-miterlimit="10" d="M 51.421799 -23.021163 L 51.421799 -23.421095 L 50.336494 -23.421095 L 50.336494 -23.021163 Z M 51.421799 -23.021163 " transform="matrix(4.98132, 0, 0, -4.98132, 0, 0)"/>
<path fill-rule="nonzero" fill="rgb(0%, 0%, 0%)" fill-opacity="1" d="M 256.148438 114.675781 L 256.148438 116.667969 L 250.742188 116.667969 L 250.742188 114.675781 Z M 256.148438 114.675781 "/>
<path fill="none" stroke-width="0.08" stroke-linecap="butt" stroke-linejoin="round" stroke="rgb(0%, 0%, 0%)" stroke-opacity="1" stroke-miterlimit="10" d="M 55.650096 -23.831221 L 55.650096 -24.231152 L 54.564791 -24.231152 L 54.564791 -23.831221 Z M 55.650096 -23.831221 " transform="matrix(4.98132, 0, 0, -4.98132, 0, 0)"/>
<path fill-rule="nonzero" fill="rgb(0%, 0%, 0%)" fill-opacity="1" d="M 277.210938 118.710938 L 277.210938 120.703125 L 271.804688 120.703125 L 271.804688 118.710938 Z M 277.210938 118.710938 "/>
<path fill="none" stroke-width="0.16" stroke-linecap="round" stroke-linejoin="round" stroke="rgb(0%, 0%, 0%)" stroke-opacity="1" stroke-miterlimit="10" d="M 51.661758 -20.931324 L 51.661758 -21.631597 " transform="matrix(4.98132, 0, 0, -4.98132, 0, 0)"/>
<path fill="none" stroke-width="0.16" stroke-linecap="round" stroke-linejoin="round" stroke="rgb(0%, 0%, 0%)" stroke-opacity="1" stroke-miterlimit="10" d="M 45.550646 -20.931324 L 45.550646 -21.631597 " transform="matrix(4.98132, 0, 0, -4.98132, 0, 0)"/>
<path fill="none" stroke-width="0.16" stroke-linecap="round" stroke-linejoin="round" stroke="rgb(0%, 0%, 0%)" stroke-opacity="1" stroke-miterlimit="10" d="M 51.661758 -20.931324 L 49.684057 -20.931324 " transform="matrix(4.98132, 0, 0, -4.98132, 0, 0)"/>
<path fill="none" stroke-width="0.16" stroke-linecap="round" stroke-linejoin="round" stroke="rgb(0%, 0%, 0%)" stroke-opacity="1" stroke-miterlimit="10" d="M 45.550646 -20.931324 L 47.728312 -20.931324 " transform="matrix(4.98132, 0, 0, -4.98132, 0, 0)"/>
<g fill="rgb(0%, 0%, 0%)" fill-opacity="1">
<use xlink:href="#glyph-0-0" x="239.742188" y="107.261719"/>
</g>
<path fill="none" stroke-width="0.08" stroke-linecap="round" stroke-linejoin="round" stroke="rgb(0%, 0%, 0%)" stroke-opacity="1" stroke-miterlimit="10" d="M 0.852403 4.000101 C 1.637367 4.776438 4.073813 4.776438 4.858777 4.000101 C 4.073813 4.656459 1.637367 4.656459 0.852403 4.000101 Z M 0.852403 4.000101 " transform="matrix(4.98132, 0, 0, -4.98132, 243.804688, 83.515625)"/>
<path fill-rule="nonzero" fill="rgb(0%, 0%, 0%)" fill-opacity="1" d="M 248.050781 63.589844 C 251.960938 59.722656 264.097656 59.722656 268.007812 63.589844 C 264.097656 60.320312 251.960938 60.320312 248.050781 63.589844 Z M 248.050781 63.589844 "/>
<path fill="none" stroke-width="0.08" stroke-linecap="round" stroke-linejoin="round" stroke="rgb(0%, 0%, 0%)" stroke-opacity="1" stroke-miterlimit="10" d="M 1.504057 -1.253903 C 1.891441 -1.734605 2.605829 -1.734605 2.993214 -1.253903 C 2.605829 -1.614626 1.891441 -1.614626 1.504057 -1.253903 Z M 1.504057 -1.253903 " transform="matrix(4.98132, 0, 0, -4.98132, 249.851562, 130.617188)"/>
<path fill-rule="nonzero" fill="rgb(0%, 0%, 0%)" fill-opacity="1" d="M 257.34375 136.863281 C 259.273438 139.257812 262.832031 139.257812 264.761719 136.863281 C 262.832031 138.660156 259.273438 138.660156 257.34375 136.863281 Z M 257.34375 136.863281 "/>
<path fill="none" stroke-width="0.16" stroke-linecap="round" stroke-linejoin="round" stroke="rgb(0%, 0%, 0%)" stroke-opacity="1" stroke-miterlimit="10" d="M 57.604271 -7.435592 L 57.604271 -8.135864 " transform="matrix(4.98132, 0, 0, -4.98132, 0, 0)"/>
<path fill="none" stroke-width="0.16" stroke-linecap="round" stroke-linejoin="round" stroke="rgb(0%, 0%, 0%)" stroke-opacity="1" stroke-miterlimit="10" d="M 53.150131 -7.435592 L 53.150131 -8.135864 " transform="matrix(4.98132, 0, 0, -4.98132, 0, 0)"/>
<path fill="none" stroke-width="0.16" stroke-linecap="round" stroke-linejoin="round" stroke="rgb(0%, 0%, 0%)" stroke-opacity="1" stroke-miterlimit="10" d="M 57.604271 -7.435592 L 56.455448 -7.435592 " transform="matrix(4.98132, 0, 0, -4.98132, 0, 0)"/>
<path fill="none" stroke-width="0.16" stroke-linecap="round" stroke-linejoin="round" stroke="rgb(0%, 0%, 0%)" stroke-opacity="1" stroke-miterlimit="10" d="M 53.150131 -7.435592 L 54.499704 -7.435592 " transform="matrix(4.98132, 0, 0, -4.98132, 0, 0)"/>
<g fill="rgb(0%, 0%, 0%)" fill-opacity="1">
<use xlink:href="#glyph-0-0" x="273.472656" y="40.035156"/>
</g>
<path fill="none" stroke-width="0.16" stroke-linecap="round" stroke-linejoin="round" stroke="rgb(0%, 0%, 0%)" stroke-opacity="1" stroke-miterlimit="10" d="M 57.605056 -20.931324 L 57.605056 -21.631597 " transform="matrix(4.98132, 0, 0, -4.98132, 0, 0)"/>
<path fill="none" stroke-width="0.16" stroke-linecap="round" stroke-linejoin="round" stroke="rgb(0%, 0%, 0%)" stroke-opacity="1" stroke-miterlimit="10" d="M 54.324832 -20.931324 L 54.324832 -21.631597 " transform="matrix(4.98132, 0, 0, -4.98132, 0, 0)"/>
<path fill="none" stroke-width="0.16" stroke-linecap="round" stroke-linejoin="round" stroke="rgb(0%, 0%, 0%)" stroke-opacity="1" stroke-miterlimit="10" d="M 57.605056 -20.931324 L 57.042799 -20.931324 " transform="matrix(4.98132, 0, 0, -4.98132, 0, 0)"/>
<path fill="none" stroke-width="0.16" stroke-linecap="round" stroke-linejoin="round" stroke="rgb(0%, 0%, 0%)" stroke-opacity="1" stroke-miterlimit="10" d="M 54.324832 -20.931324 L 55.087055 -20.931324 " transform="matrix(4.98132, 0, 0, -4.98132, 0, 0)"/>
<g fill="rgb(0%, 0%, 0%)" fill-opacity="1">
<use xlink:href="#glyph-0-0" x="276.398438" y="107.261719"/>
</g>
<path fill="none" stroke-width="0.16" stroke-linecap="round" stroke-linejoin="round" stroke="rgb(0%, 0%, 0%)" stroke-opacity="1" stroke-miterlimit="10" d="M 65.896187 -7.317965 L 65.896187 -8.018237 " transform="matrix(4.98132, 0, 0, -4.98132, 0, 0)"/>
<path fill="none" stroke-width="0.16" stroke-linecap="round" stroke-linejoin="round" stroke="rgb(0%, 0%, 0%)" stroke-opacity="1" stroke-miterlimit="10" d="M 60.037581 -7.317965 L 60.037581 -8.018237 " transform="matrix(4.98132, 0, 0, -4.98132, 0, 0)"/>
<path fill="none" stroke-width="0.16" stroke-linecap="round" stroke-linejoin="round" stroke="rgb(0%, 0%, 0%)" stroke-opacity="1" stroke-miterlimit="10" d="M 65.896187 -7.317965 L 64.044739 -7.317965 " transform="matrix(4.98132, 0, 0, -4.98132, 0, 0)"/>
<path fill="none" stroke-width="0.16" stroke-linecap="round" stroke-linejoin="round" stroke="rgb(0%, 0%, 0%)" stroke-opacity="1" stroke-miterlimit="10" d="M 60.037581 -7.317965 L 62.088995 -7.317965 " transform="matrix(4.98132, 0, 0, -4.98132, 0, 0)"/>
<g fill="rgb(0%, 0%, 0%)" fill-opacity="1">
<use xlink:href="#glyph-4-0" x="83.246094" y="107.066406"/>
</g>
</svg>
