<?xml version="1.0" encoding="UTF-8"?>
<svg xmlns="http://www.w3.org/2000/svg" xmlns:xlink="http://www.w3.org/1999/xlink" width="596" height="842" viewBox="0 0 596 842">
<defs>
<g>
<g id="glyph-0-0">
<path d="M 0 0.765625 C 0 1.65625 0.6875 2.328125 1.84375 2.328125 C 3.6875 2.328125 5.515625 0.734375 5.515625 -0.765625 C 5.515625 -1.703125 4.703125 -2.328125 3.625 -2.328125 C 1.90625 -2.328125 0 -0.796875 0 0.765625 Z M 0 0.765625 "/>
</g>
<g id="glyph-0-1">
<path d="M 4.484375 10.75 L 4.5 10.015625 L 4.453125 10.015625 C 3.640625 10.015625 2.9375 9.59375 2.484375 8.9375 C 2.640625 9.015625 2.8125 9.046875 2.984375 9.046875 C 3.859375 9.046875 4.59375 8.3125 4.59375 7.4375 C 4.59375 6.484375 3.890625 5.671875 2.984375 5.671875 C 1.984375 5.671875 1.078125 6.453125 1.078125 7.4375 C 1.078125 9.28125 2.578125 10.75 4.40625 10.75 Z M 6.828125 -2.546875 C 8.6875 -2.328125 9.6875 -0.796875 9.6875 0.6875 C 9.6875 1.84375 9.09375 2.96875 7.828125 3.421875 C 7.671875 2.0625 7.296875 -0.25 6.828125 -2.546875 Z M 1.265625 -0.4375 C 1.265625 -3.15625 3.0625 -5.21875 4.859375 -7.28125 C 5.15625 -6.3125 5.40625 -5.328125 5.640625 -4.359375 C 3.890625 -3.96875 2.90625 -2.5 2.90625 -1 C 2.90625 1.125 4.796875 2.1875 5.0625 2.1875 C 5.265625 2.1875 5.4375 2 5.4375 1.796875 C 5.4375 1.703125 5.40625 1.609375 5.3125 1.53125 C 4.390625 0.984375 3.96875 0.203125 3.96875 -0.53125 C 3.96875 -1.5 4.71875 -2.40625 6.0625 -2.546875 C 6.640625 0.125 6.984375 2.5 7.09375 3.609375 C 6.6875 3.671875 6.3125 3.703125 5.96875 3.703125 C 2.90625 3.703125 1.265625 1.453125 1.265625 -0.4375 Z M 6 -20.21875 C 5.71875 -20.21875 3.296875 -18.4375 3.296875 -15.265625 C 3.296875 -12.265625 3.671875 -11.046875 4.203125 -9.390625 C 2.234375 -7.09375 0.03125 -4.890625 0.03125 -1.890625 C 0.03125 0.75 1.765625 4.453125 5.828125 4.453125 C 6.25 4.453125 6.6875 4.40625 7.171875 4.3125 C 7.203125 4.828125 7.234375 5.328125 7.234375 5.84375 C 7.234375 6.171875 7.21875 6.46875 7.203125 6.796875 C 7.09375 8.453125 6.078125 9.96875 4.5 10.015625 L 4.484375 10.75 C 6.4375 10.703125 7.828125 8.921875 7.9375 6.890625 C 7.953125 6.5625 7.953125 6.21875 7.953125 5.875 C 7.953125 5.296875 7.9375 4.71875 7.890625 4.15625 C 9.6875 3.578125 10.9375 1.890625 10.9375 -0.015625 C 10.9375 -2.265625 9.25 -4.46875 6.609375 -4.46875 C 6.53125 -4.46875 6.46875 -4.453125 6.40625 -4.453125 C 6.109375 -5.625 5.796875 -6.796875 5.4375 -7.9375 C 7.015625 -9.796875 8.453125 -11.6875 8.453125 -14.109375 C 8.453125 -16.71875 6.5 -20.21875 6 -20.21875 Z M 7.234375 -15.5625 C 7.234375 -13.4375 6.09375 -11.671875 4.78125 -10.0625 C 4.265625 -11.6875 4.15625 -12.546875 4.15625 -13.265625 C 4.15625 -16.09375 6.203125 -17.328125 6.875 -17.65625 C 6.890625 -17.65625 7.234375 -16.609375 7.234375 -15.5625 Z M 7.234375 -15.5625 "/>
</g>
<g id="glyph-0-2">
<path d="M 0 -1.984375 L 0 -1.015625 C 0 -0.796875 0.171875 -0.640625 0.375 -0.640625 C 0.421875 -0.640625 0.453125 -0.640625 0.515625 -0.65625 L 0.984375 -0.828125 L 0.984375 1.828125 L 0.25 2.09375 C 0.109375 2.15625 0 2.296875 0 2.453125 L 0 3.421875 C 0 3.640625 0.171875 3.8125 0.375 3.8125 C 0.421875 3.8125 0.453125 3.8125 0.515625 3.796875 L 0.984375 3.609375 L 0.984375 6.015625 C 0.984375 6.203125 1.125 6.34375 1.296875 6.34375 C 1.484375 6.34375 1.640625 6.203125 1.640625 6.015625 L 1.640625 3.375 L 3.015625 2.859375 L 3.015625 5.265625 C 3.015625 5.453125 3.171875 5.59375 3.359375 5.59375 C 3.546875 5.59375 3.671875 5.453125 3.671875 5.265625 L 3.671875 2.609375 L 4.40625 2.34375 C 4.5625 2.28125 4.65625 2.140625 4.65625 1.984375 L 4.65625 1.015625 C 4.65625 0.796875 4.484375 0.640625 4.28125 0.640625 C 4.234375 0.640625 4.203125 0.640625 4.15625 0.65625 L 3.671875 0.828125 L 3.671875 -1.828125 L 4.40625 -2.09375 C 4.5625 -2.15625 4.65625 -2.296875 4.65625 -2.453125 L 4.65625 -3.421875 C 4.65625 -3.640625 4.484375 -3.8125 4.28125 -3.8125 C 4.234375 -3.8125 4.203125 -3.8125 4.15625 -3.796875 L 3.671875 -3.609375 L 3.671875 -6.015625 C 3.671875 -6.203125 3.546875 -6.34375 3.359375 -6.34375 C 3.171875 -6.34375 3.015625 -6.203125 3.015625 -6.015625 L 3.015625 -3.375 L 1.640625 -2.859375 L 1.640625 -5.265625 C 1.640625 -5.453125 1.484375 -5.59375 1.296875 -5.59375 C 1.125 -5.59375 0.984375 -5.453125 0.984375 -5.265625 L 0.984375 -2.609375 L 0.25 -2.34375 C 0.109375 -2.28125 0 -2.140625 0 -1.984375 Z M 3.015625 -1.59375 L 3.015625 1.078125 L 1.640625 1.59375 L 1.640625 -1.078125 Z M 3.015625 -1.59375 "/>
</g>
<g id="glyph-1-0">
<path d="M 3.28125 -2.03125 C 3.28125 -1.203125 2.796875 -0.421875 2.015625 -0.421875 C 1.875 -0.421875 1.8125 -0.3125 1.8125 -0.203125 C 1.8125 -0.109375 1.875 0 2.015625 0 C 2.78125 0 3.546875 -0.21875 4.296875 -0.21875 C 5.0625 -0.21875 5.828125 0 6.59375 0 C 6.71875 0 6.796875 -0.109375 6.796875 -0.203125 C 6.796875 -0.3125 6.71875 -0.421875 6.59375 -0.421875 C 5.8125 -0.421875 5.3125 -1.203125 5.3125 -2.03125 Z M 3.796875 -8.25 C 3.1875 -8.25 2.609375 -8.46875 2.5 -8.46875 C 2.375 -8.46875 2.265625 -8.34375 2.265625 -8.1875 C 2.265625 -4.890625 -0.03125 -2.734375 -0.03125 -2.53125 C -0.03125 -2.375 0.125 -2.109375 0.53125 -2.109375 L 3.28125 -2.109375 L 3.28125 -2.03125 L 5.3125 -2.03125 L 5.3125 -2.109375 L 6.578125 -2.109375 C 6.734375 -2.109375 6.84375 -2.234375 6.84375 -2.375 C 6.84375 -2.5 6.734375 -2.640625 6.578125 -2.640625 L 5.3125 -2.640625 L 5.3125 -6.671875 C 5.3125 -6.828125 5.1875 -6.921875 5.078125 -6.921875 C 4.84375 -6.921875 4.859375 -6.46875 4.46875 -5.96875 C 3.890625 -5.1875 3.28125 -5.296875 3.28125 -4.703125 L 3.28125 -2.640625 L 0.53125 -2.640625 L 5.3125 -8.1875 C 5.359375 -8.21875 5.359375 -8.234375 5.359375 -8.265625 C 5.359375 -8.359375 5.265625 -8.484375 5.109375 -8.484375 C 4.984375 -8.484375 4.421875 -8.25 3.796875 -8.25 Z M 3.796875 -8.25 "/>
</g>
<g id="glyph-2-0">
<path d="M 3 -7.546875 L 0.296875 -7.546875 L 0.296875 -7.0625 L 0.5 -7.0625 C 1.09375 -7.046875 1.296875 -7.015625 1.375 -6.90625 C 1.4375 -6.8125 1.4375 -6.8125 1.4375 -6.265625 L 1.4375 -2.265625 C 1.4375 -0.84375 1.25 -0.546875 0.234375 -0.484375 L 0.234375 0 L 3.203125 0 L 3.203125 -0.484375 C 2.203125 -0.546875 2 -0.84375 2 -2.265625 L 2 -6.875 L 4.5 0 L 4.90625 0 L 7.25 -6.875 L 7.25 -1.28125 C 7.25 -0.75 7.25 -0.734375 7.1875 -0.625 C 7.09375 -0.515625 6.90625 -0.484375 6.296875 -0.484375 L 6.109375 -0.484375 L 6.109375 0 L 9.546875 0 L 9.546875 -0.484375 L 9.359375 -0.484375 C 8.765625 -0.484375 8.5625 -0.515625 8.484375 -0.625 C 8.421875 -0.734375 8.421875 -0.734375 8.421875 -1.28125 L 8.421875 -6.265625 C 8.421875 -6.796875 8.421875 -6.8125 8.484375 -6.90625 C 8.5625 -7.015625 8.765625 -7.046875 9.359375 -7.0625 L 9.546875 -7.0625 L 9.546875 -7.546875 L 6.921875 -7.546875 L 5 -1.96875 Z M 3 -7.546875 "/>
</g>
<g id="glyph-2-1">
<path d="M 3.140625 -1.328125 L 1.984375 -4.015625 C 1.9375 -4.125 1.921875 -4.171875 1.921875 -4.21875 C 1.921875 -4.421875 2.046875 -4.5 2.40625 -4.5 L 2.625 -4.5 L 2.625 -4.875 L 0.140625 -4.875 L 0.140625 -4.5 L 0.25 -4.5 C 0.609375 -4.484375 0.734375 -4.375 0.96875 -3.9375 L 2.671875 -0.078125 L 2.484375 0.296875 C 2.109375 1.09375 1.625 1.640625 1.28125 1.640625 C 1.1875 1.640625 1.125 1.59375 1.125 1.53125 C 1.125 1.515625 1.125 1.484375 1.140625 1.4375 C 1.171875 1.34375 1.1875 1.25 1.1875 1.171875 C 1.1875 0.90625 0.96875 0.703125 0.65625 0.703125 C 0.296875 0.703125 0.03125 0.96875 0.03125 1.34375 C 0.03125 1.8125 0.421875 2.15625 0.984375 2.15625 C 1.53125 2.15625 2 1.875 2.421875 1.3125 C 2.75 0.890625 2.953125 0.453125 3.421875 -0.6875 L 4.609375 -3.640625 C 4.84375 -4.25 5.078125 -4.484375 5.484375 -4.5 L 5.546875 -4.5 L 5.546875 -4.875 L 3.453125 -4.875 L 3.453125 -4.5 L 3.625 -4.5 C 4.03125 -4.5 4.1875 -4.375 4.1875 -4.109375 C 4.1875 -4 4.15625 -3.875 4.09375 -3.6875 Z M 3.140625 -1.328125 "/>
</g>
<g id="glyph-2-2">
<path d="M 4.859375 -2.359375 C 4.875 -3.921875 3.984375 -5.03125 2.703125 -5.03125 C 1.375 -5.03125 0.359375 -3.875 0.359375 -2.296875 C 0.359375 -0.828125 1.3125 0.15625 2.734375 0.15625 C 3.734375 0.15625 4.4375 -0.328125 4.859375 -1.328125 L 4.5 -1.53125 C 4.0625 -0.71875 3.625 -0.40625 2.921875 -0.40625 C 2.390625 -0.40625 2 -0.625 1.734375 -1.09375 C 1.546875 -1.40625 1.46875 -1.78125 1.46875 -2.359375 Z M 1.484375 -2.796875 C 1.484375 -3.125 1.53125 -3.359375 1.625 -3.640625 C 1.84375 -4.28125 2.1875 -4.578125 2.703125 -4.578125 C 3.328125 -4.578125 3.75 -4.03125 3.75 -3.171875 C 3.75 -2.890625 3.640625 -2.796875 3.3125 -2.796875 Z M 1.484375 -2.796875 "/>
</g>
<g id="glyph-2-3">
<path d="M 4.078125 -4.984375 L 3.703125 -4.984375 L 3.40625 -4.609375 C 3.03125 -4.90625 2.65625 -5.03125 2.125 -5.03125 C 1.21875 -5.03125 0.609375 -4.4375 0.609375 -3.515625 C 0.609375 -3.109375 0.734375 -2.765625 0.96875 -2.546875 C 1.21875 -2.328125 1.453125 -2.21875 2.078125 -2.078125 L 2.640625 -1.953125 C 3.453125 -1.75 3.75 -1.546875 3.75 -1.125 C 3.75 -0.640625 3.328125 -0.296875 2.71875 -0.296875 C 1.828125 -0.296875 1.203125 -0.859375 0.953125 -1.90625 L 0.53125 -1.90625 L 0.53125 0.078125 L 0.90625 0.078125 L 1.265625 -0.359375 C 1.6875 -0.015625 2.15625 0.15625 2.703125 0.15625 C 3.71875 0.15625 4.40625 -0.484375 4.40625 -1.453125 C 4.40625 -1.90625 4.25 -2.265625 3.96875 -2.515625 C 3.703125 -2.734375 3.5 -2.8125 2.859375 -2.953125 L 2.34375 -3.0625 C 1.765625 -3.1875 1.765625 -3.1875 1.578125 -3.296875 C 1.34375 -3.390625 1.21875 -3.609375 1.21875 -3.84375 C 1.21875 -4.28125 1.609375 -4.5625 2.1875 -4.5625 C 2.578125 -4.5625 2.90625 -4.4375 3.203125 -4.15625 C 3.421875 -3.921875 3.546875 -3.703125 3.703125 -3.234375 L 4.078125 -3.234375 Z M 4.078125 -4.984375 "/>
</g>
<g id="glyph-2-4">
<path d="M 4.71875 -3.359375 C 4.71875 -4.03125 4.609375 -4.359375 4.3125 -4.609375 C 3.96875 -4.890625 3.453125 -5.03125 2.78125 -5.03125 C 1.59375 -5.03125 0.734375 -4.46875 0.734375 -3.703125 C 0.734375 -3.328125 0.984375 -3.078125 1.34375 -3.078125 C 1.6875 -3.078125 1.90625 -3.296875 1.90625 -3.609375 C 1.90625 -3.75 1.859375 -3.890625 1.75 -4.03125 C 1.6875 -4.109375 1.6875 -4.125 1.6875 -4.1875 C 1.6875 -4.390625 2.09375 -4.578125 2.609375 -4.578125 C 2.9375 -4.578125 3.296875 -4.46875 3.46875 -4.3125 C 3.671875 -4.15625 3.75 -3.90625 3.75 -3.421875 L 3.75 -3.015625 C 2.65625 -2.828125 2.3125 -2.75 1.796875 -2.546875 C 0.890625 -2.21875 0.453125 -1.734375 0.453125 -1.0625 C 0.453125 -0.3125 1.046875 0.15625 1.96875 0.15625 C 2.703125 0.15625 3.34375 -0.140625 3.796875 -0.671875 C 3.96875 -0.140625 4.21875 0.078125 4.71875 0.078125 C 5.1875 0.078125 5.671875 -0.234375 5.671875 -0.53125 C 5.671875 -0.609375 5.640625 -0.65625 5.578125 -0.65625 C 5.53125 -0.65625 5.484375 -0.640625 5.421875 -0.609375 C 5.265625 -0.546875 5.203125 -0.546875 5.125 -0.546875 C 4.828125 -0.546875 4.71875 -0.734375 4.71875 -1.265625 Z M 3.75 -2.09375 C 3.75 -1.46875 3.703125 -1.3125 3.53125 -1.046875 C 3.265625 -0.65625 2.796875 -0.390625 2.34375 -0.390625 C 1.859375 -0.390625 1.515625 -0.734375 1.515625 -1.21875 C 1.515625 -1.65625 1.734375 -1.96875 2.1875 -2.1875 C 2.515625 -2.328125 2.921875 -2.4375 3.75 -2.578125 Z M 3.75 -2.09375 "/>
</g>
<g id="glyph-2-5">
<path d="M 2.0625 -4.875 L 0.21875 -4.75 L 0.21875 -4.3125 L 0.640625 -4.3125 C 1.046875 -4.296875 1.09375 -4.234375 1.09375 -3.78125 L 1.09375 -0.796875 C 1.09375 -0.640625 1.078125 -0.578125 1.03125 -0.515625 C 0.96875 -0.421875 0.75 -0.390625 0.296875 -0.375 L 0.265625 -0.375 L 0.265625 0 L 3.046875 0 L 3.046875 -0.375 L 2.859375 -0.375 C 2.15625 -0.390625 2.0625 -0.453125 2.0625 -0.828125 L 2.0625 -1.390625 C 2.078125 -3.140625 2.703125 -4.484375 3.515625 -4.53125 C 3.375 -4.359375 3.328125 -4.25 3.328125 -4.0625 C 3.328125 -3.71875 3.578125 -3.484375 3.90625 -3.484375 C 4.296875 -3.484375 4.546875 -3.765625 4.546875 -4.1875 C 4.546875 -4.6875 4.1875 -5.03125 3.640625 -5.03125 C 2.984375 -5.03125 2.421875 -4.5 2.0625 -3.578125 Z M 2.0625 -4.875 "/>
</g>
<g id="glyph-2-6">
<path d="M 3.96875 0.078125 L 5.796875 0 L 5.796875 -0.453125 L 5.609375 -0.453125 C 5 -0.484375 4.953125 -0.546875 4.953125 -1.21875 L 4.953125 -7.703125 L 2.90625 -7.59375 L 2.90625 -7.140625 L 3.515625 -7.140625 C 3.921875 -7.125 3.96875 -7.0625 3.96875 -6.609375 L 3.96875 -4.25 C 3.578125 -4.78125 3.140625 -5.03125 2.53125 -5.03125 C 1.34375 -5.03125 0.453125 -3.890625 0.453125 -2.390625 C 0.453125 -0.90625 1.3125 0.15625 2.53125 0.15625 C 3.1875 0.15625 3.640625 -0.125 3.96875 -0.75 Z M 2.734375 -4.46875 C 3.171875 -4.46875 3.578125 -4.15625 3.765625 -3.671875 C 3.90625 -3.359375 3.96875 -2.921875 3.96875 -2.421875 C 3.96875 -1.1875 3.484375 -0.40625 2.734375 -0.40625 C 1.984375 -0.40625 1.546875 -1.09375 1.546875 -2.265625 C 1.546875 -2.890625 1.609375 -3.359375 1.75 -3.703125 C 1.921875 -4.171875 2.3125 -4.46875 2.734375 -4.46875 Z M 2.734375 -4.46875 "/>
</g>
<g id="glyph-2-7">
<path d="M 2.15625 -4.875 L 0.1875 -4.75 L 0.1875 -4.3125 L 0.71875 -4.3125 C 1.125 -4.296875 1.171875 -4.234375 1.171875 -3.78125 L 1.171875 -0.796875 C 1.15625 -0.640625 1.15625 -0.578125 1.109375 -0.515625 C 1.03125 -0.421875 0.84375 -0.390625 0.390625 -0.375 L 0.3125 -0.375 L 0.3125 0 L 3.015625 0 L 3.015625 -0.375 L 2.953125 -0.375 C 2.25 -0.390625 2.15625 -0.453125 2.15625 -0.828125 Z M 1.65625 -7.46875 C 1.328125 -7.46875 1.0625 -7.203125 1.0625 -6.875 C 1.0625 -6.53125 1.328125 -6.265625 1.65625 -6.265625 C 2 -6.265625 2.265625 -6.53125 2.265625 -6.875 C 2.265625 -7.203125 2 -7.46875 1.65625 -7.46875 Z M 1.65625 -7.46875 "/>
</g>
<g id="glyph-2-8">
<path d="M 2.09375 -4.875 L 0.234375 -4.75 L 0.234375 -4.3125 L 0.671875 -4.3125 C 1.0625 -4.296875 1.125 -4.234375 1.125 -3.78125 L 1.125 -0.796875 C 1.109375 -0.640625 1.09375 -0.578125 1.0625 -0.515625 C 0.984375 -0.421875 0.78125 -0.390625 0.328125 -0.375 L 0.296875 -0.375 L 0.296875 0 L 2.921875 0 L 2.921875 -0.375 L 2.890625 -0.375 C 2.1875 -0.390625 2.09375 -0.453125 2.09375 -0.84375 L 2.09375 -2.765625 C 2.09375 -3.703125 2.609375 -4.390625 3.296875 -4.390625 C 3.890625 -4.390625 4.1875 -3.96875 4.1875 -3.109375 L 4.1875 -0.78125 C 4.1875 -0.640625 4.171875 -0.578125 4.125 -0.515625 C 4.0625 -0.421875 3.84375 -0.390625 3.390625 -0.375 L 3.359375 -0.375 L 3.359375 0 L 6 0 L 6 -0.375 L 5.953125 -0.375 C 5.265625 -0.390625 5.171875 -0.453125 5.171875 -0.828125 L 5.171875 -2.671875 C 5.171875 -3.71875 5.640625 -4.390625 6.375 -4.390625 C 6.96875 -4.390625 7.265625 -3.9375 7.265625 -3 L 7.265625 -0.796875 C 7.25 -0.640625 7.25 -0.578125 7.1875 -0.515625 C 7.125 -0.421875 6.921875 -0.390625 6.46875 -0.375 L 6.421875 -0.375 L 6.421875 0 L 9.078125 0 L 9.078125 -0.375 L 9.03125 -0.375 C 8.34375 -0.390625 8.25 -0.453125 8.25 -0.84375 L 8.25 -3.203125 C 8.25 -3.859375 8.1875 -4.078125 7.90625 -4.4375 C 7.609375 -4.8125 7.1875 -5.03125 6.671875 -5.03125 C 6 -5.03125 5.5 -4.703125 5.046875 -3.984375 C 4.875 -4.609375 4.3125 -5.03125 3.609375 -5.03125 C 2.96875 -5.03125 2.515625 -4.71875 2.09375 -4.0625 Z M 2.09375 -4.875 "/>
</g>
<g id="glyph-2-9">
<path d="M 0.90625 1.921875 C 1.84375 1.28125 2.28125 0.640625 2.28125 -0.09375 C 2.28125 -0.71875 1.9375 -1.125 1.421875 -1.125 C 1.03125 -1.125 0.734375 -0.859375 0.734375 -0.5 C 0.734375 -0.125 1.03125 0.109375 1.46875 0.109375 C 1.515625 0.109375 1.59375 0.109375 1.625 0.109375 L 1.65625 0.109375 C 1.703125 0.109375 1.71875 0.140625 1.71875 0.203125 C 1.71875 0.640625 1.375 1.125 0.671875 1.625 Z M 0.90625 1.921875 "/>
</g>
<g id="glyph-2-10">
<path d="M 0.390625 -7.0625 L 0.609375 -7.0625 C 1.203125 -7.046875 1.40625 -7.015625 1.484375 -6.90625 C 1.546875 -6.8125 1.546875 -6.78125 1.546875 -6.265625 L 1.546875 -1.28125 C 1.546875 -0.765625 1.546875 -0.734375 1.484375 -0.640625 C 1.40625 -0.53125 1.203125 -0.484375 0.609375 -0.484375 L 0.390625 -0.484375 L 0.390625 0 L 3.859375 0 L 3.859375 -0.484375 L 3.640625 -0.484375 C 3.0625 -0.484375 2.859375 -0.515625 2.78125 -0.640625 C 2.71875 -0.734375 2.71875 -0.75 2.71875 -1.28125 L 2.71875 -6.265625 C 2.71875 -6.796875 2.71875 -6.8125 2.78125 -6.90625 C 2.859375 -7.015625 3.046875 -7.046875 3.640625 -7.0625 L 3.859375 -7.0625 L 3.859375 -7.546875 L 0.390625 -7.546875 Z M 0.390625 -7.0625 "/>
</g>
<g id="glyph-2-11">
<path d="M 4.046875 -1.53125 C 3.703125 -0.78125 3.359375 -0.484375 2.8125 -0.484375 C 1.96875 -0.484375 1.453125 -1.25 1.453125 -2.46875 C 1.453125 -3.75 1.96875 -4.578125 2.734375 -4.578125 C 3.046875 -4.578125 3.328125 -4.4375 3.328125 -4.265625 C 3.328125 -4.234375 3.3125 -4.203125 3.265625 -4.140625 C 3.09375 -3.9375 3.046875 -3.84375 3.046875 -3.65625 C 3.046875 -3.3125 3.3125 -3.078125 3.671875 -3.078125 C 4.0625 -3.078125 4.3125 -3.359375 4.3125 -3.78125 C 4.3125 -4.5 3.609375 -5.03125 2.6875 -5.03125 C 1.328125 -5.03125 0.359375 -3.921875 0.359375 -2.359375 C 0.359375 -0.875 1.25 0.15625 2.546875 0.15625 C 3.46875 0.15625 4 -0.265625 4.453125 -1.375 Z M 4.046875 -1.53125 "/>
</g>
<g id="glyph-2-12">
<path d="M 2.09375 -4.875 L 0.28125 -4.75 L 0.28125 -4.3125 L 0.65625 -4.3125 C 1.0625 -4.296875 1.109375 -4.234375 1.109375 -3.78125 L 1.109375 -0.796875 C 1.09375 -0.640625 1.09375 -0.578125 1.046875 -0.515625 C 0.96875 -0.421875 0.78125 -0.390625 0.328125 -0.375 L 0.28125 -0.375 L 0.28125 0 L 2.921875 0 L 2.921875 -0.375 L 2.890625 -0.375 C 2.1875 -0.390625 2.09375 -0.453125 2.09375 -0.828125 L 2.09375 -2.375 C 2.09375 -2.890625 2.15625 -3.359375 2.28125 -3.59375 C 2.5 -4.0625 2.96875 -4.390625 3.421875 -4.390625 C 3.6875 -4.390625 4 -4.25 4.15625 -4.03125 C 4.3125 -3.796875 4.390625 -3.484375 4.390625 -2.984375 L 4.390625 -0.796875 C 4.375 -0.640625 4.375 -0.578125 4.328125 -0.515625 C 4.25 -0.421875 4.046875 -0.390625 3.59375 -0.375 L 3.546875 -0.375 L 3.546875 0 L 6.203125 0 L 6.203125 -0.375 L 6.15625 -0.375 C 5.46875 -0.390625 5.375 -0.453125 5.375 -0.828125 L 5.375 -2.921875 C 5.375 -3.671875 5.34375 -3.875 5.15625 -4.21875 C 4.890625 -4.71875 4.375 -5.03125 3.75 -5.03125 C 3.0625 -5.03125 2.546875 -4.71875 2.09375 -4.03125 Z M 2.09375 -4.875 "/>
</g>
<g id="glyph-2-13">
<path d="M 2.640625 -5.03125 C 1.34375 -5.03125 0.359375 -3.890625 0.359375 -2.421875 C 0.359375 -1 1.359375 0.15625 2.609375 0.15625 C 3.875 0.15625 4.875 -1 4.875 -2.4375 C 4.875 -3.875 3.875 -5.03125 2.640625 -5.03125 Z M 2.640625 -4.578125 C 3.359375 -4.578125 3.78125 -3.8125 3.78125 -2.4375 C 3.78125 -1.046875 3.359375 -0.296875 2.609375 -0.296875 C 1.859375 -0.296875 1.453125 -1.046875 1.453125 -2.421875 C 1.453125 -3.84375 1.84375 -4.578125 2.640625 -4.578125 Z M 2.640625 -4.578125 "/>
</g>
<g id="glyph-2-14">
<path d="M 2.03125 -4.875 L 2.03125 -6.9375 L 1.59375 -6.9375 C 1.5 -5.578125 1.03125 -4.890625 0.1875 -4.828125 L 0.1875 -4.421875 L 1.046875 -4.421875 L 1.046875 -1.75 C 1.046875 -1.03125 1.0625 -0.765625 1.171875 -0.515625 C 1.34375 -0.078125 1.75 0.15625 2.359375 0.15625 C 3.296875 0.15625 3.90625 -0.546875 3.90625 -1.65625 C 3.90625 -1.71875 3.90625 -1.796875 3.90625 -1.90625 L 3.453125 -1.90625 C 3.421875 -0.96875 3.15625 -0.484375 2.640625 -0.484375 C 2.40625 -0.484375 2.1875 -0.609375 2.125 -0.78125 C 2.0625 -0.9375 2.03125 -1.1875 2.03125 -1.5625 L 2.03125 -4.421875 L 3.5625 -4.421875 L 3.5625 -4.875 Z M 2.03125 -4.875 "/>
</g>
<g id="glyph-2-15">
<path d="M 2.09375 -7.703125 L 0.15625 -7.59375 L 0.15625 -7.140625 L 0.65625 -7.140625 C 1.0625 -7.125 1.109375 -7.0625 1.109375 -6.609375 L 1.109375 -0.78125 C 1.09375 -0.640625 1.09375 -0.578125 1.046875 -0.515625 C 0.96875 -0.421875 0.78125 -0.390625 0.328125 -0.375 L 0.28125 -0.375 L 0.28125 0 L 2.921875 0 L 2.921875 -0.375 L 2.890625 -0.375 C 2.1875 -0.390625 2.09375 -0.453125 2.09375 -0.828125 L 2.09375 -2.375 C 2.09375 -2.890625 2.15625 -3.359375 2.28125 -3.59375 C 2.515625 -4.0625 2.96875 -4.390625 3.421875 -4.390625 C 3.6875 -4.390625 4 -4.234375 4.15625 -4.03125 C 4.3125 -3.796875 4.390625 -3.484375 4.390625 -2.96875 L 4.390625 -0.78125 C 4.375 -0.640625 4.375 -0.578125 4.328125 -0.515625 C 4.25 -0.421875 4.046875 -0.390625 3.59375 -0.375 L 3.546875 -0.375 L 3.546875 0 L 6.203125 0 L 6.203125 -0.375 L 6.15625 -0.375 C 5.46875 -0.390625 5.375 -0.453125 5.375 -0.828125 L 5.375 -2.921875 C 5.375 -3.671875 5.34375 -3.875 5.15625 -4.21875 C 4.890625 -4.734375 4.375 -5.03125 3.75 -5.03125 C 3.0625 -5.03125 2.5625 -4.71875 2.09375 -4.03125 Z M 2.09375 -7.703125 "/>
</g>
<g id="glyph-2-16">
<path d="M 3.078125 -1.265625 L 1.890625 -4.03125 C 1.859375 -4.109375 1.84375 -4.1875 1.84375 -4.25 C 1.84375 -4.4375 1.96875 -4.5 2.40625 -4.5 L 2.546875 -4.5 L 2.546875 -4.875 L 0.078125 -4.875 L 0.078125 -4.5 L 0.171875 -4.5 C 0.5625 -4.5 0.703125 -4.390625 0.859375 -4.046875 L 2.65625 0.15625 L 3.015625 0.15625 L 4.5 -3.515625 C 4.796875 -4.21875 5.046875 -4.46875 5.484375 -4.5 L 5.515625 -4.5 L 5.515625 -4.875 L 3.421875 -4.875 L 3.421875 -4.5 L 3.578125 -4.5 C 3.9375 -4.5 4.140625 -4.375 4.140625 -4.125 C 4.140625 -4 4.109375 -3.84375 4.046875 -3.6875 Z M 3.078125 -1.265625 "/>
</g>
<g id="glyph-2-17">
<path d="M 1.875 -7.703125 L 0.078125 -7.59375 L 0.078125 -7.140625 L 0.453125 -7.140625 C 0.84375 -7.125 0.90625 -7.0625 0.90625 -6.609375 L 0.90625 -2.546875 C 0.90625 -1.09375 0.84375 -0.296875 0.703125 0.140625 L 1.109375 0.140625 L 1.625 -0.671875 C 2.046875 -0.109375 2.546875 0.15625 3.1875 0.15625 C 4.484375 0.15625 5.4375 -0.953125 5.4375 -2.46875 C 5.4375 -3.96875 4.5625 -5.03125 3.296875 -5.03125 C 2.671875 -5.03125 2.28125 -4.8125 1.875 -4.21875 Z M 3.109375 -4.5 C 3.90625 -4.5 4.34375 -3.734375 4.34375 -2.359375 C 4.34375 -1.03125 3.90625 -0.296875 3.140625 -0.296875 C 2.328125 -0.296875 1.828125 -1.0625 1.828125 -2.34375 C 1.828125 -3.75 2.28125 -4.5 3.109375 -4.5 Z M 3.109375 -4.5 "/>
</g>
<g id="glyph-2-18">
<path d="M 4.3125 0.078125 L 6.203125 0 L 6.203125 -0.453125 L 5.953125 -0.453125 C 5.34375 -0.46875 5.296875 -0.53125 5.296875 -1.21875 L 5.296875 -4.875 L 3.328125 -4.75 L 3.328125 -4.3125 L 3.859375 -4.3125 C 4.25 -4.296875 4.3125 -4.234375 4.3125 -3.78125 L 4.3125 -2.5 C 4.3125 -1.90625 4.25 -1.546875 4.09375 -1.21875 C 3.875 -0.734375 3.453125 -0.484375 2.9375 -0.484375 C 2.609375 -0.484375 2.34375 -0.59375 2.203125 -0.8125 C 2.0625 -1 2.046875 -1.109375 2.046875 -1.6875 L 2.046875 -4.875 L 0.21875 -4.75 L 0.21875 -4.3125 L 0.609375 -4.3125 C 1.015625 -4.296875 1.0625 -4.234375 1.0625 -3.78125 L 1.0625 -1.53125 C 1.0625 -1 1.109375 -0.75 1.265625 -0.515625 C 1.546875 -0.078125 2.046875 0.15625 2.671875 0.15625 C 3.359375 0.15625 3.84375 -0.125 4.3125 -0.796875 Z M 4.3125 0.078125 "/>
</g>
<g id="glyph-2-19">
<path d="M 2.046875 -0.78125 C 1.46875 -0.78125 1.4375 -0.796875 1.3125 -0.875 C 1.25 -0.90625 1.1875 -1.03125 1.1875 -1.140625 C 1.1875 -1.453125 1.46875 -1.59375 2.171875 -1.609375 C 3.15625 -1.625 3.3125 -1.65625 3.671875 -1.8125 C 4.296875 -2.09375 4.640625 -2.640625 4.640625 -3.328125 C 4.640625 -3.75 4.546875 -4 4.265625 -4.34375 C 4.4375 -4.53125 4.53125 -4.59375 4.625 -4.59375 C 4.671875 -4.59375 4.703125 -4.5625 4.71875 -4.453125 C 4.765625 -4.203125 4.9375 -4.0625 5.1875 -4.0625 C 5.46875 -4.0625 5.671875 -4.28125 5.671875 -4.5625 C 5.671875 -4.921875 5.390625 -5.171875 4.96875 -5.171875 C 4.640625 -5.171875 4.453125 -5.0625 3.96875 -4.625 C 3.53125 -4.921875 3.203125 -5.03125 2.671875 -5.03125 C 1.4375 -5.03125 0.609375 -4.34375 0.609375 -3.296875 C 0.609375 -2.671875 0.953125 -2.15625 1.5 -1.890625 C 0.796875 -1.734375 0.5 -1.421875 0.5 -0.84375 C 0.5 -0.390625 0.703125 -0.109375 1.203125 0.046875 C 0.546875 0.296875 0.234375 0.609375 0.234375 1.046875 C 0.234375 1.359375 0.453125 1.65625 0.78125 1.828125 C 1.1875 2.03125 1.6875 2.125 2.453125 2.125 C 4.1875 2.125 5.0625 1.5625 5.0625 0.46875 C 5.0625 -0.046875 4.8125 -0.46875 4.4375 -0.625 C 4.15625 -0.734375 3.828125 -0.78125 3.109375 -0.78125 Z M 2.671875 -4.578125 C 3.3125 -4.578125 3.671875 -4.125 3.671875 -3.3125 C 3.671875 -2.5 3.28125 -2 2.625 -2 C 1.96875 -2 1.5625 -2.5 1.5625 -3.28125 C 1.5625 -4.109375 1.96875 -4.578125 2.671875 -4.578125 Z M 2.578125 0.125 C 3.4375 0.125 3.5 0.125 3.640625 0.140625 C 4.078125 0.1875 4.328125 0.421875 4.328125 0.75 C 4.328125 1.34375 3.640625 1.6875 2.484375 1.6875 C 1.59375 1.6875 1.109375 1.4375 1.109375 0.96875 C 1.109375 0.609375 1.296875 0.390625 1.796875 0.125 Z M 2.578125 0.125 "/>
</g>
<g id="glyph-2-20">
<path d="M 2.09375 -4.875 L 0.296875 -4.75 L 0.296875 -4.3125 L 0.671875 -4.3125 C 1.0625 -4.296875 1.125 -4.234375 1.125 -3.78125 L 1.125 1.328125 C 1.109375 1.46875 1.09375 1.53125 1.0625 1.59375 C 0.984375 1.6875 0.78125 1.71875 0.328125 1.734375 L 0.296875 1.734375 L 0.296875 2.109375 L 3.015625 2.109375 L 3.015625 1.734375 L 2.890625 1.734375 C 2.1875 1.71875 2.09375 1.65625 2.09375 1.28125 L 2.09375 -0.6875 C 2.453125 -0.078125 2.828125 0.15625 3.484375 0.15625 C 4.125 0.15625 4.640625 -0.109375 5.015625 -0.625 C 5.390625 -1.125 5.59375 -1.78125 5.59375 -2.453125 C 5.59375 -3.140625 5.390625 -3.78125 5 -4.28125 C 4.609375 -4.78125 4.125 -5.03125 3.546875 -5.03125 C 2.890625 -5.03125 2.46875 -4.75 2.09375 -4.125 Z M 3.359375 -4.46875 C 4.078125 -4.46875 4.5 -3.75 4.5 -2.515625 C 4.5 -1.171875 4.078125 -0.40625 3.328125 -0.40625 C 2.578125 -0.40625 2.09375 -1.1875 2.09375 -2.390625 C 2.09375 -3.6875 2.5625 -4.46875 3.359375 -4.46875 Z M 3.359375 -4.46875 "/>
</g>
<g id="glyph-2-21">
<path d="M 5.71875 -1.34375 L 4.6875 -4.03125 C 4.65625 -4.109375 4.65625 -4.171875 4.65625 -4.25 C 4.65625 -4.4375 4.75 -4.5 5.09375 -4.5 L 5.34375 -4.5 L 5.34375 -4.875 L 3 -4.875 L 3 -4.5 L 3.171875 -4.5 C 3.515625 -4.484375 3.640625 -4.40625 3.734375 -4.109375 L 3.8125 -3.84375 L 2.890625 -1.40625 L 1.875 -4.03125 C 1.859375 -4.09375 1.84375 -4.1875 1.84375 -4.25 C 1.84375 -4.4375 1.953125 -4.5 2.265625 -4.5 L 2.453125 -4.5 L 2.453125 -4.875 L 0.15625 -4.875 L 0.15625 -4.5 L 0.34375 -4.5 C 0.640625 -4.484375 0.78125 -4.359375 0.890625 -3.984375 L 2.453125 0.15625 L 2.828125 0.15625 L 4.0625 -3.140625 L 5.34375 0.15625 L 5.671875 0.15625 L 7.125 -3.703125 C 7.359375 -4.3125 7.515625 -4.484375 7.90625 -4.5 L 7.96875 -4.5 L 7.96875 -4.875 L 6 -4.875 L 6 -4.5 L 6.171875 -4.5 C 6.546875 -4.5 6.6875 -4.390625 6.6875 -4.109375 C 6.6875 -4 6.65625 -3.875 6.609375 -3.734375 Z M 5.71875 -1.34375 "/>
</g>
<g id="glyph-2-22">
<path d="M 1.765625 -2 C 1.78125 -3.84375 1.8125 -4.359375 2.015625 -5.34375 C 2.15625 -6.0625 2.203125 -6.390625 2.203125 -6.703125 C 2.203125 -7.375 2 -7.6875 1.5625 -7.6875 C 1.140625 -7.6875 0.921875 -7.359375 0.921875 -6.71875 C 0.921875 -6.390625 0.96875 -6.078125 1.109375 -5.34375 C 1.3125 -4.359375 1.34375 -3.875 1.359375 -2 Z M 1.5625 -1.15625 C 1.203125 -1.15625 0.90625 -0.875 0.90625 -0.515625 C 0.90625 -0.140625 1.203125 0.140625 1.5625 0.140625 C 1.921875 0.140625 2.21875 -0.140625 2.21875 -0.515625 C 2.21875 -0.875 1.921875 -1.15625 1.5625 -1.15625 Z M 1.5625 -1.15625 "/>
</g>
<g id="glyph-3-0">
<path d="M 7.859375 -4.265625 L 4.484375 -4.265625 L 4.484375 -3.359375 L 6.953125 -3.359375 L 6.953125 -3.140625 C 6.953125 -1.6875 5.875 -0.65625 4.40625 -0.65625 C 3.59375 -0.65625 2.84375 -0.953125 2.375 -1.46875 C 1.84375 -2.046875 1.515625 -3.015625 1.515625 -4.015625 C 1.515625 -6 2.640625 -7.296875 4.359375 -7.296875 C 5.578125 -7.296875 6.46875 -6.671875 6.6875 -5.625 L 7.75 -5.625 C 7.453125 -7.265625 6.21875 -8.203125 4.359375 -8.203125 C 3.375 -8.203125 2.578125 -7.953125 1.953125 -7.4375 C 1.015625 -6.65625 0.484375 -5.40625 0.484375 -3.953125 C 0.484375 -1.46875 2 0.25 4.1875 0.25 C 5.28125 0.25 6.140625 -0.15625 6.953125 -1.03125 L 7.203125 0.046875 L 7.859375 0.046875 Z M 7.859375 -4.265625 "/>
</g>
<g id="glyph-3-1">
<path d="M 7.328125 -5.578125 C 7.015625 -7.34375 6 -8.203125 4.21875 -8.203125 C 3.140625 -8.203125 2.265625 -7.859375 1.65625 -7.203125 C 0.9375 -6.40625 0.53125 -5.25 0.53125 -3.9375 C 0.53125 -2.609375 0.9375 -1.46875 1.6875 -0.6875 C 2.328125 -0.046875 3.125 0.25 4.171875 0.25 C 6.140625 0.25 7.25 -0.8125 7.5 -2.953125 L 6.4375 -2.953125 C 6.34375 -2.390625 6.234375 -2.015625 6.078125 -1.6875 C 5.734375 -1.03125 5.046875 -0.65625 4.1875 -0.65625 C 2.578125 -0.65625 1.5625 -1.9375 1.5625 -3.953125 C 1.5625 -6.03125 2.53125 -7.296875 4.09375 -7.296875 C 4.75 -7.296875 5.359375 -7.109375 5.6875 -6.796875 C 6 -6.515625 6.15625 -6.1875 6.28125 -5.578125 Z M 7.328125 -5.578125 "/>
</g>
<g id="glyph-3-2">
<path d="M 5.25 -2.421875 L 6.078125 0 L 7.234375 0 L 4.390625 -8.078125 L 3.0625 -8.078125 L 0.1875 0 L 1.28125 0 L 2.140625 -2.421875 Z M 4.96875 -3.296875 L 2.390625 -3.296875 L 3.71875 -6.96875 Z M 4.96875 -3.296875 "/>
</g>
<g id="glyph-3-3">
<path d="M 0.78125 -5.8125 L 0.78125 0 L 1.703125 0 L 1.703125 -3.640625 C 1.703125 -4.484375 2.3125 -5.15625 3.0625 -5.15625 C 3.75 -5.15625 4.140625 -4.734375 4.140625 -4 L 4.140625 0 L 5.078125 0 L 5.078125 -3.640625 C 5.078125 -4.484375 5.6875 -5.15625 6.4375 -5.15625 C 7.109375 -5.15625 7.515625 -4.734375 7.515625 -4 L 7.515625 0 L 8.4375 0 L 8.4375 -4.359375 C 8.4375 -5.390625 7.84375 -5.96875 6.75 -5.96875 C 5.984375 -5.96875 5.515625 -5.734375 4.96875 -5.078125 C 4.625 -5.703125 4.171875 -5.96875 3.40625 -5.96875 C 2.640625 -5.96875 2.109375 -5.6875 1.625 -4.984375 L 1.625 -5.8125 Z M 0.78125 -5.8125 "/>
</g>
<g id="glyph-3-4">
<path d="M 0.984375 0 L 4.09375 0 C 6.140625 0 7.390625 -1.53125 7.390625 -4.046875 C 7.390625 -6.546875 6.140625 -8.078125 4.09375 -8.078125 L 0.984375 -8.078125 Z M 2.015625 -0.90625 L 2.015625 -7.171875 L 3.921875 -7.171875 C 5.515625 -7.171875 6.359375 -6.09375 6.359375 -4.03125 C 6.359375 -1.984375 5.515625 -0.90625 3.921875 -0.90625 Z M 2.015625 -0.90625 "/>
</g>
<g id="glyph-4-0">
<path d="M 2.828125 -0.484375 L 0.75 -0.484375 C 0.796875 -0.828125 0.96875 -1.03125 1.453125 -1.328125 L 2.015625 -1.640625 C 2.578125 -1.953125 2.859375 -2.359375 2.859375 -2.859375 C 2.859375 -3.203125 2.71875 -3.515625 2.484375 -3.734375 C 2.25 -3.9375 1.96875 -4.046875 1.59375 -4.046875 C 1.078125 -4.046875 0.703125 -3.859375 0.5 -3.515625 C 0.359375 -3.3125 0.296875 -3.046875 0.28125 -2.640625 L 0.765625 -2.640625 C 0.78125 -2.921875 0.828125 -3.078125 0.890625 -3.21875 C 1.015625 -3.46875 1.28125 -3.609375 1.578125 -3.609375 C 2.015625 -3.609375 2.359375 -3.296875 2.359375 -2.859375 C 2.359375 -2.53125 2.171875 -2.25 1.8125 -2.046875 L 1.296875 -1.75 C 0.46875 -1.265625 0.234375 -0.890625 0.1875 0 L 2.828125 0 Z M 2.828125 -0.484375 "/>
</g>
<g id="glyph-4-1">
<path d="M 1.453125 -2.875 L 1.453125 0 L 1.9375 0 L 1.9375 -4.046875 L 1.609375 -4.046875 C 1.4375 -3.421875 1.328125 -3.34375 0.578125 -3.234375 L 0.578125 -2.875 Z M 1.453125 -2.875 "/>
</g>
<g id="glyph-4-2">
<path d="M 1.234375 -1.859375 L 1.5 -1.859375 C 2.046875 -1.859375 2.328125 -1.609375 2.328125 -1.125 C 2.328125 -0.609375 2.015625 -0.3125 1.515625 -0.3125 C 0.96875 -0.3125 0.703125 -0.578125 0.671875 -1.171875 L 0.171875 -1.171875 C 0.203125 -0.84375 0.25 -0.640625 0.359375 -0.453125 C 0.5625 -0.0625 0.953125 0.125 1.484375 0.125 C 2.296875 0.125 2.828125 -0.359375 2.828125 -1.125 C 2.828125 -1.640625 2.640625 -1.921875 2.15625 -2.09375 C 2.53125 -2.25 2.71875 -2.515625 2.71875 -2.9375 C 2.71875 -3.625 2.265625 -4.046875 1.5 -4.046875 C 0.703125 -4.046875 0.28125 -3.59375 0.265625 -2.734375 L 0.75 -2.734375 C 0.765625 -2.984375 0.78125 -3.125 0.84375 -3.25 C 0.953125 -3.484375 1.203125 -3.609375 1.515625 -3.609375 C 1.953125 -3.609375 2.203125 -3.34375 2.203125 -2.921875 C 2.203125 -2.625 2.109375 -2.453125 1.890625 -2.359375 C 1.75 -2.296875 1.578125 -2.28125 1.234375 -2.28125 Z M 1.234375 -1.859375 "/>
</g>
<g id="glyph-5-0">
<path d="M 1.453125 -2.75 C 0.671875 -2.75 0.140625 -2.1875 0.140625 -1.328125 C 0.140625 -0.484375 0.671875 0.078125 1.453125 0.078125 C 1.78125 0.078125 2.078125 -0.015625 2.296875 -0.203125 C 2.578125 -0.453125 2.765625 -0.875 2.765625 -1.3125 C 2.765625 -2.1875 2.25 -2.75 1.453125 -2.75 Z M 1.453125 -2.453125 C 2.03125 -2.453125 2.40625 -2.015625 2.40625 -1.3125 C 2.40625 -0.671875 2.015625 -0.21875 1.453125 -0.21875 C 0.875 -0.21875 0.484375 -0.671875 0.484375 -1.328125 C 0.484375 -2 0.875 -2.453125 1.453125 -2.453125 Z M 1.453125 -2.453125 "/>
</g>
<g id="glyph-5-1">
<path d="M 1.453125 -1.390625 L 2.375 -2.71875 L 1.953125 -2.71875 L 1.25 -1.640625 L 0.5625 -2.71875 L 0.140625 -2.71875 L 1.046875 -1.390625 L 0.078125 0 L 0.5 0 L 1.25 -1.125 L 1.984375 0 L 2.40625 0 Z M 1.453125 -1.390625 "/>
</g>
</g>
</defs>
<path fill-rule="nonzero" fill="rgb(0%, 0%, 0%)" fill-opacity="1" d="M 136.714844 105.765625 L 136.714844 88.828125 L 137.613281 88.828125 L 137.613281 105.765625 Z M 136.714844 105.765625 "/>
<path fill-rule="nonzero" fill="rgb(0%, 0%, 0%)" fill-opacity="1" d="M 424.261719 105.765625 L 424.261719 88.828125 L 425.160156 88.828125 L 425.160156 105.765625 Z M 424.261719 105.765625 "/>
<path fill="none" stroke-width="0.111597" stroke-linecap="round" stroke-linejoin="miter" stroke="rgb(0%, 0%, 0%)" stroke-opacity="1" stroke-miterlimit="10" d="M 17.461375 -24.979352 L 117.455356 -24.979352 " transform="matrix(4.234122, 0, 0, -4.234122, 0, 0)"/>
<path fill="none" stroke-width="0.111597" stroke-linecap="round" stroke-linejoin="miter" stroke="rgb(0%, 0%, 0%)" stroke-opacity="1" stroke-miterlimit="10" d="M 17.461375 -23.979292 L 117.455356 -23.979292 " transform="matrix(4.234122, 0, 0, -4.234122, 0, 0)"/>
<path fill="none" stroke-width="0.111597" stroke-linecap="round" stroke-linejoin="miter" stroke="rgb(0%, 0%, 0%)" stroke-opacity="1" stroke-miterlimit="10" d="M 17.461375 -22.979233 L 117.455356 -22.979233 " transform="matrix(4.234122, 0, 0, -4.234122, 0, 0)"/>
<path fill="none" stroke-width="0.111597" stroke-linecap="round" stroke-linejoin="miter" stroke="rgb(0%, 0%, 0%)" stroke-opacity="1" stroke-miterlimit="10" d="M 17.461375 -21.979173 L 117.455356 -21.979173 " transform="matrix(4.234122, 0, 0, -4.234122, 0, 0)"/>
<path fill="none" stroke-width="0.111597" stroke-linecap="round" stroke-linejoin="miter" stroke="rgb(0%, 0%, 0%)" stroke-opacity="1" stroke-miterlimit="10" d="M 17.461375 -20.979113 L 117.455356 -20.979113 " transform="matrix(4.234122, 0, 0, -4.234122, 0, 0)"/>
<path fill-rule="nonzero" fill="rgb(0%, 0%, 0%)" fill-opacity="1" d="M 315.460938 105.765625 L 315.460938 88.828125 L 316.359375 88.828125 L 316.359375 105.765625 Z M 315.460938 105.765625 "/>
<path fill-rule="nonzero" fill="rgb(0%, 0%, 0%)" fill-opacity="1" d="M 229.578125 105.765625 L 229.578125 88.828125 L 230.476562 88.828125 L 230.476562 105.765625 Z M 229.578125 105.765625 "/>
<path fill-rule="nonzero" fill="rgb(0%, 0%, 0%)" fill-opacity="1" d="M 300.183594 105.003906 C 300.292969 105.003906 300.382812 104.914062 300.382812 104.804688 L 300.382812 91.144531 C 300.382812 91.03125 300.292969 90.945312 300.183594 90.945312 L 299.96875 90.945312 C 299.859375 90.945312 299.769531 91.03125 299.769531 91.144531 L 299.769531 104.804688 C 299.769531 104.914062 299.859375 105.003906 299.96875 105.003906 Z M 300.183594 105.003906 "/>
<g fill="rgb(0%, 0%, 0%)" fill-opacity="1">
<use xlink:href="#glyph-0-0" x="116.21875" y="107.882812"/>
</g>
<g fill="rgb(0%, 0%, 0%)" fill-opacity="1">
<use xlink:href="#glyph-0-1" x="77.089844" y="101.53125"/>
</g>
<g fill="rgb(0%, 0%, 0%)" fill-opacity="1">
<use xlink:href="#glyph-0-2" x="91.421875" y="88.828125"/>
</g>
<g fill="rgb(0%, 0%, 0%)" fill-opacity="1">
<use xlink:href="#glyph-1-0" x="100.949219" y="97.296875"/>
</g>
<g fill="rgb(0%, 0%, 0%)" fill-opacity="1">
<use xlink:href="#glyph-1-0" x="100.949219" y="105.765625"/>
</g>
<g fill="rgb(0%, 0%, 0%)" fill-opacity="1">
<use xlink:href="#glyph-2-0" x="111.410156" y="121.503906"/>
<use xlink:href="#glyph-2-1" x="120.934566" y="121.503906"/>
</g>
<path fill-rule="nonzero" fill="rgb(0%, 0%, 0%)" fill-opacity="1" d="M 121.535156 107.121094 C 121.644531 107.121094 121.734375 107.03125 121.734375 106.921875 L 121.734375 93.261719 C 121.734375 93.148438 121.644531 93.0625 121.535156 93.0625 L 121.320312 93.0625 C 121.210938 93.0625 121.121094 93.148438 121.121094 93.261719 L 121.121094 106.921875 C 121.121094 107.03125 121.210938 107.121094 121.320312 107.121094 Z M 121.535156 107.121094 "/>
<g fill="rgb(0%, 0%, 0%)" fill-opacity="1">
<use xlink:href="#glyph-3-0" x="143.246094" y="47.09375"/>
</g>
<path fill-rule="nonzero" fill="rgb(0%, 0%, 0%)" fill-opacity="1" d="M 158.679688 75.039062 C 158.746094 75.039062 158.796875 74.988281 158.796875 74.921875 L 158.796875 53.75 C 158.796875 53.6875 158.746094 53.632812 158.679688 53.632812 C 158.613281 53.632812 158.5625 53.6875 158.5625 53.75 L 158.5625 74.921875 C 158.5625 74.988281 158.613281 75.039062 158.679688 75.039062 Z M 158.679688 75.039062 "/>
<path fill-rule="nonzero" fill="rgb(0%, 0%, 0%)" fill-opacity="1" d="M 154.445312 75.039062 C 154.511719 75.039062 154.5625 74.988281 154.5625 74.921875 L 154.5625 53.75 C 154.5625 53.6875 154.511719 53.632812 154.445312 53.632812 C 154.378906 53.632812 154.328125 53.6875 154.328125 53.75 L 154.328125 74.921875 C 154.328125 74.988281 154.378906 75.039062 154.445312 75.039062 Z M 154.445312 75.039062 "/>
<path fill-rule="nonzero" fill="rgb(0%, 0%, 0%)" fill-opacity="1" d="M 150.210938 75.039062 C 150.277344 75.039062 150.328125 74.988281 150.328125 74.921875 L 150.328125 53.75 C 150.328125 53.6875 150.277344 53.632812 150.210938 53.632812 C 150.144531 53.632812 150.09375 53.6875 150.09375 53.75 L 150.09375 74.921875 C 150.09375 74.988281 150.144531 75.039062 150.210938 75.039062 Z M 150.210938 75.039062 "/>
<path fill-rule="nonzero" fill="rgb(0%, 0%, 0%)" fill-opacity="1" d="M 145.976562 75.039062 C 146.042969 75.039062 146.09375 74.988281 146.09375 74.921875 L 146.09375 53.75 C 146.09375 53.6875 146.042969 53.632812 145.976562 53.632812 C 145.910156 53.632812 145.859375 53.6875 145.859375 53.75 L 145.859375 74.921875 C 145.859375 74.988281 145.910156 75.039062 145.976562 75.039062 Z M 145.976562 75.039062 "/>
<path fill-rule="nonzero" fill="rgb(0%, 0%, 0%)" fill-opacity="1" d="M 141.742188 75.039062 C 141.808594 75.039062 141.859375 74.988281 141.859375 74.921875 L 141.859375 53.75 C 141.859375 53.6875 141.808594 53.632812 141.742188 53.632812 C 141.675781 53.632812 141.625 53.6875 141.625 53.75 L 141.625 74.921875 C 141.625 74.988281 141.675781 75.039062 141.742188 75.039062 Z M 141.742188 75.039062 "/>
<path fill-rule="nonzero" fill="rgb(0%, 0%, 0%)" fill-opacity="1" d="M 137.507812 75.039062 C 137.574219 75.039062 137.625 74.988281 137.625 74.921875 L 137.625 53.75 C 137.625 53.6875 137.574219 53.632812 137.507812 53.632812 C 137.441406 53.632812 137.390625 53.6875 137.390625 53.75 L 137.390625 74.921875 C 137.390625 74.988281 137.441406 75.039062 137.507812 75.039062 Z M 137.507812 75.039062 "/>
<path fill="none" stroke-width="0.0557983" stroke-linecap="round" stroke-linejoin="miter" stroke="rgb(0%, 0%, 0%)" stroke-opacity="1" stroke-miterlimit="10" d="M 32.47611 -12.694485 L 37.476409 -12.694485 " transform="matrix(4.234122, 0, 0, -4.234122, 0, 0)"/>
<path fill="none" stroke-width="0.0557983" stroke-linecap="round" stroke-linejoin="miter" stroke="rgb(0%, 0%, 0%)" stroke-opacity="1" stroke-miterlimit="10" d="M 32.47611 -13.694545 L 37.476409 -13.694545 " transform="matrix(4.234122, 0, 0, -4.234122, 0, 0)"/>
<path fill="none" stroke-width="0.0557983" stroke-linecap="round" stroke-linejoin="miter" stroke="rgb(0%, 0%, 0%)" stroke-opacity="1" stroke-miterlimit="10" d="M 32.47611 -14.694605 L 37.476409 -14.694605 " transform="matrix(4.234122, 0, 0, -4.234122, 0, 0)"/>
<path fill="none" stroke-width="0.0557983" stroke-linecap="round" stroke-linejoin="miter" stroke="rgb(0%, 0%, 0%)" stroke-opacity="1" stroke-miterlimit="10" d="M 32.47611 -15.694665 L 37.476409 -15.694665 " transform="matrix(4.234122, 0, 0, -4.234122, 0, 0)"/>
<path fill="none" stroke-width="0.0557983" stroke-linecap="round" stroke-linejoin="miter" stroke="rgb(0%, 0%, 0%)" stroke-opacity="1" stroke-miterlimit="10" d="M 32.47611 -16.694724 L 37.476409 -16.694724 " transform="matrix(4.234122, 0, 0, -4.234122, 0, 0)"/>
<path fill="none" stroke-width="0.0557983" stroke-linecap="round" stroke-linejoin="miter" stroke="rgb(0%, 0%, 0%)" stroke-opacity="1" stroke-miterlimit="10" d="M 32.726125 -15.295194 C 32.726125 -14.962148 32.226095 -14.962148 32.226095 -15.295194 C 32.226095 -15.62824 32.726125 -15.62824 32.726125 -15.295194 " transform="matrix(4.234122, 0, 0, -4.234122, 0, 0)"/>
<path fill-rule="nonzero" fill="rgb(0%, 0%, 0%)" fill-opacity="1" d="M 138.566406 64.761719 C 138.566406 63.351562 136.449219 63.351562 136.449219 64.761719 C 136.449219 66.171875 138.566406 66.171875 138.566406 64.761719 "/>
<g fill="rgb(0%, 0%, 0%)" fill-opacity="1">
<use xlink:href="#glyph-4-0" x="135.976562" y="80.234375"/>
</g>
<path fill="none" stroke-width="0.0557983" stroke-linecap="round" stroke-linejoin="miter" stroke="rgb(0%, 0%, 0%)" stroke-opacity="1" stroke-miterlimit="10" d="M 33.726185 -14.295134 C 33.726185 -13.962089 33.226155 -13.962089 33.226155 -14.295134 C 33.226155 -14.62818 33.726185 -14.62818 33.726185 -14.295134 " transform="matrix(4.234122, 0, 0, -4.234122, 0, 0)"/>
<path fill-rule="nonzero" fill="rgb(0%, 0%, 0%)" fill-opacity="1" d="M 142.800781 60.527344 C 142.800781 59.117188 140.683594 59.117188 140.683594 60.527344 C 140.683594 61.9375 142.800781 61.9375 142.800781 60.527344 "/>
<g fill="rgb(0%, 0%, 0%)" fill-opacity="1">
<use xlink:href="#glyph-4-1" x="140.210937" y="80.234375"/>
</g>
<path fill="none" stroke-width="0.0557983" stroke-linecap="round" stroke-linejoin="miter" stroke="rgb(0%, 0%, 0%)" stroke-opacity="1" stroke-miterlimit="10" d="M 37.725501 -15.295194 C 37.725501 -14.962148 37.225471 -14.962148 37.225471 -15.295194 C 37.225471 -15.62824 37.725501 -15.62824 37.725501 -15.295194 " transform="matrix(4.234122, 0, 0, -4.234122, 0, 0)"/>
<path fill-rule="nonzero" fill="rgb(0%, 0%, 0%)" fill-opacity="1" d="M 159.734375 64.761719 C 159.734375 63.351562 157.617188 63.351562 157.617188 64.761719 C 157.617188 66.171875 159.734375 66.171875 159.734375 64.761719 "/>
<g fill="rgb(0%, 0%, 0%)" fill-opacity="1">
<use xlink:href="#glyph-4-2" x="157.144531" y="80.234375"/>
</g>
<path fill-rule="nonzero" fill="rgb(0%, 0%, 0%)" fill-opacity="1" d="M 158.679688 53.867188 C 158.742188 53.867188 158.796875 53.816406 158.796875 53.75 L 158.796875 53.277344 C 158.796875 53.210938 158.742188 53.160156 158.679688 53.160156 L 137.507812 53.160156 C 137.441406 53.160156 137.390625 53.210938 137.390625 53.277344 L 137.390625 53.75 C 137.390625 53.816406 137.441406 53.867188 137.507812 53.867188 Z M 158.679688 53.867188 "/>
<g fill="rgb(0%, 0%, 0%)" fill-opacity="1">
<use xlink:href="#glyph-5-0" x="144.527344" y="52.226562"/>
</g>
<g fill="rgb(0%, 0%, 0%)" fill-opacity="1">
<use xlink:href="#glyph-5-0" x="148.761719" y="52.226562"/>
</g>
<g fill="rgb(0%, 0%, 0%)" fill-opacity="1">
<use xlink:href="#glyph-5-0" x="152.996094" y="52.226562"/>
</g>
<g fill="rgb(0%, 0%, 0%)" fill-opacity="1">
<use xlink:href="#glyph-0-0" x="143.246094" y="101.53125"/>
</g>
<g fill="rgb(0%, 0%, 0%)" fill-opacity="1">
<use xlink:href="#glyph-2-2" x="135.96875" y="121.503906"/>
<use xlink:href="#glyph-2-1" x="140.901033" y="121.503906"/>
<use xlink:href="#glyph-2-2" x="146.173474" y="121.503906"/>
<use xlink:href="#glyph-2-3" x="151.275837" y="121.503906"/>
</g>
<path fill-rule="nonzero" fill="rgb(0%, 0%, 0%)" fill-opacity="1" d="M 148.558594 100.773438 C 148.667969 100.773438 148.757812 100.683594 148.757812 100.574219 L 148.757812 86.914062 C 148.757812 86.800781 148.667969 86.714844 148.558594 86.714844 L 148.34375 86.714844 C 148.234375 86.714844 148.144531 86.800781 148.144531 86.914062 L 148.144531 100.574219 C 148.144531 100.683594 148.234375 100.773438 148.34375 100.773438 Z M 148.558594 100.773438 "/>
<path fill="none" stroke-width="0.0941176" stroke-linecap="butt" stroke-linejoin="round" stroke="rgb(0%, 0%, 0%)" stroke-opacity="1" stroke-miterlimit="10" d="M 84.85839 -25.970186 L 84.85839 -26.355818 L 80.811101 -25.987715 L 80.811101 -25.602083 Z M 84.85839 -25.970186 " transform="matrix(4.234122, 0, 0, -4.234122, 0, 0)"/>
<path fill-rule="nonzero" fill="rgb(0%, 0%, 0%)" fill-opacity="1" d="M 359.300781 109.960938 L 359.300781 111.59375 L 342.164062 110.035156 L 342.164062 108.402344 Z M 359.300781 109.960938 "/>
<g fill="rgb(0%, 0%, 0%)" fill-opacity="1">
<use xlink:href="#glyph-0-0" x="163.890625" y="97.296875"/>
</g>
<g fill="rgb(0%, 0%, 0%)" fill-opacity="1">
<use xlink:href="#glyph-2-4" x="163.890625" y="121.503906"/>
<use xlink:href="#glyph-2-5" x="169.673302" y="121.503906"/>
<use xlink:href="#glyph-2-2" x="174.265428" y="121.503906"/>
</g>
<path fill-rule="nonzero" fill="rgb(0%, 0%, 0%)" fill-opacity="1" d="M 169.203125 96.539062 C 169.3125 96.539062 169.402344 96.449219 169.402344 96.339844 L 169.402344 84.050781 C 169.402344 83.941406 169.3125 83.851562 169.203125 83.851562 L 168.988281 83.851562 C 168.878906 83.851562 168.789062 83.941406 168.789062 84.050781 L 168.789062 96.339844 C 168.789062 96.449219 168.878906 96.539062 168.988281 96.539062 Z M 169.203125 96.539062 "/>
<g fill="rgb(0%, 0%, 0%)" fill-opacity="1">
<use xlink:href="#glyph-0-0" x="176.644531" y="99.414062"/>
</g>
<path fill-rule="nonzero" fill="rgb(0%, 0%, 0%)" fill-opacity="1" d="M 181.960938 98.65625 C 182.070312 98.65625 182.160156 98.566406 182.160156 98.457031 L 182.160156 85.539062 C 182.160156 85.429688 182.070312 85.339844 181.960938 85.339844 L 181.746094 85.339844 C 181.636719 85.339844 181.546875 85.429688 181.546875 85.539062 L 181.546875 98.457031 C 181.546875 98.566406 181.636719 98.65625 181.746094 98.65625 Z M 181.960938 98.65625 "/>
<path fill-rule="nonzero" fill="rgb(0%, 0%, 0%)" fill-opacity="1" d="M 358.992188 121.503906 C 359.074219 121.503906 359.144531 121.433594 359.144531 121.351562 L 359.144531 121.277344 C 359.144531 121.191406 359.074219 121.125 358.992188 121.125 L 358.144531 121.125 C 358.0625 121.125 357.992188 121.191406 357.992188 121.277344 L 357.992188 121.351562 C 357.992188 121.433594 358.0625 121.503906 358.144531 121.503906 Z M 358.992188 121.503906 "/>
<g fill="rgb(0%, 0%, 0%)" fill-opacity="1">
<use xlink:href="#glyph-0-0" x="189.398438" y="101.53125"/>
</g>
<g fill="rgb(0%, 0%, 0%)" fill-opacity="1">
<use xlink:href="#glyph-2-6" x="181.441406" y="121.503906"/>
<use xlink:href="#glyph-2-7" x="187.394162" y="121.503906"/>
<use xlink:href="#glyph-2-8" x="190.625658" y="121.503906"/>
<use xlink:href="#glyph-2-9" x="199.979989" y="121.503906"/>
</g>
<path fill-rule="nonzero" fill="rgb(0%, 0%, 0%)" fill-opacity="1" d="M 194.714844 100.773438 C 194.824219 100.773438 194.914062 100.683594 194.914062 100.574219 L 194.914062 86.914062 C 194.914062 86.800781 194.824219 86.714844 194.714844 86.714844 L 194.5 86.714844 C 194.390625 86.714844 194.300781 86.800781 194.300781 86.914062 L 194.300781 100.574219 C 194.300781 100.683594 194.390625 100.773438 194.5 100.773438 Z M 194.714844 100.773438 "/>
<path fill="none" stroke-width="0.0892773" stroke-linecap="round" stroke-linejoin="round" stroke="rgb(0%, 0%, 0%)" stroke-opacity="1" stroke-miterlimit="10" d="M 0.689156 1.638474 C 1.743647 2.803673 3.791739 2.623773 4.685704 1.288822 C 3.779746 2.490924 1.731653 2.669901 0.689156 1.638474 Z M 0.689156 1.638474 " transform="matrix(4.234122, 0, 0, -4.234122, 341.964844, 97.296875)"/>
<path fill-rule="nonzero" fill="rgb(0%, 0%, 0%)" fill-opacity="1" d="M 344.882812 90.359375 C 349.347656 85.425781 358.019531 86.1875 361.804688 91.839844 C 357.96875 86.75 349.296875 85.992188 344.882812 90.359375 Z M 344.882812 90.359375 "/>
<g fill="rgb(0%, 0%, 0%)" fill-opacity="1">
<use xlink:href="#glyph-0-0" x="208.984375" y="103.648438"/>
</g>
<g fill="rgb(0%, 0%, 0%)" fill-opacity="1">
<use xlink:href="#glyph-2-10" x="209.617188" y="121.503906"/>
</g>
<path fill-rule="nonzero" fill="rgb(0%, 0%, 0%)" fill-opacity="1" d="M 214.300781 102.886719 C 214.410156 102.886719 214.5 102.796875 214.5 102.6875 L 214.5 89.027344 C 214.5 88.914062 214.410156 88.828125 214.300781 88.828125 L 214.085938 88.828125 C 213.976562 88.828125 213.886719 88.914062 213.886719 89.027344 L 213.886719 102.6875 C 213.886719 102.796875 213.976562 102.886719 214.085938 102.886719 Z M 214.300781 102.886719 "/>
<g fill="rgb(0%, 0%, 0%)" fill-opacity="1">
<use xlink:href="#glyph-3-1" x="236.109375" y="47.09375"/>
</g>
<path fill-rule="nonzero" fill="rgb(0%, 0%, 0%)" fill-opacity="1" d="M 251.390625 75.039062 C 251.457031 75.039062 251.507812 74.988281 251.507812 74.921875 L 251.507812 53.75 C 251.507812 53.6875 251.457031 53.632812 251.390625 53.632812 C 251.324219 53.632812 251.273438 53.6875 251.273438 53.75 L 251.273438 74.921875 C 251.273438 74.988281 251.324219 75.039062 251.390625 75.039062 Z M 251.390625 75.039062 "/>
<path fill-rule="nonzero" fill="rgb(0%, 0%, 0%)" fill-opacity="1" d="M 247.15625 75.039062 C 247.222656 75.039062 247.273438 74.988281 247.273438 74.921875 L 247.273438 53.75 C 247.273438 53.6875 247.222656 53.632812 247.15625 53.632812 C 247.089844 53.632812 247.039062 53.6875 247.039062 53.75 L 247.039062 74.921875 C 247.039062 74.988281 247.089844 75.039062 247.15625 75.039062 Z M 247.15625 75.039062 "/>
<path fill-rule="nonzero" fill="rgb(0%, 0%, 0%)" fill-opacity="1" d="M 242.921875 75.039062 C 242.988281 75.039062 243.039062 74.988281 243.039062 74.921875 L 243.039062 53.75 C 243.039062 53.6875 242.988281 53.632812 242.921875 53.632812 C 242.855469 53.632812 242.804688 53.6875 242.804688 53.75 L 242.804688 74.921875 C 242.804688 74.988281 242.855469 75.039062 242.921875 75.039062 Z M 242.921875 75.039062 "/>
<path fill-rule="nonzero" fill="rgb(0%, 0%, 0%)" fill-opacity="1" d="M 238.6875 75.039062 C 238.753906 75.039062 238.804688 74.988281 238.804688 74.921875 L 238.804688 53.75 C 238.804688 53.6875 238.753906 53.632812 238.6875 53.632812 C 238.621094 53.632812 238.570312 53.6875 238.570312 53.75 L 238.570312 74.921875 C 238.570312 74.988281 238.621094 75.039062 238.6875 75.039062 Z M 238.6875 75.039062 "/>
<path fill-rule="nonzero" fill="rgb(0%, 0%, 0%)" fill-opacity="1" d="M 234.453125 75.039062 C 234.519531 75.039062 234.570312 74.988281 234.570312 74.921875 L 234.570312 53.75 C 234.570312 53.6875 234.519531 53.632812 234.453125 53.632812 C 234.386719 53.632812 234.335938 53.6875 234.335938 53.75 L 234.335938 74.921875 C 234.335938 74.988281 234.386719 75.039062 234.453125 75.039062 Z M 234.453125 75.039062 "/>
<path fill-rule="nonzero" fill="rgb(0%, 0%, 0%)" fill-opacity="1" d="M 230.21875 75.039062 C 230.285156 75.039062 230.335938 74.988281 230.335938 74.921875 L 230.335938 53.75 C 230.335938 53.6875 230.285156 53.632812 230.21875 53.632812 C 230.152344 53.632812 230.101562 53.6875 230.101562 53.75 L 230.101562 74.921875 C 230.101562 74.988281 230.152344 75.039062 230.21875 75.039062 Z M 230.21875 75.039062 "/>
<path fill="none" stroke-width="0.0557983" stroke-linecap="round" stroke-linejoin="round" stroke="rgb(0%, 0%, 0%)" stroke-opacity="1" stroke-miterlimit="10" d="M 54.372252 -12.694485 L 59.372551 -12.694485 " transform="matrix(4.234122, 0, 0, -4.234122, 0, 0)"/>
<path fill="none" stroke-width="0.0557983" stroke-linecap="round" stroke-linejoin="round" stroke="rgb(0%, 0%, 0%)" stroke-opacity="1" stroke-miterlimit="10" d="M 54.372252 -13.694545 L 59.372551 -13.694545 " transform="matrix(4.234122, 0, 0, -4.234122, 0, 0)"/>
<path fill="none" stroke-width="0.0557983" stroke-linecap="round" stroke-linejoin="round" stroke="rgb(0%, 0%, 0%)" stroke-opacity="1" stroke-miterlimit="10" d="M 54.372252 -14.694605 L 59.372551 -14.694605 " transform="matrix(4.234122, 0, 0, -4.234122, 0, 0)"/>
<path fill="none" stroke-width="0.0557983" stroke-linecap="round" stroke-linejoin="round" stroke="rgb(0%, 0%, 0%)" stroke-opacity="1" stroke-miterlimit="10" d="M 54.372252 -15.694665 L 59.372551 -15.694665 " transform="matrix(4.234122, 0, 0, -4.234122, 0, 0)"/>
<path fill="none" stroke-width="0.0557983" stroke-linecap="round" stroke-linejoin="round" stroke="rgb(0%, 0%, 0%)" stroke-opacity="1" stroke-miterlimit="10" d="M 54.372252 -16.694724 L 59.372551 -16.694724 " transform="matrix(4.234122, 0, 0, -4.234122, 0, 0)"/>
<path fill="none" stroke-width="0.0557983" stroke-linecap="round" stroke-linejoin="round" stroke="rgb(0%, 0%, 0%)" stroke-opacity="1" stroke-miterlimit="10" d="M 55.622327 -15.295194 C 55.622327 -14.962148 55.122297 -14.962148 55.122297 -15.295194 C 55.122297 -15.62824 55.622327 -15.62824 55.622327 -15.295194 " transform="matrix(4.234122, 0, 0, -4.234122, 0, 0)"/>
<path fill-rule="nonzero" fill="rgb(0%, 0%, 0%)" fill-opacity="1" d="M 235.511719 64.761719 C 235.511719 63.351562 233.394531 63.351562 233.394531 64.761719 C 233.394531 66.171875 235.511719 66.171875 235.511719 64.761719 "/>
<g fill="rgb(0%, 0%, 0%)" fill-opacity="1">
<use xlink:href="#glyph-4-2" x="232.921875" y="80.234375"/>
</g>
<path fill="none" stroke-width="0.0557983" stroke-linecap="round" stroke-linejoin="round" stroke="rgb(0%, 0%, 0%)" stroke-opacity="1" stroke-miterlimit="10" d="M 56.621464 -14.295134 C 56.621464 -13.962089 56.121434 -13.962089 56.121434 -14.295134 C 56.121434 -14.62818 56.621464 -14.62818 56.621464 -14.295134 " transform="matrix(4.234122, 0, 0, -4.234122, 0, 0)"/>
<path fill-rule="nonzero" fill="rgb(0%, 0%, 0%)" fill-opacity="1" d="M 239.742188 60.527344 C 239.742188 59.117188 237.625 59.117188 237.625 60.527344 C 237.625 61.9375 239.742188 61.9375 239.742188 60.527344 "/>
<g fill="rgb(0%, 0%, 0%)" fill-opacity="1">
<use xlink:href="#glyph-4-0" x="237.15625" y="80.234375"/>
</g>
<path fill="none" stroke-width="0.0557983" stroke-linecap="round" stroke-linejoin="round" stroke="rgb(0%, 0%, 0%)" stroke-opacity="1" stroke-miterlimit="10" d="M 58.621583 -13.295075 C 58.621583 -12.962029 58.121553 -12.962029 58.121553 -13.295075 C 58.121553 -13.62812 58.621583 -13.62812 58.621583 -13.295075 " transform="matrix(4.234122, 0, 0, -4.234122, 0, 0)"/>
<path fill-rule="nonzero" fill="rgb(0%, 0%, 0%)" fill-opacity="1" d="M 248.210938 56.292969 C 248.210938 54.882812 246.09375 54.882812 246.09375 56.292969 C 246.09375 57.703125 248.210938 57.703125 248.210938 56.292969 "/>
<g fill="rgb(0%, 0%, 0%)" fill-opacity="1">
<use xlink:href="#glyph-4-1" x="245.621094" y="80.234375"/>
</g>
<path fill-rule="nonzero" fill="rgb(0%, 0%, 0%)" fill-opacity="1" d="M 251.390625 53.867188 C 251.453125 53.867188 251.507812 53.816406 251.507812 53.75 L 251.507812 53.277344 C 251.507812 53.210938 251.453125 53.160156 251.390625 53.160156 L 230.21875 53.160156 C 230.152344 53.160156 230.101562 53.210938 230.101562 53.277344 L 230.101562 53.75 C 230.101562 53.816406 230.152344 53.867188 230.21875 53.867188 Z M 251.390625 53.867188 "/>
<g fill="rgb(0%, 0%, 0%)" fill-opacity="1">
<use xlink:href="#glyph-5-1" x="228.941406" y="52.25"/>
</g>
<g fill="rgb(0%, 0%, 0%)" fill-opacity="1">
<use xlink:href="#glyph-5-0" x="241.472656" y="52.226562"/>
</g>
<g fill="rgb(0%, 0%, 0%)" fill-opacity="1">
<use xlink:href="#glyph-5-0" x="249.941406" y="52.226562"/>
</g>
<g fill="rgb(0%, 0%, 0%)" fill-opacity="1">
<use xlink:href="#glyph-0-0" x="236.109375" y="105.765625"/>
</g>
<g fill="rgb(0%, 0%, 0%)" fill-opacity="1">
<use xlink:href="#glyph-2-11" x="230.449219" y="121.503906"/>
<use xlink:href="#glyph-2-4" x="235.041345" y="121.503906"/>
<use xlink:href="#glyph-2-12" x="240.824022" y="121.503906"/>
</g>
<path fill-rule="nonzero" fill="rgb(0%, 0%, 0%)" fill-opacity="1" d="M 241.421875 105.003906 C 241.53125 105.003906 241.621094 104.914062 241.621094 104.804688 L 241.621094 91.144531 C 241.621094 91.03125 241.53125 90.945312 241.421875 90.945312 L 241.207031 90.945312 C 241.097656 90.945312 241.007812 91.03125 241.007812 91.144531 L 241.007812 104.804688 C 241.007812 104.914062 241.097656 105.003906 241.207031 105.003906 Z M 241.421875 105.003906 "/>
<g fill="rgb(0%, 0%, 0%)" fill-opacity="1">
<use xlink:href="#glyph-0-0" x="255.695312" y="105.765625"/>
</g>
<g fill="rgb(0%, 0%, 0%)" fill-opacity="1">
<use xlink:href="#glyph-2-12" x="250.628906" y="121.503906"/>
<use xlink:href="#glyph-2-13" x="257.091898" y="121.503906"/>
<use xlink:href="#glyph-2-14" x="262.194261" y="121.503906"/>
</g>
<path fill-rule="nonzero" fill="rgb(0%, 0%, 0%)" fill-opacity="1" d="M 261.011719 105.003906 C 261.121094 105.003906 261.210938 104.914062 261.210938 104.804688 L 261.210938 91.144531 C 261.210938 91.03125 261.121094 90.945312 261.011719 90.945312 L 260.796875 90.945312 C 260.6875 90.945312 260.597656 91.03125 260.597656 91.144531 L 260.597656 104.804688 C 260.597656 104.914062 260.6875 105.003906 260.796875 105.003906 Z M 261.011719 105.003906 "/>
<g fill="rgb(0%, 0%, 0%)" fill-opacity="1">
<use xlink:href="#glyph-0-0" x="275.28125" y="105.765625"/>
</g>
<g fill="rgb(0%, 0%, 0%)" fill-opacity="1">
<use xlink:href="#glyph-2-3" x="269.027344" y="121.503906"/>
<use xlink:href="#glyph-2-2" x="273.789548" y="121.503906"/>
<use xlink:href="#glyph-2-2" x="279.061989" y="121.503906"/>
<use xlink:href="#glyph-2-9" x="284.164352" y="121.503906"/>
</g>
<path fill-rule="nonzero" fill="rgb(0%, 0%, 0%)" fill-opacity="1" d="M 280.597656 105.003906 C 280.707031 105.003906 280.796875 104.914062 280.796875 104.804688 L 280.796875 91.144531 C 280.796875 91.03125 280.707031 90.945312 280.597656 90.945312 L 280.382812 90.945312 C 280.273438 90.945312 280.183594 91.03125 280.183594 91.144531 L 280.183594 104.804688 C 280.183594 104.914062 280.273438 105.003906 280.382812 105.003906 Z M 280.597656 105.003906 "/>
<path fill-rule="nonzero" fill="rgb(0%, 0%, 0%)" fill-opacity="1" d="M 250.144531 119.722656 C 250.246094 119.722656 250.332031 119.640625 250.332031 119.535156 L 250.332031 119.300781 C 250.332031 119.195312 250.246094 119.109375 250.144531 119.109375 L 247.769531 119.109375 C 247.664062 119.109375 247.582031 119.195312 247.582031 119.300781 L 247.582031 119.535156 C 247.582031 119.640625 247.664062 119.722656 247.769531 119.722656 Z M 250.144531 119.722656 "/>
<g fill="rgb(0%, 0%, 0%)" fill-opacity="1">
<use xlink:href="#glyph-0-0" x="294.867188" y="105.765625"/>
</g>
<g fill="rgb(0%, 0%, 0%)" fill-opacity="1">
<use xlink:href="#glyph-2-10" x="295.5" y="121.503906"/>
</g>
<g fill="rgb(0%, 0%, 0%)" fill-opacity="1">
<use xlink:href="#glyph-3-2" x="321.992187" y="47.09375"/>
</g>
<g fill="rgb(0%, 0%, 0%)" fill-opacity="1">
<use xlink:href="#glyph-3-3" x="329.304687" y="47.09375"/>
</g>
<path fill-rule="nonzero" fill="rgb(0%, 0%, 0%)" fill-opacity="1" d="M 337.273438 75.039062 C 337.339844 75.039062 337.390625 74.988281 337.390625 74.921875 L 337.390625 53.75 C 337.390625 53.6875 337.339844 53.632812 337.273438 53.632812 C 337.207031 53.632812 337.15625 53.6875 337.15625 53.75 L 337.15625 74.921875 C 337.15625 74.988281 337.207031 75.039062 337.273438 75.039062 Z M 337.273438 75.039062 "/>
<path fill-rule="nonzero" fill="rgb(0%, 0%, 0%)" fill-opacity="1" d="M 333.039062 75.039062 C 333.105469 75.039062 333.15625 74.988281 333.15625 74.921875 L 333.15625 53.75 C 333.15625 53.6875 333.105469 53.632812 333.039062 53.632812 C 332.972656 53.632812 332.921875 53.6875 332.921875 53.75 L 332.921875 74.921875 C 332.921875 74.988281 332.972656 75.039062 333.039062 75.039062 Z M 333.039062 75.039062 "/>
<path fill-rule="nonzero" fill="rgb(0%, 0%, 0%)" fill-opacity="1" d="M 328.804688 75.039062 C 328.871094 75.039062 328.921875 74.988281 328.921875 74.921875 L 328.921875 53.75 C 328.921875 53.6875 328.871094 53.632812 328.804688 53.632812 C 328.738281 53.632812 328.6875 53.6875 328.6875 53.75 L 328.6875 74.921875 C 328.6875 74.988281 328.738281 75.039062 328.804688 75.039062 Z M 328.804688 75.039062 "/>
<path fill-rule="nonzero" fill="rgb(0%, 0%, 0%)" fill-opacity="1" d="M 324.570312 75.039062 C 324.636719 75.039062 324.6875 74.988281 324.6875 74.921875 L 324.6875 53.75 C 324.6875 53.6875 324.636719 53.632812 324.570312 53.632812 C 324.503906 53.632812 324.453125 53.6875 324.453125 53.75 L 324.453125 74.921875 C 324.453125 74.988281 324.503906 75.039062 324.570312 75.039062 Z M 324.570312 75.039062 "/>
<path fill-rule="nonzero" fill="rgb(0%, 0%, 0%)" fill-opacity="1" d="M 320.335938 75.039062 C 320.402344 75.039062 320.453125 74.988281 320.453125 74.921875 L 320.453125 53.75 C 320.453125 53.6875 320.402344 53.632812 320.335938 53.632812 C 320.269531 53.632812 320.21875 53.6875 320.21875 53.75 L 320.21875 74.921875 C 320.21875 74.988281 320.269531 75.039062 320.335938 75.039062 Z M 320.335938 75.039062 "/>
<path fill-rule="nonzero" fill="rgb(0%, 0%, 0%)" fill-opacity="1" d="M 316.101562 75.039062 C 316.167969 75.039062 316.21875 74.988281 316.21875 74.921875 L 316.21875 53.75 C 316.21875 53.6875 316.167969 53.632812 316.101562 53.632812 C 316.035156 53.632812 315.984375 53.6875 315.984375 53.75 L 315.984375 74.921875 C 315.984375 74.988281 316.035156 75.039062 316.101562 75.039062 Z M 316.101562 75.039062 "/>
<path fill="none" stroke-width="0.0557983" stroke-linecap="round" stroke-linejoin="round" stroke="rgb(0%, 0%, 0%)" stroke-opacity="1" stroke-miterlimit="10" d="M 74.655751 -12.694485 L 79.65605 -12.694485 " transform="matrix(4.234122, 0, 0, -4.234122, 0, 0)"/>
<path fill="none" stroke-width="0.0557983" stroke-linecap="round" stroke-linejoin="round" stroke="rgb(0%, 0%, 0%)" stroke-opacity="1" stroke-miterlimit="10" d="M 74.655751 -13.694545 L 79.65605 -13.694545 " transform="matrix(4.234122, 0, 0, -4.234122, 0, 0)"/>
<path fill="none" stroke-width="0.0557983" stroke-linecap="round" stroke-linejoin="round" stroke="rgb(0%, 0%, 0%)" stroke-opacity="1" stroke-miterlimit="10" d="M 74.655751 -14.694605 L 79.65605 -14.694605 " transform="matrix(4.234122, 0, 0, -4.234122, 0, 0)"/>
<path fill="none" stroke-width="0.0557983" stroke-linecap="round" stroke-linejoin="round" stroke="rgb(0%, 0%, 0%)" stroke-opacity="1" stroke-miterlimit="10" d="M 74.655751 -15.694665 L 79.65605 -15.694665 " transform="matrix(4.234122, 0, 0, -4.234122, 0, 0)"/>
<path fill="none" stroke-width="0.0557983" stroke-linecap="round" stroke-linejoin="round" stroke="rgb(0%, 0%, 0%)" stroke-opacity="1" stroke-miterlimit="10" d="M 74.655751 -16.694724 L 79.65605 -16.694724 " transform="matrix(4.234122, 0, 0, -4.234122, 0, 0)"/>
<path fill="none" stroke-width="0.0557983" stroke-linecap="round" stroke-linejoin="round" stroke="rgb(0%, 0%, 0%)" stroke-opacity="1" stroke-miterlimit="10" d="M 76.904963 -14.295134 C 76.904963 -13.962089 76.404933 -13.962089 76.404933 -14.295134 C 76.404933 -14.62818 76.904963 -14.62818 76.904963 -14.295134 " transform="matrix(4.234122, 0, 0, -4.234122, 0, 0)"/>
<path fill-rule="nonzero" fill="rgb(0%, 0%, 0%)" fill-opacity="1" d="M 325.625 60.527344 C 325.625 59.117188 323.507812 59.117188 323.507812 60.527344 C 323.507812 61.9375 325.625 61.9375 325.625 60.527344 "/>
<g fill="rgb(0%, 0%, 0%)" fill-opacity="1">
<use xlink:href="#glyph-4-0" x="323.039062" y="80.234375"/>
</g>
<path fill="none" stroke-width="0.0557983" stroke-linecap="round" stroke-linejoin="round" stroke="rgb(0%, 0%, 0%)" stroke-opacity="1" stroke-miterlimit="10" d="M 77.905023 -14.295134 C 77.905023 -13.962089 77.404993 -13.962089 77.404993 -14.295134 C 77.404993 -14.62818 77.905023 -14.62818 77.905023 -14.295134 " transform="matrix(4.234122, 0, 0, -4.234122, 0, 0)"/>
<path fill-rule="nonzero" fill="rgb(0%, 0%, 0%)" fill-opacity="1" d="M 329.859375 60.527344 C 329.859375 59.117188 327.742188 59.117188 327.742188 60.527344 C 327.742188 61.9375 329.859375 61.9375 329.859375 60.527344 "/>
<g fill="rgb(0%, 0%, 0%)" fill-opacity="1">
<use xlink:href="#glyph-4-2" x="327.269531" y="80.234375"/>
</g>
<path fill="none" stroke-width="0.0557983" stroke-linecap="round" stroke-linejoin="round" stroke="rgb(0%, 0%, 0%)" stroke-opacity="1" stroke-miterlimit="10" d="M 78.905083 -13.295075 C 78.905083 -12.962029 78.405053 -12.962029 78.405053 -13.295075 C 78.405053 -13.62812 78.905083 -13.62812 78.905083 -13.295075 " transform="matrix(4.234122, 0, 0, -4.234122, 0, 0)"/>
<path fill-rule="nonzero" fill="rgb(0%, 0%, 0%)" fill-opacity="1" d="M 334.09375 56.292969 C 334.09375 54.882812 331.976562 54.882812 331.976562 56.292969 C 331.976562 57.703125 334.09375 57.703125 334.09375 56.292969 "/>
<g fill="rgb(0%, 0%, 0%)" fill-opacity="1">
<use xlink:href="#glyph-4-1" x="331.503906" y="80.234375"/>
</g>
<path fill-rule="nonzero" fill="rgb(0%, 0%, 0%)" fill-opacity="1" d="M 337.273438 53.867188 C 337.335938 53.867188 337.390625 53.816406 337.390625 53.75 L 337.390625 53.277344 C 337.390625 53.210938 337.335938 53.160156 337.273438 53.160156 L 316.101562 53.160156 C 316.035156 53.160156 315.984375 53.210938 315.984375 53.277344 L 315.984375 53.75 C 315.984375 53.816406 316.035156 53.867188 316.101562 53.867188 Z M 337.273438 53.867188 "/>
<g fill="rgb(0%, 0%, 0%)" fill-opacity="1">
<use xlink:href="#glyph-5-1" x="314.824219" y="52.25"/>
</g>
<g fill="rgb(0%, 0%, 0%)" fill-opacity="1">
<use xlink:href="#glyph-5-0" x="318.886719" y="52.226562"/>
</g>
<g fill="rgb(0%, 0%, 0%)" fill-opacity="1">
<use xlink:href="#glyph-5-0" x="335.824219" y="52.226562"/>
</g>
<g fill="rgb(0%, 0%, 0%)" fill-opacity="1">
<use xlink:href="#glyph-0-0" x="321.992187" y="99.414062"/>
</g>
<g fill="rgb(0%, 0%, 0%)" fill-opacity="1">
<use xlink:href="#glyph-2-15" x="313.441406" y="121.503906"/>
<use xlink:href="#glyph-2-4" x="319.904398" y="121.503906"/>
<use xlink:href="#glyph-2-16" x="325.346918" y="121.503906"/>
<use xlink:href="#glyph-2-2" x="330.789438" y="121.503906"/>
</g>
<path fill-rule="nonzero" fill="rgb(0%, 0%, 0%)" fill-opacity="1" d="M 327.304688 98.65625 C 327.414062 98.65625 327.503906 98.566406 327.503906 98.457031 L 327.503906 84.796875 C 327.503906 84.683594 327.414062 84.597656 327.304688 84.597656 L 327.089844 84.597656 C 326.980469 84.597656 326.890625 84.683594 326.890625 84.796875 L 326.890625 98.457031 C 326.890625 98.566406 326.980469 98.65625 327.089844 98.65625 Z M 327.304688 98.65625 "/>
<path fill="none" stroke-width="0.0941176" stroke-linecap="butt" stroke-linejoin="round" stroke="rgb(0%, 0%, 0%)" stroke-opacity="1" stroke-miterlimit="10" d="M 42.974892 -19.97075 L 42.974892 -20.356382 L 39.911978 -19.988279 L 39.911978 -19.602647 Z M 42.974892 -19.97075 " transform="matrix(4.234122, 0, 0, -4.234122, 0, 0)"/>
<path fill-rule="nonzero" fill="rgb(0%, 0%, 0%)" fill-opacity="1" d="M 181.960938 84.558594 L 181.960938 86.191406 L 168.992188 84.632812 L 168.992188 83 Z M 181.960938 84.558594 "/>
<g fill="rgb(0%, 0%, 0%)" fill-opacity="1">
<use xlink:href="#glyph-0-0" x="341.964844" y="95.179688"/>
</g>
<g fill="rgb(0%, 0%, 0%)" fill-opacity="1">
<use xlink:href="#glyph-2-12" x="341.964844" y="121.503906"/>
<use xlink:href="#glyph-2-13" x="348.427836" y="121.503906"/>
<use xlink:href="#glyph-2-14" x="353.530198" y="121.503906"/>
</g>
<path fill-rule="nonzero" fill="rgb(0%, 0%, 0%)" fill-opacity="1" d="M 342.378906 109.246094 C 342.488281 109.246094 342.578125 109.15625 342.578125 109.046875 L 342.578125 96.136719 C 342.578125 96.027344 342.488281 95.9375 342.378906 95.9375 L 342.164062 95.9375 C 342.054688 95.9375 341.964844 96.027344 341.964844 96.136719 L 341.964844 109.046875 C 341.964844 109.15625 342.054688 109.246094 342.164062 109.246094 Z M 342.378906 109.246094 "/>
<g fill="rgb(0%, 0%, 0%)" fill-opacity="1">
<use xlink:href="#glyph-0-0" x="358.886719" y="97.296875"/>
</g>
<path fill-rule="nonzero" fill="rgb(0%, 0%, 0%)" fill-opacity="1" d="M 359.300781 110.75 C 359.410156 110.75 359.5 110.660156 359.5 110.550781 L 359.5 98.253906 C 359.5 98.144531 359.410156 98.054688 359.300781 98.054688 L 359.085938 98.054688 C 358.976562 98.054688 358.886719 98.144531 358.886719 98.253906 L 358.886719 110.550781 C 358.886719 110.660156 358.976562 110.75 359.085938 110.75 Z M 359.300781 110.75 "/>
<path fill-rule="nonzero" fill="rgb(0%, 0%, 0%)" fill-opacity="1" d="M 180.914062 121.503906 C 180.996094 121.503906 181.066406 121.433594 181.066406 121.351562 L 181.066406 121.277344 C 181.066406 121.191406 180.996094 121.125 180.914062 121.125 L 180.066406 121.125 C 179.984375 121.125 179.914062 121.191406 179.914062 121.277344 L 179.914062 121.351562 C 179.914062 121.433594 179.984375 121.503906 180.066406 121.503906 Z M 180.914062 121.503906 "/>
<g fill="rgb(0%, 0%, 0%)" fill-opacity="1">
<use xlink:href="#glyph-0-0" x="375.722656" y="99.414062"/>
</g>
<g fill="rgb(0%, 0%, 0%)" fill-opacity="1">
<use xlink:href="#glyph-2-17" x="359.519531" y="121.503906"/>
<use xlink:href="#glyph-2-5" x="365.302208" y="121.503906"/>
<use xlink:href="#glyph-2-13" x="369.894334" y="121.503906"/>
<use xlink:href="#glyph-2-18" x="375.166775" y="121.503906"/>
<use xlink:href="#glyph-2-19" x="381.459689" y="121.503906"/>
<use xlink:href="#glyph-2-15" x="386.902208" y="121.503906"/>
<use xlink:href="#glyph-2-14" x="393.365201" y="121.503906"/>
</g>
<path fill-rule="nonzero" fill="rgb(0%, 0%, 0%)" fill-opacity="1" d="M 381.039062 98.65625 C 381.148438 98.65625 381.238281 98.566406 381.238281 98.457031 L 381.238281 84.796875 C 381.238281 84.683594 381.148438 84.597656 381.039062 84.597656 L 380.824219 84.597656 C 380.714844 84.597656 380.625 84.683594 380.625 84.796875 L 380.625 98.457031 C 380.625 98.566406 380.714844 98.65625 380.824219 98.65625 Z M 381.039062 98.65625 "/>
<path fill="none" stroke-width="0.0892773" stroke-linecap="round" stroke-linejoin="round" stroke="rgb(0%, 0%, 0%)" stroke-opacity="1" stroke-miterlimit="10" d="M 0.601512 -1.154128 C 1.29528 -1.828523 2.746474 -1.997352 3.613685 -1.50378 C 2.761235 -1.864503 1.310964 -1.695673 0.601512 -1.154128 Z M 0.601512 -1.154128 " transform="matrix(4.234122, 0, 0, -4.234122, 163.890625, 97.296875)"/>
<path fill-rule="nonzero" fill="rgb(0%, 0%, 0%)" fill-opacity="1" d="M 166.4375 102.183594 C 169.375 105.039062 175.519531 105.753906 179.191406 103.664062 C 175.582031 105.191406 169.441406 104.476562 166.4375 102.183594 Z M 166.4375 102.183594 "/>
<g fill="rgb(0%, 0%, 0%)" fill-opacity="1">
<use xlink:href="#glyph-0-0" x="403.820312" y="101.53125"/>
</g>
<g fill="rgb(0%, 0%, 0%)" fill-opacity="1">
<use xlink:href="#glyph-2-8" x="399.351562" y="121.503906"/>
<use xlink:href="#glyph-2-1" x="408.195657" y="121.503906"/>
</g>
<path fill-rule="nonzero" fill="rgb(0%, 0%, 0%)" fill-opacity="1" d="M 409.136719 100.773438 C 409.246094 100.773438 409.335938 100.683594 409.335938 100.574219 L 409.335938 86.914062 C 409.335938 86.800781 409.246094 86.714844 409.136719 86.714844 L 408.921875 86.714844 C 408.8125 86.714844 408.722656 86.800781 408.722656 86.914062 L 408.722656 100.574219 C 408.722656 100.683594 408.8125 100.773438 408.921875 100.773438 Z M 409.136719 100.773438 "/>
<g fill="rgb(0%, 0%, 0%)" fill-opacity="1">
<use xlink:href="#glyph-3-4" x="430.792969" y="47.09375"/>
</g>
<path fill-rule="nonzero" fill="rgb(0%, 0%, 0%)" fill-opacity="1" d="M 446.046875 75.039062 C 446.113281 75.039062 446.164062 74.988281 446.164062 74.921875 L 446.164062 53.75 C 446.164062 53.6875 446.113281 53.632812 446.046875 53.632812 C 445.980469 53.632812 445.929688 53.6875 445.929688 53.75 L 445.929688 74.921875 C 445.929688 74.988281 445.980469 75.039062 446.046875 75.039062 Z M 446.046875 75.039062 "/>
<path fill-rule="nonzero" fill="rgb(0%, 0%, 0%)" fill-opacity="1" d="M 441.8125 75.039062 C 441.878906 75.039062 441.929688 74.988281 441.929688 74.921875 L 441.929688 53.75 C 441.929688 53.6875 441.878906 53.632812 441.8125 53.632812 C 441.746094 53.632812 441.695312 53.6875 441.695312 53.75 L 441.695312 74.921875 C 441.695312 74.988281 441.746094 75.039062 441.8125 75.039062 Z M 441.8125 75.039062 "/>
<path fill-rule="nonzero" fill="rgb(0%, 0%, 0%)" fill-opacity="1" d="M 437.578125 75.039062 C 437.644531 75.039062 437.695312 74.988281 437.695312 74.921875 L 437.695312 53.75 C 437.695312 53.6875 437.644531 53.632812 437.578125 53.632812 C 437.511719 53.632812 437.460938 53.6875 437.460938 53.75 L 437.460938 74.921875 C 437.460938 74.988281 437.511719 75.039062 437.578125 75.039062 Z M 437.578125 75.039062 "/>
<path fill-rule="nonzero" fill="rgb(0%, 0%, 0%)" fill-opacity="1" d="M 433.34375 75.039062 C 433.410156 75.039062 433.460938 74.988281 433.460938 74.921875 L 433.460938 53.75 C 433.460938 53.6875 433.410156 53.632812 433.34375 53.632812 C 433.277344 53.632812 433.226562 53.6875 433.226562 53.75 L 433.226562 74.921875 C 433.226562 74.988281 433.277344 75.039062 433.34375 75.039062 Z M 433.34375 75.039062 "/>
<path fill-rule="nonzero" fill="rgb(0%, 0%, 0%)" fill-opacity="1" d="M 429.109375 75.039062 C 429.175781 75.039062 429.226562 74.988281 429.226562 74.921875 L 429.226562 53.75 C 429.226562 53.6875 429.175781 53.632812 429.109375 53.632812 C 429.042969 53.632812 428.992188 53.6875 428.992188 53.75 L 428.992188 74.921875 C 428.992188 74.988281 429.042969 75.039062 429.109375 75.039062 Z M 429.109375 75.039062 "/>
<path fill-rule="nonzero" fill="rgb(0%, 0%, 0%)" fill-opacity="1" d="M 424.875 75.039062 C 424.941406 75.039062 424.992188 74.988281 424.992188 74.921875 L 424.992188 53.75 C 424.992188 53.6875 424.941406 53.632812 424.875 53.632812 C 424.808594 53.632812 424.757812 53.6875 424.757812 53.75 L 424.757812 74.921875 C 424.757812 74.988281 424.808594 75.039062 424.875 75.039062 Z M 424.875 75.039062 "/>
<path fill="none" stroke-width="0.0557983" stroke-linecap="round" stroke-linejoin="round" stroke="rgb(0%, 0%, 0%)" stroke-opacity="1" stroke-miterlimit="10" d="M 100.345478 -12.694485 L 105.345777 -12.694485 " transform="matrix(4.234122, 0, 0, -4.234122, 0, 0)"/>
<path fill="none" stroke-width="0.0557983" stroke-linecap="round" stroke-linejoin="round" stroke="rgb(0%, 0%, 0%)" stroke-opacity="1" stroke-miterlimit="10" d="M 100.345478 -13.694545 L 105.345777 -13.694545 " transform="matrix(4.234122, 0, 0, -4.234122, 0, 0)"/>
<path fill="none" stroke-width="0.0557983" stroke-linecap="round" stroke-linejoin="round" stroke="rgb(0%, 0%, 0%)" stroke-opacity="1" stroke-miterlimit="10" d="M 100.345478 -14.694605 L 105.345777 -14.694605 " transform="matrix(4.234122, 0, 0, -4.234122, 0, 0)"/>
<path fill="none" stroke-width="0.0557983" stroke-linecap="round" stroke-linejoin="round" stroke="rgb(0%, 0%, 0%)" stroke-opacity="1" stroke-miterlimit="10" d="M 100.345478 -15.694665 L 105.345777 -15.694665 " transform="matrix(4.234122, 0, 0, -4.234122, 0, 0)"/>
<path fill="none" stroke-width="0.0557983" stroke-linecap="round" stroke-linejoin="round" stroke="rgb(0%, 0%, 0%)" stroke-opacity="1" stroke-miterlimit="10" d="M 100.345478 -16.694724 L 105.345777 -16.694724 " transform="matrix(4.234122, 0, 0, -4.234122, 0, 0)"/>
<path fill="none" stroke-width="0.0557983" stroke-linecap="round" stroke-linejoin="round" stroke="rgb(0%, 0%, 0%)" stroke-opacity="1" stroke-miterlimit="10" d="M 103.595672 -14.295134 C 103.595672 -13.962089 103.095642 -13.962089 103.095642 -14.295134 C 103.095642 -14.62818 103.595672 -14.62818 103.595672 -14.295134 " transform="matrix(4.234122, 0, 0, -4.234122, 0, 0)"/>
<path fill-rule="nonzero" fill="rgb(0%, 0%, 0%)" fill-opacity="1" d="M 438.636719 60.527344 C 438.636719 59.117188 436.519531 59.117188 436.519531 60.527344 C 436.519531 61.9375 438.636719 61.9375 438.636719 60.527344 "/>
<g fill="rgb(0%, 0%, 0%)" fill-opacity="1">
<use xlink:href="#glyph-4-1" x="436.046875" y="80.234375"/>
</g>
<path fill="none" stroke-width="0.0557983" stroke-linecap="round" stroke-linejoin="round" stroke="rgb(0%, 0%, 0%)" stroke-opacity="1" stroke-miterlimit="10" d="M 104.595732 -15.295194 C 104.595732 -14.962148 104.095702 -14.962148 104.095702 -15.295194 C 104.095702 -15.62824 104.595732 -15.62824 104.595732 -15.295194 " transform="matrix(4.234122, 0, 0, -4.234122, 0, 0)"/>
<path fill-rule="nonzero" fill="rgb(0%, 0%, 0%)" fill-opacity="1" d="M 442.871094 64.761719 C 442.871094 63.351562 440.753906 63.351562 440.753906 64.761719 C 440.753906 66.171875 442.871094 66.171875 442.871094 64.761719 "/>
<g fill="rgb(0%, 0%, 0%)" fill-opacity="1">
<use xlink:href="#glyph-4-2" x="440.28125" y="80.234375"/>
</g>
<path fill="none" stroke-width="0.0557983" stroke-linecap="round" stroke-linejoin="round" stroke="rgb(0%, 0%, 0%)" stroke-opacity="1" stroke-miterlimit="10" d="M 105.595792 -14.295134 C 105.595792 -13.962089 105.095762 -13.962089 105.095762 -14.295134 C 105.095762 -14.62818 105.595792 -14.62818 105.595792 -14.295134 " transform="matrix(4.234122, 0, 0, -4.234122, 0, 0)"/>
<path fill-rule="nonzero" fill="rgb(0%, 0%, 0%)" fill-opacity="1" d="M 447.105469 60.527344 C 447.105469 59.117188 444.988281 59.117188 444.988281 60.527344 C 444.988281 61.9375 447.105469 61.9375 447.105469 60.527344 "/>
<g fill="rgb(0%, 0%, 0%)" fill-opacity="1">
<use xlink:href="#glyph-4-0" x="444.515625" y="80.234375"/>
</g>
<path fill-rule="nonzero" fill="rgb(0%, 0%, 0%)" fill-opacity="1" d="M 446.046875 53.867188 C 446.109375 53.867188 446.164062 53.816406 446.164062 53.75 L 446.164062 53.277344 C 446.164062 53.210938 446.109375 53.160156 446.046875 53.160156 L 424.875 53.160156 C 424.808594 53.160156 424.757812 53.210938 424.757812 53.277344 L 424.757812 53.75 C 424.757812 53.816406 424.808594 53.867188 424.875 53.867188 Z M 446.046875 53.867188 "/>
<g fill="rgb(0%, 0%, 0%)" fill-opacity="1">
<use xlink:href="#glyph-5-1" x="423.601562" y="52.25"/>
</g>
<g fill="rgb(0%, 0%, 0%)" fill-opacity="1">
<use xlink:href="#glyph-5-1" x="427.835938" y="52.25"/>
</g>
<g fill="rgb(0%, 0%, 0%)" fill-opacity="1">
<use xlink:href="#glyph-5-0" x="431.898437" y="52.226562"/>
</g>
<g fill="rgb(0%, 0%, 0%)" fill-opacity="1">
<use xlink:href="#glyph-0-0" x="430.792969" y="103.648438"/>
</g>
<g fill="rgb(0%, 0%, 0%)" fill-opacity="1">
<use xlink:href="#glyph-2-3" x="420.964844" y="121.503906"/>
<use xlink:href="#glyph-2-20" x="425.55697" y="121.503906"/>
<use xlink:href="#glyph-2-2" x="431.509726" y="121.503906"/>
<use xlink:href="#glyph-2-11" x="436.782167" y="121.503906"/>
<use xlink:href="#glyph-2-3" x="441.374293" y="121.503906"/>
</g>
<path fill-rule="nonzero" fill="rgb(0%, 0%, 0%)" fill-opacity="1" d="M 436.109375 102.886719 C 436.21875 102.886719 436.308594 102.796875 436.308594 102.6875 L 436.308594 89.027344 C 436.308594 88.914062 436.21875 88.828125 436.109375 88.828125 L 435.894531 88.828125 C 435.785156 88.828125 435.695312 88.914062 435.695312 89.027344 L 435.695312 102.6875 C 435.695312 102.796875 435.785156 102.886719 435.894531 102.886719 Z M 436.109375 102.886719 "/>
<g fill="rgb(0%, 0%, 0%)" fill-opacity="1">
<use xlink:href="#glyph-0-0" x="456.339844" y="99.414062"/>
</g>
<g fill="rgb(0%, 0%, 0%)" fill-opacity="1">
<use xlink:href="#glyph-2-21" x="448.042969" y="121.503906"/>
<use xlink:href="#glyph-2-7" x="456.376827" y="121.503906"/>
<use xlink:href="#glyph-2-14" x="459.608323" y="121.503906"/>
<use xlink:href="#glyph-2-15" x="463.690213" y="121.503906"/>
</g>
<path fill-rule="nonzero" fill="rgb(0%, 0%, 0%)" fill-opacity="1" d="M 461.65625 98.65625 C 461.765625 98.65625 461.855469 98.566406 461.855469 98.457031 L 461.855469 84.796875 C 461.855469 84.683594 461.765625 84.597656 461.65625 84.597656 L 461.441406 84.597656 C 461.332031 84.597656 461.242188 84.683594 461.242188 84.796875 L 461.242188 98.457031 C 461.242188 98.566406 461.332031 98.65625 461.441406 98.65625 Z M 461.65625 98.65625 "/>
<g fill="rgb(0%, 0%, 0%)" fill-opacity="1">
<use xlink:href="#glyph-0-0" x="477.972656" y="93.0625"/>
</g>
<g fill="rgb(0%, 0%, 0%)" fill-opacity="1">
<use xlink:href="#glyph-2-8" x="472.058594" y="121.503906"/>
<use xlink:href="#glyph-2-2" x="481.412924" y="121.503906"/>
<use xlink:href="#glyph-2-22" x="486.345208" y="121.503906"/>
</g>
<path fill-rule="nonzero" fill="rgb(0%, 0%, 0%)" fill-opacity="1" d="M 478.386719 107.882812 C 478.496094 107.882812 478.585938 107.792969 478.585938 107.683594 L 478.585938 94.023438 C 478.585938 93.910156 478.496094 93.824219 478.386719 93.824219 L 478.171875 93.824219 C 478.0625 93.824219 477.972656 93.910156 477.972656 94.023438 L 477.972656 107.683594 C 477.972656 107.792969 478.0625 107.882812 478.171875 107.882812 Z M 478.386719 107.882812 "/>
</svg>
