<?xml version="1.0" encoding="UTF-8"?>
<svg xmlns="http://www.w3.org/2000/svg" xmlns:xlink="http://www.w3.org/1999/xlink" width="216" height="38" viewBox="0 0 216 38">
<defs>
<g>
<g id="glyph-0-0">
<path d="M 0 0.921875 C 0 1.9375 0.78125 2.703125 2.109375 2.703125 C 4.296875 2.703125 6.5 0.8125 6.5 -0.921875 C 6.5 -2.015625 5.578125 -2.703125 4.328125 -2.703125 C 2.3125 -2.703125 0 -0.890625 0 0.921875 Z M 0 0.921875 "/>
</g>
<g id="glyph-0-1">
<path d="M 5.296875 12.65625 L 5.3125 11.796875 L 5.234375 11.796875 C 4.265625 11.796875 3.421875 11.28125 2.90625 10.5 C 3.109375 10.578125 3.3125 10.625 3.53125 10.625 C 4.5625 10.625 5.421875 9.765625 5.421875 8.71875 C 5.421875 7.609375 4.609375 6.671875 3.53125 6.671875 C 2.34375 6.671875 1.296875 7.5625 1.296875 8.71875 C 1.296875 10.890625 3.03125 12.65625 5.171875 12.65625 Z M 7.984375 -3.015625 C 10.21875 -2.765625 11.421875 -0.96875 11.421875 0.796875 C 11.421875 2.171875 10.703125 3.5 9.1875 4.046875 C 8.9375 1.8125 8.359375 -1.234375 7.984375 -3.015625 Z M 1.46875 -0.5625 C 1.46875 -3.75 3.578125 -6.171875 5.71875 -8.59375 C 6.0625 -7.4375 6.359375 -6.25 6.640625 -5.09375 C 4.609375 -4.640625 3.453125 -2.921875 3.453125 -1.171875 C 3.453125 1.3125 5.65625 2.546875 5.953125 2.546875 C 6.203125 2.546875 6.390625 2.328125 6.390625 2.109375 C 6.390625 2.015625 6.359375 1.90625 6.25 1.8125 C 5.140625 1.171875 4.640625 0.234375 4.640625 -0.640625 C 4.640625 -1.796875 5.53125 -2.84375 7.109375 -3.015625 C 7.796875 0.203125 8.234375 2.96875 8.359375 4.25 C 7.890625 4.328125 7.4375 4.359375 7.015625 4.359375 C 3.421875 4.359375 1.46875 1.671875 1.46875 -0.5625 Z M 7.109375 -23.78125 C 6.8125 -23.78125 3.9375 -21.671875 3.9375 -17.90625 C 3.9375 -14.40625 4.40625 -12.921875 4.984375 -11.015625 C 2.65625 -8.328125 0.046875 -5.75 0.046875 -2.234375 C 0.046875 0.890625 2.09375 5.21875 6.859375 5.21875 C 7.34375 5.21875 7.890625 5.15625 8.453125 5.0625 C 8.5 5.671875 8.53125 6.28125 8.53125 6.890625 C 8.53125 7.25 8.5 7.625 8.484375 7.984375 C 8.359375 9.953125 7.171875 11.75 5.3125 11.796875 L 5.296875 12.65625 C 7.5625 12.59375 9.1875 10.484375 9.328125 8.109375 C 9.34375 7.734375 9.359375 7.328125 9.359375 6.953125 C 9.359375 6.25 9.328125 5.5625 9.265625 4.859375 C 11.375 4.203125 12.84375 2.234375 12.84375 -0.015625 C 12.84375 -2.671875 10.859375 -5.234375 7.765625 -5.234375 C 7.6875 -5.234375 7.59375 -5.21875 7.484375 -5.21875 C 7.15625 -6.59375 6.796875 -7.984375 6.375 -9.34375 C 8.25 -11.515625 9.953125 -13.75 9.953125 -16.59375 C 9.953125 -19.6875 7.671875 -23.78125 7.109375 -23.78125 Z M 4.921875 -15.578125 C 4.921875 -18.890625 7.15625 -20.34375 8.125 -20.8125 C 8.421875 -19.921875 8.546875 -19.078125 8.546875 -18.28125 C 8.546875 -15.8125 7.25 -13.78125 5.625 -11.796875 C 5.15625 -13.28125 4.921875 -14.484375 4.921875 -15.578125 Z M 4.921875 -15.578125 "/>
</g>
<g id="glyph-0-2">
<path d="M 8.625 1.765625 C 8.625 1.609375 8.484375 1.53125 8.359375 1.53125 C 8.265625 1.53125 8.171875 1.59375 8.125 1.734375 C 7.75 3.34375 6.578125 4.734375 4.984375 4.734375 C 2.875 4.734375 2.734375 3.265625 2.734375 1.015625 L 2.734375 -1.015625 C 2.734375 -3.265625 2.875 -4.71875 4.984375 -4.71875 C 5.9375 -4.71875 6.8125 -4.28125 7.375 -3.546875 C 7.265625 -3.5625 7.171875 -3.5625 7.09375 -3.5625 C 6.203125 -3.5625 5.65625 -2.78125 5.65625 -2.03125 C 5.65625 -1.03125 6.53125 -0.53125 7.15625 -0.53125 C 7.890625 -0.53125 8.484375 -1.171875 8.484375 -1.96875 C 8.484375 -3.109375 7.296875 -5.21875 4.984375 -5.21875 C 0.359375 -5.21875 0 -1.234375 0 0 C 0 4.859375 3.8125 5.234375 4.984375 5.234375 C 7.625 5.234375 8.625 2.21875 8.625 1.765625 Z M 8.625 1.765625 "/>
</g>
<g id="glyph-0-3">
<path d="M 1.4375 2.109375 C 0.953125 2.109375 0.625 1.734375 0.625 1.296875 C 0.625 1.109375 0.671875 0.921875 0.8125 0.734375 C 1.359375 0.078125 4.625 -2.109375 5.421875 -2.109375 C 5.890625 -2.109375 6.25 -1.734375 6.25 -1.296875 C 6.25 -1.109375 6.171875 -0.921875 6.03125 -0.734375 C 5.5 -0.078125 2.234375 2.109375 1.4375 2.109375 Z M 0 1.328125 C 0 2.515625 0.890625 2.703125 1.71875 2.703125 C 5.9375 2.703125 6.859375 0.078125 6.859375 -1.328125 C 6.859375 -2.515625 5.953125 -2.703125 5.140625 -2.703125 C 0.921875 -2.703125 0 -0.078125 0 1.328125 Z M 0 1.328125 "/>
</g>
</g>
</defs>
<path fill-rule="nonzero" fill="rgb(0%, 0%, 0%)" fill-opacity="1" d="M 101.925781 29.769531 L 101.925781 9.84375 L 102.871094 9.84375 L 102.871094 29.769531 Z M 101.925781 29.769531 "/>
<path fill="none" stroke-width="0.1" stroke-linecap="round" stroke-linejoin="miter" stroke="rgb(0%, 0%, 0%)" stroke-opacity="1" stroke-miterlimit="10" d="M 8.585983 -5.776268 L 51.665679 -5.776268 " transform="matrix(4.98132, 0, 0, -4.98132, -42, 1)"/>
<path fill="none" stroke-width="0.1" stroke-linecap="round" stroke-linejoin="miter" stroke="rgb(0%, 0%, 0%)" stroke-opacity="1" stroke-miterlimit="10" d="M 8.585983 -4.775654 L 51.665679 -4.775654 " transform="matrix(4.98132, 0, 0, -4.98132, -42, 1)"/>
<path fill="none" stroke-width="0.1" stroke-linecap="round" stroke-linejoin="miter" stroke="rgb(0%, 0%, 0%)" stroke-opacity="1" stroke-miterlimit="10" d="M 8.585983 -3.775825 L 51.665679 -3.775825 " transform="matrix(4.98132, 0, 0, -4.98132, -42, 1)"/>
<path fill="none" stroke-width="0.1" stroke-linecap="round" stroke-linejoin="miter" stroke="rgb(0%, 0%, 0%)" stroke-opacity="1" stroke-miterlimit="10" d="M 8.585983 -2.775996 L 51.665679 -2.775996 " transform="matrix(4.98132, 0, 0, -4.98132, -42, 1)"/>
<path fill="none" stroke-width="0.1" stroke-linecap="round" stroke-linejoin="miter" stroke="rgb(0%, 0%, 0%)" stroke-opacity="1" stroke-miterlimit="10" d="M 8.585983 -1.776167 L 51.665679 -1.776167 " transform="matrix(4.98132, 0, 0, -4.98132, -42, 1)"/>
<path fill-rule="nonzero" fill="rgb(0%, 0%, 0%)" fill-opacity="1" d="M 214.664062 29.769531 L 214.664062 9.84375 L 215.609375 9.84375 L 215.609375 29.769531 Z M 214.664062 29.769531 "/>
<path fill-rule="nonzero" fill="rgb(0%, 0%, 0%)" fill-opacity="1" d="M 158.238281 29.769531 L 158.238281 9.84375 L 159.183594 9.84375 L 159.183594 29.769531 Z M 158.238281 29.769531 "/>
<g fill="rgb(0%, 0%, 0%)" fill-opacity="1">
<use xlink:href="#glyph-0-0" x="129.507812" y="7.355469"/>
</g>
<path fill="none" stroke-width="0.08" stroke-linecap="round" stroke-linejoin="round" stroke="rgb(0%, 0%, 0%)" stroke-opacity="1" stroke-miterlimit="10" d="M 0.852403 2.750118 C 1.449164 3.411182 2.893623 3.411182 3.491168 2.750118 C 2.893623 3.291202 1.449164 3.291202 0.852403 2.750118 Z M 0.852403 2.750118 " transform="matrix(4.98132, 0, 0, -4.98132, 179.566406, 19.808594)"/>
<path fill-rule="nonzero" fill="rgb(0%, 0%, 0%)" fill-opacity="1" d="M 183.8125 6.109375 C 186.785156 2.816406 193.980469 2.816406 196.957031 6.109375 C 193.980469 3.414062 186.785156 3.414062 183.8125 6.109375 Z M 183.8125 6.109375 "/>
<g fill="rgb(0%, 0%, 0%)" fill-opacity="1">
<use xlink:href="#glyph-0-0" x="43.285156" y="17.320312"/>
</g>
<g fill="rgb(0%, 0%, 0%)" fill-opacity="1">
<use xlink:href="#glyph-0-1" x="4.503906" y="24.789062"/>
</g>
<g fill="rgb(0%, 0%, 0%)" fill-opacity="1">
<use xlink:href="#glyph-0-2" x="24.851562" y="19.808594"/>
</g>
<path fill-rule="nonzero" fill="rgb(0%, 0%, 0%)" fill-opacity="1" d="M 43.734375 34.753906 C 43.84375 34.753906 43.933594 34.664062 43.933594 34.554688 L 43.933594 18.445312 C 43.933594 18.335938 43.84375 18.246094 43.734375 18.246094 L 43.484375 18.246094 C 43.375 18.246094 43.285156 18.335938 43.285156 18.445312 L 43.285156 34.554688 C 43.285156 34.664062 43.375 34.753906 43.484375 34.753906 Z M 43.734375 34.753906 "/>
<path fill="none" stroke-width="0.08" stroke-linecap="round" stroke-linejoin="round" stroke="rgb(0%, 0%, 0%)" stroke-opacity="1" stroke-miterlimit="10" d="M 0.616365 2.544663 C 1.827923 3.819739 5.250083 4.102828 6.655333 3.04497 C 5.260277 3.982849 1.838117 3.69976 0.616365 2.544663 Z M 0.616365 2.544663 " transform="matrix(4.98132, 0, 0, -4.98132, 164.609375, 19.808594)"/>
<path fill-rule="nonzero" fill="rgb(0%, 0%, 0%)" fill-opacity="1" d="M 167.679688 7.132812 C 173.714844 0.78125 190.761719 -0.628906 197.761719 4.640625 C 190.8125 -0.03125 173.765625 1.378906 167.679688 7.132812 Z M 167.679688 7.132812 "/>
<g fill="rgb(0%, 0%, 0%)" fill-opacity="1">
<use xlink:href="#glyph-0-0" x="58.238281" y="14.828125"/>
</g>
<path fill-rule="nonzero" fill="rgb(0%, 0%, 0%)" fill-opacity="1" d="M 58.6875 32.261719 C 58.796875 32.261719 58.886719 32.171875 58.886719 32.0625 L 58.886719 15.953125 C 58.886719 15.84375 58.796875 15.753906 58.6875 15.753906 L 58.4375 15.753906 C 58.328125 15.753906 58.238281 15.84375 58.238281 15.953125 L 58.238281 32.0625 C 58.238281 32.171875 58.328125 32.261719 58.4375 32.261719 Z M 58.6875 32.261719 "/>
<g fill="rgb(0%, 0%, 0%)" fill-opacity="1">
<use xlink:href="#glyph-0-0" x="73.195312" y="12.335938"/>
</g>
<path fill-rule="nonzero" fill="rgb(0%, 0%, 0%)" fill-opacity="1" d="M 73.644531 29.769531 C 73.753906 29.769531 73.84375 29.679688 73.84375 29.570312 L 73.84375 13.460938 C 73.84375 13.351562 73.753906 13.261719 73.644531 13.261719 L 73.394531 13.261719 C 73.285156 13.261719 73.195312 13.351562 73.195312 13.460938 L 73.195312 29.570312 C 73.195312 29.679688 73.285156 29.769531 73.394531 29.769531 Z M 73.644531 29.769531 "/>
<path fill="none" stroke-width="0.08" stroke-linecap="round" stroke-linejoin="round" stroke="rgb(0%, 0%, 0%)" stroke-opacity="1" stroke-miterlimit="10" d="M 1.57777 3.000271 C 2.151789 3.644083 3.501362 3.644083 4.075382 3.000271 C 3.501362 3.524104 2.151789 3.524104 1.57777 3.000271 Z M 1.57777 3.000271 " transform="matrix(4.98132, 0, 0, -4.98132, 108.210938, 19.808594)"/>
<path fill-rule="nonzero" fill="rgb(0%, 0%, 0%)" fill-opacity="1" d="M 116.070312 4.863281 C 118.929688 1.65625 125.652344 1.65625 128.511719 4.863281 C 125.652344 2.253906 118.929688 2.253906 116.070312 4.863281 Z M 116.070312 4.863281 "/>
<g fill="rgb(0%, 0%, 0%)" fill-opacity="1">
<use xlink:href="#glyph-0-0" x="88.148438" y="9.847656"/>
</g>
<path fill-rule="nonzero" fill="rgb(0%, 0%, 0%)" fill-opacity="1" d="M 88.597656 27.28125 C 88.707031 27.28125 88.796875 27.191406 88.796875 27.082031 L 88.796875 10.972656 C 88.796875 10.863281 88.707031 10.773438 88.597656 10.773438 L 88.347656 10.773438 C 88.238281 10.773438 88.148438 10.863281 88.148438 10.972656 L 88.148438 27.082031 C 88.148438 27.191406 88.238281 27.28125 88.347656 27.28125 Z M 88.597656 27.28125 "/>
<path fill="none" stroke-width="0.08" stroke-linecap="round" stroke-linejoin="round" stroke="rgb(0%, 0%, 0%)" stroke-opacity="1" stroke-miterlimit="10" d="M 0.580293 1.544834 C 2.021615 3.216705 7.681824 4.159289 9.587381 3.04497 C 7.702213 4.040878 2.042004 3.098294 0.580293 1.544834 Z M 0.580293 1.544834 " transform="matrix(4.98132, 0, 0, -4.98132, 43.285156, 19.808594)"/>
<path fill-rule="nonzero" fill="rgb(0%, 0%, 0%)" fill-opacity="1" d="M 46.175781 12.113281 C 53.355469 3.785156 81.550781 -0.910156 91.042969 4.640625 C 81.652344 -0.320312 53.457031 4.375 46.175781 12.113281 Z M 46.175781 12.113281 "/>
<g fill="rgb(0%, 0%, 0%)" fill-opacity="1">
<use xlink:href="#glyph-0-3" x="108.210938" y="7.355469"/>
</g>
<path fill-rule="nonzero" fill="rgb(0%, 0%, 0%)" fill-opacity="1" d="M 108.65625 24.789062 C 108.765625 24.789062 108.855469 24.699219 108.855469 24.589844 L 108.855469 8.84375 C 108.855469 8.734375 108.765625 8.644531 108.65625 8.644531 L 108.40625 8.644531 C 108.296875 8.644531 108.207031 8.734375 108.207031 8.84375 L 108.207031 24.589844 C 108.207031 24.699219 108.296875 24.789062 108.40625 24.789062 Z M 108.65625 24.789062 "/>
<path fill-rule="nonzero" fill="rgb(0%, 0%, 0%)" fill-opacity="1" d="M 129.957031 24.789062 C 130.066406 24.789062 130.15625 24.699219 130.15625 24.589844 L 130.15625 8.480469 C 130.15625 8.371094 130.066406 8.28125 129.957031 8.28125 L 129.707031 8.28125 C 129.597656 8.28125 129.507812 8.371094 129.507812 8.480469 L 129.507812 24.589844 C 129.507812 24.699219 129.597656 24.789062 129.707031 24.789062 Z M 129.957031 24.789062 "/>
<g fill="rgb(0%, 0%, 0%)" fill-opacity="1">
<use xlink:href="#glyph-0-0" x="144.460938" y="9.847656"/>
</g>
<path fill-rule="nonzero" fill="rgb(0%, 0%, 0%)" fill-opacity="1" d="M 144.910156 27.28125 C 145.019531 27.28125 145.109375 27.191406 145.109375 27.082031 L 145.109375 10.972656 C 145.109375 10.863281 145.019531 10.773438 144.910156 10.773438 L 144.660156 10.773438 C 144.550781 10.773438 144.460938 10.863281 144.460938 10.972656 L 144.460938 27.082031 C 144.460938 27.191406 144.550781 27.28125 144.660156 27.28125 Z M 144.910156 27.28125 "/>
<g fill="rgb(0%, 0%, 0%)" fill-opacity="1">
<use xlink:href="#glyph-0-0" x="164.609375" y="12.335938"/>
</g>
<path fill-rule="nonzero" fill="rgb(0%, 0%, 0%)" fill-opacity="1" d="M 165.058594 29.769531 C 165.167969 29.769531 165.257812 29.679688 165.257812 29.570312 L 165.257812 13.460938 C 165.257812 13.351562 165.167969 13.261719 165.058594 13.261719 L 164.808594 13.261719 C 164.699219 13.261719 164.609375 13.351562 164.609375 13.460938 L 164.609375 29.570312 C 164.609375 29.679688 164.699219 29.769531 164.808594 29.769531 Z M 165.058594 29.769531 "/>
<g fill="rgb(0%, 0%, 0%)" fill-opacity="1">
<use xlink:href="#glyph-0-0" x="179.566406" y="9.847656"/>
</g>
<path fill-rule="nonzero" fill="rgb(0%, 0%, 0%)" fill-opacity="1" d="M 180.015625 27.28125 C 180.125 27.28125 180.214844 27.191406 180.214844 27.082031 L 180.214844 10.972656 C 180.214844 10.863281 180.125 10.773438 180.015625 10.773438 L 179.765625 10.773438 C 179.65625 10.773438 179.566406 10.863281 179.566406 10.972656 L 179.566406 27.082031 C 179.566406 27.191406 179.65625 27.28125 179.765625 27.28125 Z M 180.015625 27.28125 "/>
<g fill="rgb(0%, 0%, 0%)" fill-opacity="1">
<use xlink:href="#glyph-0-3" x="194.519531" y="9.847656"/>
</g>
<path fill-rule="nonzero" fill="rgb(0%, 0%, 0%)" fill-opacity="1" d="M 194.96875 27.28125 C 195.078125 27.28125 195.167969 27.191406 195.167969 27.082031 L 195.167969 11.335938 C 195.167969 11.226562 195.078125 11.136719 194.96875 11.136719 L 194.71875 11.136719 C 194.609375 11.136719 194.519531 11.226562 194.519531 11.335938 L 194.519531 27.082031 C 194.519531 27.191406 194.609375 27.28125 194.71875 27.28125 Z M 194.96875 27.28125 "/>
</svg>
